<?xml version="1.0" standalone="no"?><!DOCTYPE svg PUBLIC "-//W3C//DTD SVG 1.1//EN" "http://www.w3.org/Graphics/SVG/1.1/DTD/svg11.dtd"><svg xmlns:xlink="http://www.w3.org/1999/xlink" version="1.1" xmlns="http://www.w3.org/2000/svg" width="600" height="400"><desc>Created with Highstock 1.3.7</desc><defs><clipPath id="highcharts-1"><rect fill="none" x="0" y="0" width="501" height="375"></rect></clipPath></defs><rect rx="5" ry="5" fill="#FFFFFF" x="0" y="0" width="600" height="400"></rect><g class="highcharts-grid" zIndex="1"><path fill="none" d="M 260.5 197.5 L 321.4901720331862 50.25669950601369" stroke="#C0C0C0" stroke-width="1" zIndex="1" opacity="1"></path><path fill="none" d="M 260.5 197.5 L 373.195143251606 84.804856748394" stroke="#C0C0C0" stroke-width="1" zIndex="1" opacity="1"></path><path fill="none" d="M 260.5 197.5 L 407.74330049398634 136.50982796681382" stroke="#C0C0C0" stroke-width="1" zIndex="1" opacity="1"></path><path fill="none" d="M 260.5 197.5 L 419.875 197.5" stroke="#C0C0C0" stroke-width="1" zIndex="1" opacity="1"></path><path fill="none" d="M 260.5 197.5 L 407.74330049398634 258.4901720331862" stroke="#C0C0C0" stroke-width="1" zIndex="1" opacity="1"></path><path fill="none" d="M 260.5 197.5 L 373.195143251606 310.195143251606" stroke="#C0C0C0" stroke-width="1" zIndex="1" opacity="1"></path><path fill="none" d="M 260.5 197.5 L 321.4901720331862 344.74330049398634" stroke="#C0C0C0" stroke-width="1" zIndex="1" opacity="1"></path><path fill="none" d="M 260.5 197.5 L 260.5 356.875" stroke="#C0C0C0" stroke-width="1" zIndex="1" opacity="1"></path><path fill="none" d="M 260.5 197.5 L 199.50982796681382 344.74330049398634" stroke="#C0C0C0" stroke-width="1" zIndex="1" opacity="1"></path><path fill="none" d="M 260.5 197.5 L 147.804856748394 310.195143251606" stroke="#C0C0C0" stroke-width="1" zIndex="1" opacity="1"></path><path fill="none" d="M 260.5 197.5 L 113.25669950601372 258.49017203318624" stroke="#C0C0C0" stroke-width="1" zIndex="1" opacity="1"></path><path fill="none" d="M 260.5 197.5 L 101.125 197.50000000000003" stroke="#C0C0C0" stroke-width="1" zIndex="1" opacity="1"></path><path fill="none" d="M 260.5 197.5 L 113.25669950601369 136.50982796681376" stroke="#C0C0C0" stroke-width="1" zIndex="1" opacity="1"></path><path fill="none" d="M 260.5 197.5 L 147.80485674839395 84.804856748394" stroke="#C0C0C0" stroke-width="1" zIndex="1" opacity="1"></path><path fill="none" d="M 260.5 197.5 L 199.50982796681373 50.25669950601372" stroke="#C0C0C0" stroke-width="1" zIndex="1" opacity="1"></path><path fill="none" d="M 260.5 197.5 L 260.49999999999994 38.125" stroke="#C0C0C0" stroke-width="1" zIndex="1" opacity="1"></path><path fill="none" d="M 260.5 197.5 L 260.5 38.125" stroke="#C0C0C0" stroke-width="1" zIndex="1" opacity="1"></path></g><g class="highcharts-grid" zIndex="1"><path fill="none" d="M 260.5 106.41946337490891 A 91.08053662509109 91.08053662509109 0 1 1 260.40891947855494 106.41950891517344 M 260.5 197.5 A 0 0 0 1 0 260.5 197.5 " stroke="#C0C0C0" stroke-width="1" zIndex="1" opacity="1"></path><path fill="none" stroke="#C0C0C0" stroke-width="1" zIndex="1"></path></g><g class="highcharts-axis" zIndex="2"><path fill="none" d="M 260.5 38.125 A 159.375 159.375 0 1 1 260.3406250265624 38.125079687493354 M 260.5 197.5 A 0 0 0 1 0 260.5 197.5 " stroke="#C0D0E0" stroke-width="1" zIndex="7" visibility="visible"></path></g><g class="highcharts-axis" zIndex="2"></g><g class="highcharts-series-group" zIndex="3"><g class="highcharts-series highcharts-tracker" visibility="visible" zIndex="0.1" transform="translate(10,10) scale(1 1)" style="" clip-path="url(#highcharts-1)"><path fill="#7f0000" d="M 226.75548298496497 37.58301973109516 A 151.78571428571428 151.78571428571428 0 0 1 274.0945881874948 37.55935017652146 L 274.0945881874948 37.55935017652146 A 151.78571428571428 151.78571428571428 0 0 0 226.75548298496497 37.58301973109516 Z" stroke="#FFFFFF" stroke-width="1" r="0"></path><path fill="#7f0000" d="M 268.2115200675254 113.72620953478473 A 75.87008700870088 75.87008700870088 0 0 1 290.07730187324125 122.77050688332113 L 290.07730187324125 122.77050688332113 A 75.87008700870088 75.87008700870088 0 0 0 268.2115200675254 113.72620953478473 Z" stroke="#FFFFFF" stroke-width="1" r="0"></path><path fill="#7f0000" d="M 278.3921498197379 149.10974926503948 A 47.45295958167246 47.45295958167246 0 0 1 288.8623393946657 159.56947388199927 L 288.8623393946657 159.56947388199927 A 47.45295958167246 47.45295958167246 0 0 0 278.3921498197379 149.10974926503948 Z" stroke="#FFFFFF" stroke-width="1" r="0"></path><path fill="#7f0000" d="M 307.15218485189916 152.78349647290707 A 66.44325146800395 66.44325146800395 0 0 1 315.09187597076937 171.92453133234326 L 315.09187597076937 171.92453133234326 A 66.44325146800395 66.44325146800395 0 0 0 307.15218485189916 152.78349647290707 Z" stroke="#FFFFFF" stroke-width="1" r="0"></path><path fill="#7f0000" d="M 306.7244900498443 178.59491561092295 A 56.92533539068194 56.92533539068194 0 0 1 306.73336702050653 196.34885545585612 L 306.73336702050653 196.34885545585612 A 56.92533539068194 56.92533539068194 0 0 0 306.7244900498443 178.59491561092295 Z" stroke="#FFFFFF" stroke-width="1" r="0"></path><path fill="#7f0000" d="M 268.92130662276685 191.92256443462819 A 18.944751618018955 18.944751618018955 0 0 1 266.6629466605873 197.38244752657164 L 266.6629466605873 197.38244752657164 A 18.944751618018955 18.944751618018955 0 0 0 268.92130662276685 191.92256443462819 Z" stroke="#FFFFFF" stroke-width="1" r="0"></path><path fill="#7f0000" d="M 258.1633130065948 193.06772280470776 A 9.472375809009463 9.472375809009463 0 0 1 256.07538333257594 195.15774145306185 L 256.07538333257594 195.15774145306185 A 9.472375809009463 9.472375809009463 0 0 0 258.1633130065948 193.06772280470776 Z" stroke="#FFFFFF" stroke-width="1" r="0"></path><path fill="#7f0000" d="M 0 0" stroke="#FFFFFF" stroke-width="1" r="0"></path><path fill="#7f0000" d="M 251.9818060423424 196.85575514429408 A 9.472375809009463 9.472375809009463 0 0 1 249.02755045214553 196.8572322722123 L 249.02755045214553 196.8572322722123 A 9.472375809009463 9.472375809009463 0 0 0 251.9818060423424 196.85575514429408 Z" stroke="#FFFFFF" stroke-width="1" r="0"></path><path fill="#7f0000" d="M 0 0" stroke="#FFFFFF" stroke-width="1" r="0"></path><path fill="#7f0000" d="M 0 0" stroke="#FFFFFF" stroke-width="1" r="0"></path><path fill="#7f0000" d="M 0 0" stroke="#FFFFFF" stroke-width="1" r="0"></path><path fill="#7f0000" d="M 0 0" stroke="#FFFFFF" stroke-width="1" r="0"></path><path fill="#7f0000" d="M 241.2893466886166 185.2887177826859 A 9.472375809009463 9.472375809009463 0 0 1 242.41852666970638 182.55877623671418 L 242.41852666970638 182.55877623671418 A 9.472375809009463 9.472375809009463 0 0 0 241.2893466886166 185.2887177826859 Z" stroke="#FFFFFF" stroke-width="1" r="0"></path><path fill="#7f0000" d="M 0 0" stroke="#FFFFFF" stroke-width="1" r="0"></path><path fill="#7f0000" d="M 245.55069723534248 179.42347193338244 A 9.472375809009463 9.472375809009463 0 0 1 248.27950823655064 178.29156257579163 L 248.27950823655064 178.29156257579163 A 9.472375809009463 9.472375809009463 0 0 0 245.55069723534248 179.42347193338244 Z" stroke="#FFFFFF" stroke-width="1" r="0"></path></g><g class="highcharts-markers" visibility="visible" zIndex="0.1" transform="translate(10,10) scale(1 1)"></g><g class="highcharts-series highcharts-tracker" visibility="visible" zIndex="0.1" transform="translate(10,10) scale(1 1)" style="" clip-path="url(#highcharts-1)"><path fill="#ff0000" d="M 226.75548298496497 37.58301973109516 A 151.78571428571428 151.78571428571428 0 0 1 274.0945881874948 37.55935017652146 L 274.0945881874948 37.55935017652146 A 151.78571428571428 151.78571428571428 0 0 0 226.75548298496497 37.58301973109516 Z" stroke="#FFFFFF" stroke-width="1" r="0"></path><path fill="#ff0000" d="M 268.2115200675254 113.72620953478473 A 75.87008700870088 75.87008700870088 0 0 1 290.07730187324125 122.77050688332113 L 290.07730187324125 122.77050688332113 A 75.87008700870088 75.87008700870088 0 0 0 268.2115200675254 113.72620953478473 Z" stroke="#FFFFFF" stroke-width="1" r="0"></path><path fill="#ff0000" d="M 278.3921498197379 149.10974926503948 A 47.45295958167246 47.45295958167246 0 0 1 288.8623393946657 159.56947388199927 L 288.8623393946657 159.56947388199927 A 47.45295958167246 47.45295958167246 0 0 0 278.3921498197379 149.10974926503948 Z" stroke="#FFFFFF" stroke-width="1" r="0"></path><path fill="#ff0000" d="M 307.15218485189916 152.78349647290707 A 66.44325146800395 66.44325146800395 0 0 1 315.09187597076937 171.92453133234326 L 315.09187597076937 171.92453133234326 A 66.44325146800395 66.44325146800395 0 0 0 307.15218485189916 152.78349647290707 Z" stroke="#FFFFFF" stroke-width="1" r="0"></path><path fill="#ff0000" d="M 306.7244900498443 178.59491561092295 A 56.92533539068194 56.92533539068194 0 0 1 306.73336702050653 196.34885545585612 L 306.73336702050653 196.34885545585612 A 56.92533539068194 56.92533539068194 0 0 0 306.7244900498443 178.59491561092295 Z" stroke="#FFFFFF" stroke-width="1" r="0"></path><path fill="#ff0000" d="M 268.92130662276685 191.92256443462819 A 18.944751618018955 18.944751618018955 0 0 1 266.6629466605873 197.38244752657164 L 266.6629466605873 197.38244752657164 A 18.944751618018955 18.944751618018955 0 0 0 268.92130662276685 191.92256443462819 Z" stroke="#FFFFFF" stroke-width="1" r="0"></path><path fill="#ff0000" d="M 258.1633130065948 193.06772280470776 A 9.472375809009463 9.472375809009463 0 0 1 256.07538333257594 195.15774145306185 L 256.07538333257594 195.15774145306185 A 9.472375809009463 9.472375809009463 0 0 0 258.1633130065948 193.06772280470776 Z" stroke="#FFFFFF" stroke-width="1" r="0"></path><path fill="#ff0000" d="M 0 0" stroke="#FFFFFF" stroke-width="1" r="0"></path><path fill="#ff0000" d="M 251.9818060423424 196.85575514429408 A 9.472375809009463 9.472375809009463 0 0 1 249.02755045214553 196.8572322722123 L 249.02755045214553 196.8572322722123 A 9.472375809009463 9.472375809009463 0 0 0 251.9818060423424 196.85575514429408 Z" stroke="#FFFFFF" stroke-width="1" r="0"></path><path fill="#ff0000" d="M 0 0" stroke="#FFFFFF" stroke-width="1" r="0"></path><path fill="#ff0000" d="M 0 0" stroke="#FFFFFF" stroke-width="1" r="0"></path><path fill="#ff0000" d="M 0 0" stroke="#FFFFFF" stroke-width="1" r="0"></path><path fill="#ff0000" d="M 0 0" stroke="#FFFFFF" stroke-width="1" r="0"></path><path fill="#ff0000" d="M 241.2893466886166 185.2887177826859 A 9.472375809009463 9.472375809009463 0 0 1 242.41852666970638 182.55877623671418 L 242.41852666970638 182.55877623671418 A 9.472375809009463 9.472375809009463 0 0 0 241.2893466886166 185.2887177826859 Z" stroke="#FFFFFF" stroke-width="1" r="0"></path><path fill="#ff0000" d="M 0 0" stroke="#FFFFFF" stroke-width="1" r="0"></path><path fill="#ff0000" d="M 245.55069723534248 179.42347193338244 A 9.472375809009463 9.472375809009463 0 0 1 248.27950823655064 178.29156257579163 L 248.27950823655064 178.29156257579163 A 9.472375809009463 9.472375809009463 0 0 0 245.55069723534248 179.42347193338244 Z" stroke="#FFFFFF" stroke-width="1" r="0"></path></g><g class="highcharts-markers" visibility="visible" zIndex="0.1" transform="translate(10,10) scale(1 1)"></g><g class="highcharts-series highcharts-tracker" visibility="visible" zIndex="0.1" transform="translate(10,10) scale(1 1)" style="" clip-path="url(#highcharts-1)"><path fill="#ff4900" d="M 226.75548298496497 37.58301973109516 A 151.78571428571428 151.78571428571428 0 0 1 274.0945881874948 37.55935017652146 L 274.0945881874948 37.55935017652146 A 151.78571428571428 151.78571428571428 0 0 0 226.75548298496497 37.58301973109516 Z" stroke="#FFFFFF" stroke-width="1" r="0"></path><path fill="#ff4900" d="M 268.2115200675254 113.72620953478473 A 75.87008700870088 75.87008700870088 0 0 1 290.07730187324125 122.77050688332113 L 290.07730187324125 122.77050688332113 A 75.87008700870088 75.87008700870088 0 0 0 268.2115200675254 113.72620953478473 Z" stroke="#FFFFFF" stroke-width="1" r="0"></path><path fill="#ff4900" d="M 278.3921498197379 149.10974926503948 A 47.45295958167246 47.45295958167246 0 0 1 288.8623393946657 159.56947388199927 L 288.8623393946657 159.56947388199927 A 47.45295958167246 47.45295958167246 0 0 0 278.3921498197379 149.10974926503948 Z" stroke="#FFFFFF" stroke-width="1" r="0"></path><path fill="#ff4900" d="M 307.15218485189916 152.78349647290707 A 66.44325146800395 66.44325146800395 0 0 1 315.09187597076937 171.92453133234326 L 315.09187597076937 171.92453133234326 A 66.44325146800395 66.44325146800395 0 0 0 307.15218485189916 152.78349647290707 Z" stroke="#FFFFFF" stroke-width="1" r="0"></path><path fill="#ff4900" d="M 306.7244900498443 178.59491561092295 A 56.92533539068194 56.92533539068194 0 0 1 306.73336702050653 196.34885545585612 L 306.73336702050653 196.34885545585612 A 56.92533539068194 56.92533539068194 0 0 0 306.7244900498443 178.59491561092295 Z" stroke="#FFFFFF" stroke-width="1" r="0"></path><path fill="#ff4900" d="M 268.92130662276685 191.92256443462819 A 18.944751618018955 18.944751618018955 0 0 1 266.6629466605873 197.38244752657164 L 266.6629466605873 197.38244752657164 A 18.944751618018955 18.944751618018955 0 0 0 268.92130662276685 191.92256443462819 Z" stroke="#FFFFFF" stroke-width="1" r="0"></path><path fill="#ff4900" d="M 258.1633130065948 193.06772280470776 A 9.472375809009463 9.472375809009463 0 0 1 256.07538333257594 195.15774145306185 L 256.07538333257594 195.15774145306185 A 9.472375809009463 9.472375809009463 0 0 0 258.1633130065948 193.06772280470776 Z" stroke="#FFFFFF" stroke-width="1" r="0"></path><path fill="#ff4900" d="M 0 0" stroke="#FFFFFF" stroke-width="1" r="0"></path><path fill="#ff4900" d="M 251.9818060423424 196.85575514429408 A 9.472375809009463 9.472375809009463 0 0 1 249.02755045214553 196.8572322722123 L 249.02755045214553 196.8572322722123 A 9.472375809009463 9.472375809009463 0 0 0 251.9818060423424 196.85575514429408 Z" stroke="#FFFFFF" stroke-width="1" r="0"></path><path fill="#ff4900" d="M 0 0" stroke="#FFFFFF" stroke-width="1" r="0"></path><path fill="#ff4900" d="M 0 0" stroke="#FFFFFF" stroke-width="1" r="0"></path><path fill="#ff4900" d="M 0 0" stroke="#FFFFFF" stroke-width="1" r="0"></path><path fill="#ff4900" d="M 0 0" stroke="#FFFFFF" stroke-width="1" r="0"></path><path fill="#ff4900" d="M 241.2893466886166 185.2887177826859 A 9.472375809009463 9.472375809009463 0 0 1 242.41852666970638 182.55877623671418 L 242.41852666970638 182.55877623671418 A 9.472375809009463 9.472375809009463 0 0 0 241.2893466886166 185.2887177826859 Z" stroke="#FFFFFF" stroke-width="1" r="0"></path><path fill="#ff4900" d="M 0 0" stroke="#FFFFFF" stroke-width="1" r="0"></path><path fill="#ff4900" d="M 245.55069723534248 179.42347193338244 A 9.472375809009463 9.472375809009463 0 0 1 248.27950823655064 178.29156257579163 L 248.27950823655064 178.29156257579163 A 9.472375809009463 9.472375809009463 0 0 0 245.55069723534248 179.42347193338244 Z" stroke="#FFFFFF" stroke-width="1" r="0"></path></g><g class="highcharts-markers" visibility="visible" zIndex="0.1" transform="translate(10,10) scale(1 1)"></g><g class="highcharts-series highcharts-tracker" visibility="visible" zIndex="0.1" transform="translate(10,10) scale(1 1)" style="" clip-path="url(#highcharts-1)"><path fill="#ebff13" d="M 226.75548298496497 37.58301973109516 A 151.78571428571428 151.78571428571428 0 0 1 274.0945881874948 37.55935017652146 L 274.0945881874948 37.55935017652146 A 151.78571428571428 151.78571428571428 0 0 0 226.75548298496497 37.58301973109516 Z" stroke="#FFFFFF" stroke-width="1" r="0"></path><path fill="#ebff13" d="M 268.2115200675254 113.72620953478473 A 75.87008700870088 75.87008700870088 0 0 1 290.07730187324125 122.77050688332113 L 290.07730187324125 122.77050688332113 A 75.87008700870088 75.87008700870088 0 0 0 268.2115200675254 113.72620953478473 Z" stroke="#FFFFFF" stroke-width="1" r="0"></path><path fill="#ebff13" d="M 278.3921498197379 149.10974926503948 A 47.45295958167246 47.45295958167246 0 0 1 288.8623393946657 159.56947388199927 L 288.8623393946657 159.56947388199927 A 47.45295958167246 47.45295958167246 0 0 0 278.3921498197379 149.10974926503948 Z" stroke="#FFFFFF" stroke-width="1" r="0"></path><path fill="#ebff13" d="M 307.15218485189916 152.78349647290707 A 66.44325146800395 66.44325146800395 0 0 1 315.09187597076937 171.92453133234326 L 315.09187597076937 171.92453133234326 A 66.44325146800395 66.44325146800395 0 0 0 307.15218485189916 152.78349647290707 Z" stroke="#FFFFFF" stroke-width="1" r="0"></path><path fill="#ebff13" d="M 306.7244900498443 178.59491561092295 A 56.92533539068194 56.92533539068194 0 0 1 306.73336702050653 196.34885545585612 L 306.73336702050653 196.34885545585612 A 56.92533539068194 56.92533539068194 0 0 0 306.7244900498443 178.59491561092295 Z" stroke="#FFFFFF" stroke-width="1" r="0"></path><path fill="#ebff13" d="M 268.92130662276685 191.92256443462819 A 18.944751618018955 18.944751618018955 0 0 1 266.6629466605873 197.38244752657164 L 258.58147333029365 192.44122376328582 A 9.472375809009463 9.472375809009463 0 0 0 259.7106533113834 189.71128221731408 Z" stroke="#FFFFFF" stroke-width="1" r="0"></path><path fill="#ebff13" d="M 258.1633130065948 193.06772280470776 A 9.472375809009463 9.472375809009463 0 0 1 256.07538333257594 195.15774145306185 L 250.5 187.5 A 0 0 0 0 0 250.5 187.5 Z" stroke="#FFFFFF" stroke-width="1" r="0"></path><path fill="#ebff13" d="M 0 0" stroke="#FFFFFF" stroke-width="1" r="0"></path><path fill="#ebff13" d="M 251.9818060423424 196.85575514429408 A 9.472375809009463 9.472375809009463 0 0 1 249.02755045214553 196.8572322722123 L 249.02755045214553 196.8572322722123 A 9.472375809009463 9.472375809009463 0 0 0 251.9818060423424 196.85575514429408 Z" stroke="#FFFFFF" stroke-width="1" r="0"></path><path fill="#ebff13" d="M 0 0" stroke="#FFFFFF" stroke-width="1" r="0"></path><path fill="#ebff13" d="M 0 0" stroke="#FFFFFF" stroke-width="1" r="0"></path><path fill="#ebff13" d="M 0 0" stroke="#FFFFFF" stroke-width="1" r="0"></path><path fill="#ebff13" d="M 0 0" stroke="#FFFFFF" stroke-width="1" r="0"></path><path fill="#ebff13" d="M 241.2893466886166 185.2887177826859 A 9.472375809009463 9.472375809009463 0 0 1 242.41852666970638 182.55877623671418 L 242.41852666970638 182.55877623671418 A 9.472375809009463 9.472375809009463 0 0 0 241.2893466886166 185.2887177826859 Z" stroke="#FFFFFF" stroke-width="1" r="0"></path><path fill="#ebff13" d="M 0 0" stroke="#FFFFFF" stroke-width="1" r="0"></path><path fill="#ebff13" d="M 245.55069723534248 179.42347193338244 A 9.472375809009463 9.472375809009463 0 0 1 248.27950823655064 178.29156257579163 L 248.27950823655064 178.29156257579163 A 9.472375809009463 9.472375809009463 0 0 0 245.55069723534248 179.42347193338244 Z" stroke="#FFFFFF" stroke-width="1" r="0"></path></g><g class="highcharts-markers" visibility="visible" zIndex="0.1" transform="translate(10,10) scale(1 1)"></g><g class="highcharts-series highcharts-tracker" visibility="visible" zIndex="0.1" transform="translate(10,10) scale(1 1)" style="" clip-path="url(#highcharts-1)"><path fill="#23ffdb" d="M 226.75548298496497 37.58301973109516 A 151.78571428571428 151.78571428571428 0 0 1 274.0945881874948 37.55935017652146 L 274.0945881874948 37.55935017652146 A 151.78571428571428 151.78571428571428 0 0 0 226.75548298496497 37.58301973109516 Z" stroke="#FFFFFF" stroke-width="1" r="0"></path><path fill="#23ffdb" d="M 268.2115200675254 113.72620953478473 A 75.87008700870088 75.87008700870088 0 0 1 290.07730187324125 122.77050688332113 L 290.07730187324125 122.77050688332113 A 75.87008700870088 75.87008700870088 0 0 0 268.2115200675254 113.72620953478473 Z" stroke="#FFFFFF" stroke-width="1" r="0"></path><path fill="#23ffdb" d="M 278.3921498197379 149.10974926503948 A 47.45295958167246 47.45295958167246 0 0 1 288.8623393946657 159.56947388199927 L 288.8623393946657 159.56947388199927 A 47.45295958167246 47.45295958167246 0 0 0 278.3921498197379 149.10974926503948 Z" stroke="#FFFFFF" stroke-width="1" r="0"></path><path fill="#23ffdb" d="M 307.15218485189916 152.78349647290707 A 66.44325146800395 66.44325146800395 0 0 1 315.09187597076937 171.92453133234326 L 296.63072978858236 176.3761903004124 A 47.45295958167246 47.45295958167246 0 0 0 290.9602992568053 162.70589672705222 Z" stroke="#FFFFFF" stroke-width="1" r="0"></path><path fill="#23ffdb" d="M 306.7244900498443 178.59491561092295 A 56.92533539068194 56.92533539068194 0 0 1 306.73336702050653 196.34885545585612 L 306.73336702050653 196.34885545585612 A 56.92533539068194 56.92533539068194 0 0 0 306.7244900498443 178.59491561092295 Z" stroke="#FFFFFF" stroke-width="1" r="0"></path><path fill="#23ffdb" d="M 259.7106533113834 189.71128221731408 A 9.472375809009463 9.472375809009463 0 0 1 258.58147333029365 192.44122376328582 L 258.58147333029365 192.44122376328582 A 9.472375809009463 9.472375809009463 0 0 0 259.7106533113834 189.71128221731408 Z" stroke="#FFFFFF" stroke-width="1" r="0"></path><path fill="#23ffdb" d="M 0 0" stroke="#FFFFFF" stroke-width="1" r="0"></path><path fill="#23ffdb" d="M 0 0" stroke="#FFFFFF" stroke-width="1" r="0"></path><path fill="#23ffdb" d="M 251.9818060423424 196.85575514429408 A 9.472375809009463 9.472375809009463 0 0 1 249.02755045214553 196.8572322722123 L 249.02755045214553 196.8572322722123 A 9.472375809009463 9.472375809009463 0 0 0 251.9818060423424 196.85575514429408 Z" stroke="#FFFFFF" stroke-width="1" r="0"></path><path fill="#23ffdb" d="M 0 0" stroke="#FFFFFF" stroke-width="1" r="0"></path><path fill="#23ffdb" d="M 0 0" stroke="#FFFFFF" stroke-width="1" r="0"></path><path fill="#23ffdb" d="M 0 0" stroke="#FFFFFF" stroke-width="1" r="0"></path><path fill="#23ffdb" d="M 0 0" stroke="#FFFFFF" stroke-width="1" r="0"></path><path fill="#23ffdb" d="M 241.2893466886166 185.2887177826859 A 9.472375809009463 9.472375809009463 0 0 1 242.41852666970638 182.55877623671418 L 242.41852666970638 182.55877623671418 A 9.472375809009463 9.472375809009463 0 0 0 241.2893466886166 185.2887177826859 Z" stroke="#FFFFFF" stroke-width="1" r="0"></path><path fill="#23ffdb" d="M 0 0" stroke="#FFFFFF" stroke-width="1" r="0"></path><path fill="#23ffdb" d="M 245.55069723534248 179.42347193338244 A 9.472375809009463 9.472375809009463 0 0 1 248.27950823655064 178.29156257579163 L 248.27950823655064 178.29156257579163 A 9.472375809009463 9.472375809009463 0 0 0 245.55069723534248 179.42347193338244 Z" stroke="#FFFFFF" stroke-width="1" r="0"></path></g><g class="highcharts-markers" visibility="visible" zIndex="0.1" transform="translate(10,10) scale(1 1)"></g><g class="highcharts-series highcharts-tracker" visibility="visible" zIndex="0.1" transform="translate(10,10) scale(1 1)" style="" clip-path="url(#highcharts-1)"><path fill="#0059ff" d="M 226.75548298496497 37.58301973109516 A 151.78571428571428 151.78571428571428 0 0 1 274.0945881874948 37.55935017652146 L 254.92442772792808 159.38331648974673 A 28.46266769534097 28.46266769534097 0 0 0 246.04745780546148 159.38775497507785 Z" stroke="#FFFFFF" stroke-width="1" r="0"></path><path fill="#0059ff" d="M 268.2115200675254 113.72620953478473 A 75.87008700870088 75.87008700870088 0 0 1 290.07730187324125 122.77050688332113 L 255.44122376328582 179.41852666970638 A 9.472375809009463 9.472375809009463 0 0 0 252.71128221731408 178.2893466886166 Z" stroke="#FFFFFF" stroke-width="1" r="0"></path><path fill="#0059ff" d="M 278.3921498197379 149.10974926503948 A 47.45295958167246 47.45295958167246 0 0 1 288.8623393946657 159.56947388199927 L 250.5 187.5 A 0 0 0 0 0 250.5 187.5 Z" stroke="#FFFFFF" stroke-width="1" r="0"></path><path fill="#0059ff" d="M 290.9602992568053 162.70589672705222 A 47.45295958167246 47.45295958167246 0 0 1 296.63072978858236 176.3761903004124 L 250.5 187.5 A 0 0 0 0 0 250.5 187.5 Z" stroke="#FFFFFF" stroke-width="1" r="0"></path><path fill="#0059ff" d="M 306.7244900498443 178.59491561092295 A 56.92533539068194 56.92533539068194 0 0 1 306.73336702050653 196.34885545585612 L 287.97391578246555 193.39687727578251 A 37.93504350435043 37.93504350435043 0 0 0 287.9680001692162 181.56565176311906 Z" stroke="#FFFFFF" stroke-width="1" r="0"></path><path fill="#0059ff" d="M 259.7106533113834 189.71128221731408 A 9.472375809009463 9.472375809009463 0 0 1 258.58147333029365 192.44122376328582 L 258.58147333029365 192.44122376328582 A 9.472375809009463 9.472375809009463 0 0 0 259.7106533113834 189.71128221731408 Z" stroke="#FFFFFF" stroke-width="1" r="0"></path><path fill="#0059ff" d="M 0 0" stroke="#FFFFFF" stroke-width="1" r="0"></path><path fill="#0059ff" d="M 0 0" stroke="#FFFFFF" stroke-width="1" r="0"></path><path fill="#0059ff" d="M 251.9818060423424 196.85575514429408 A 9.472375809009463 9.472375809009463 0 0 1 249.02755045214553 196.8572322722123 L 250.5 187.5 A 0 0 0 0 0 250.5 187.5 Z" stroke="#FFFFFF" stroke-width="1" r="0"></path><path fill="#0059ff" d="M 0 0" stroke="#FFFFFF" stroke-width="1" r="0"></path><path fill="#0059ff" d="M 0 0" stroke="#FFFFFF" stroke-width="1" r="0"></path><path fill="#0059ff" d="M 0 0" stroke="#FFFFFF" stroke-width="1" r="0"></path><path fill="#0059ff" d="M 0 0" stroke="#FFFFFF" stroke-width="1" r="0"></path><path fill="#0059ff" d="M 241.2893466886166 185.2887177826859 A 9.472375809009463 9.472375809009463 0 0 1 242.41852666970638 182.55877623671418 L 242.41852666970638 182.55877623671418 A 9.472375809009463 9.472375809009463 0 0 0 241.2893466886166 185.2887177826859 Z" stroke="#FFFFFF" stroke-width="1" r="0"></path><path fill="#0059ff" d="M 0 0" stroke="#FFFFFF" stroke-width="1" r="0"></path><path fill="#0059ff" d="M 245.55069723534248 179.42347193338244 A 9.472375809009463 9.472375809009463 0 0 1 248.27950823655064 178.29156257579163 L 250.5 187.5 A 0 0 0 0 0 250.5 187.5 Z" stroke="#FFFFFF" stroke-width="1" r="0"></path></g><g class="highcharts-markers" visibility="visible" zIndex="0.1" transform="translate(10,10) scale(1 1)"></g><g class="highcharts-series highcharts-tracker" visibility="visible" zIndex="0.1" transform="translate(10,10) scale(1 1)" style="" clip-path="url(#highcharts-1)"><path fill="#00008f" d="M 246.04745780546148 159.38775497507785 A 28.46266769534097 28.46266769534097 0 0 1 254.92442772792808 159.38331648974673 L 250.5 187.5 A 0 0 0 0 0 250.5 187.5 Z" stroke="#FFFFFF" stroke-width="1" r="0"></path><path fill="#00008f" d="M 252.71128221731408 178.2893466886166 A 9.472375809009463 9.472375809009463 0 0 1 255.44122376328582 179.41852666970638 L 250.5 187.5 A 0 0 0 0 0 250.5 187.5 Z" stroke="#FFFFFF" stroke-width="1" r="0"></path><path fill="#00008f" d="M 0 0" stroke="#FFFFFF" stroke-width="1" r="0"></path><path fill="#00008f" d="M 0 0" stroke="#FFFFFF" stroke-width="1" r="0"></path><path fill="#00008f" d="M 287.9680001692162 181.56565176311906 A 37.93504350435043 37.93504350435043 0 0 1 287.97391578246555 193.39687727578251 L 250.5 187.5 A 0 0 0 0 0 250.5 187.5 Z" stroke="#FFFFFF" stroke-width="1" r="0"></path><path fill="#00008f" d="M 259.7106533113834 189.71128221731408 A 9.472375809009463 9.472375809009463 0 0 1 258.58147333029365 192.44122376328582 L 250.5 187.5 A 0 0 0 0 0 250.5 187.5 Z" stroke="#FFFFFF" stroke-width="1" r="0"></path><path fill="#00008f" d="M 0 0" stroke="#FFFFFF" stroke-width="1" r="0"></path><path fill="#00008f" d="M 0 0" stroke="#FFFFFF" stroke-width="1" r="0"></path><path fill="#00008f" d="M 0 0" stroke="#FFFFFF" stroke-width="1" r="0"></path><path fill="#00008f" d="M 0 0" stroke="#FFFFFF" stroke-width="1" r="0"></path><path fill="#00008f" d="M 0 0" stroke="#FFFFFF" stroke-width="1" r="0"></path><path fill="#00008f" d="M 0 0" stroke="#FFFFFF" stroke-width="1" r="0"></path><path fill="#00008f" d="M 0 0" stroke="#FFFFFF" stroke-width="1" r="0"></path><path fill="#00008f" d="M 241.2893466886166 185.2887177826859 A 9.472375809009463 9.472375809009463 0 0 1 242.41852666970638 182.55877623671418 L 250.5 187.5 A 0 0 0 0 0 250.5 187.5 Z" stroke="#FFFFFF" stroke-width="1" r="0"></path><path fill="#00008f" d="M 0 0" stroke="#FFFFFF" stroke-width="1" r="0"></path><path fill="#00008f" d="M 0 0" stroke="#FFFFFF" stroke-width="1" r="0"></path></g><g class="highcharts-markers" visibility="visible" zIndex="0.1" transform="translate(10,10) scale(1 1)"></g></g><g class="highcharts-legend" zIndex="7" transform="translate(521,110)"><rect rx="5" ry="5" fill="none" x="0.5" y="0.5" width="68" height="115" stroke="#909090" stroke-width="1" visibility="visible"></rect><g zIndex="1"><g><g class="highcharts-legend-item" zIndex="1" transform="translate(8,3)"><text x="21" y="15" style="font-family:&quot;Lucida Grande&quot;, &quot;Lucida Sans Unicode&quot;, Verdana, Arial, Helvetica, sans-serif;font-size:12px;cursor:pointer;color:#274b6d;fill:#274b6d;" text-anchor="start" zIndex="2"><tspan x="21">&gt;12</tspan></text><rect rx="2" ry="2" fill="#7f0000" x="0" y="4" width="16" height="12" zIndex="3"></rect></g><g class="highcharts-legend-item" zIndex="1" transform="translate(8,18)"><text x="21" y="15" style="font-family:&quot;Lucida Grande&quot;, &quot;Lucida Sans Unicode&quot;, Verdana, Arial, Helvetica, sans-serif;font-size:12px;cursor:pointer;color:#274b6d;fill:#274b6d;" text-anchor="start" zIndex="2"><tspan x="21">10-12</tspan></text><rect rx="2" ry="2" fill="#ff0000" x="0" y="4" width="16" height="12" zIndex="3"></rect></g><g class="highcharts-legend-item" zIndex="1" transform="translate(8,33)"><text x="21" y="15" style="font-family:&quot;Lucida Grande&quot;, &quot;Lucida Sans Unicode&quot;, Verdana, Arial, Helvetica, sans-serif;font-size:12px;cursor:pointer;color:#274b6d;fill:#274b6d;" text-anchor="start" zIndex="2"><tspan x="21">8-10</tspan></text><rect rx="2" ry="2" fill="#ff4900" x="0" y="4" width="16" height="12" zIndex="3"></rect></g><g class="highcharts-legend-item" zIndex="1" transform="translate(8,48)"><text x="21" y="15" style="font-family:&quot;Lucida Grande&quot;, &quot;Lucida Sans Unicode&quot;, Verdana, Arial, Helvetica, sans-serif;font-size:12px;cursor:pointer;color:#274b6d;fill:#274b6d;" text-anchor="start" zIndex="2"><tspan x="21">6-8</tspan></text><rect rx="2" ry="2" fill="#ebff13" x="0" y="4" width="16" height="12" zIndex="3"></rect></g><g class="highcharts-legend-item" zIndex="1" transform="translate(8,63)"><text x="21" y="15" style="font-family:&quot;Lucida Grande&quot;, &quot;Lucida Sans Unicode&quot;, Verdana, Arial, Helvetica, sans-serif;font-size:12px;cursor:pointer;color:#274b6d;fill:#274b6d;" text-anchor="start" zIndex="2"><tspan x="21">4-6</tspan></text><rect rx="2" ry="2" fill="#23ffdb" x="0" y="4" width="16" height="12" zIndex="3"></rect></g><g class="highcharts-legend-item" zIndex="1" transform="translate(8,78)"><text x="21" y="15" style="font-family:&quot;Lucida Grande&quot;, &quot;Lucida Sans Unicode&quot;, Verdana, Arial, Helvetica, sans-serif;font-size:12px;cursor:pointer;color:#274b6d;fill:#274b6d;" text-anchor="start" zIndex="2"><tspan x="21">2-4</tspan></text><rect rx="2" ry="2" fill="#0059ff" x="0" y="4" width="16" height="12" zIndex="3"></rect></g><g class="highcharts-legend-item" zIndex="1" transform="translate(8,93)"><text x="21" y="15" style="font-family:&quot;Lucida Grande&quot;, &quot;Lucida Sans Unicode&quot;, Verdana, Arial, Helvetica, sans-serif;font-size:12px;cursor:pointer;color:#274b6d;fill:#274b6d;" text-anchor="start" zIndex="2"><tspan x="21">0-2</tspan></text><rect rx="2" ry="2" fill="#00008f" x="0" y="4" width="16" height="12" zIndex="3"></rect></g></g></g></g><g class="highcharts-axis-labels" zIndex="7"><text x="260.5" y="28.725" style="font-family:&quot;Lucida Grande&quot;, &quot;Lucida Sans Unicode&quot;, Verdana, Arial, Helvetica, sans-serif;font-size:11px;color:#666;cursor:default;line-height:14px;fill:#666;" text-anchor="middle" opacity="1"><tspan x="260.5">N</tspan></text><text x="327.2304235186625" y="41.998506518344364" style="font-family:&quot;Lucida Grande&quot;, &quot;Lucida Sans Unicode&quot;, Verdana, Arial, Helvetica, sans-serif;font-size:11px;color:#666;cursor:default;line-height:14px;fill:#666;" text-anchor="start" opacity="1"><tspan x="327.2304235186625">NNE</tspan></text><text x="383.80174496940424" y="79.79825503059578" style="font-family:&quot;Lucida Grande&quot;, &quot;Lucida Sans Unicode&quot;, Verdana, Arial, Helvetica, sans-serif;font-size:11px;color:#666;cursor:default;line-height:14px;fill:#666;" text-anchor="start" opacity="1"><tspan x="383.80174496940424">NE</tspan></text><text x="421.60149348165567" y="136.36957648133748" style="font-family:&quot;Lucida Grande&quot;, &quot;Lucida Sans Unicode&quot;, Verdana, Arial, Helvetica, sans-serif;font-size:11px;color:#666;cursor:default;line-height:14px;fill:#666;" text-anchor="start" opacity="1"><tspan x="421.60149348165567">ENE</tspan></text><text x="434.875" y="203.1" style="font-family:&quot;Lucida Grande&quot;, &quot;Lucida Sans Unicode&quot;, Verdana, Arial, Helvetica, sans-serif;font-size:11px;color:#666;cursor:default;line-height:14px;fill:#666;" text-anchor="start" opacity="1"><tspan x="434.875">E</tspan></text><text x="421.60149348165567" y="269.83042351866254" style="font-family:&quot;Lucida Grande&quot;, &quot;Lucida Sans Unicode&quot;, Verdana, Arial, Helvetica, sans-serif;font-size:11px;color:#666;cursor:default;line-height:14px;fill:#666;" text-anchor="start" opacity="1"><tspan x="421.60149348165567">ESE</tspan></text><text x="383.80174496940424" y="326.40174496940426" style="font-family:&quot;Lucida Grande&quot;, &quot;Lucida Sans Unicode&quot;, Verdana, Arial, Helvetica, sans-serif;font-size:11px;color:#666;cursor:default;line-height:14px;fill:#666;" text-anchor="start" opacity="1"><tspan x="383.80174496940424">SE</tspan></text><text x="327.2304235186625" y="364.2014934816557" style="font-family:&quot;Lucida Grande&quot;, &quot;Lucida Sans Unicode&quot;, Verdana, Arial, Helvetica, sans-serif;font-size:11px;color:#666;cursor:default;line-height:14px;fill:#666;" text-anchor="start" opacity="1"><tspan x="327.2304235186625">SSE</tspan></text><text x="260.5" y="377.475" style="font-family:&quot;Lucida Grande&quot;, &quot;Lucida Sans Unicode&quot;, Verdana, Arial, Helvetica, sans-serif;font-size:11px;color:#666;cursor:default;line-height:14px;fill:#666;" text-anchor="middle" opacity="1"><tspan x="260.5">S</tspan></text><text x="193.76957648133748" y="364.2014934816557" style="font-family:&quot;Lucida Grande&quot;, &quot;Lucida Sans Unicode&quot;, Verdana, Arial, Helvetica, sans-serif;font-size:11px;color:#666;cursor:default;line-height:14px;fill:#666;" text-anchor="end" opacity="1"><tspan x="193.76957648133748">SSW</tspan></text><text x="137.1982550305958" y="326.40174496940426" style="font-family:&quot;Lucida Grande&quot;, &quot;Lucida Sans Unicode&quot;, Verdana, Arial, Helvetica, sans-serif;font-size:11px;color:#666;cursor:default;line-height:14px;fill:#666;" text-anchor="end" opacity="1"><tspan x="137.1982550305958">SW</tspan></text><text x="99.39850651834442" y="269.83042351866266" style="font-family:&quot;Lucida Grande&quot;, &quot;Lucida Sans Unicode&quot;, Verdana, Arial, Helvetica, sans-serif;font-size:11px;color:#666;cursor:default;line-height:14px;fill:#666;" text-anchor="end" opacity="1"><tspan x="99.39850651834442">WSW</tspan></text><text x="86.125" y="203.10000000000002" style="font-family:&quot;Lucida Grande&quot;, &quot;Lucida Sans Unicode&quot;, Verdana, Arial, Helvetica, sans-serif;font-size:11px;color:#666;cursor:default;line-height:14px;fill:#666;" text-anchor="end" opacity="1"><tspan x="86.125">W</tspan></text><text x="99.39850651834439" y="136.36957648133742" style="font-family:&quot;Lucida Grande&quot;, &quot;Lucida Sans Unicode&quot;, Verdana, Arial, Helvetica, sans-serif;font-size:11px;color:#666;cursor:default;line-height:14px;fill:#666;" text-anchor="end" opacity="1"><tspan x="99.39850651834439">WNW</tspan></text><text x="137.19825503059576" y="79.79825503059578" style="font-family:&quot;Lucida Grande&quot;, &quot;Lucida Sans Unicode&quot;, Verdana, Arial, Helvetica, sans-serif;font-size:11px;color:#666;cursor:default;line-height:14px;fill:#666;" text-anchor="end" opacity="1"><tspan x="137.19825503059576">NW</tspan></text><text x="193.76957648133737" y="41.99850651834442" style="font-family:&quot;Lucida Grande&quot;, &quot;Lucida Sans Unicode&quot;, Verdana, Arial, Helvetica, sans-serif;font-size:11px;color:#666;cursor:default;line-height:14px;fill:#666;" text-anchor="end" opacity="1"><tspan x="193.76957648133737">NNW</tspan></text><text x="0" y="-9999" style="font-family:&quot;Lucida Grande&quot;, &quot;Lucida Sans Unicode&quot;, Verdana, Arial, Helvetica, sans-serif;font-size:11px;color:#666;cursor:default;line-height:14px;fill:#666;" text-anchor="middle"><tspan x="0">16</tspan></text></g><g class="highcharts-axis-labels" zIndex="7"><text x="257.5" y="195.5" style="font-family:&quot;Lucida Grande&quot;, &quot;Lucida Sans Unicode&quot;, Verdana, Arial, Helvetica, sans-serif;font-size:11px;color:#666;cursor:default;line-height:14px;fill:#666;" text-anchor="end" opacity="1"><tspan x="257.5">0%</tspan></text><text x="257.5" y="104.41946337490891" style="font-family:&quot;Lucida Grande&quot;, &quot;Lucida Sans Unicode&quot;, Verdana, Arial, Helvetica, sans-serif;font-size:11px;color:#666;cursor:default;line-height:14px;fill:#666;" text-anchor="end" opacity="1"><tspan x="257.5">20%</tspan></text></g><g class="highcharts-tooltip" zIndex="8" style="cursor:default;padding:0;white-space:nowrap;" transform="translate(0,-999)"><rect rx="3" ry="3" fill="none" x="0.5" y="0.5" width="16" height="16" fill-opacity="0.85" isShadow="true" stroke="black" stroke-width="5" transform="translate(1, 1)" opacity="0.049999999999999996"></rect><rect rx="3" ry="3" fill="none" x="0.5" y="0.5" width="16" height="16" fill-opacity="0.85" isShadow="true" stroke="black" stroke-width="3" transform="translate(1, 1)" opacity="0.09999999999999999"></rect><rect rx="3" ry="3" fill="none" x="0.5" y="0.5" width="16" height="16" fill-opacity="0.85" isShadow="true" stroke="black" stroke-width="1" transform="translate(1, 1)" opacity="0.15"></rect><rect rx="3" ry="3" fill="rgb(255,255,255)" x="0.5" y="0.5" width="16" height="16" fill-opacity="0.85"></rect><text x="8" y="21" style="font-family:&quot;Lucida Grande&quot;, &quot;Lucida Sans Unicode&quot;, Verdana, Arial, Helvetica, sans-serif;font-size:12px;color:#333333;fill:#333333;" zIndex="1"></text></g></svg>