<?xml version="1.0" standalone="no"?><!DOCTYPE svg PUBLIC "-//W3C//DTD SVG 1.1//EN" "http://www.w3.org/Graphics/SVG/1.1/DTD/svg11.dtd"><svg xmlns:xlink="http://www.w3.org/1999/xlink" version="1.1" xmlns="http://www.w3.org/2000/svg" width="600" height="400"><desc>Created with Highstock 1.3.7</desc><defs><clipPath id="highcharts-1"><rect fill="none" x="0" y="0" width="481" height="361"></rect></clipPath></defs><rect rx="5" ry="5" fill="#FFFFFF" x="0" y="0" width="600" height="400"></rect><g class="highcharts-grid" zIndex="1"></g><g class="highcharts-grid" zIndex="1"><path fill="none" d="M 42 302.5 L 523 302.5" stroke="#C0C0C0" stroke-width="1" zIndex="1" opacity="1"></path><path fill="none" d="M 42 233.5 L 523 233.5" stroke="#C0C0C0" stroke-width="1" zIndex="1" opacity="1"></path><path fill="none" d="M 42 165.5 L 523 165.5" stroke="#C0C0C0" stroke-width="1" zIndex="1" opacity="1"></path><path fill="none" d="M 42 96.5 L 523 96.5" stroke="#C0C0C0" stroke-width="1" zIndex="1" opacity="1"></path><path fill="none" d="M 42 27.5 L 523 27.5" stroke="#C0C0C0" stroke-width="1" zIndex="1" opacity="1"></path><path fill="none" d="M 42 371.5 L 523 371.5" stroke="#C0C0C0" stroke-width="1" zIndex="1" opacity="1"></path></g><g class="highcharts-axis" zIndex="2"><path fill="none" d="M 201.5 371 L 201.5 376" stroke="#C0D0E0" stroke-width="1" opacity="1"></path><path fill="none" d="M 362.5 371 L 362.5 376" stroke="#C0D0E0" stroke-width="1" opacity="1"></path><path fill="none" d="M 523.5 371 L 523.5 376" stroke="#C0D0E0" stroke-width="1" opacity="1"></path><path fill="none" d="M 41.5 371 L 41.5 376" stroke="#C0D0E0" stroke-width="1" opacity="1"></path><path fill="none" d="M 42 371.5 L 523 371.5" stroke="#C0D0E0" stroke-width="1" zIndex="7" visibility="visible"></path></g><g class="highcharts-axis" zIndex="2"></g><g class="highcharts-series-group" zIndex="3"><g class="highcharts-series highcharts-tracker" visibility="visible" zIndex="0.1" transform="translate(42,10) scale(1 1)" style="" clip-path="url(#highcharts-1)"><rect fill="#2f7ed8" x="-64.5" y="210.5" width="129" height="110" stroke="#FFFFFF" stroke-width="1" rx="0" ry="0"></rect><rect fill="#2f7ed8" x="95.5" y="17.5" width="129" height="96" stroke="#FFFFFF" stroke-width="1" rx="0" ry="0"></rect><rect fill="#2f7ed8" x="256.5" y="182.5" width="129" height="83" stroke="#FFFFFF" stroke-width="1" rx="0" ry="0"></rect><rect fill="#2f7ed8" x="416.5" y="45.5" width="129" height="68" stroke="#FFFFFF" stroke-width="1" rx="0" ry="0"></rect></g><g class="highcharts-markers" visibility="visible" zIndex="0.1" transform="translate(42,10) scale(1 1)"></g><g class="highcharts-series highcharts-tracker" visibility="visible" zIndex="0.1" transform="translate(42,10) scale(1 1)" style="" clip-path="url(#highcharts-1)"><rect fill="#0d233a" x="-64.5" y="320.5" width="129" height="13" stroke="#FFFFFF" stroke-width="1" rx="0" ry="0"></rect><rect fill="#0d233a" x="95.5" y="113.5" width="129" height="28" stroke="#FFFFFF" stroke-width="1" rx="0" ry="0"></rect><rect fill="#0d233a" x="256.5" y="265.5" width="129" height="41" stroke="#FFFFFF" stroke-width="1" rx="0" ry="0"></rect><rect fill="#0d233a" x="416.5" y="113.5" width="129" height="55" stroke="#FFFFFF" stroke-width="1" rx="0" ry="0"></rect></g><g class="highcharts-markers" visibility="visible" zIndex="0.1" transform="translate(42,10) scale(1 1)"></g><g class="highcharts-series highcharts-tracker" visibility="visible" zIndex="0.1" transform="translate(42,10) scale(1 1)" style="" clip-path="url(#highcharts-1)"><rect fill="#8bbc21" x="-64.5" y="333.5" width="129" height="14" stroke="#FFFFFF" stroke-width="1" rx="0" ry="0"></rect><rect fill="#8bbc21" x="95.5" y="141.5" width="129" height="110" stroke="#FFFFFF" stroke-width="1" rx="0" ry="0"></rect><rect fill="#8bbc21" x="256.5" y="306.5" width="129" height="27" stroke="#FFFFFF" stroke-width="1" rx="0" ry="0"></rect><rect fill="#8bbc21" x="416.5" y="168.5" width="129" height="97" stroke="#FFFFFF" stroke-width="1" rx="0" ry="0"></rect></g><g class="highcharts-markers" visibility="visible" zIndex="0.1" transform="translate(42,10) scale(1 1)"></g><g class="highcharts-series highcharts-tracker" visibility="visible" zIndex="0.1" transform="translate(42,10) scale(1 1)" style="" clip-path="url(#highcharts-1)"><rect fill="#910000" x="-64.5" y="347.5" width="129" height="14" stroke="#FFFFFF" stroke-width="1" rx="0" ry="0"></rect><rect fill="#910000" x="95.5" y="251.5" width="129" height="110" stroke="#FFFFFF" stroke-width="1" rx="0" ry="0"></rect><rect fill="#910000" x="256.5" y="333.5" width="129" height="28" stroke="#FFFFFF" stroke-width="1" rx="0" ry="0"></rect><rect fill="#910000" x="416.5" y="265.5" width="129" height="96" stroke="#FFFFFF" stroke-width="1" rx="0" ry="0"></rect></g><g class="highcharts-markers" visibility="visible" zIndex="0.1" transform="translate(42,10) scale(1 1)"></g></g><g class="highcharts-legend" zIndex="7" transform="translate(533,110)"><rect rx="5" ry="5" fill="none" x="0.5" y="0.5" width="56" height="70" stroke="#909090" stroke-width="1" visibility="visible"></rect><g zIndex="1"><g><g class="highcharts-legend-item" zIndex="1" transform="translate(8,3)"><text x="21" y="15" style="font-family:&quot;Lucida Grande&quot;, &quot;Lucida Sans Unicode&quot;, Verdana, Arial, Helvetica, sans-serif;font-size:12px;cursor:pointer;color:#274b6d;fill:#274b6d;" text-anchor="start" zIndex="2"><tspan x="21">6-8</tspan></text><rect rx="2" ry="2" fill="#910000" x="0" y="4" width="16" height="12" zIndex="3"></rect></g><g class="highcharts-legend-item" zIndex="1" transform="translate(8,18)"><text x="21" y="15" style="font-family:&quot;Lucida Grande&quot;, &quot;Lucida Sans Unicode&quot;, Verdana, Arial, Helvetica, sans-serif;font-size:12px;cursor:pointer;color:#274b6d;fill:#274b6d;" text-anchor="start" zIndex="2"><tspan x="21">4-6</tspan></text><rect rx="2" ry="2" fill="#8bbc21" x="0" y="4" width="16" height="12" zIndex="3"></rect></g><g class="highcharts-legend-item" zIndex="1" transform="translate(8,33)"><text x="21" y="15" style="font-family:&quot;Lucida Grande&quot;, &quot;Lucida Sans Unicode&quot;, Verdana, Arial, Helvetica, sans-serif;font-size:12px;cursor:pointer;color:#274b6d;fill:#274b6d;" text-anchor="start" zIndex="2"><tspan x="21">2-4</tspan></text><rect rx="2" ry="2" fill="#0d233a" x="0" y="4" width="16" height="12" zIndex="3"></rect></g><g class="highcharts-legend-item" zIndex="1" transform="translate(8,48)"><text x="21" y="15" style="font-family:&quot;Lucida Grande&quot;, &quot;Lucida Sans Unicode&quot;, Verdana, Arial, Helvetica, sans-serif;font-size:12px;cursor:pointer;color:#274b6d;fill:#274b6d;" text-anchor="start" zIndex="2"><tspan x="21">0-2</tspan></text><rect rx="2" ry="2" fill="#2f7ed8" x="0" y="4" width="16" height="12" zIndex="3"></rect></g></g></g></g><g class="highcharts-axis-labels" zIndex="7"><text x="42" y="385" style="font-family:&quot;Lucida Grande&quot;, &quot;Lucida Sans Unicode&quot;, Verdana, Arial, Helvetica, sans-serif;font-size:11px;color:#666;cursor:default;line-height:14px;fill:#666;" text-anchor="middle" opacity="1"><tspan x="42">N</tspan></text><text x="202.33333333333334" y="385" style="font-family:&quot;Lucida Grande&quot;, &quot;Lucida Sans Unicode&quot;, Verdana, Arial, Helvetica, sans-serif;font-size:11px;color:#666;cursor:default;line-height:14px;fill:#666;" text-anchor="middle" opacity="1"><tspan x="202.33333333333334">E</tspan></text><text x="362.6666666666667" y="385" style="font-family:&quot;Lucida Grande&quot;, &quot;Lucida Sans Unicode&quot;, Verdana, Arial, Helvetica, sans-serif;font-size:11px;color:#666;cursor:default;line-height:14px;fill:#666;" text-anchor="middle" opacity="1"><tspan x="362.6666666666667">S</tspan></text><text x="523" y="385" style="font-family:&quot;Lucida Grande&quot;, &quot;Lucida Sans Unicode&quot;, Verdana, Arial, Helvetica, sans-serif;font-size:11px;color:#666;cursor:default;line-height:14px;fill:#666;" text-anchor="middle" opacity="1"><tspan x="523">W</tspan></text></g><g class="highcharts-axis-labels" zIndex="7"><text x="34" y="376" style="font-family:&quot;Lucida Grande&quot;, &quot;Lucida Sans Unicode&quot;, Verdana, Arial, Helvetica, sans-serif;font-size:11px;color:#666;cursor:default;line-height:14px;fill:#666;" text-anchor="end" opacity="1"><tspan x="34">0%</tspan></text><text x="34" y="307.23809523809524" style="font-family:&quot;Lucida Grande&quot;, &quot;Lucida Sans Unicode&quot;, Verdana, Arial, Helvetica, sans-serif;font-size:11px;color:#666;cursor:default;line-height:14px;fill:#666;" text-anchor="end" opacity="1"><tspan x="34">5%</tspan></text><text x="34" y="238.47619047619048" style="font-family:&quot;Lucida Grande&quot;, &quot;Lucida Sans Unicode&quot;, Verdana, Arial, Helvetica, sans-serif;font-size:11px;color:#666;cursor:default;line-height:14px;fill:#666;" text-anchor="end" opacity="1"><tspan x="34">10%</tspan></text><text x="34" y="169.7142857142857" style="font-family:&quot;Lucida Grande&quot;, &quot;Lucida Sans Unicode&quot;, Verdana, Arial, Helvetica, sans-serif;font-size:11px;color:#666;cursor:default;line-height:14px;fill:#666;" text-anchor="end" opacity="1"><tspan x="34">15%</tspan></text><text x="34" y="100.95238095238096" style="font-family:&quot;Lucida Grande&quot;, &quot;Lucida Sans Unicode&quot;, Verdana, Arial, Helvetica, sans-serif;font-size:11px;color:#666;cursor:default;line-height:14px;fill:#666;" text-anchor="end" opacity="1"><tspan x="34">20%</tspan></text><text x="34" y="32.19047619047615" style="font-family:&quot;Lucida Grande&quot;, &quot;Lucida Sans Unicode&quot;, Verdana, Arial, Helvetica, sans-serif;font-size:11px;color:#666;cursor:default;line-height:14px;fill:#666;" text-anchor="end" opacity="1"><tspan x="34">25%</tspan></text></g><g class="highcharts-tooltip" zIndex="8" style="cursor:default;padding:0;white-space:nowrap;" transform="translate(0,-999)"><rect rx="3" ry="3" fill="none" x="0.5" y="0.5" width="16" height="16" fill-opacity="0.85" isShadow="true" stroke="black" stroke-width="5" transform="translate(1, 1)" opacity="0.049999999999999996"></rect><rect rx="3" ry="3" fill="none" x="0.5" y="0.5" width="16" height="16" fill-opacity="0.85" isShadow="true" stroke="black" stroke-width="3" transform="translate(1, 1)" opacity="0.09999999999999999"></rect><rect rx="3" ry="3" fill="none" x="0.5" y="0.5" width="16" height="16" fill-opacity="0.85" isShadow="true" stroke="black" stroke-width="1" transform="translate(1, 1)" opacity="0.15"></rect><rect rx="3" ry="3" fill="rgb(255,255,255)" x="0.5" y="0.5" width="16" height="16" fill-opacity="0.85"></rect><text x="8" y="21" style="font-family:&quot;Lucida Grande&quot;, &quot;Lucida Sans Unicode&quot;, Verdana, Arial, Helvetica, sans-serif;font-size:12px;color:#333333;fill:#333333;" zIndex="1"></text></g></svg>