<?xml version="1.0" standalone="no"?><!DOCTYPE svg PUBLIC "-//W3C//DTD SVG 1.1//EN" "http://www.w3.org/Graphics/SVG/1.1/DTD/svg11.dtd"><svg xmlns:xlink="http://www.w3.org/1999/xlink" version="1.1" xmlns="http://www.w3.org/2000/svg" width="600" height="400"><desc>Created with Highstock 1.3.7</desc><defs><clipPath id="highcharts-1"><rect fill="none" x="0" y="0" width="513" height="375"></rect></clipPath></defs><rect rx="5" ry="5" fill="#FFFFFF" x="0" y="0" width="600" height="400"></rect><g class="highcharts-grid" zIndex="1"><path fill="none" d="M 266.5 197.5 L 425.875 197.5" stroke="#C0C0C0" stroke-width="1" zIndex="1" opacity="1"></path><path fill="none" d="M 266.5 197.5 L 266.5 356.875" stroke="#C0C0C0" stroke-width="1" zIndex="1" opacity="1"></path><path fill="none" d="M 266.5 197.5 L 107.125 197.50000000000003" stroke="#C0C0C0" stroke-width="1" zIndex="1" opacity="1"></path><path fill="none" d="M 266.5 197.5 L 266.49999999999994 38.125" stroke="#C0C0C0" stroke-width="1" zIndex="1" opacity="1"></path><path fill="none" d="M 266.5 197.5 L 266.5 38.125" stroke="#C0C0C0" stroke-width="1" zIndex="1" opacity="1"></path></g><g class="highcharts-grid" zIndex="1"><path fill="none" d="M 266.5 136.78571428571428 A 60.71428571428571 60.71428571428571 0 1 1 266.4392857244047 136.7857446428546 M 266.5 197.5 A 0 0 0 1 0 266.5 197.5 " stroke="#C0C0C0" stroke-width="1" zIndex="1" opacity="1"></path><path fill="none" d="M 266.5 76.07142857142858 A 121.42857142857142 121.42857142857142 0 1 1 266.37857144880945 76.07148928570923 M 266.5 197.5 A 0 0 0 1 0 266.5 197.5 " stroke="#C0C0C0" stroke-width="1" zIndex="1" opacity="1"></path><path fill="none" stroke="#C0C0C0" stroke-width="1" zIndex="1"></path></g><g class="highcharts-axis" zIndex="2"><path fill="none" d="M 266.5 38.125 A 159.375 159.375 0 1 1 266.3406250265624 38.125079687493354 M 266.5 197.5 A 0 0 0 1 0 266.5 197.5 " stroke="#C0D0E0" stroke-width="1" zIndex="7" visibility="visible"></path></g><g class="highcharts-axis" zIndex="2"></g><g class="highcharts-series-group" zIndex="3"><g class="highcharts-series" visibility="visible" zIndex="0.1" transform="translate(10,10) scale(1 1)" clip-path="url(#highcharts-1)"><path fill="none" d="M 256.5 120.71428571428572 L 408.2857142857143 187.5 L 256.5 266.42857142857144 L 116.85714285714286 187.50000000000003 L 256.5 120.71428571428572" stroke="#2f7ed8" stroke-width="2" zIndex="1" stroke-linejoin="round" stroke-linecap="round"></path><path fill="none" d="M 246.5 120.71428571428572 L 256.5 120.71428571428572 L 408.2857142857143 187.5 L 256.5 266.42857142857144 L 116.85714285714286 187.50000000000003 L 256.5 120.71428571428572 L 266.5 120.71428571428572" stroke-linejoin="round" visibility="visible" stroke="rgb(192,192,192)" stroke-width="22" zIndex="2" class=" highcharts-tracker" style="" opacity="0.0001"></path></g><g class="highcharts-markers highcharts-tracker" visibility="visible" zIndex="0.1" transform="translate(10,10) scale(1 1)" style=""><path fill="#2f7ed8" d="M 116 183.50000000000003 C 121.328 183.50000000000003 121.328 191.50000000000003 116 191.50000000000003 C 110.672 191.50000000000003 110.672 183.50000000000003 116 183.50000000000003 Z"></path><path fill="#2f7ed8" d="M 256 262.42857142857144 C 261.328 262.42857142857144 261.328 270.42857142857144 256 270.42857142857144 C 250.672 270.42857142857144 250.672 262.42857142857144 256 262.42857142857144 Z"></path><path fill="#2f7ed8" d="M 408 183.5 C 413.328 183.5 413.328 191.5 408 191.5 C 402.672 191.5 402.672 183.5 408 183.5 Z"></path><path fill="#2f7ed8" d="M 256 116.71428571428572 C 261.328 116.71428571428572 261.328 124.71428571428572 256 124.71428571428572 C 250.672 124.71428571428572 250.672 116.71428571428572 256 116.71428571428572 Z"></path></g><g class="highcharts-series" visibility="visible" zIndex="0.1" transform="translate(10,10) scale(1 1)" clip-path="url(#highcharts-1)"><path fill="none" d="M 256.5 169.28571428571428 L 365.7857142857143 187.5 L 256.5 230 L 147.21428571428572 187.5 L 256.5 169.28571428571428" stroke="#0d233a" stroke-width="2" zIndex="1" stroke-linejoin="round" stroke-linecap="round"></path><path fill="none" d="M 246.5 169.28571428571428 L 256.5 169.28571428571428 L 365.7857142857143 187.5 L 256.5 230 L 147.21428571428572 187.5 L 256.5 169.28571428571428 L 266.5 169.28571428571428" stroke-linejoin="round" visibility="visible" stroke="rgb(192,192,192)" stroke-width="22" zIndex="2" class=" highcharts-tracker" style="" opacity="0.0001"></path></g><g class="highcharts-markers highcharts-tracker" visibility="visible" zIndex="0.1" transform="translate(10,10) scale(1 1)" style=""><path fill="#0d233a" d="M 147 183.5 L 151 187.5 147 191.5 143 187.5 Z"></path><path fill="#0d233a" d="M 256 226 L 260 230 256 234 252 230 Z"></path><path fill="#0d233a" d="M 365 183.5 L 369 187.5 365 191.5 361 187.5 Z"></path><path fill="#0d233a" d="M 256 165.28571428571428 L 260 169.28571428571428 256 173.28571428571428 252 169.28571428571428 Z"></path></g><g class="highcharts-series" visibility="visible" zIndex="0.1" transform="translate(10,10) scale(1 1)" clip-path="url(#highcharts-1)"><path fill="none" d="M 256.5 175.35714285714286 L 353.6428571428571 187.5 L 256.5 211.78571428571428 L 171.5 187.5 L 256.5 175.35714285714286" stroke="#8bbc21" stroke-width="2" zIndex="1" stroke-linejoin="round" stroke-linecap="round"></path><path fill="none" d="M 246.5 175.35714285714286 L 256.5 175.35714285714286 L 353.6428571428571 187.5 L 256.5 211.78571428571428 L 171.5 187.5 L 256.5 175.35714285714286 L 266.5 175.35714285714286" stroke-linejoin="round" visibility="visible" stroke="rgb(192,192,192)" stroke-width="22" zIndex="2" class=" highcharts-tracker" style="" opacity="0.0001"></path></g><g class="highcharts-markers highcharts-tracker" visibility="visible" zIndex="0.1" transform="translate(10,10) scale(1 1)" style=""><path fill="#8bbc21" d="M 167 183.5 L 175 183.5 175 191.5 167 191.5 Z"></path><path fill="#8bbc21" d="M 252 207.78571428571428 L 260 207.78571428571428 260 215.78571428571428 252 215.78571428571428 Z"></path><path fill="#8bbc21" d="M 349 183.5 L 357 183.5 357 191.5 349 191.5 Z"></path><path fill="#8bbc21" d="M 252 171.35714285714286 L 260 171.35714285714286 260 179.35714285714286 252 179.35714285714286 Z"></path></g><g class="highcharts-series" visibility="visible" zIndex="0.1" transform="translate(10,10) scale(1 1)" clip-path="url(#highcharts-1)"><path fill="none" d="M 256.5 181.42857142857142 L 305.07142857142856 187.5 L 256.5 199.64285714285714 L 214 187.5 L 256.5 181.42857142857142" stroke="#910000" stroke-width="2" zIndex="1" stroke-linejoin="round" stroke-linecap="round"></path><path fill="none" d="M 246.5 181.42857142857142 L 256.5 181.42857142857142 L 305.07142857142856 187.5 L 256.5 199.64285714285714 L 214 187.5 L 256.5 181.42857142857142 L 266.5 181.42857142857142" stroke-linejoin="round" visibility="visible" stroke="rgb(192,192,192)" stroke-width="22" zIndex="2" class=" highcharts-tracker" style="" opacity="0.0001"></path></g><g class="highcharts-markers highcharts-tracker" visibility="visible" zIndex="0.1" transform="translate(10,10) scale(1 1)" style=""><path fill="#910000" d="M 214 183.5 L 218 191.5 210 191.5 Z"></path><path fill="#910000" d="M 256 195.64285714285714 L 260 203.64285714285714 252 203.64285714285714 Z"></path><path fill="#910000" d="M 305 183.5 L 309 191.5 301 191.5 Z"></path><path fill="#910000" d="M 256 177.42857142857142 L 260 185.42857142857142 252 185.42857142857142 Z"></path></g></g><g class="highcharts-legend" zIndex="7" transform="translate(533,110)"><rect rx="5" ry="5" fill="none" x="0.5" y="0.5" width="56" height="70" stroke="#909090" stroke-width="1" visibility="visible"></rect><g zIndex="1"><g><g class="highcharts-legend-item" zIndex="1" transform="translate(8,3)"><path fill="none" d="M 0 11 L 16 11" stroke="#910000" stroke-width="2"></path><path fill="#910000" d="M 8 7 L 12 15 4 15 Z"></path><text x="21" y="15" style="font-family:&quot;Lucida Grande&quot;, &quot;Lucida Sans Unicode&quot;, Verdana, Arial, Helvetica, sans-serif;font-size:12px;cursor:pointer;color:#274b6d;fill:#274b6d;" text-anchor="start" zIndex="2"><tspan x="21">6-8</tspan></text></g><g class="highcharts-legend-item" zIndex="1" transform="translate(8,18)"><path fill="none" d="M 0 11 L 16 11" stroke="#8bbc21" stroke-width="2"></path><path fill="#8bbc21" d="M 4 7 L 12 7 12 15 4 15 Z"></path><text x="21" y="15" style="font-family:&quot;Lucida Grande&quot;, &quot;Lucida Sans Unicode&quot;, Verdana, Arial, Helvetica, sans-serif;font-size:12px;cursor:pointer;color:#274b6d;fill:#274b6d;" text-anchor="start" zIndex="2"><tspan x="21">4-6</tspan></text></g><g class="highcharts-legend-item" zIndex="1" transform="translate(8,33)"><path fill="none" d="M 0 11 L 16 11" stroke="#0d233a" stroke-width="2"></path><path fill="#0d233a" d="M 8 7 L 12 11 8 15 4 11 Z"></path><text x="21" y="15" style="font-family:&quot;Lucida Grande&quot;, &quot;Lucida Sans Unicode&quot;, Verdana, Arial, Helvetica, sans-serif;font-size:12px;cursor:pointer;color:#274b6d;fill:#274b6d;" text-anchor="start" zIndex="2"><tspan x="21">2-4</tspan></text></g><g class="highcharts-legend-item" zIndex="1" transform="translate(8,48)"><path fill="none" d="M 0 11 L 16 11" stroke="#2f7ed8" stroke-width="2"></path><path fill="#2f7ed8" d="M 8 7 C 13.328 7 13.328 15 8 15 C 2.6719999999999997 15 2.6719999999999997 7 8 7 Z"></path><text x="21" y="15" style="font-family:&quot;Lucida Grande&quot;, &quot;Lucida Sans Unicode&quot;, Verdana, Arial, Helvetica, sans-serif;font-size:12px;cursor:pointer;color:#274b6d;fill:#274b6d;" text-anchor="start" zIndex="2"><tspan x="21">0-2</tspan></text></g></g></g></g><g class="highcharts-axis-labels" zIndex="7"><text x="266.5" y="28.725" style="font-family:&quot;Lucida Grande&quot;, &quot;Lucida Sans Unicode&quot;, Verdana, Arial, Helvetica, sans-serif;font-size:11px;color:#666;cursor:default;line-height:14px;fill:#666;" text-anchor="middle" opacity="1"><tspan x="266.5">N</tspan></text><text x="440.875" y="203.1" style="font-family:&quot;Lucida Grande&quot;, &quot;Lucida Sans Unicode&quot;, Verdana, Arial, Helvetica, sans-serif;font-size:11px;color:#666;cursor:default;line-height:14px;fill:#666;" text-anchor="start" opacity="1"><tspan x="440.875">E</tspan></text><text x="266.5" y="377.475" style="font-family:&quot;Lucida Grande&quot;, &quot;Lucida Sans Unicode&quot;, Verdana, Arial, Helvetica, sans-serif;font-size:11px;color:#666;cursor:default;line-height:14px;fill:#666;" text-anchor="middle" opacity="1"><tspan x="266.5">S</tspan></text><text x="92.125" y="203.10000000000002" style="font-family:&quot;Lucida Grande&quot;, &quot;Lucida Sans Unicode&quot;, Verdana, Arial, Helvetica, sans-serif;font-size:11px;color:#666;cursor:default;line-height:14px;fill:#666;" text-anchor="end" opacity="1"><tspan x="92.125">W</tspan></text><text x="0" y="-9999" style="font-family:&quot;Lucida Grande&quot;, &quot;Lucida Sans Unicode&quot;, Verdana, Arial, Helvetica, sans-serif;font-size:11px;color:#666;cursor:default;line-height:14px;fill:#666;" text-anchor="middle"><tspan x="0">4</tspan></text></g><g class="highcharts-axis-labels" zIndex="7"><text x="263.5" y="195.5" style="font-family:&quot;Lucida Grande&quot;, &quot;Lucida Sans Unicode&quot;, Verdana, Arial, Helvetica, sans-serif;font-size:11px;color:#666;cursor:default;line-height:14px;fill:#666;" text-anchor="end" opacity="1"><tspan x="263.5">0%</tspan></text><text x="263.5" y="134.78571428571428" style="font-family:&quot;Lucida Grande&quot;, &quot;Lucida Sans Unicode&quot;, Verdana, Arial, Helvetica, sans-serif;font-size:11px;color:#666;cursor:default;line-height:14px;fill:#666;" text-anchor="end" opacity="1"><tspan x="263.5">10%</tspan></text><text x="263.5" y="74.07142857142858" style="font-family:&quot;Lucida Grande&quot;, &quot;Lucida Sans Unicode&quot;, Verdana, Arial, Helvetica, sans-serif;font-size:11px;color:#666;cursor:default;line-height:14px;fill:#666;" text-anchor="end" opacity="1"><tspan x="263.5">20%</tspan></text></g><g class="highcharts-tooltip" zIndex="8" style="cursor:default;padding:0;white-space:nowrap;" transform="translate(0,-999)"><rect rx="3" ry="3" fill="none" x="0.5" y="0.5" width="16" height="16" fill-opacity="0.85" isShadow="true" stroke="black" stroke-width="5" transform="translate(1, 1)" opacity="0.049999999999999996"></rect><rect rx="3" ry="3" fill="none" x="0.5" y="0.5" width="16" height="16" fill-opacity="0.85" isShadow="true" stroke="black" stroke-width="3" transform="translate(1, 1)" opacity="0.09999999999999999"></rect><rect rx="3" ry="3" fill="none" x="0.5" y="0.5" width="16" height="16" fill-opacity="0.85" isShadow="true" stroke="black" stroke-width="1" transform="translate(1, 1)" opacity="0.15"></rect><rect rx="3" ry="3" fill="rgb(255,255,255)" x="0.5" y="0.5" width="16" height="16" fill-opacity="0.85"></rect><text x="8" y="21" style="font-family:&quot;Lucida Grande&quot;, &quot;Lucida Sans Unicode&quot;, Verdana, Arial, Helvetica, sans-serif;font-size:12px;color:#333333;fill:#333333;" zIndex="1"></text></g></svg>