<?xml version="1.0" standalone="no"?><!DOCTYPE svg PUBLIC "-//W3C//DTD SVG 1.1//EN" "http://www.w3.org/Graphics/SVG/1.1/DTD/svg11.dtd"><svg xmlns:xlink="http://www.w3.org/1999/xlink" version="1.1" xmlns="http://www.w3.org/2000/svg" width="600" height="400"><desc>Created with Highstock 1.3.7</desc><defs><clipPath id="highcharts-1"><rect fill="none" x="0" y="0" width="501" height="375"></rect></clipPath></defs><rect rx="5" ry="5" fill="#FFFFFF" x="0" y="0" width="600" height="400"></rect><g class="highcharts-grid" zIndex="1"><path fill="none" d="M 260.5 197.5 L 321.4901720331862 50.25669950601369" stroke="#C0C0C0" stroke-width="1" zIndex="1" opacity="1"></path><path fill="none" d="M 260.5 197.5 L 373.195143251606 84.804856748394" stroke="#C0C0C0" stroke-width="1" zIndex="1" opacity="1"></path><path fill="none" d="M 260.5 197.5 L 407.74330049398634 136.50982796681382" stroke="#C0C0C0" stroke-width="1" zIndex="1" opacity="1"></path><path fill="none" d="M 260.5 197.5 L 419.875 197.5" stroke="#C0C0C0" stroke-width="1" zIndex="1" opacity="1"></path><path fill="none" d="M 260.5 197.5 L 407.74330049398634 258.4901720331862" stroke="#C0C0C0" stroke-width="1" zIndex="1" opacity="1"></path><path fill="none" d="M 260.5 197.5 L 373.195143251606 310.195143251606" stroke="#C0C0C0" stroke-width="1" zIndex="1" opacity="1"></path><path fill="none" d="M 260.5 197.5 L 321.4901720331862 344.74330049398634" stroke="#C0C0C0" stroke-width="1" zIndex="1" opacity="1"></path><path fill="none" d="M 260.5 197.5 L 260.5 356.875" stroke="#C0C0C0" stroke-width="1" zIndex="1" opacity="1"></path><path fill="none" d="M 260.5 197.5 L 199.50982796681382 344.74330049398634" stroke="#C0C0C0" stroke-width="1" zIndex="1" opacity="1"></path><path fill="none" d="M 260.5 197.5 L 147.804856748394 310.195143251606" stroke="#C0C0C0" stroke-width="1" zIndex="1" opacity="1"></path><path fill="none" d="M 260.5 197.5 L 113.25669950601372 258.49017203318624" stroke="#C0C0C0" stroke-width="1" zIndex="1" opacity="1"></path><path fill="none" d="M 260.5 197.5 L 101.125 197.50000000000003" stroke="#C0C0C0" stroke-width="1" zIndex="1" opacity="1"></path><path fill="none" d="M 260.5 197.5 L 113.25669950601369 136.50982796681376" stroke="#C0C0C0" stroke-width="1" zIndex="1" opacity="1"></path><path fill="none" d="M 260.5 197.5 L 147.80485674839395 84.804856748394" stroke="#C0C0C0" stroke-width="1" zIndex="1" opacity="1"></path><path fill="none" d="M 260.5 197.5 L 199.50982796681373 50.25669950601372" stroke="#C0C0C0" stroke-width="1" zIndex="1" opacity="1"></path><path fill="none" d="M 260.5 197.5 L 260.49999999999994 38.125" stroke="#C0C0C0" stroke-width="1" zIndex="1" opacity="1"></path><path fill="none" d="M 260.5 197.5 L 260.5 38.125" stroke="#C0C0C0" stroke-width="1" zIndex="1" opacity="1"></path></g><g class="highcharts-grid" zIndex="1"><path fill="none" d="M 260.5 109.76259289843105 A 87.73740710156895 87.73740710156895 0 1 1 260.4122626075213 109.76263676713094 M 260.5 197.5 A 0 0 0 1 0 260.5 197.5 " stroke="#C0C0C0" stroke-width="1" zIndex="1" opacity="1"></path><path fill="none" stroke="#C0C0C0" stroke-width="1" zIndex="1"></path></g><g class="highcharts-axis" zIndex="2"><path fill="none" d="M 260.5 38.125 A 159.375 159.375 0 1 1 260.3406250265624 38.125079687493354 M 260.5 197.5 A 0 0 0 1 0 260.5 197.5 " stroke="#C0D0E0" stroke-width="1" zIndex="7" visibility="visible"></path></g><g class="highcharts-axis" zIndex="2"></g><g class="highcharts-series-group" zIndex="3"><g class="highcharts-series highcharts-tracker" visibility="visible" zIndex="0.1" transform="translate(10,10) scale(1 1)" style="" clip-path="url(#highcharts-1)"><path fill="#7f0000" d="M 228.66327943877414 49.62837248102451 A 139.59021469859618 139.59021469859618 0 0 1 272.19883803832613 49.606604699910775 L 272.19883803832613 49.606604699910775 A 139.59021469859618 139.59021469859618 0 0 0 228.66327943877414 49.62837248102451 Z" stroke="#FFFFFF" stroke-width="1" r="0"></path><path fill="#7f0000" d="M 281.079463150427 60.12736917003805 A 130.99194880264244 130.99194880264244 0 0 1 318.8313820390347 75.74261599451431 L 318.6483106872891 76.04203296438835 A 130.64099917423616 130.64099917423616 0 0 0 280.9975355867286 60.468622032275064 Z" stroke="#FFFFFF" stroke-width="1" r="0"></path><path fill="#7f0000" d="M 339.71740436582184 64.70277763951688 A 151.7857142857143 151.7857142857143 0 0 1 373.2079435723808 98.15984304098235 L 373.2079435723808 98.15984304098235 A 151.7857142857143 151.7857142857143 0 0 0 339.71740436582184 64.70277763951688 Z" stroke="#FFFFFF" stroke-width="1" r="0"></path><path fill="#7f0000" d="M 311.8429185130886 149.9090111883757 A 71.94467382328654 71.94467382328654 0 0 1 320.4400066324115 170.63490101430392 L 320.4400066324115 170.63490101430392 A 71.94467382328654 71.94467382328654 0 0 0 311.8429185130886 149.9090111883757 Z" stroke="#FFFFFF" stroke-width="1" r="0"></path><path fill="#7f0000" d="M 284.38297068505307 182.1334646515152 A 34.305326176713464 34.305326176713464 0 0 1 284.3883202780232 192.83264970017945 L 284.3883202780232 192.83264970017945 A 34.305326176713464 34.305326176713464 0 0 0 284.38297068505307 182.1334646515152 Z" stroke="#FFFFFF" stroke-width="1" r="0"></path><path fill="#7f0000" d="M 285.3077919481745 195.85661149723657 A 35.79686209744014 35.79686209744014 0 0 1 281.0405309271522 206.1732778780483 L 281.0405309271522 206.1732778780483 A 35.79686209744014 35.79686209744014 0 0 0 285.3077919481745 195.85661149723657 Z" stroke="#FFFFFF" stroke-width="1" r="0"></path><path fill="#7f0000" d="M 283.86109509215436 211.73825436528108 A 41.236581337737405 41.236581337737405 0 0 1 274.77160333568685 220.83684016128262 L 274.66831991723717 220.6949812669793 A 41.06110652353428 41.06110652353428 0 0 0 283.71913298537925 211.6351128573437 Z" stroke="#FFFFFF" stroke-width="1" r="0"></path><path fill="#7f0000" d="M 276.5386361524422 229.9911923358955 A 49.834847233691164 49.834847233691164 0 0 1 262.1821661266773 235.94624849659724 L 262.1821661266773 235.94624849659724 A 49.834847233691164 49.834847233691164 0 0 0 276.5386361524422 229.9911923358955 Z" stroke="#FFFFFF" stroke-width="1" r="0"></path><path fill="#7f0000" d="M 256.7312200721537 226.842375168834 A 39.832782824112314 39.832782824112314 0 0 1 244.30812541206785 226.84858671668167 L 244.30812541206785 226.84858671668167 A 39.832782824112314 39.832782824112314 0 0 0 256.7312200721537 226.842375168834 Z" stroke="#FFFFFF" stroke-width="1" r="0"></path><path fill="#7f0000" d="M 245.64579185086993 207.7192320875425 A 20.793765483071837 20.793765483071837 0 0 1 239.65302240907488 205.24045546503692 L 239.65302240907488 205.24045546503692 A 20.793765483071837 20.793765483071837 0 0 0 245.64579185086993 207.7192320875425 Z" stroke="#FFFFFF" stroke-width="1" r="0"></path><path fill="#7f0000" d="M 238.8965803570463 203.47073701220157 A 19.740916597853015 19.740916597853015 0 0 1 234.54087439087533 199.11938457559478 L 234.54087439087533 199.11938457559478 A 19.740916597853015 19.740916597853015 0 0 0 238.8965803570463 203.47073701220157 Z" stroke="#FFFFFF" stroke-width="1" r="0"></path><path fill="#7f0000" d="M 235.08946193451678 196.94358987218857 A 18.073905862923198 18.073905862923198 0 0 1 232.929705650882 191.73684194030903 L 232.929705650882 191.73684194030903 A 18.073905862923198 18.073905862923198 0 0 0 235.08946193451678 196.94358987218857 Z" stroke="#FFFFFF" stroke-width="1" r="0"></path><path fill="#7f0000" d="M 234.55507261879856 190.02542839928697 A 16.143682906688696 16.143682906688696 0 0 1 234.5525551632832 184.99051778815084 L 234.5525551632832 184.99051778815084 A 16.143682906688696 16.143682906688696 0 0 0 234.55507261879856 190.02542839928697 Z" stroke="#FFFFFF" stroke-width="1" r="0"></path><path fill="#7f0000" d="M 230.2807679124575 182.64579185086993 A 20.793765483071837 20.793765483071837 0 0 1 232.75954453496308 176.65302240907488 L 232.75954453496308 176.65302240907488 A 20.793765483071837 20.793765483071837 0 0 0 230.2807679124575 182.64579185086993 Z" stroke="#FFFFFF" stroke-width="1" r="0"></path><path fill="#7f0000" d="M 229.34764609050637 172.13191531733244 A 26.145747316267546 26.145747316267546 0 0 1 235.11077065099002 166.36302474880378 L 235.21405406943975 166.50488364310712 A 25.970272502064404 25.970272502064404 0 0 0 229.4896081972815 172.2350568252698 Z" stroke="#FFFFFF" stroke-width="1" r="0"></path><path fill="#7f0000" d="M 218.91440086437905 135.95698676156337 A 60.45107349298101 60.45107349298101 0 0 1 236.32920341323822 128.7333358905713 L 236.32920341323822 128.7333358905713 A 60.45107349298101 60.45107349298101 0 0 0 218.91440086437905 135.95698676156337 Z" stroke="#FFFFFF" stroke-width="1" r="0"></path></g><g class="highcharts-markers" visibility="visible" zIndex="0.1" transform="translate(10,10) scale(1 1)"></g><g class="highcharts-series highcharts-tracker" visibility="visible" zIndex="0.1" transform="translate(10,10) scale(1 1)" style="" clip-path="url(#highcharts-1)"><path fill="#ff0000" d="M 228.66327943877414 49.62837248102451 A 139.59021469859618 139.59021469859618 0 0 1 272.19883803832613 49.606604699910775 L 271.50327503395494 54.02682038834857 A 135.11560693641619 135.11560693641619 0 0 0 229.36326231031563 54.047890396466215 Z" stroke="#FFFFFF" stroke-width="1" r="0"></path><path fill="#ff0000" d="M 280.9975355867286 60.468622032275064 A 130.64099917423616 130.64099917423616 0 0 1 318.6483106872891 76.04203296438835 L 317.000668521579 78.73678569325472 A 127.48245251857968 127.48245251857968 0 0 0 280.26018751344304 63.5398977924081 Z" stroke="#FFFFFF" stroke-width="1" r="0"></path><path fill="#ff0000" d="M 339.71740436582184 64.70277763951688 A 151.7857142857143 151.7857142857143 0 0 1 373.2079435723808 98.15984304098235 L 373.06608467807746 98.26312645943209 A 151.61023947151116 151.61023947151116 0 0 0 339.61426285788446 64.84473974629202 Z" stroke="#FFFFFF" stroke-width="1" r="0"></path><path fill="#ff0000" d="M 311.8429185130886 149.9090111883757 A 71.94467382328654 71.94467382328654 0 0 1 320.4400066324115 170.63490101430392 L 320.26942125038124 170.6760354020739 A 71.7691990090834 71.7691990090834 0 0 0 311.6933016386664 150.00069652694063 Z" stroke="#FFFFFF" stroke-width="1" r="0"></path><path fill="#ff0000" d="M 284.38297068505307 182.1334646515152 A 34.305326176713464 34.305326176713464 0 0 1 284.3883202780232 192.83264970017945 L 284.3883202780232 192.83264970017945 A 34.305326176713464 34.305326176713464 0 0 0 284.38297068505307 182.1334646515152 Z" stroke="#FFFFFF" stroke-width="1" r="0"></path><path fill="#ff0000" d="M 285.3077919481745 195.85661149723657 A 35.79686209744014 35.79686209744014 0 0 1 281.0405309271522 206.1732778780483 L 281.0405309271522 206.1732778780483 A 35.79686209744014 35.79686209744014 0 0 0 285.3077919481745 195.85661149723657 Z" stroke="#FFFFFF" stroke-width="1" r="0"></path><path fill="#ff0000" d="M 283.71913298537925 211.6351128573437 A 41.06110652353428 41.06110652353428 0 0 1 274.66831991723717 220.6949812669793 L 274.66831991723717 220.6949812669793 A 41.06110652353428 41.06110652353428 0 0 0 283.71913298537925 211.6351128573437 Z" stroke="#FFFFFF" stroke-width="1" r="0"></path><path fill="#ff0000" d="M 276.5386361524422 229.9911923358955 A 49.834847233691164 49.834847233691164 0 0 1 262.1821661266773 235.94624849659724 L 262.1821661266773 235.94624849659724 A 49.834847233691164 49.834847233691164 0 0 0 276.5386361524422 229.9911923358955 Z" stroke="#FFFFFF" stroke-width="1" r="0"></path><path fill="#ff0000" d="M 256.7312200721537 226.842375168834 A 39.832782824112314 39.832782824112314 0 0 1 244.30812541206785 226.84858671668167 L 244.38995635375858 226.32856134157132 A 39.30635838150289 39.30635838150289 0 0 0 256.64886914609 226.32243188466438 Z" stroke="#FFFFFF" stroke-width="1" r="0"></path><path fill="#ff0000" d="M 245.64579185086993 207.7192320875425 A 20.793765483071837 20.793765483071837 0 0 1 239.65302240907488 205.24045546503692 L 240.2937721401844 204.19249607047777 A 19.565441783649874 19.565441783649874 0 0 0 245.93253832381433 206.52484706971302 Z" stroke="#FFFFFF" stroke-width="1" r="0"></path><path fill="#ff0000" d="M 238.8965803570463 203.47073701220157 A 19.740916597853015 19.740916597853015 0 0 1 234.54087439087533 199.11938457559478 L 235.10830996808866 198.70625090179584 A 19.03901734104045 19.03901734104045 0 0 0 239.30914638879577 202.90288858510104 Z" stroke="#FFFFFF" stroke-width="1" r="0"></path><path fill="#ff0000" d="M 235.08946193451678 196.94358987218857 A 18.073905862923198 18.073905862923198 0 0 1 232.929705650882 191.73684194030903 L 232.929705650882 191.73684194030903 A 18.073905862923198 18.073905862923198 0 0 0 235.08946193451678 196.94358987218857 Z" stroke="#FFFFFF" stroke-width="1" r="0"></path><path fill="#ff0000" d="M 234.55507261879856 190.02542839928697 A 16.143682906688696 16.143682906688696 0 0 1 234.5525551632832 184.99051778815084 L 234.5525551632832 184.99051778815084 A 16.143682906688696 16.143682906688696 0 0 0 234.55507261879856 190.02542839928697 Z" stroke="#FFFFFF" stroke-width="1" r="0"></path><path fill="#ff0000" d="M 230.2807679124575 182.64579185086993 A 20.793765483071837 20.793765483071837 0 0 1 232.75954453496308 176.65302240907488 L 232.90925301990012 176.74455808494767 A 20.618290668868696 20.618290668868696 0 0 0 230.451394343576 182.68675563271913 Z" stroke="#FFFFFF" stroke-width="1" r="0"></path><path fill="#ff0000" d="M 229.4896081972815 172.2350568252698 A 25.970272502064404 25.970272502064404 0 0 1 235.21405406943975 166.50488364310712 L 235.21405406943975 166.50488364310712 A 25.970272502064404 25.970272502064404 0 0 0 229.4896081972815 172.2350568252698 Z" stroke="#FFFFFF" stroke-width="1" r="0"></path><path fill="#ff0000" d="M 218.91440086437905 135.95698676156337 A 60.45107349298101 60.45107349298101 0 0 1 236.32920341323822 128.7333358905713 L 236.4526065765482 129.24509203666216 A 59.924649050371585 59.924649050371585 0 0 0 219.18945688007386 136.4058373848299 Z" stroke="#FFFFFF" stroke-width="1" r="0"></path></g><g class="highcharts-markers" visibility="visible" zIndex="0.1" transform="translate(10,10) scale(1 1)"></g><g class="highcharts-series highcharts-tracker" visibility="visible" zIndex="0.1" transform="translate(10,10) scale(1 1)" style="" clip-path="url(#highcharts-1)"><path fill="#ff4900" d="M 229.36326231031563 54.047890396466215 A 135.11560693641619 135.11560693641619 0 0 1 271.50327503395494 54.02682038834857 L 268.2982298177345 74.39448091350317 A 114.49731626754748 114.49731626754748 0 0 0 232.5886735811441 74.41233569310936 Z" stroke="#FFFFFF" stroke-width="1" r="0"></path><path fill="#ff4900" d="M 280.26018751344304 63.5398977924081 A 127.48245251857968 127.48245251857968 0 0 1 317.000668521579 78.73678569325472 L 311.9204385106393 87.04560660725934 A 117.74360033030553 117.74360033030553 0 0 0 277.9866976208125 73.00966471948497 Z" stroke="#FFFFFF" stroke-width="1" r="0"></path><path fill="#ff4900" d="M 339.61426285788446 64.84473974629202 A 151.61023947151116 151.61023947151116 0 0 1 373.06608467807746 98.26312645943209 L 365.7603516214559 103.58222250959328 A 142.57328654004954 142.57328654004954 0 0 0 334.30247519911006 72.15578824521097 Z" stroke="#FFFFFF" stroke-width="1" r="0"></path><path fill="#ff4900" d="M 311.6933016386664 150.00069652694063 A 71.7691990090834 71.7691990090834 0 0 1 320.26942125038124 170.6760354020739 L 320.098835868351 170.7171697898439 A 71.59372419488027 71.59372419488027 0 0 0 311.54368476424423 150.09238186550556 Z" stroke="#FFFFFF" stroke-width="1" r="0"></path><path fill="#ff4900" d="M 284.38297068505307 182.1334646515152 A 34.305326176713464 34.305326176713464 0 0 1 284.3883202780232 192.83264970017945 L 284.21497848631975 192.8053727196159 A 34.12985136251032 34.12985136251032 0 0 0 284.20965625699654 182.16091496020312 Z" stroke="#FFFFFF" stroke-width="1" r="0"></path><path fill="#ff4900" d="M 285.3077919481745 195.85661149723657 A 35.79686209744014 35.79686209744014 0 0 1 281.0405309271522 206.1732778780483 L 280.7411139572781 205.99020652630276 A 35.44591246903386 35.44591246903386 0 0 0 284.9665390859375 195.77468393353817 Z" stroke="#FFFFFF" stroke-width="1" r="0"></path><path fill="#ff4900" d="M 283.71913298537925 211.6351128573437 A 41.06110652353428 41.06110652353428 0 0 1 274.66831991723717 220.6949812669793 L 274.25518624343823 220.12754568976598 A 40.359207266721725 40.359207266721725 0 0 0 283.15128455827875 211.22254682559424 Z" stroke="#FFFFFF" stroke-width="1" r="0"></path><path fill="#ff4900" d="M 276.5386361524422 229.9911923358955 A 49.834847233691164 49.834847233691164 0 0 1 262.1821661266773 235.94624849659724 L 261.4417471468175 232.87571162005236 A 46.676300578034684 46.676300578034684 0 0 0 274.88830005827333 227.2980885962965 Z" stroke="#FFFFFF" stroke-width="1" r="0"></path><path fill="#ff4900" d="M 256.64886914609 226.32243188466438 A 39.30635838150289 39.30635838150289 0 0 1 244.38995635375858 226.32856134157132 L 245.1946272803841 221.21497848631975 A 34.12985136251032 34.12985136251032 0 0 0 255.83908503979688 221.20965625699654 Z" stroke="#FFFFFF" stroke-width="1" r="0"></path><path fill="#ff4900" d="M 245.93253832381433 206.52484706971302 A 19.565441783649874 19.565441783649874 0 0 1 240.2937721401844 204.19249607047777 L 241.02605754716666 202.9948281909816 A 18.16164327002477 18.16164327002477 0 0 0 246.2602485786079 205.159835620765 Z" stroke="#FFFFFF" stroke-width="1" r="0"></path><path fill="#ff4900" d="M 239.30914638879577 202.90288858510104 A 19.03901734104045 19.03901734104045 0 0 1 235.10830996808866 198.70625090179584 L 237.09433448833528 197.2602830434996 A 16.58236994219652 16.58236994219652 0 0 0 240.7531274999189 200.91541909024932 Z" stroke="#FFFFFF" stroke-width="1" r="0"></path><path fill="#ff4900" d="M 235.08946193451678 196.94358987218857 A 18.073905862923198 18.073905862923198 0 0 1 232.929705650882 191.73684194030903 L 233.61204717900307 191.57230438922906 A 17.37200660611066 17.37200660611066 0 0 0 235.68792943220544 196.5768485179288 Z" stroke="#FFFFFF" stroke-width="1" r="0"></path><path fill="#ff4900" d="M 234.55507261879856 190.02542839928697 A 16.143682906688696 16.143682906688696 0 0 1 234.5525551632832 184.99051778815084 L 234.72589695498664 185.01779476871442 A 15.968208092485554 15.968208092485554 0 0 0 234.7283870468551 189.99797809059908 Z" stroke="#FFFFFF" stroke-width="1" r="0"></path><path fill="#ff4900" d="M 230.451394343576 182.68675563271913 A 20.618290668868696 20.618290668868696 0 0 1 232.90925301990012 176.74455808494767 L 232.90925301990012 176.74455808494767 A 20.618290668868696 20.618290668868696 0 0 0 230.451394343576 182.68675563271913 Z" stroke="#FFFFFF" stroke-width="1" r="0"></path><path fill="#ff4900" d="M 229.4896081972815 172.2350568252698 A 25.970272502064404 25.970272502064404 0 0 1 235.21405406943975 166.50488364310712 L 235.3173374878895 166.64674253741046 A 25.794797687861262 25.794797687861262 0 0 0 229.63157030405662 172.33819833320717 Z" stroke="#FFFFFF" stroke-width="1" r="0"></path><path fill="#ff4900" d="M 219.18945688007386 136.4058373848299 A 59.924649050371585 59.924649050371585 0 0 1 236.4526065765482 129.24509203666216 L 237.46039907691298 133.4244338964038 A 55.62551610239471 55.62551610239471 0 0 0 221.43574767491484 140.07145080817298 Z" stroke="#FFFFFF" stroke-width="1" r="0"></path></g><g class="highcharts-markers" visibility="visible" zIndex="0.1" transform="translate(10,10) scale(1 1)"></g><g class="highcharts-series highcharts-tracker" visibility="visible" zIndex="0.1" transform="translate(10,10) scale(1 1)" style="" clip-path="url(#highcharts-1)"><path fill="#ebff13" d="M 232.5886735811441 74.41233569310936 A 114.49731626754748 114.49731626754748 0 0 1 268.2982298177345 74.39448091350317 L 264.07029783037996 101.26245862753692 A 87.2987200660611 87.2987200660611 0 0 0 236.84347142776886 101.27607204187267 Z" stroke="#FFFFFF" stroke-width="1" r="0"></path><path fill="#ebff13" d="M 277.9866976208125 73.00966471948497 A 117.74360033030553 117.74360033030553 0 0 1 311.9204385106393 87.04560660725934 L 299.1969795643221 107.85508601350517 A 93.35260115606937 93.35260115606937 0 0 0 272.29273194377384 96.72673864495678 Z" stroke="#FFFFFF" stroke-width="1" r="0"></path><path fill="#ebff13" d="M 334.30247519911006 72.15578824521097 A 142.57328654004954 142.57328654004954 0 0 1 365.7603516214559 103.58222250959328 L 346.680330337658 117.47384229108214 A 118.97192402972749 118.97192402972749 0 0 0 320.4299423815343 91.24969160646528 Z" stroke="#FFFFFF" stroke-width="1" r="0"></path><path fill="#ebff13" d="M 311.54368476424423 150.09238186550556 A 71.59372419488027 71.59372419488027 0 0 1 320.098835868351 170.7171697898439 L 317.19888437383634 171.41645438193373 A 68.61065235342691 68.61065235342691 0 0 0 309.0001978990674 151.6510326211095 Z" stroke="#FFFFFF" stroke-width="1" r="0"></path><path fill="#ebff13" d="M 284.20965625699654 182.16091496020312 A 34.12985136251032 34.12985136251032 0 0 1 284.21497848631975 192.8053727196159 L 283.52161131950595 192.69626479736158 A 33.42795210569777 33.42795210569777 0 0 0 283.51639854477037 182.2707161949547 Z" stroke="#FFFFFF" stroke-width="1" r="0"></path><path fill="#ebff13" d="M 284.9665390859375 195.77468393353817 A 35.44591246903386 35.44591246903386 0 0 1 280.7411139572781 205.99020652630276 L 279.842863047656 205.44099247106604 A 34.393063583815035 34.393063583815035 0 0 0 283.94278049922644 195.528901242443 Z" stroke="#FFFFFF" stroke-width="1" r="0"></path><path fill="#ebff13" d="M 283.15128455827875 211.22254682559424 A 40.359207266721725 40.359207266721725 0 0 1 274.25518624343823 220.12754568976598 L 271.93130932831923 216.93572056794105 A 36.41102394715111 36.41102394715111 0 0 0 279.95713715583844 208.9018628970035 Z" stroke="#FFFFFF" stroke-width="1" r="0"></path><path fill="#ebff13" d="M 274.88830005827333 227.2980885962965 A 46.676300578034684 46.676300578034684 0 0 1 261.4417471468175 232.87571162005236 L 259.7346700543629 225.79641826579606 A 39.39409578860446 39.39409578860446 0 0 0 271.08335850782845 221.08898830777656 Z" stroke="#FFFFFF" stroke-width="1" r="0"></path><path fill="#ebff13" d="M 255.83908503979688 221.20965625699654 A 34.12985136251032 34.12985136251032 0 0 1 245.1946272803841 221.21497848631975 L 246.16296009039112 215.0613448808475 A 27.900495458298934 27.900495458298934 0 0 0 254.86459908137638 215.05699406098944 Z" stroke="#FFFFFF" stroke-width="1" r="0"></path><path fill="#ebff13" d="M 246.2602485786079 205.159835620765 A 18.16164327002477 18.16164327002477 0 0 1 241.02605754716666 202.9948281909816 L 241.84987863002175 201.6474518265484 A 16.58236994219652 16.58236994219652 0 0 0 246.6289226152507 203.62419774069846 Z" stroke="#FFFFFF" stroke-width="1" r="0"></path><path fill="#ebff13" d="M 240.7531274999189 200.91541909024932 A 16.58236994219652 16.58236994219652 0 0 1 237.09433448833528 197.2602830434996 L 239.22221790288523 195.71103176675365 A 13.950247729149453 13.950247729149453 0 0 0 242.3002501189794 198.78598748862242 Z" stroke="#FFFFFF" stroke-width="1" r="0"></path><path fill="#ebff13" d="M 235.68792943220544 196.5768485179288 A 17.37200660611066 17.37200660611066 0 0 1 233.61204717900307 191.57230438922906 L 234.29438870712417 191.4077668381491 A 16.670107349298092 16.670107349298092 0 0 0 236.28639692989412 196.21010716366905 Z" stroke="#FFFFFF" stroke-width="1" r="0"></path><path fill="#ebff13" d="M 234.7283870468551 189.99797809059908 A 15.968208092485554 15.968208092485554 0 0 1 234.72589695498664 185.01779476871442 L 235.07258053839354 185.07234872984156 A 15.61725846407927 15.61725846407927 0 0 0 235.07501590296818 189.94307747322327 Z" stroke="#FFFFFF" stroke-width="1" r="0"></path><path fill="#ebff13" d="M 230.451394343576 182.68675563271913 A 20.618290668868696 20.618290668868696 0 0 1 232.90925301990012 176.74455808494767 L 233.05896150483716 176.83609376082046 A 20.442815854665554 20.442815854665554 0 0 0 230.6220207746945 182.72771941456833 Z" stroke="#FFFFFF" stroke-width="1" r="0"></path><path fill="#ebff13" d="M 229.63157030405662 172.33819833320717 A 25.794797687861262 25.794797687861262 0 0 1 235.3173374878895 166.64674253741046 L 237.17643901998463 169.20020263487038 A 22.636251032204797 22.636251032204797 0 0 0 232.18688822600888 174.19474547607976 Z" stroke="#FFFFFF" stroke-width="1" r="0"></path><path fill="#ebff13" d="M 221.43574767491484 140.07145080817298 A 55.62551610239471 55.62551610239471 0 0 1 237.46039907691298 133.4244338964038 L 239.37314810821752 141.35665416081144 A 47.46593724194881 47.46593724194881 0 0 0 225.69911591818442 147.02863546880377 Z" stroke="#FFFFFF" stroke-width="1" r="0"></path></g><g class="highcharts-markers" visibility="visible" zIndex="0.1" transform="translate(10,10) scale(1 1)"></g><g class="highcharts-series highcharts-tracker" visibility="visible" zIndex="0.1" transform="translate(10,10) scale(1 1)" style="" clip-path="url(#highcharts-1)"><path fill="#23ffdb" d="M 236.84347142776886 101.27607204187267 A 87.2987200660611 87.2987200660611 0 0 1 264.07029783037996 101.26245862753692 L 258.68309416907334 135.49746248896696 A 52.642444260941375 52.642444260941375 0 0 0 242.26490739362947 135.50567158303878 Z" stroke="#FFFFFF" stroke-width="1" r="0"></path><path fill="#23ffdb" d="M 272.29273194377384 96.72673864495678 A 93.35260115606937 93.35260115606937 0 0 1 299.1969795643221 107.85508601350517 L 279.33373789992754 140.34182724483858 A 55.27456647398844 55.27456647398844 0 0 0 263.40359128249764 133.75267419767178 Z" stroke="#FFFFFF" stroke-width="1" r="0"></path><path fill="#23ffdb" d="M 320.4299423815343 91.24969160646528 A 118.97192402972749 118.97192402972749 0 0 1 346.680330337658 117.47384229108214 L 307.5982049570905 145.92842407398314 A 70.628612716763 70.628612716763 0 0 0 292.0144569447899 130.3602520230122 Z" stroke="#FFFFFF" stroke-width="1" r="0"></path><path fill="#23ffdb" d="M 309.0001978990674 151.6510326211095 A 68.61065235342691 68.61065235342691 0 0 1 317.19888437383634 171.41645438193373 L 301.1638584629908 175.28308683231282 A 52.11601981833195 52.11601981833195 0 0 0 294.93621170338366 160.26945444621362 Z" stroke="#FFFFFF" stroke-width="1" r="0"></path><path fill="#23ffdb" d="M 283.51639854477037 182.2707161949547 A 33.42795210569777 33.42795210569777 0 0 1 283.52161131950595 192.69626479736158 L 278.40802846425436 191.89159387073602 A 28.25144508670519 28.25144508670519 0 0 0 278.4036229171025 183.0805003012478 Z" stroke="#FFFFFF" stroke-width="1" r="0"></path><path fill="#23ffdb" d="M 283.94278049922644 195.528901242443 A 34.393063583815035 34.393063583815035 0 0 1 279.842863047656 205.44099247106604 L 276.474422136573 203.38143976392834 A 30.444880264244432 30.444880264244432 0 0 0 280.10368579906014 194.60721615083602 Z" stroke="#FFFFFF" stroke-width="1" r="0"></path><path fill="#23ffdb" d="M 279.95713715583844 208.9018628970035 A 36.41102394715111 36.41102394715111 0 0 1 271.93130932831923 216.93572056794105 L 264.80475345528777 207.14745686101125 A 24.303261767134586 24.303261767134586 0 0 0 270.1617517883548 201.7850988493252 Z" stroke="#FFFFFF" stroke-width="1" r="0"></path><path fill="#23ffdb" d="M 271.08335850782845 221.08898830777656 A 39.39409578860446 39.39409578860446 0 0 1 259.7346700543629 225.79641826579606 L 256.5261878083036 212.49075846743483 A 25.70706028075969 25.70706028075969 0 0 0 263.9319020997633 209.4188721028475 Z" stroke="#FFFFFF" stroke-width="1" r="0"></path><path fill="#23ffdb" d="M 254.86459908137638 215.05699406098944 A 27.900495458298934 27.900495458298934 0 0 1 246.16296009039112 215.0613448808475 L 248.15417967153232 202.40739408649614 A 15.090834021469874 15.090834021469874 0 0 0 252.86072654715954 202.40504081286224 Z" stroke="#FFFFFF" stroke-width="1" r="0"></path><path fill="#23ffdb" d="M 246.6289226152507 203.62419774069846 A 16.58236994219652 16.58236994219652 0 0 1 241.84987863002175 201.6474518265484 L 245.46553782699678 195.73396667153614 A 9.651114781172595 9.651114781172595 0 0 0 248.24699199829405 196.88445371151764 Z" stroke="#FFFFFF" stroke-width="1" r="0"></path><path fill="#23ffdb" d="M 242.3002501189794 198.78598748862242 A 13.950247729149453 13.950247729149453 0 0 1 239.22221790288523 195.71103176675365 L 242.83961970762016 193.0773045962855 A 9.475639966969453 9.475639966969453 0 0 0 244.93035857138221 195.16595376585676 Z" stroke="#FFFFFF" stroke-width="1" r="0"></path><path fill="#23ffdb" d="M 236.28639692989412 196.21010716366905 A 16.670107349298092 16.670107349298092 0 0 1 234.29438870712417 191.4077668381491 L 236.17082790945716 190.9552885726792 A 14.73988439306359 14.73988439306359 0 0 0 237.93218254853795 195.20156843945475 Z" stroke="#FFFFFF" stroke-width="1" r="0"></path><path fill="#23ffdb" d="M 235.07501590296818 189.94307747322327 A 15.61725846407927 15.61725846407927 0 0 1 235.07258053839354 185.07234872984156 L 237.84604920564863 185.50878041885883 A 12.80966143682906 12.80966143682906 0 0 0 237.84804675187277 189.50387253421684 Z" stroke="#FFFFFF" stroke-width="1" r="0"></path><path fill="#23ffdb" d="M 230.6220207746945 182.72771941456833 A 20.442815854665554 20.442815854665554 0 0 1 233.05896150483716 176.83609376082046 L 235.45429726382946 178.300664574785 A 17.635218827415372 17.635218827415372 0 0 0 233.3520436725905 183.3831399241555 Z" stroke="#FFFFFF" stroke-width="1" r="0"></path><path fill="#23ffdb" d="M 232.18688822600888 174.19474547607976 A 22.636251032204797 22.636251032204797 0 0 1 237.17643901998463 169.20020263487038 L 239.91344960890254 172.95946333390864 A 17.986168455821627 17.986168455821627 0 0 0 235.94888405554968 176.92799543641996 Z" stroke="#FFFFFF" stroke-width="1" r="0"></path><path fill="#23ffdb" d="M 225.69911591818442 147.02863546880377 A 47.46593724194881 47.46593724194881 0 0 1 239.37314810821752 141.35665416081144 L 243.4248853035616 158.15931429079322 A 30.18166804293972 30.18166804293972 0 0 0 234.73012176683076 161.76589759938724 Z" stroke="#FFFFFF" stroke-width="1" r="0"></path></g><g class="highcharts-markers" visibility="visible" zIndex="0.1" transform="translate(10,10) scale(1 1)"></g><g class="highcharts-series highcharts-tracker" visibility="visible" zIndex="0.1" transform="translate(10,10) scale(1 1)" style="" clip-path="url(#highcharts-1)"><path fill="#0059ff" d="M 242.26490739362947 135.50567158303878 A 52.642444260941375 52.642444260941375 0 0 1 258.68309416907334 135.49746248896696 L 252.68215844508623 173.63265666372453 A 14.037985136251024 14.037985136251024 0 0 0 248.30397530496785 173.63484575547702 Z" stroke="#FFFFFF" stroke-width="1" r="0"></path><path fill="#0059ff" d="M 263.40359128249764 133.75267419767178 A 55.27456647398844 55.27456647398844 0 0 1 279.33373789992754 140.34182724483858 L 258.55513947680515 174.32565332554222 A 15.441783649876129 15.441783649876129 0 0 0 254.1048128027295 172.48487406157182 Z" stroke="#FFFFFF" stroke-width="1" r="0"></path><path fill="#0059ff" d="M 292.0144569447899 130.3602520230122 A 70.628612716763 70.628612716763 0 0 1 307.5982049570905 145.92842407398314 L 264.898677771788 177.01673302735227 A 17.810693641618485 17.810693641618485 0 0 0 260.96886305564266 173.09084616232482 Z" stroke="#FFFFFF" stroke-width="1" r="0"></path><path fill="#0059ff" d="M 294.93621170338366 160.26945444621362 A 52.11601981833195 52.11601981833195 0 0 1 301.1638584629908 175.28308683231282 L 267.64383089404237 183.36599402911597 A 17.635218827415372 17.635218827415372 0 0 0 265.53649587942783 178.2856234742238 Z" stroke="#FFFFFF" stroke-width="1" r="0"></path><path fill="#0059ff" d="M 278.4036229171025 183.0805003012478 A 28.25144508670519 28.25144508670519 0 0 1 278.40802846425436 191.89159387073602 L 262.46058362753763 189.38211165888686 A 12.107762180016522 12.107762180016522 0 0 0 262.4586955359011 185.60592870053478 Z" stroke="#FFFFFF" stroke-width="1" r="0"></path><path fill="#0059ff" d="M 280.10368579906014 194.60721615083602 A 30.444880264244432 30.444880264244432 0 0 1 276.474422136573 203.38143976392834 L 260.97959394559143 193.90749731109503 A 12.283236994219664 12.283236994219664 0 0 0 262.4438501782952 190.36746472944392 Z" stroke="#FFFFFF" stroke-width="1" r="0"></path><path fill="#0059ff" d="M 270.1617517883548 201.7850988493252 A 24.303261767134586 24.303261767134586 0 0 1 264.80475345528777 207.14745686101125 L 255.19939553946278 193.95457969080152 A 7.984104046242777 7.984104046242777 0 0 0 256.9592758582682 192.19293861115017 Z" stroke="#FFFFFF" stroke-width="1" r="0"></path><path fill="#0059ff" d="M 263.9319020997633 209.4188721028475 A 25.70706028075969 25.70706028075969 0 0 1 256.5261878083036 212.49075846743483 L 252.57728658238452 196.11456179252872 A 8.861478117258457 8.861478117258457 0 0 0 255.13010959752933 195.05565215831945 Z" stroke="#FFFFFF" stroke-width="1" r="0"></path><path fill="#0059ff" d="M 252.86072654715954 202.40504081286224 A 15.090834021469874 15.090834021469874 0 0 1 248.15417967153232 202.40739408649614 L 249.6407751122473 192.96026643865846 A 5.52745664739885 5.52745664739885 0 0 0 251.36468472366892 192.95940448378093 Z" stroke="#FFFFFF" stroke-width="1" r="0"></path><path fill="#0059ff" d="M 248.24699199829405 196.88445371151764 A 9.651114781172595 9.651114781172595 0 0 1 245.46553782699678 195.73396667153614 L 248.5319829687351 190.71873242614595 A 3.7727085053674614 3.7727085053674614 0 0 0 249.61927869024223 191.1684682690478 Z" stroke="#FFFFFF" stroke-width="1" r="0"></path><path fill="#0059ff" d="M 244.93035857138221 195.16595376585676 A 9.475639966969453 9.475639966969453 0 0 1 242.83961970762016 193.0773045962855 L 245.7477270408384 190.959994518066 A 5.878406275805133 5.878406275805133 0 0 0 247.04475948409822 192.2557305769667 Z" stroke="#FFFFFF" stroke-width="1" r="0"></path><path fill="#0059ff" d="M 237.93218254853795 195.20156843945475 A 14.73988439306359 14.73988439306359 0 0 1 236.17082790945716 190.9552885726792 L 243.42070664574373 189.2070770924546 A 7.28220478943021 7.28220478943021 0 0 0 244.29089971148008 191.3049415504449 Z" stroke="#FFFFFF" stroke-width="1" r="0"></path><path fill="#0059ff" d="M 237.84804675187277 189.50387253421684 A 12.80966143682906 12.80966143682906 0 0 1 237.84604920564863 185.50878041885883 L 243.47965743601054 186.3952822871751 A 7.106729975227097 7.106729975227097 0 0 0 243.48076566371023 188.61173750186003 Z" stroke="#FFFFFF" stroke-width="1" r="0"></path><path fill="#0059ff" d="M 233.3520436725905 183.3831399241555 A 17.635218827415372 17.635218827415372 0 0 1 235.45429726382946 178.300664574785 L 244.28709787511366 183.7012694512794 A 7.28220478943021 7.28220478943021 0 0 0 243.41900310858216 185.80000305325825 Z" stroke="#FFFFFF" stroke-width="1" r="0"></path><path fill="#0059ff" d="M 235.94888405554968 176.92799543641996 A 17.986168455821627 17.986168455821627 0 0 1 239.91344960890254 172.95946333390864 L 247.55642257418265 183.45702151235508 A 5.001032204789425 5.001032204789425 0 0 0 246.45407995690894 184.56046702378507 Z" stroke="#FFFFFF" stroke-width="1" r="0"></path><path fill="#0059ff" d="M 234.73012176683076 161.76589759938724 A 30.18166804293972 30.18166804293972 0 0 1 243.4248853035616 158.15931429079322 L 248.7517885197754 180.25012126371345 A 7.457679603633352 7.457679603633352 0 0 0 246.60337311099016 181.1412828370579 Z" stroke="#FFFFFF" stroke-width="1" r="0"></path></g><g class="highcharts-markers" visibility="visible" zIndex="0.1" transform="translate(10,10) scale(1 1)"></g><g class="highcharts-series highcharts-tracker" visibility="visible" zIndex="0.1" transform="translate(10,10) scale(1 1)" style="" clip-path="url(#highcharts-1)"><path fill="#00008f" d="M 248.30397530496785 173.63484575547702 A 14.037985136251024 14.037985136251024 0 0 1 252.68215844508623 173.63265666372453 L 250.5 187.5 A 0 0 0 0 0 250.5 187.5 Z" stroke="#FFFFFF" stroke-width="1" r="0"></path><path fill="#00008f" d="M 254.1048128027295 172.48487406157182 A 15.441783649876129 15.441783649876129 0 0 1 258.55513947680515 174.32565332554222 L 250.5 187.5 A 0 0 0 0 0 250.5 187.5 Z" stroke="#FFFFFF" stroke-width="1" r="0"></path><path fill="#00008f" d="M 260.96886305564266 173.09084616232482 A 17.810693641618485 17.810693641618485 0 0 1 264.898677771788 177.01673302735227 L 250.5 187.5 A 0 0 0 0 0 250.5 187.5 Z" stroke="#FFFFFF" stroke-width="1" r="0"></path><path fill="#00008f" d="M 265.53649587942783 178.2856234742238 A 17.635218827415372 17.635218827415372 0 0 1 267.64383089404237 183.36599402911597 L 250.5 187.5 A 0 0 0 0 0 250.5 187.5 Z" stroke="#FFFFFF" stroke-width="1" r="0"></path><path fill="#00008f" d="M 262.4586955359011 185.60592870053478 A 12.107762180016522 12.107762180016522 0 0 1 262.46058362753763 189.38211165888686 L 250.5 187.5 A 0 0 0 0 0 250.5 187.5 Z" stroke="#FFFFFF" stroke-width="1" r="0"></path><path fill="#00008f" d="M 262.4438501782952 190.36746472944392 A 12.283236994219664 12.283236994219664 0 0 1 260.97959394559143 193.90749731109503 L 250.5 187.5 A 0 0 0 0 0 250.5 187.5 Z" stroke="#FFFFFF" stroke-width="1" r="0"></path><path fill="#00008f" d="M 256.9592758582682 192.19293861115017 A 7.984104046242777 7.984104046242777 0 0 1 255.19939553946278 193.95457969080152 L 250.5 187.5 A 0 0 0 0 0 250.5 187.5 Z" stroke="#FFFFFF" stroke-width="1" r="0"></path><path fill="#00008f" d="M 255.13010959752933 195.05565215831945 A 8.861478117258457 8.861478117258457 0 0 1 252.57728658238452 196.11456179252872 L 250.5 187.5 A 0 0 0 0 0 250.5 187.5 Z" stroke="#FFFFFF" stroke-width="1" r="0"></path><path fill="#00008f" d="M 251.36468472366892 192.95940448378093 A 5.52745664739885 5.52745664739885 0 0 1 249.6407751122473 192.96026643865846 L 250.5 187.5 A 0 0 0 0 0 250.5 187.5 Z" stroke="#FFFFFF" stroke-width="1" r="0"></path><path fill="#00008f" d="M 249.61927869024223 191.1684682690478 A 3.7727085053674614 3.7727085053674614 0 0 1 248.5319829687351 190.71873242614595 L 250.5 187.5 A 0 0 0 0 0 250.5 187.5 Z" stroke="#FFFFFF" stroke-width="1" r="0"></path><path fill="#00008f" d="M 247.04475948409822 192.2557305769667 A 5.878406275805133 5.878406275805133 0 0 1 245.7477270408384 190.959994518066 L 250.5 187.5 A 0 0 0 0 0 250.5 187.5 Z" stroke="#FFFFFF" stroke-width="1" r="0"></path><path fill="#00008f" d="M 244.29089971148008 191.3049415504449 A 7.28220478943021 7.28220478943021 0 0 1 243.42070664574373 189.2070770924546 L 250.5 187.5 A 0 0 0 0 0 250.5 187.5 Z" stroke="#FFFFFF" stroke-width="1" r="0"></path><path fill="#00008f" d="M 243.48076566371023 188.61173750186003 A 7.106729975227097 7.106729975227097 0 0 1 243.47965743601054 186.3952822871751 L 250.5 187.5 A 0 0 0 0 0 250.5 187.5 Z" stroke="#FFFFFF" stroke-width="1" r="0"></path><path fill="#00008f" d="M 243.41900310858216 185.80000305325825 A 7.28220478943021 7.28220478943021 0 0 1 244.28709787511366 183.7012694512794 L 250.5 187.5 A 0 0 0 0 0 250.5 187.5 Z" stroke="#FFFFFF" stroke-width="1" r="0"></path><path fill="#00008f" d="M 246.45407995690894 184.56046702378507 A 5.001032204789425 5.001032204789425 0 0 1 247.55642257418265 183.45702151235508 L 250.5 187.5 A 0 0 0 0 0 250.5 187.5 Z" stroke="#FFFFFF" stroke-width="1" r="0"></path><path fill="#00008f" d="M 246.60337311099016 181.1412828370579 A 7.457679603633352 7.457679603633352 0 0 1 248.7517885197754 180.25012126371345 L 250.5 187.5 A 0 0 0 0 0 250.5 187.5 Z" stroke="#FFFFFF" stroke-width="1" r="0"></path></g><g class="highcharts-markers" visibility="visible" zIndex="0.1" transform="translate(10,10) scale(1 1)"></g></g><g class="highcharts-legend" zIndex="7" transform="translate(521,110)"><rect rx="5" ry="5" fill="none" x="0.5" y="0.5" width="68" height="115" stroke="#909090" stroke-width="1" visibility="visible"></rect><g zIndex="1"><g><g class="highcharts-legend-item" zIndex="1" transform="translate(8,3)"><text x="21" y="15" style="font-family:&quot;Lucida Grande&quot;, &quot;Lucida Sans Unicode&quot;, Verdana, Arial, Helvetica, sans-serif;font-size:12px;cursor:pointer;color:#274b6d;fill:#274b6d;" text-anchor="start" zIndex="2"><tspan x="21">&gt;12</tspan></text><rect rx="2" ry="2" fill="#7f0000" x="0" y="4" width="16" height="12" zIndex="3"></rect></g><g class="highcharts-legend-item" zIndex="1" transform="translate(8,18)"><text x="21" y="15" style="font-family:&quot;Lucida Grande&quot;, &quot;Lucida Sans Unicode&quot;, Verdana, Arial, Helvetica, sans-serif;font-size:12px;cursor:pointer;color:#274b6d;fill:#274b6d;" text-anchor="start" zIndex="2"><tspan x="21">10-12</tspan></text><rect rx="2" ry="2" fill="#ff0000" x="0" y="4" width="16" height="12" zIndex="3"></rect></g><g class="highcharts-legend-item" zIndex="1" transform="translate(8,33)"><text x="21" y="15" style="font-family:&quot;Lucida Grande&quot;, &quot;Lucida Sans Unicode&quot;, Verdana, Arial, Helvetica, sans-serif;font-size:12px;cursor:pointer;color:#274b6d;fill:#274b6d;" text-anchor="start" zIndex="2"><tspan x="21">8-10</tspan></text><rect rx="2" ry="2" fill="#ff4900" x="0" y="4" width="16" height="12" zIndex="3"></rect></g><g class="highcharts-legend-item" zIndex="1" transform="translate(8,48)"><text x="21" y="15" style="font-family:&quot;Lucida Grande&quot;, &quot;Lucida Sans Unicode&quot;, Verdana, Arial, Helvetica, sans-serif;font-size:12px;cursor:pointer;color:#274b6d;fill:#274b6d;" text-anchor="start" zIndex="2"><tspan x="21">6-8</tspan></text><rect rx="2" ry="2" fill="#ebff13" x="0" y="4" width="16" height="12" zIndex="3"></rect></g><g class="highcharts-legend-item" zIndex="1" transform="translate(8,63)"><text x="21" y="15" style="font-family:&quot;Lucida Grande&quot;, &quot;Lucida Sans Unicode&quot;, Verdana, Arial, Helvetica, sans-serif;font-size:12px;cursor:pointer;color:#274b6d;fill:#274b6d;" text-anchor="start" zIndex="2"><tspan x="21">4-6</tspan></text><rect rx="2" ry="2" fill="#23ffdb" x="0" y="4" width="16" height="12" zIndex="3"></rect></g><g class="highcharts-legend-item" zIndex="1" transform="translate(8,78)"><text x="21" y="15" style="font-family:&quot;Lucida Grande&quot;, &quot;Lucida Sans Unicode&quot;, Verdana, Arial, Helvetica, sans-serif;font-size:12px;cursor:pointer;color:#274b6d;fill:#274b6d;" text-anchor="start" zIndex="2"><tspan x="21">2-4</tspan></text><rect rx="2" ry="2" fill="#0059ff" x="0" y="4" width="16" height="12" zIndex="3"></rect></g><g class="highcharts-legend-item" zIndex="1" transform="translate(8,93)"><text x="21" y="15" style="font-family:&quot;Lucida Grande&quot;, &quot;Lucida Sans Unicode&quot;, Verdana, Arial, Helvetica, sans-serif;font-size:12px;cursor:pointer;color:#274b6d;fill:#274b6d;" text-anchor="start" zIndex="2"><tspan x="21">0-2</tspan></text><rect rx="2" ry="2" fill="#00008f" x="0" y="4" width="16" height="12" zIndex="3"></rect></g></g></g></g><g class="highcharts-axis-labels" zIndex="7"><text x="260.5" y="28.725" style="font-family:&quot;Lucida Grande&quot;, &quot;Lucida Sans Unicode&quot;, Verdana, Arial, Helvetica, sans-serif;font-size:11px;color:#666;cursor:default;line-height:14px;fill:#666;" text-anchor="middle" opacity="1"><tspan x="260.5">N</tspan></text><text x="327.2304235186625" y="41.998506518344364" style="font-family:&quot;Lucida Grande&quot;, &quot;Lucida Sans Unicode&quot;, Verdana, Arial, Helvetica, sans-serif;font-size:11px;color:#666;cursor:default;line-height:14px;fill:#666;" text-anchor="start" opacity="1"><tspan x="327.2304235186625">NNE</tspan></text><text x="383.80174496940424" y="79.79825503059578" style="font-family:&quot;Lucida Grande&quot;, &quot;Lucida Sans Unicode&quot;, Verdana, Arial, Helvetica, sans-serif;font-size:11px;color:#666;cursor:default;line-height:14px;fill:#666;" text-anchor="start" opacity="1"><tspan x="383.80174496940424">NE</tspan></text><text x="421.60149348165567" y="136.36957648133748" style="font-family:&quot;Lucida Grande&quot;, &quot;Lucida Sans Unicode&quot;, Verdana, Arial, Helvetica, sans-serif;font-size:11px;color:#666;cursor:default;line-height:14px;fill:#666;" text-anchor="start" opacity="1"><tspan x="421.60149348165567">ENE</tspan></text><text x="434.875" y="203.1" style="font-family:&quot;Lucida Grande&quot;, &quot;Lucida Sans Unicode&quot;, Verdana, Arial, Helvetica, sans-serif;font-size:11px;color:#666;cursor:default;line-height:14px;fill:#666;" text-anchor="start" opacity="1"><tspan x="434.875">E</tspan></text><text x="421.60149348165567" y="269.83042351866254" style="font-family:&quot;Lucida Grande&quot;, &quot;Lucida Sans Unicode&quot;, Verdana, Arial, Helvetica, sans-serif;font-size:11px;color:#666;cursor:default;line-height:14px;fill:#666;" text-anchor="start" opacity="1"><tspan x="421.60149348165567">ESE</tspan></text><text x="383.80174496940424" y="326.40174496940426" style="font-family:&quot;Lucida Grande&quot;, &quot;Lucida Sans Unicode&quot;, Verdana, Arial, Helvetica, sans-serif;font-size:11px;color:#666;cursor:default;line-height:14px;fill:#666;" text-anchor="start" opacity="1"><tspan x="383.80174496940424">SE</tspan></text><text x="327.2304235186625" y="364.2014934816557" style="font-family:&quot;Lucida Grande&quot;, &quot;Lucida Sans Unicode&quot;, Verdana, Arial, Helvetica, sans-serif;font-size:11px;color:#666;cursor:default;line-height:14px;fill:#666;" text-anchor="start" opacity="1"><tspan x="327.2304235186625">SSE</tspan></text><text x="260.5" y="377.475" style="font-family:&quot;Lucida Grande&quot;, &quot;Lucida Sans Unicode&quot;, Verdana, Arial, Helvetica, sans-serif;font-size:11px;color:#666;cursor:default;line-height:14px;fill:#666;" text-anchor="middle" opacity="1"><tspan x="260.5">S</tspan></text><text x="193.76957648133748" y="364.2014934816557" style="font-family:&quot;Lucida Grande&quot;, &quot;Lucida Sans Unicode&quot;, Verdana, Arial, Helvetica, sans-serif;font-size:11px;color:#666;cursor:default;line-height:14px;fill:#666;" text-anchor="end" opacity="1"><tspan x="193.76957648133748">SSW</tspan></text><text x="137.1982550305958" y="326.40174496940426" style="font-family:&quot;Lucida Grande&quot;, &quot;Lucida Sans Unicode&quot;, Verdana, Arial, Helvetica, sans-serif;font-size:11px;color:#666;cursor:default;line-height:14px;fill:#666;" text-anchor="end" opacity="1"><tspan x="137.1982550305958">SW</tspan></text><text x="99.39850651834442" y="269.83042351866266" style="font-family:&quot;Lucida Grande&quot;, &quot;Lucida Sans Unicode&quot;, Verdana, Arial, Helvetica, sans-serif;font-size:11px;color:#666;cursor:default;line-height:14px;fill:#666;" text-anchor="end" opacity="1"><tspan x="99.39850651834442">WSW</tspan></text><text x="86.125" y="203.10000000000002" style="font-family:&quot;Lucida Grande&quot;, &quot;Lucida Sans Unicode&quot;, Verdana, Arial, Helvetica, sans-serif;font-size:11px;color:#666;cursor:default;line-height:14px;fill:#666;" text-anchor="end" opacity="1"><tspan x="86.125">W</tspan></text><text x="99.39850651834439" y="136.36957648133742" style="font-family:&quot;Lucida Grande&quot;, &quot;Lucida Sans Unicode&quot;, Verdana, Arial, Helvetica, sans-serif;font-size:11px;color:#666;cursor:default;line-height:14px;fill:#666;" text-anchor="end" opacity="1"><tspan x="99.39850651834439">WNW</tspan></text><text x="137.19825503059576" y="79.79825503059578" style="font-family:&quot;Lucida Grande&quot;, &quot;Lucida Sans Unicode&quot;, Verdana, Arial, Helvetica, sans-serif;font-size:11px;color:#666;cursor:default;line-height:14px;fill:#666;" text-anchor="end" opacity="1"><tspan x="137.19825503059576">NW</tspan></text><text x="193.76957648133737" y="41.99850651834442" style="font-family:&quot;Lucida Grande&quot;, &quot;Lucida Sans Unicode&quot;, Verdana, Arial, Helvetica, sans-serif;font-size:11px;color:#666;cursor:default;line-height:14px;fill:#666;" text-anchor="end" opacity="1"><tspan x="193.76957648133737">NNW</tspan></text><text x="0" y="-9999" style="font-family:&quot;Lucida Grande&quot;, &quot;Lucida Sans Unicode&quot;, Verdana, Arial, Helvetica, sans-serif;font-size:11px;color:#666;cursor:default;line-height:14px;fill:#666;" text-anchor="middle"><tspan x="0">16</tspan></text></g><g class="highcharts-axis-labels" zIndex="7"><text x="257.5" y="195.5" style="font-family:&quot;Lucida Grande&quot;, &quot;Lucida Sans Unicode&quot;, Verdana, Arial, Helvetica, sans-serif;font-size:11px;color:#666;cursor:default;line-height:14px;fill:#666;" text-anchor="end" opacity="1"><tspan x="257.5">0%</tspan></text><text x="257.5" y="107.76259289843105" style="font-family:&quot;Lucida Grande&quot;, &quot;Lucida Sans Unicode&quot;, Verdana, Arial, Helvetica, sans-serif;font-size:11px;color:#666;cursor:default;line-height:14px;fill:#666;" text-anchor="end" opacity="1"><tspan x="257.5">10%</tspan></text></g><g class="highcharts-tooltip" zIndex="8" style="cursor:default;padding:0;white-space:nowrap;" transform="translate(0,-999)"><rect rx="3" ry="3" fill="none" x="0.5" y="0.5" width="16" height="16" fill-opacity="0.85" isShadow="true" stroke="black" stroke-width="5" transform="translate(1, 1)" opacity="0.049999999999999996"></rect><rect rx="3" ry="3" fill="none" x="0.5" y="0.5" width="16" height="16" fill-opacity="0.85" isShadow="true" stroke="black" stroke-width="3" transform="translate(1, 1)" opacity="0.09999999999999999"></rect><rect rx="3" ry="3" fill="none" x="0.5" y="0.5" width="16" height="16" fill-opacity="0.85" isShadow="true" stroke="black" stroke-width="1" transform="translate(1, 1)" opacity="0.15"></rect><rect rx="3" ry="3" fill="rgb(255,255,255)" x="0.5" y="0.5" width="16" height="16" fill-opacity="0.85"></rect><text x="8" y="21" style="font-family:&quot;Lucida Grande&quot;, &quot;Lucida Sans Unicode&quot;, Verdana, Arial, Helvetica, sans-serif;font-size:12px;color:#333333;fill:#333333;" zIndex="1"></text></g></svg>