<?xml version="1.0" standalone="no"?><!DOCTYPE svg PUBLIC "-//W3C//DTD SVG 1.1//EN" "http://www.w3.org/Graphics/SVG/1.1/DTD/svg11.dtd"><svg xmlns:xlink="http://www.w3.org/1999/xlink" version="1.1" xmlns="http://www.w3.org/2000/svg" width="600" height="400"><desc>Created with Highstock 1.3.7</desc><defs><clipPath id="highcharts-1"><rect fill="none" x="0" y="0" width="501" height="375"></rect></clipPath></defs><rect rx="5" ry="5" fill="#FFFFFF" x="0" y="0" width="600" height="400"></rect><g class="highcharts-grid" zIndex="1"><path fill="none" d="M 260.5 197.5 L 321.4901720331862 50.25669950601369" stroke="#C0C0C0" stroke-width="1" zIndex="1" opacity="1"></path><path fill="none" d="M 260.5 197.5 L 373.195143251606 84.804856748394" stroke="#C0C0C0" stroke-width="1" zIndex="1" opacity="1"></path><path fill="none" d="M 260.5 197.5 L 407.74330049398634 136.50982796681382" stroke="#C0C0C0" stroke-width="1" zIndex="1" opacity="1"></path><path fill="none" d="M 260.5 197.5 L 419.875 197.5" stroke="#C0C0C0" stroke-width="1" zIndex="1" opacity="1"></path><path fill="none" d="M 260.5 197.5 L 407.74330049398634 258.4901720331862" stroke="#C0C0C0" stroke-width="1" zIndex="1" opacity="1"></path><path fill="none" d="M 260.5 197.5 L 373.195143251606 310.195143251606" stroke="#C0C0C0" stroke-width="1" zIndex="1" opacity="1"></path><path fill="none" d="M 260.5 197.5 L 321.4901720331862 344.74330049398634" stroke="#C0C0C0" stroke-width="1" zIndex="1" opacity="1"></path><path fill="none" d="M 260.5 197.5 L 260.5 356.875" stroke="#C0C0C0" stroke-width="1" zIndex="1" opacity="1"></path><path fill="none" d="M 260.5 197.5 L 199.50982796681382 344.74330049398634" stroke="#C0C0C0" stroke-width="1" zIndex="1" opacity="1"></path><path fill="none" d="M 260.5 197.5 L 147.804856748394 310.195143251606" stroke="#C0C0C0" stroke-width="1" zIndex="1" opacity="1"></path><path fill="none" d="M 260.5 197.5 L 113.25669950601372 258.49017203318624" stroke="#C0C0C0" stroke-width="1" zIndex="1" opacity="1"></path><path fill="none" d="M 260.5 197.5 L 101.125 197.50000000000003" stroke="#C0C0C0" stroke-width="1" zIndex="1" opacity="1"></path><path fill="none" d="M 260.5 197.5 L 113.25669950601369 136.50982796681376" stroke="#C0C0C0" stroke-width="1" zIndex="1" opacity="1"></path><path fill="none" d="M 260.5 197.5 L 147.80485674839395 84.804856748394" stroke="#C0C0C0" stroke-width="1" zIndex="1" opacity="1"></path><path fill="none" d="M 260.5 197.5 L 199.50982796681373 50.25669950601372" stroke="#C0C0C0" stroke-width="1" zIndex="1" opacity="1"></path><path fill="none" d="M 260.5 197.5 L 260.49999999999994 38.125" stroke="#C0C0C0" stroke-width="1" zIndex="1" opacity="1"></path><path fill="none" d="M 260.5 197.5 L 260.5 38.125" stroke="#C0C0C0" stroke-width="1" zIndex="1" opacity="1"></path></g><g class="highcharts-grid" zIndex="1"><path fill="none" d="M 260.5 116.54761904761905 A 80.95238095238095 80.95238095238095 0 1 1 260.4190476325396 116.54765952380616 M 260.5 197.5 A 0 0 0 1 0 260.5 197.5 " stroke="#C0C0C0" stroke-width="1" zIndex="1" opacity="1"></path><path fill="none" stroke="#C0C0C0" stroke-width="1" zIndex="1"></path></g><g class="highcharts-axis" zIndex="2"><path fill="none" d="M 260.5 38.125 A 159.375 159.375 0 1 1 260.3406250265624 38.125079687493354 M 260.5 197.5 A 0 0 0 1 0 260.5 197.5 " stroke="#C0D0E0" stroke-width="1" zIndex="7" visibility="visible"></path></g><g class="highcharts-axis" zIndex="2"></g><g class="highcharts-series-group" zIndex="3"><g class="highcharts-series highcharts-tracker" visibility="visible" zIndex="0.1" transform="translate(10,10) scale(1 1)" style="" clip-path="url(#highcharts-1)"><path fill="#7f0000" d="M 226.75548298496497 37.58301973109516 A 151.78571428571428 151.78571428571428 0 0 1 274.0945881874948 37.55935017652146 L 274.0945881874948 37.55935017652146 A 151.78571428571428 151.78571428571428 0 0 0 226.75548298496497 37.58301973109516 Z" stroke="#FFFFFF" stroke-width="1" r="0"></path><path fill="#7f0000" d="M 280.02805941629754 64.50678090207961 A 126.48809523809523 126.48809523809523 0 0 1 316.4819663582998 79.58513377456451 L 316.4819663582998 79.58513377456451 A 126.48809523809523 126.48809523809523 0 0 0 280.02805941629754 64.50678090207961 Z" stroke="#FFFFFF" stroke-width="1" r="0"></path><path fill="#7f0000" d="M 290.1601101540867 132.91254142001992 A 67.47380952380952 67.47380952380952 0 0 1 305.04777118270897 147.7853222264847 L 305.04777118270897 147.7853222264847 A 67.47380952380952 67.47380952380952 0 0 0 290.1601101540867 132.91254142001992 Z" stroke="#FFFFFF" stroke-width="1" r="0"></path><path fill="#7f0000" d="M 0 0" stroke="#FFFFFF" stroke-width="1" r="0"></path><path fill="#7f0000" d="M 0 0" stroke="#FFFFFF" stroke-width="1" r="0"></path><path fill="#7f0000" d="M 258.6864286631576 189.46538763474877 A 8.419047619047632 8.419047619047632 0 0 1 257.682813495965 191.89175968080843 L 257.682813495965 191.89175968080843 A 8.419047619047632 8.419047619047632 0 0 0 258.6864286631576 189.46538763474877 Z" stroke="#FFFFFF" stroke-width="1" r="0"></path><path fill="#7f0000" d="M 0 0" stroke="#FFFFFF" stroke-width="1" r="0"></path><path fill="#7f0000" d="M 0 0" stroke="#FFFFFF" stroke-width="1" r="0"></path><path fill="#7f0000" d="M 0 0" stroke="#FFFFFF" stroke-width="1" r="0"></path><path fill="#7f0000" d="M 0 0" stroke="#FFFFFF" stroke-width="1" r="0"></path><path fill="#7f0000" d="M 0 0" stroke="#FFFFFF" stroke-width="1" r="0"></path><path fill="#7f0000" d="M 0 0" stroke="#FFFFFF" stroke-width="1" r="0"></path><path fill="#7f0000" d="M 0 0" stroke="#FFFFFF" stroke-width="1" r="0"></path><path fill="#7f0000" d="M 0 0" stroke="#FFFFFF" stroke-width="1" r="0"></path><path fill="#7f0000" d="M 0 0" stroke="#FFFFFF" stroke-width="1" r="0"></path><path fill="#7f0000" d="M 224.06406071377637 144.36046787494178 A 50.5952380952381 50.5952380952381 0 0 1 238.6395848596527 138.3145481812716 L 238.6395848596527 138.3145481812716 A 50.5952380952381 50.5952380952381 0 0 0 224.06406071377637 144.36046787494178 Z" stroke="#FFFFFF" stroke-width="1" r="0"></path></g><g class="highcharts-markers" visibility="visible" zIndex="0.1" transform="translate(10,10) scale(1 1)"></g><g class="highcharts-series highcharts-tracker" visibility="visible" zIndex="0.1" transform="translate(10,10) scale(1 1)" style="" clip-path="url(#highcharts-1)"><path fill="#ff0000" d="M 226.75548298496497 37.58301973109516 A 151.78571428571428 151.78571428571428 0 0 1 274.0945881874948 37.55935017652146 L 274.0945881874948 37.55935017652146 A 151.78571428571428 151.78571428571428 0 0 0 226.75548298496497 37.58301973109516 Z" stroke="#FFFFFF" stroke-width="1" r="0"></path><path fill="#ff0000" d="M 280.02805941629754 64.50678090207961 A 126.48809523809523 126.48809523809523 0 0 1 316.4819663582998 79.58513377456451 L 316.4819663582998 79.58513377456451 A 126.48809523809523 126.48809523809523 0 0 0 280.02805941629754 64.50678090207961 Z" stroke="#FFFFFF" stroke-width="1" r="0"></path><path fill="#ff0000" d="M 290.1601101540867 132.91254142001992 A 67.47380952380952 67.47380952380952 0 0 1 305.04777118270897 147.7853222264847 L 305.04777118270897 147.7853222264847 A 67.47380952380952 67.47380952380952 0 0 0 290.1601101540867 132.91254142001992 Z" stroke="#FFFFFF" stroke-width="1" r="0"></path><path fill="#ff0000" d="M 0 0" stroke="#FFFFFF" stroke-width="1" r="0"></path><path fill="#ff0000" d="M 0 0" stroke="#FFFFFF" stroke-width="1" r="0"></path><path fill="#ff0000" d="M 258.6864286631576 189.46538763474877 A 8.419047619047632 8.419047619047632 0 0 1 257.682813495965 191.89175968080843 L 257.682813495965 191.89175968080843 A 8.419047619047632 8.419047619047632 0 0 0 258.6864286631576 189.46538763474877 Z" stroke="#FFFFFF" stroke-width="1" r="0"></path><path fill="#ff0000" d="M 0 0" stroke="#FFFFFF" stroke-width="1" r="0"></path><path fill="#ff0000" d="M 0 0" stroke="#FFFFFF" stroke-width="1" r="0"></path><path fill="#ff0000" d="M 0 0" stroke="#FFFFFF" stroke-width="1" r="0"></path><path fill="#ff0000" d="M 0 0" stroke="#FFFFFF" stroke-width="1" r="0"></path><path fill="#ff0000" d="M 0 0" stroke="#FFFFFF" stroke-width="1" r="0"></path><path fill="#ff0000" d="M 0 0" stroke="#FFFFFF" stroke-width="1" r="0"></path><path fill="#ff0000" d="M 0 0" stroke="#FFFFFF" stroke-width="1" r="0"></path><path fill="#ff0000" d="M 0 0" stroke="#FFFFFF" stroke-width="1" r="0"></path><path fill="#ff0000" d="M 0 0" stroke="#FFFFFF" stroke-width="1" r="0"></path><path fill="#ff0000" d="M 224.06406071377637 144.36046787494178 A 50.5952380952381 50.5952380952381 0 0 1 238.6395848596527 138.3145481812716 L 238.6395848596527 138.3145481812716 A 50.5952380952381 50.5952380952381 0 0 0 224.06406071377637 144.36046787494178 Z" stroke="#FFFFFF" stroke-width="1" r="0"></path></g><g class="highcharts-markers" visibility="visible" zIndex="0.1" transform="translate(10,10) scale(1 1)"></g><g class="highcharts-series highcharts-tracker" visibility="visible" zIndex="0.1" transform="translate(10,10) scale(1 1)" style="" clip-path="url(#highcharts-1)"><path fill="#ff4900" d="M 226.75548298496497 37.58301973109516 A 151.78571428571428 151.78571428571428 0 0 1 274.0945881874948 37.55935017652146 L 274.0945881874948 37.55935017652146 A 151.78571428571428 151.78571428571428 0 0 0 226.75548298496497 37.58301973109516 Z" stroke="#FFFFFF" stroke-width="1" r="0"></path><path fill="#ff4900" d="M 280.02805941629754 64.50678090207961 A 126.48809523809523 126.48809523809523 0 0 1 316.4819663582998 79.58513377456451 L 316.4819663582998 79.58513377456451 A 126.48809523809523 126.48809523809523 0 0 0 280.02805941629754 64.50678090207961 Z" stroke="#FFFFFF" stroke-width="1" r="0"></path><path fill="#ff4900" d="M 290.1601101540867 132.91254142001992 A 67.47380952380952 67.47380952380952 0 0 1 305.04777118270897 147.7853222264847 L 305.04777118270897 147.7853222264847 A 67.47380952380952 67.47380952380952 0 0 0 290.1601101540867 132.91254142001992 Z" stroke="#FFFFFF" stroke-width="1" r="0"></path><path fill="#ff4900" d="M 0 0" stroke="#FFFFFF" stroke-width="1" r="0"></path><path fill="#ff4900" d="M 0 0" stroke="#FFFFFF" stroke-width="1" r="0"></path><path fill="#ff4900" d="M 258.6864286631576 189.46538763474877 A 8.419047619047632 8.419047619047632 0 0 1 257.682813495965 191.89175968080843 L 257.682813495965 191.89175968080843 A 8.419047619047632 8.419047619047632 0 0 0 258.6864286631576 189.46538763474877 Z" stroke="#FFFFFF" stroke-width="1" r="0"></path><path fill="#ff4900" d="M 0 0" stroke="#FFFFFF" stroke-width="1" r="0"></path><path fill="#ff4900" d="M 0 0" stroke="#FFFFFF" stroke-width="1" r="0"></path><path fill="#ff4900" d="M 0 0" stroke="#FFFFFF" stroke-width="1" r="0"></path><path fill="#ff4900" d="M 0 0" stroke="#FFFFFF" stroke-width="1" r="0"></path><path fill="#ff4900" d="M 0 0" stroke="#FFFFFF" stroke-width="1" r="0"></path><path fill="#ff4900" d="M 0 0" stroke="#FFFFFF" stroke-width="1" r="0"></path><path fill="#ff4900" d="M 0 0" stroke="#FFFFFF" stroke-width="1" r="0"></path><path fill="#ff4900" d="M 0 0" stroke="#FFFFFF" stroke-width="1" r="0"></path><path fill="#ff4900" d="M 0 0" stroke="#FFFFFF" stroke-width="1" r="0"></path><path fill="#ff4900" d="M 224.06406071377637 144.36046787494178 A 50.5952380952381 50.5952380952381 0 0 1 238.6395848596527 138.3145481812716 L 238.6395848596527 138.3145481812716 A 50.5952380952381 50.5952380952381 0 0 0 224.06406071377637 144.36046787494178 Z" stroke="#FFFFFF" stroke-width="1" r="0"></path></g><g class="highcharts-markers" visibility="visible" zIndex="0.1" transform="translate(10,10) scale(1 1)"></g><g class="highcharts-series highcharts-tracker" visibility="visible" zIndex="0.1" transform="translate(10,10) scale(1 1)" style="" clip-path="url(#highcharts-1)"><path fill="#ebff13" d="M 226.75548298496497 37.58301973109516 A 151.78571428571428 151.78571428571428 0 0 1 274.0945881874948 37.55935017652146 L 274.0945881874948 37.55935017652146 A 151.78571428571428 151.78571428571428 0 0 0 226.75548298496497 37.58301973109516 Z" stroke="#FFFFFF" stroke-width="1" r="0"></path><path fill="#ebff13" d="M 280.02805941629754 64.50678090207961 A 126.48809523809523 126.48809523809523 0 0 1 316.4819663582998 79.58513377456451 L 312.0902066774914 86.76794727052948 A 118.06904761904762 118.06904761904762 0 0 0 278.06267178154883 72.69320956523718 Z" stroke="#FFFFFF" stroke-width="1" r="0"></path><path fill="#ebff13" d="M 290.1601101540867 132.91254142001992 A 67.47380952380952 67.47380952380952 0 0 1 305.04777118270897 147.7853222264847 L 291.40264785746024 157.71994768032746 A 50.5952380952381 50.5952380952381 0 0 0 280.23913478860726 146.56759254650564 Z" stroke="#FFFFFF" stroke-width="1" r="0"></path><path fill="#ebff13" d="M 0 0" stroke="#FFFFFF" stroke-width="1" r="0"></path><path fill="#ebff13" d="M 0 0" stroke="#FFFFFF" stroke-width="1" r="0"></path><path fill="#ebff13" d="M 258.6864286631576 189.46538763474877 A 8.419047619047632 8.419047619047632 0 0 1 257.682813495965 191.89175968080843 L 257.682813495965 191.89175968080843 A 8.419047619047632 8.419047619047632 0 0 0 258.6864286631576 189.46538763474877 Z" stroke="#FFFFFF" stroke-width="1" r="0"></path><path fill="#ebff13" d="M 0 0" stroke="#FFFFFF" stroke-width="1" r="0"></path><path fill="#ebff13" d="M 0 0" stroke="#FFFFFF" stroke-width="1" r="0"></path><path fill="#ebff13" d="M 0 0" stroke="#FFFFFF" stroke-width="1" r="0"></path><path fill="#ebff13" d="M 0 0" stroke="#FFFFFF" stroke-width="1" r="0"></path><path fill="#ebff13" d="M 0 0" stroke="#FFFFFF" stroke-width="1" r="0"></path><path fill="#ebff13" d="M 0 0" stroke="#FFFFFF" stroke-width="1" r="0"></path><path fill="#ebff13" d="M 0 0" stroke="#FFFFFF" stroke-width="1" r="0"></path><path fill="#ebff13" d="M 0 0" stroke="#FFFFFF" stroke-width="1" r="0"></path><path fill="#ebff13" d="M 0 0" stroke="#FFFFFF" stroke-width="1" r="0"></path><path fill="#ebff13" d="M 224.06406071377637 144.36046787494178 A 50.5952380952381 50.5952380952381 0 0 1 238.6395848596527 138.3145481812716 L 238.6395848596527 138.3145481812716 A 50.5952380952381 50.5952380952381 0 0 0 224.06406071377637 144.36046787494178 Z" stroke="#FFFFFF" stroke-width="1" r="0"></path></g><g class="highcharts-markers" visibility="visible" zIndex="0.1" transform="translate(10,10) scale(1 1)"></g><g class="highcharts-series highcharts-tracker" visibility="visible" zIndex="0.1" transform="translate(10,10) scale(1 1)" style="" clip-path="url(#highcharts-1)"><path fill="#23ffdb" d="M 226.75548298496497 37.58301973109516 A 151.78571428571428 151.78571428571428 0 0 1 274.0945881874948 37.55935017652146 L 270.1621568229123 62.54945848043455 A 126.48809523809523 126.48809523809523 0 0 0 230.7129024874708 62.569183109245984 Z" stroke="#FFFFFF" stroke-width="1" r="0"></path><path fill="#23ffdb" d="M 278.06267178154883 72.69320956523718 A 118.06904761904762 118.06904761904762 0 0 1 312.0902066774914 86.76794727052948 L 285.69742013417147 129.93389376070368 A 67.47380952380952 67.47380952380952 0 0 0 266.2514480150298 121.89049720440535 Z" stroke="#FFFFFF" stroke-width="1" r="0"></path><path fill="#23ffdb" d="M 280.23913478860726 146.56759254650564 A 50.5952380952381 50.5952380952381 0 0 1 291.40264785746024 157.71994768032746 L 257.3062006034814 182.54459929400647 A 8.419047619047632 8.419047619047632 0 0 0 255.44859202882427 180.68884739973853 Z" stroke="#FFFFFF" stroke-width="1" r="0"></path><path fill="#23ffdb" d="M 0 0" stroke="#FFFFFF" stroke-width="1" r="0"></path><path fill="#23ffdb" d="M 0 0" stroke="#FFFFFF" stroke-width="1" r="0"></path><path fill="#23ffdb" d="M 258.6864286631576 189.46538763474877 A 8.419047619047632 8.419047619047632 0 0 1 257.682813495965 191.89175968080843 L 250.5 187.5 A 0 0 0 0 0 250.5 187.5 Z" stroke="#FFFFFF" stroke-width="1" r="0"></path><path fill="#23ffdb" d="M 0 0" stroke="#FFFFFF" stroke-width="1" r="0"></path><path fill="#23ffdb" d="M 0 0" stroke="#FFFFFF" stroke-width="1" r="0"></path><path fill="#23ffdb" d="M 0 0" stroke="#FFFFFF" stroke-width="1" r="0"></path><path fill="#23ffdb" d="M 0 0" stroke="#FFFFFF" stroke-width="1" r="0"></path><path fill="#23ffdb" d="M 0 0" stroke="#FFFFFF" stroke-width="1" r="0"></path><path fill="#23ffdb" d="M 0 0" stroke="#FFFFFF" stroke-width="1" r="0"></path><path fill="#23ffdb" d="M 0 0" stroke="#FFFFFF" stroke-width="1" r="0"></path><path fill="#23ffdb" d="M 0 0" stroke="#FFFFFF" stroke-width="1" r="0"></path><path fill="#23ffdb" d="M 0 0" stroke="#FFFFFF" stroke-width="1" r="0"></path><path fill="#23ffdb" d="M 224.06406071377637 144.36046787494178 A 50.5952380952381 50.5952380952381 0 0 1 238.6395848596527 138.3145481812716 L 240.6131579390065 146.49900736390802 A 42.17619047619047 42.17619047619047 0 0 0 228.463001011004 151.53888602055147 Z" stroke="#FFFFFF" stroke-width="1" r="0"></path></g><g class="highcharts-markers" visibility="visible" zIndex="0.1" transform="translate(10,10) scale(1 1)"></g><g class="highcharts-series highcharts-tracker" visibility="visible" zIndex="0.1" transform="translate(10,10) scale(1 1)" style="" clip-path="url(#highcharts-1)"><path fill="#0059ff" d="M 230.7129024874708 62.569183109245984 A 126.48809523809523 126.48809523809523 0 0 1 270.1621568229123 62.54945848043455 L 250.5 187.5 A 0 0 0 0 0 250.5 187.5 Z" stroke="#FFFFFF" stroke-width="1" r="0"></path><path fill="#0059ff" d="M 266.2514480150298 121.89049720440535 A 67.47380952380952 67.47380952380952 0 0 1 285.69742013417147 129.93389376070368 L 250.5 187.5 A 0 0 0 0 0 250.5 187.5 Z" stroke="#FFFFFF" stroke-width="1" r="0"></path><path fill="#0059ff" d="M 255.44859202882427 180.68884739973853 A 8.419047619047632 8.419047619047632 0 0 1 257.3062006034814 182.54459929400647 L 250.5 187.5 A 0 0 0 0 0 250.5 187.5 Z" stroke="#FFFFFF" stroke-width="1" r="0"></path><path fill="#0059ff" d="M 0 0" stroke="#FFFFFF" stroke-width="1" r="0"></path><path fill="#0059ff" d="M 0 0" stroke="#FFFFFF" stroke-width="1" r="0"></path><path fill="#0059ff" d="M 0 0" stroke="#FFFFFF" stroke-width="1" r="0"></path><path fill="#0059ff" d="M 0 0" stroke="#FFFFFF" stroke-width="1" r="0"></path><path fill="#0059ff" d="M 0 0" stroke="#FFFFFF" stroke-width="1" r="0"></path><path fill="#0059ff" d="M 0 0" stroke="#FFFFFF" stroke-width="1" r="0"></path><path fill="#0059ff" d="M 0 0" stroke="#FFFFFF" stroke-width="1" r="0"></path><path fill="#0059ff" d="M 0 0" stroke="#FFFFFF" stroke-width="1" r="0"></path><path fill="#0059ff" d="M 0 0" stroke="#FFFFFF" stroke-width="1" r="0"></path><path fill="#0059ff" d="M 0 0" stroke="#FFFFFF" stroke-width="1" r="0"></path><path fill="#0059ff" d="M 0 0" stroke="#FFFFFF" stroke-width="1" r="0"></path><path fill="#0059ff" d="M 0 0" stroke="#FFFFFF" stroke-width="1" r="0"></path><path fill="#0059ff" d="M 228.463001011004 151.53888602055147 A 42.17619047619047 42.17619047619047 0 0 1 240.6131579390065 146.49900736390802 L 250.5 187.5 A 0 0 0 0 0 250.5 187.5 Z" stroke="#FFFFFF" stroke-width="1" r="0"></path></g><g class="highcharts-markers" visibility="visible" zIndex="0.1" transform="translate(10,10) scale(1 1)"></g><g class="highcharts-series highcharts-tracker" visibility="visible" zIndex="0.1" transform="translate(10,10) scale(1 1)" style="" clip-path="url(#highcharts-1)"><path fill="#00008f" d="M 0 0" stroke="#FFFFFF" stroke-width="1" r="0"></path><path fill="#00008f" d="M 0 0" stroke="#FFFFFF" stroke-width="1" r="0"></path><path fill="#00008f" d="M 0 0" stroke="#FFFFFF" stroke-width="1" r="0"></path><path fill="#00008f" d="M 0 0" stroke="#FFFFFF" stroke-width="1" r="0"></path><path fill="#00008f" d="M 0 0" stroke="#FFFFFF" stroke-width="1" r="0"></path><path fill="#00008f" d="M 0 0" stroke="#FFFFFF" stroke-width="1" r="0"></path><path fill="#00008f" d="M 0 0" stroke="#FFFFFF" stroke-width="1" r="0"></path><path fill="#00008f" d="M 0 0" stroke="#FFFFFF" stroke-width="1" r="0"></path><path fill="#00008f" d="M 0 0" stroke="#FFFFFF" stroke-width="1" r="0"></path><path fill="#00008f" d="M 0 0" stroke="#FFFFFF" stroke-width="1" r="0"></path><path fill="#00008f" d="M 0 0" stroke="#FFFFFF" stroke-width="1" r="0"></path><path fill="#00008f" d="M 0 0" stroke="#FFFFFF" stroke-width="1" r="0"></path><path fill="#00008f" d="M 0 0" stroke="#FFFFFF" stroke-width="1" r="0"></path><path fill="#00008f" d="M 0 0" stroke="#FFFFFF" stroke-width="1" r="0"></path><path fill="#00008f" d="M 0 0" stroke="#FFFFFF" stroke-width="1" r="0"></path><path fill="#00008f" d="M 0 0" stroke="#FFFFFF" stroke-width="1" r="0"></path></g><g class="highcharts-markers" visibility="visible" zIndex="0.1" transform="translate(10,10) scale(1 1)"></g></g><g class="highcharts-legend" zIndex="7" transform="translate(521,110)"><rect rx="5" ry="5" fill="none" x="0.5" y="0.5" width="68" height="115" stroke="#909090" stroke-width="1" visibility="visible"></rect><g zIndex="1"><g><g class="highcharts-legend-item" zIndex="1" transform="translate(8,3)"><text x="21" y="15" style="font-family:&quot;Lucida Grande&quot;, &quot;Lucida Sans Unicode&quot;, Verdana, Arial, Helvetica, sans-serif;font-size:12px;cursor:pointer;color:#274b6d;fill:#274b6d;" text-anchor="start" zIndex="2"><tspan x="21">&gt;12</tspan></text><rect rx="2" ry="2" fill="#7f0000" x="0" y="4" width="16" height="12" zIndex="3"></rect></g><g class="highcharts-legend-item" zIndex="1" transform="translate(8,18)"><text x="21" y="15" style="font-family:&quot;Lucida Grande&quot;, &quot;Lucida Sans Unicode&quot;, Verdana, Arial, Helvetica, sans-serif;font-size:12px;cursor:pointer;color:#274b6d;fill:#274b6d;" text-anchor="start" zIndex="2"><tspan x="21">10-12</tspan></text><rect rx="2" ry="2" fill="#ff0000" x="0" y="4" width="16" height="12" zIndex="3"></rect></g><g class="highcharts-legend-item" zIndex="1" transform="translate(8,33)"><text x="21" y="15" style="font-family:&quot;Lucida Grande&quot;, &quot;Lucida Sans Unicode&quot;, Verdana, Arial, Helvetica, sans-serif;font-size:12px;cursor:pointer;color:#274b6d;fill:#274b6d;" text-anchor="start" zIndex="2"><tspan x="21">8-10</tspan></text><rect rx="2" ry="2" fill="#ff4900" x="0" y="4" width="16" height="12" zIndex="3"></rect></g><g class="highcharts-legend-item" zIndex="1" transform="translate(8,48)"><text x="21" y="15" style="font-family:&quot;Lucida Grande&quot;, &quot;Lucida Sans Unicode&quot;, Verdana, Arial, Helvetica, sans-serif;font-size:12px;cursor:pointer;color:#274b6d;fill:#274b6d;" text-anchor="start" zIndex="2"><tspan x="21">6-8</tspan></text><rect rx="2" ry="2" fill="#ebff13" x="0" y="4" width="16" height="12" zIndex="3"></rect></g><g class="highcharts-legend-item" zIndex="1" transform="translate(8,63)"><text x="21" y="15" style="font-family:&quot;Lucida Grande&quot;, &quot;Lucida Sans Unicode&quot;, Verdana, Arial, Helvetica, sans-serif;font-size:12px;cursor:pointer;color:#274b6d;fill:#274b6d;" text-anchor="start" zIndex="2"><tspan x="21">4-6</tspan></text><rect rx="2" ry="2" fill="#23ffdb" x="0" y="4" width="16" height="12" zIndex="3"></rect></g><g class="highcharts-legend-item" zIndex="1" transform="translate(8,78)"><text x="21" y="15" style="font-family:&quot;Lucida Grande&quot;, &quot;Lucida Sans Unicode&quot;, Verdana, Arial, Helvetica, sans-serif;font-size:12px;cursor:pointer;color:#274b6d;fill:#274b6d;" text-anchor="start" zIndex="2"><tspan x="21">2-4</tspan></text><rect rx="2" ry="2" fill="#0059ff" x="0" y="4" width="16" height="12" zIndex="3"></rect></g><g class="highcharts-legend-item" zIndex="1" transform="translate(8,93)"><text x="21" y="15" style="font-family:&quot;Lucida Grande&quot;, &quot;Lucida Sans Unicode&quot;, Verdana, Arial, Helvetica, sans-serif;font-size:12px;cursor:pointer;color:#274b6d;fill:#274b6d;" text-anchor="start" zIndex="2"><tspan x="21">0-2</tspan></text><rect rx="2" ry="2" fill="#00008f" x="0" y="4" width="16" height="12" zIndex="3"></rect></g></g></g></g><g class="highcharts-axis-labels" zIndex="7"><text x="260.5" y="28.725" style="font-family:&quot;Lucida Grande&quot;, &quot;Lucida Sans Unicode&quot;, Verdana, Arial, Helvetica, sans-serif;font-size:11px;color:#666;cursor:default;line-height:14px;fill:#666;" text-anchor="middle" opacity="1"><tspan x="260.5">N</tspan></text><text x="327.2304235186625" y="41.998506518344364" style="font-family:&quot;Lucida Grande&quot;, &quot;Lucida Sans Unicode&quot;, Verdana, Arial, Helvetica, sans-serif;font-size:11px;color:#666;cursor:default;line-height:14px;fill:#666;" text-anchor="start" opacity="1"><tspan x="327.2304235186625">NNE</tspan></text><text x="383.80174496940424" y="79.79825503059578" style="font-family:&quot;Lucida Grande&quot;, &quot;Lucida Sans Unicode&quot;, Verdana, Arial, Helvetica, sans-serif;font-size:11px;color:#666;cursor:default;line-height:14px;fill:#666;" text-anchor="start" opacity="1"><tspan x="383.80174496940424">NE</tspan></text><text x="421.60149348165567" y="136.36957648133748" style="font-family:&quot;Lucida Grande&quot;, &quot;Lucida Sans Unicode&quot;, Verdana, Arial, Helvetica, sans-serif;font-size:11px;color:#666;cursor:default;line-height:14px;fill:#666;" text-anchor="start" opacity="1"><tspan x="421.60149348165567">ENE</tspan></text><text x="434.875" y="203.1" style="font-family:&quot;Lucida Grande&quot;, &quot;Lucida Sans Unicode&quot;, Verdana, Arial, Helvetica, sans-serif;font-size:11px;color:#666;cursor:default;line-height:14px;fill:#666;" text-anchor="start" opacity="1"><tspan x="434.875">E</tspan></text><text x="421.60149348165567" y="269.83042351866254" style="font-family:&quot;Lucida Grande&quot;, &quot;Lucida Sans Unicode&quot;, Verdana, Arial, Helvetica, sans-serif;font-size:11px;color:#666;cursor:default;line-height:14px;fill:#666;" text-anchor="start" opacity="1"><tspan x="421.60149348165567">ESE</tspan></text><text x="383.80174496940424" y="326.40174496940426" style="font-family:&quot;Lucida Grande&quot;, &quot;Lucida Sans Unicode&quot;, Verdana, Arial, Helvetica, sans-serif;font-size:11px;color:#666;cursor:default;line-height:14px;fill:#666;" text-anchor="start" opacity="1"><tspan x="383.80174496940424">SE</tspan></text><text x="327.2304235186625" y="364.2014934816557" style="font-family:&quot;Lucida Grande&quot;, &quot;Lucida Sans Unicode&quot;, Verdana, Arial, Helvetica, sans-serif;font-size:11px;color:#666;cursor:default;line-height:14px;fill:#666;" text-anchor="start" opacity="1"><tspan x="327.2304235186625">SSE</tspan></text><text x="260.5" y="377.475" style="font-family:&quot;Lucida Grande&quot;, &quot;Lucida Sans Unicode&quot;, Verdana, Arial, Helvetica, sans-serif;font-size:11px;color:#666;cursor:default;line-height:14px;fill:#666;" text-anchor="middle" opacity="1"><tspan x="260.5">S</tspan></text><text x="193.76957648133748" y="364.2014934816557" style="font-family:&quot;Lucida Grande&quot;, &quot;Lucida Sans Unicode&quot;, Verdana, Arial, Helvetica, sans-serif;font-size:11px;color:#666;cursor:default;line-height:14px;fill:#666;" text-anchor="end" opacity="1"><tspan x="193.76957648133748">SSW</tspan></text><text x="137.1982550305958" y="326.40174496940426" style="font-family:&quot;Lucida Grande&quot;, &quot;Lucida Sans Unicode&quot;, Verdana, Arial, Helvetica, sans-serif;font-size:11px;color:#666;cursor:default;line-height:14px;fill:#666;" text-anchor="end" opacity="1"><tspan x="137.1982550305958">SW</tspan></text><text x="99.39850651834442" y="269.83042351866266" style="font-family:&quot;Lucida Grande&quot;, &quot;Lucida Sans Unicode&quot;, Verdana, Arial, Helvetica, sans-serif;font-size:11px;color:#666;cursor:default;line-height:14px;fill:#666;" text-anchor="end" opacity="1"><tspan x="99.39850651834442">WSW</tspan></text><text x="86.125" y="203.10000000000002" style="font-family:&quot;Lucida Grande&quot;, &quot;Lucida Sans Unicode&quot;, Verdana, Arial, Helvetica, sans-serif;font-size:11px;color:#666;cursor:default;line-height:14px;fill:#666;" text-anchor="end" opacity="1"><tspan x="86.125">W</tspan></text><text x="99.39850651834439" y="136.36957648133742" style="font-family:&quot;Lucida Grande&quot;, &quot;Lucida Sans Unicode&quot;, Verdana, Arial, Helvetica, sans-serif;font-size:11px;color:#666;cursor:default;line-height:14px;fill:#666;" text-anchor="end" opacity="1"><tspan x="99.39850651834439">WNW</tspan></text><text x="137.19825503059576" y="79.79825503059578" style="font-family:&quot;Lucida Grande&quot;, &quot;Lucida Sans Unicode&quot;, Verdana, Arial, Helvetica, sans-serif;font-size:11px;color:#666;cursor:default;line-height:14px;fill:#666;" text-anchor="end" opacity="1"><tspan x="137.19825503059576">NW</tspan></text><text x="193.76957648133737" y="41.99850651834442" style="font-family:&quot;Lucida Grande&quot;, &quot;Lucida Sans Unicode&quot;, Verdana, Arial, Helvetica, sans-serif;font-size:11px;color:#666;cursor:default;line-height:14px;fill:#666;" text-anchor="end" opacity="1"><tspan x="193.76957648133737">NNW</tspan></text><text x="0" y="-9999" style="font-family:&quot;Lucida Grande&quot;, &quot;Lucida Sans Unicode&quot;, Verdana, Arial, Helvetica, sans-serif;font-size:11px;color:#666;cursor:default;line-height:14px;fill:#666;" text-anchor="middle"><tspan x="0">16</tspan></text></g><g class="highcharts-axis-labels" zIndex="7"><text x="257.5" y="195.5" style="font-family:&quot;Lucida Grande&quot;, &quot;Lucida Sans Unicode&quot;, Verdana, Arial, Helvetica, sans-serif;font-size:11px;color:#666;cursor:default;line-height:14px;fill:#666;" text-anchor="end" opacity="1"><tspan x="257.5">0%</tspan></text><text x="257.5" y="114.54761904761905" style="font-family:&quot;Lucida Grande&quot;, &quot;Lucida Sans Unicode&quot;, Verdana, Arial, Helvetica, sans-serif;font-size:11px;color:#666;cursor:default;line-height:14px;fill:#666;" text-anchor="end" opacity="1"><tspan x="257.5">20%</tspan></text></g><g class="highcharts-tooltip" zIndex="8" style="cursor:default;padding:0;white-space:nowrap;" transform="translate(0,-999)"><rect rx="3" ry="3" fill="none" x="0.5" y="0.5" width="16" height="16" fill-opacity="0.85" isShadow="true" stroke="black" stroke-width="5" transform="translate(1, 1)" opacity="0.049999999999999996"></rect><rect rx="3" ry="3" fill="none" x="0.5" y="0.5" width="16" height="16" fill-opacity="0.85" isShadow="true" stroke="black" stroke-width="3" transform="translate(1, 1)" opacity="0.09999999999999999"></rect><rect rx="3" ry="3" fill="none" x="0.5" y="0.5" width="16" height="16" fill-opacity="0.85" isShadow="true" stroke="black" stroke-width="1" transform="translate(1, 1)" opacity="0.15"></rect><rect rx="3" ry="3" fill="rgb(255,255,255)" x="0.5" y="0.5" width="16" height="16" fill-opacity="0.85"></rect><text x="8" y="21" style="font-family:&quot;Lucida Grande&quot;, &quot;Lucida Sans Unicode&quot;, Verdana, Arial, Helvetica, sans-serif;font-size:12px;color:#333333;fill:#333333;" zIndex="1"></text></g></svg>