<?xml version="1.0" standalone="no"?><!DOCTYPE svg PUBLIC "-//W3C//DTD SVG 1.1//EN" "http://www.w3.org/Graphics/SVG/1.1/DTD/svg11.dtd"><svg xmlns:xlink="http://www.w3.org/1999/xlink" version="1.1" xmlns="http://www.w3.org/2000/svg" width="600" height="400"><desc>Created with Highstock 1.3.7</desc><defs><clipPath id="highcharts-1"><rect fill="none" x="0" y="0" width="513" height="375"></rect></clipPath></defs><rect rx="5" ry="5" fill="#FFFFFF" x="0" y="0" width="600" height="400"></rect><g class="highcharts-grid" zIndex="1"><path fill="none" d="M 266.5 197.5 L 425.875 197.5" stroke="#C0C0C0" stroke-width="1" zIndex="1" opacity="1"></path><path fill="none" d="M 266.5 197.5 L 266.5 356.875" stroke="#C0C0C0" stroke-width="1" zIndex="1" opacity="1"></path><path fill="none" d="M 266.5 197.5 L 107.125 197.50000000000003" stroke="#C0C0C0" stroke-width="1" zIndex="1" opacity="1"></path><path fill="none" d="M 266.5 197.5 L 266.49999999999994 38.125" stroke="#C0C0C0" stroke-width="1" zIndex="1" opacity="1"></path><path fill="none" d="M 266.5 197.5 L 266.5 38.125" stroke="#C0C0C0" stroke-width="1" zIndex="1" opacity="1"></path></g><g class="highcharts-grid" zIndex="1"><path fill="none" d="M 266.5 136.78571428571428 A 60.71428571428571 60.71428571428571 0 1 1 266.4392857244047 136.7857446428546 M 266.5 197.5 A 0 0 0 1 0 266.5 197.5 " stroke="#C0C0C0" stroke-width="1" zIndex="1" opacity="1"></path><path fill="none" d="M 266.5 76.07142857142858 A 121.42857142857142 121.42857142857142 0 1 1 266.37857144880945 76.07148928570923 M 266.5 197.5 A 0 0 0 1 0 266.5 197.5 " stroke="#C0C0C0" stroke-width="1" zIndex="1" opacity="1"></path><path fill="none" stroke="#C0C0C0" stroke-width="1" zIndex="1"></path></g><g class="highcharts-axis" zIndex="2"><path fill="none" d="M 266.5 38.125 A 159.375 159.375 0 1 1 266.3406250265624 38.125079687493354 M 266.5 197.5 A 0 0 0 1 0 266.5 197.5 " stroke="#C0D0E0" stroke-width="1" zIndex="7" visibility="visible"></path></g><g class="highcharts-axis" zIndex="2"></g><g class="highcharts-series-group" zIndex="3"><g class="highcharts-series highcharts-tracker" visibility="visible" zIndex="0.1" transform="translate(10,10) scale(1 1)" style="" clip-path="url(#highcharts-1)"><path fill="#2f7ed8" d="M 217.2443420790384 133.46922216138745 A 66.78571428571428 66.78571428571428 0 0 1 295.7016075243008 133.42999352539576 L 267.1913475066275 172.7536345978352 A 18.214285714285722 18.214285714285722 0 0 0 245.79391147610139 172.764333316742 Z" stroke="#FFFFFF" stroke-width="1" r="0"></path><path fill="#2f7ed8" d="M 379.2972223604831 98.2825956341782 A 151.78571428571428 151.78571428571428 0 0 1 379.3863783513733 276.59456255522906 L 344.97819241298873 251.6480850397649 A 109.28571428571428 109.28571428571428 0 0 0 344.9140000995478 123.2634688566083 Z" stroke="#FFFFFF" stroke-width="1" r="0"></path><path fill="#2f7ed8" d="M 302.8930502702274 251.35455562745122 A 78.92857142857143 78.92857142857143 0 0 1 210.1708274712809 251.40091674271412 L 231.55352248453585 221.90818593838452 A 42.5 42.5 0 0 0 281.4808732224301 221.88322226093527 Z" stroke="#FFFFFF" stroke-width="1" r="0"></path><path fill="#2f7ed8" d="M 143.52655542835555 269.5800120165561 A 139.64285714285714 139.64285714285714 0 0 1 143.4445319167366 105.53300244918927 L 168.02180758701124 123.35191496023508 A 109.28571428571428 109.28571428571428 0 0 0 168.08599990045218 251.73653114339172 Z" stroke="#FFFFFF" stroke-width="1" r="0"></path></g><g class="highcharts-markers" visibility="visible" zIndex="0.1" transform="translate(10,10) scale(1 1)"></g><g class="highcharts-series highcharts-tracker" visibility="visible" zIndex="0.1" transform="translate(10,10) scale(1 1)" style="" clip-path="url(#highcharts-1)"><path fill="#0d233a" d="M 245.79391147610139 172.764333316742 A 18.214285714285722 18.214285714285722 0 0 1 267.1913475066275 172.7536345978352 L 263.62756500441833 177.66908973189015 A 12.142857142857139 12.142857142857139 0 0 0 249.36260765073425 177.67622221116136 Z" stroke="#FFFFFF" stroke-width="1" r="0"></path><path fill="#0d233a" d="M 344.9140000995478 123.2634688566083 A 109.28571428571428 109.28571428571428 0 0 1 344.97819241298873 251.6480850397649 L 335.1472821448789 244.52052003534658 A 97.14285714285714 97.14285714285714 0 0 0 335.0902223107092 130.40086120587404 Z" stroke="#FFFFFF" stroke-width="1" r="0"></path><path fill="#0d233a" d="M 281.4808732224301 221.88322226093527 A 42.5 42.5 0 0 1 231.55352248453585 221.90818593838452 L 242.24486999116334 207.16182053621972 A 24.285714285714278 24.285714285714278 0 0 0 270.7747846985315 207.14755557767728 Z" stroke="#FFFFFF" stroke-width="1" r="0"></path><path fill="#0d233a" d="M 168.08599990045218 251.73653114339172 A 109.28571428571428 109.28571428571428 0 0 1 168.02180758701124 123.35191496023508 L 187.68362812323096 137.60704496907172 A 85 85 0 0 0 187.73355547812946 237.46174644486024 Z" stroke="#FFFFFF" stroke-width="1" r="0"></path></g><g class="highcharts-markers" visibility="visible" zIndex="0.1" transform="translate(10,10) scale(1 1)"></g><g class="highcharts-series highcharts-tracker" visibility="visible" zIndex="0.1" transform="translate(10,10) scale(1 1)" style="" clip-path="url(#highcharts-1)"><path fill="#8bbc21" d="M 249.36260765073425 177.67622221116136 A 12.142857142857139 12.142857142857139 0 0 1 263.62756500441833 177.66908973189015 L 260.06378250220916 182.58454486594505 A 6.071428571428584 6.071428571428584 0 0 0 252.9313038253671 182.58811110558068 Z" stroke="#FFFFFF" stroke-width="1" r="0"></path><path fill="#8bbc21" d="M 335.0902223107092 130.40086120587404 A 97.14285714285714 97.14285714285714 0 0 1 335.1472821448789 244.52052003534658 L 295.82364107243944 216.0102600176733 A 48.57142857142857 48.57142857142857 0 0 0 295.79511115535456 158.95043060293702 Z" stroke="#FFFFFF" stroke-width="1" r="0"></path><path fill="#8bbc21" d="M 270.7747846985315 207.14755557767728 A 24.285714285714278 24.285714285714278 0 0 1 242.24486999116334 207.16182053621972 L 249.37243499558167 197.33091026810985 A 12.142857142857139 12.142857142857139 0 0 0 263.6373923492657 197.32377778883864 Z" stroke="#FFFFFF" stroke-width="1" r="0"></path><path fill="#8bbc21" d="M 187.73355547812946 237.46174644486024 A 85 85 0 0 1 187.68362812323096 137.60704496907172 L 222.09181406161548 162.55352248453588 A 42.5 42.5 0 0 0 222.11677773906473 212.48087322243012 Z" stroke="#FFFFFF" stroke-width="1" r="0"></path></g><g class="highcharts-markers" visibility="visible" zIndex="0.1" transform="translate(10,10) scale(1 1)"></g><g class="highcharts-series highcharts-tracker" visibility="visible" zIndex="0.1" transform="translate(10,10) scale(1 1)" style="" clip-path="url(#highcharts-1)"><path fill="#910000" d="M 252.9313038253671 182.58811110558068 A 6.071428571428584 6.071428571428584 0 0 1 260.06378250220916 182.58454486594505 L 256.5 187.5 A 0 0 0 0 0 256.5 187.5 Z" stroke="#FFFFFF" stroke-width="1" r="0"></path><path fill="#910000" d="M 295.79511115535456 158.95043060293702 A 48.57142857142857 48.57142857142857 0 0 1 295.82364107243944 216.0102600176733 L 256.5 187.5 A 0 0 0 0 0 256.5 187.5 Z" stroke="#FFFFFF" stroke-width="1" r="0"></path><path fill="#910000" d="M 263.6373923492657 197.32377778883864 A 12.142857142857139 12.142857142857139 0 0 1 249.37243499558167 197.33091026810985 L 256.5 187.5 A 0 0 0 0 0 256.5 187.5 Z" stroke="#FFFFFF" stroke-width="1" r="0"></path><path fill="#910000" d="M 222.11677773906473 212.48087322243012 A 42.5 42.5 0 0 1 222.09181406161548 162.55352248453588 L 256.5 187.5 A 0 0 0 0 0 256.5 187.5 Z" stroke="#FFFFFF" stroke-width="1" r="0"></path></g><g class="highcharts-markers" visibility="visible" zIndex="0.1" transform="translate(10,10) scale(1 1)"></g></g><g class="highcharts-legend" zIndex="7" transform="translate(533,110)"><rect rx="5" ry="5" fill="none" x="0.5" y="0.5" width="56" height="70" stroke="#909090" stroke-width="1" visibility="visible"></rect><g zIndex="1"><g><g class="highcharts-legend-item" zIndex="1" transform="translate(8,3)"><text x="21" y="15" style="font-family:&quot;Lucida Grande&quot;, &quot;Lucida Sans Unicode&quot;, Verdana, Arial, Helvetica, sans-serif;font-size:12px;cursor:pointer;color:#274b6d;fill:#274b6d;" text-anchor="start" zIndex="2"><tspan x="21">6-8</tspan></text><rect rx="2" ry="2" fill="#910000" x="0" y="4" width="16" height="12" zIndex="3"></rect></g><g class="highcharts-legend-item" zIndex="1" transform="translate(8,18)"><text x="21" y="15" style="font-family:&quot;Lucida Grande&quot;, &quot;Lucida Sans Unicode&quot;, Verdana, Arial, Helvetica, sans-serif;font-size:12px;cursor:pointer;color:#274b6d;fill:#274b6d;" text-anchor="start" zIndex="2"><tspan x="21">4-6</tspan></text><rect rx="2" ry="2" fill="#8bbc21" x="0" y="4" width="16" height="12" zIndex="3"></rect></g><g class="highcharts-legend-item" zIndex="1" transform="translate(8,33)"><text x="21" y="15" style="font-family:&quot;Lucida Grande&quot;, &quot;Lucida Sans Unicode&quot;, Verdana, Arial, Helvetica, sans-serif;font-size:12px;cursor:pointer;color:#274b6d;fill:#274b6d;" text-anchor="start" zIndex="2"><tspan x="21">2-4</tspan></text><rect rx="2" ry="2" fill="#0d233a" x="0" y="4" width="16" height="12" zIndex="3"></rect></g><g class="highcharts-legend-item" zIndex="1" transform="translate(8,48)"><text x="21" y="15" style="font-family:&quot;Lucida Grande&quot;, &quot;Lucida Sans Unicode&quot;, Verdana, Arial, Helvetica, sans-serif;font-size:12px;cursor:pointer;color:#274b6d;fill:#274b6d;" text-anchor="start" zIndex="2"><tspan x="21">0-2</tspan></text><rect rx="2" ry="2" fill="#2f7ed8" x="0" y="4" width="16" height="12" zIndex="3"></rect></g></g></g></g><g class="highcharts-axis-labels" zIndex="7"><text x="266.5" y="28.725" style="font-family:&quot;Lucida Grande&quot;, &quot;Lucida Sans Unicode&quot;, Verdana, Arial, Helvetica, sans-serif;font-size:11px;color:#666;cursor:default;line-height:14px;fill:#666;" text-anchor="middle" opacity="1"><tspan x="266.5">N</tspan></text><text x="440.875" y="203.1" style="font-family:&quot;Lucida Grande&quot;, &quot;Lucida Sans Unicode&quot;, Verdana, Arial, Helvetica, sans-serif;font-size:11px;color:#666;cursor:default;line-height:14px;fill:#666;" text-anchor="start" opacity="1"><tspan x="440.875">E</tspan></text><text x="266.5" y="377.475" style="font-family:&quot;Lucida Grande&quot;, &quot;Lucida Sans Unicode&quot;, Verdana, Arial, Helvetica, sans-serif;font-size:11px;color:#666;cursor:default;line-height:14px;fill:#666;" text-anchor="middle" opacity="1"><tspan x="266.5">S</tspan></text><text x="92.125" y="203.10000000000002" style="font-family:&quot;Lucida Grande&quot;, &quot;Lucida Sans Unicode&quot;, Verdana, Arial, Helvetica, sans-serif;font-size:11px;color:#666;cursor:default;line-height:14px;fill:#666;" text-anchor="end" opacity="1"><tspan x="92.125">W</tspan></text><text x="0" y="-9999" style="font-family:&quot;Lucida Grande&quot;, &quot;Lucida Sans Unicode&quot;, Verdana, Arial, Helvetica, sans-serif;font-size:11px;color:#666;cursor:default;line-height:14px;fill:#666;" text-anchor="middle"><tspan x="0">4</tspan></text></g><g class="highcharts-axis-labels" zIndex="7"><text x="263.5" y="195.5" style="font-family:&quot;Lucida Grande&quot;, &quot;Lucida Sans Unicode&quot;, Verdana, Arial, Helvetica, sans-serif;font-size:11px;color:#666;cursor:default;line-height:14px;fill:#666;" text-anchor="end" opacity="1"><tspan x="263.5">0%</tspan></text><text x="263.5" y="134.78571428571428" style="font-family:&quot;Lucida Grande&quot;, &quot;Lucida Sans Unicode&quot;, Verdana, Arial, Helvetica, sans-serif;font-size:11px;color:#666;cursor:default;line-height:14px;fill:#666;" text-anchor="end" opacity="1"><tspan x="263.5">10%</tspan></text><text x="263.5" y="74.07142857142858" style="font-family:&quot;Lucida Grande&quot;, &quot;Lucida Sans Unicode&quot;, Verdana, Arial, Helvetica, sans-serif;font-size:11px;color:#666;cursor:default;line-height:14px;fill:#666;" text-anchor="end" opacity="1"><tspan x="263.5">20%</tspan></text></g><g class="highcharts-tooltip" zIndex="8" style="cursor:default;padding:0;white-space:nowrap;" transform="translate(0,-999)"><rect rx="3" ry="3" fill="none" x="0.5" y="0.5" width="16" height="16" fill-opacity="0.85" isShadow="true" stroke="black" stroke-width="5" transform="translate(1, 1)" opacity="0.049999999999999996"></rect><rect rx="3" ry="3" fill="none" x="0.5" y="0.5" width="16" height="16" fill-opacity="0.85" isShadow="true" stroke="black" stroke-width="3" transform="translate(1, 1)" opacity="0.09999999999999999"></rect><rect rx="3" ry="3" fill="none" x="0.5" y="0.5" width="16" height="16" fill-opacity="0.85" isShadow="true" stroke="black" stroke-width="1" transform="translate(1, 1)" opacity="0.15"></rect><rect rx="3" ry="3" fill="rgb(255,255,255)" x="0.5" y="0.5" width="16" height="16" fill-opacity="0.85"></rect><text x="8" y="21" style="font-family:&quot;Lucida Grande&quot;, &quot;Lucida Sans Unicode&quot;, Verdana, Arial, Helvetica, sans-serif;font-size:12px;color:#333333;fill:#333333;" zIndex="1"></text></g></svg>