<?xml version="1.0" standalone="no"?><!DOCTYPE svg PUBLIC "-//W3C//DTD SVG 1.1//EN" "http://www.w3.org/Graphics/SVG/1.1/DTD/svg11.dtd"><svg xmlns:xlink="http://www.w3.org/1999/xlink" version="1.1" xmlns="http://www.w3.org/2000/svg" width="600" height="400"><desc>Created with Highstock 1.3.7</desc><defs><clipPath id="highcharts-1"><rect fill="none" x="0" y="0" width="501" height="375"></rect></clipPath></defs><rect rx="5" ry="5" fill="#FFFFFF" x="0" y="0" width="600" height="400"></rect><g class="highcharts-grid" zIndex="1"><path fill="none" d="M 260.5 197.5 L 321.4901720331862 50.25669950601369" stroke="#C0C0C0" stroke-width="1" zIndex="1" opacity="1"></path><path fill="none" d="M 260.5 197.5 L 373.195143251606 84.804856748394" stroke="#C0C0C0" stroke-width="1" zIndex="1" opacity="1"></path><path fill="none" d="M 260.5 197.5 L 407.74330049398634 136.50982796681382" stroke="#C0C0C0" stroke-width="1" zIndex="1" opacity="1"></path><path fill="none" d="M 260.5 197.5 L 419.875 197.5" stroke="#C0C0C0" stroke-width="1" zIndex="1" opacity="1"></path><path fill="none" d="M 260.5 197.5 L 407.74330049398634 258.4901720331862" stroke="#C0C0C0" stroke-width="1" zIndex="1" opacity="1"></path><path fill="none" d="M 260.5 197.5 L 373.195143251606 310.195143251606" stroke="#C0C0C0" stroke-width="1" zIndex="1" opacity="1"></path><path fill="none" d="M 260.5 197.5 L 321.4901720331862 344.74330049398634" stroke="#C0C0C0" stroke-width="1" zIndex="1" opacity="1"></path><path fill="none" d="M 260.5 197.5 L 260.5 356.875" stroke="#C0C0C0" stroke-width="1" zIndex="1" opacity="1"></path><path fill="none" d="M 260.5 197.5 L 199.50982796681382 344.74330049398634" stroke="#C0C0C0" stroke-width="1" zIndex="1" opacity="1"></path><path fill="none" d="M 260.5 197.5 L 147.804856748394 310.195143251606" stroke="#C0C0C0" stroke-width="1" zIndex="1" opacity="1"></path><path fill="none" d="M 260.5 197.5 L 113.25669950601372 258.49017203318624" stroke="#C0C0C0" stroke-width="1" zIndex="1" opacity="1"></path><path fill="none" d="M 260.5 197.5 L 101.125 197.50000000000003" stroke="#C0C0C0" stroke-width="1" zIndex="1" opacity="1"></path><path fill="none" d="M 260.5 197.5 L 113.25669950601369 136.50982796681376" stroke="#C0C0C0" stroke-width="1" zIndex="1" opacity="1"></path><path fill="none" d="M 260.5 197.5 L 147.80485674839395 84.804856748394" stroke="#C0C0C0" stroke-width="1" zIndex="1" opacity="1"></path><path fill="none" d="M 260.5 197.5 L 199.50982796681373 50.25669950601372" stroke="#C0C0C0" stroke-width="1" zIndex="1" opacity="1"></path><path fill="none" d="M 260.5 197.5 L 260.49999999999994 38.125" stroke="#C0C0C0" stroke-width="1" zIndex="1" opacity="1"></path><path fill="none" d="M 260.5 197.5 L 260.5 38.125" stroke="#C0C0C0" stroke-width="1" zIndex="1" opacity="1"></path></g><g class="highcharts-grid" zIndex="1"><path fill="none" d="M 260.5 141.1578640364832 A 56.34213596351681 56.34213596351681 0 1 1 260.4436578734268 141.15789220754883 M 260.5 197.5 A 0 0 0 1 0 260.5 197.5 " stroke="#C0C0C0" stroke-width="1" zIndex="1" opacity="1"></path><path fill="none" d="M 260.5 84.81572807296638 A 112.68427192703362 112.68427192703362 0 1 1 260.38731574685363 84.81578441509765 M 260.5 197.5 A 0 0 0 1 0 260.5 197.5 " stroke="#C0C0C0" stroke-width="1" zIndex="1" opacity="1"></path><path fill="none" stroke="#C0C0C0" stroke-width="1" zIndex="1"></path></g><g class="highcharts-axis" zIndex="2"><path fill="none" d="M 260.5 38.125 A 159.375 159.375 0 1 1 260.3406250265624 38.125079687493354 M 260.5 197.5 A 0 0 0 1 0 260.5 197.5 " stroke="#C0D0E0" stroke-width="1" zIndex="7" visibility="visible"></path></g><g class="highcharts-axis" zIndex="2"></g><g class="highcharts-series-group" zIndex="3"><g class="highcharts-series highcharts-tracker" visibility="visible" zIndex="0.1" transform="translate(10,10) scale(1 1)" style="" clip-path="url(#highcharts-1)"><path fill="#7f0000" d="M 239.97626083298002 121.05572589418249 A 67.27251034043907 67.27251034043907 0 0 1 260.95728964211906 121.04523537890371 L 260.95728964211906 121.04523537890371 A 67.27251034043907 67.27251034043907 0 0 0 239.97626083298002 121.05572589418249 Z" stroke="#FFFFFF" stroke-width="1" r="0"></path><path fill="#7f0000" d="M 262.20600128307564 138.74099554692688 A 50.14450100752995 50.14450100752995 0 0 1 276.6576614961634 144.71860537165364 L 276.6576614961634 144.71860537165364 A 50.14450100752995 50.14450100752995 0 0 0 262.20600128307564 138.74099554692688 Z" stroke="#FFFFFF" stroke-width="1" r="0"></path><path fill="#7f0000" d="M 339.71740436582184 64.70277763951691 A 151.78571428571428 151.78571428571428 0 0 1 373.20794357238077 98.15984304098238 L 373.20794357238077 98.15984304098238 A 151.78571428571428 151.78571428571428 0 0 0 339.71740436582184 64.70277763951691 Z" stroke="#FFFFFF" stroke-width="1" r="0"></path><path fill="#7f0000" d="M 370.59892016998396 113.90328706507907 A 140.85533990879202 140.85533990879202 0 0 1 387.4305451523619 154.48102689212902 L 387.4305451523619 154.48102689212902 A 140.85533990879202 140.85533990879202 0 0 0 370.59892016998396 113.90328706507907 Z" stroke="#FFFFFF" stroke-width="1" r="0"></path><path fill="#7f0000" d="M 389.62117693847887 165.46537025330824 A 140.85533990879202 140.85533990879202 0 0 1 389.6431420039704 209.3954975756262 L 389.6431420039704 209.3954975756262 A 140.85533990879202 140.85533990879202 0 0 0 389.62117693847887 165.46537025330824 Z" stroke="#FFFFFF" stroke-width="1" r="0"></path><path fill="#7f0000" d="M 361.60478767509244 214.17389955289596 A 114.26185173401207 114.26185173401207 0 0 1 347.9838969733555 247.10419945417905 L 347.9838969733555 247.10419945417905 A 114.26185173401207 114.26185173401207 0 0 0 361.60478767509244 214.17389955289596 Z" stroke="#FFFFFF" stroke-width="1" r="0"></path><path fill="#7f0000" d="M 322.61032137130076 239.89121518438384 A 89.13325909428359 89.13325909428359 0 0 1 302.96329929813135 259.55789410969055 L 302.96329929813135 259.55789410969055 A 89.13325909428359 89.13325909428359 0 0 0 322.61032137130076 239.89121518438384 Z" stroke="#FFFFFF" stroke-width="1" r="0"></path><path fill="#7f0000" d="M 270.1650416962109 219.5904314694197 A 37.63654682362923 37.63654682362923 0 0 1 259.32266961442315 224.0878416647111 L 259.32266961442315 224.0878416647111 A 37.63654682362923 37.63654682362923 0 0 0 270.1650416962109 219.5904314694197 Z" stroke="#FFFFFF" stroke-width="1" r="0"></path><path fill="#7f0000" d="M 255.40050165566424 218.44054975111771 A 31.326227595715352 31.326227595715352 0 0 1 245.63044133918072 218.44543478168305 L 245.63044133918072 218.44543478168305 A 31.326227595715352 31.326227595715352 0 0 0 255.40050165566424 218.44054975111771 Z" stroke="#FFFFFF" stroke-width="1" r="0"></path><path fill="#7f0000" d="M 247.2117973923945 201.19634956547 A 14.085533990879213 14.085533990879213 0 0 1 243.15234227635858 199.51724568211978 L 243.15234227635858 199.51724568211978 A 14.085533990879213 14.085533990879213 0 0 0 247.2117973923945 201.19634956547 Z" stroke="#FFFFFF" stroke-width="1" r="0"></path><path fill="#7f0000" d="M 240.36617455978416 201.44801412112392 A 17.24069360483614 17.24069360483614 0 0 1 236.56212667663382 197.6477683851 L 236.56212667663382 197.6477683851 A 17.24069360483614 17.24069360483614 0 0 0 240.36617455978416 201.44801412112392 Z" stroke="#FFFFFF" stroke-width="1" r="0"></path><path fill="#7f0000" d="M 223.79000015419558 203.86790895672644 A 31.326227595715352 31.326227595715352 0 0 1 220.0466467581147 194.8434196191905 L 220.0466467581147 194.8434196191905 A 31.326227595715352 31.326227595715352 0 0 0 223.79000015419558 203.86790895672644 Z" stroke="#FFFFFF" stroke-width="1" r="0"></path><path fill="#7f0000" d="M 219.55945024888229 192.40050165566424 A 31.326227595715352 31.326227595715352 0 0 1 219.55456521831695 182.63044133918075 L 219.55456521831695 182.63044133918075 A 31.326227595715352 31.326227595715352 0 0 0 219.55945024888229 192.40050165566424 Z" stroke="#FFFFFF" stroke-width="1" r="0"></path><path fill="#7f0000" d="M 215.5469159089206 179.1085069453907 A 35.94628274472373 35.94628274472373 0 0 1 219.83198901923035 168.74877748926713 L 219.83198901923035 168.74877748926713 A 35.94628274472373 35.94628274472373 0 0 0 215.5469159089206 179.1085069453907 Z" stroke="#FFFFFF" stroke-width="1" r="0"></path><path fill="#7f0000" d="M 206.19454337995933 155.3102015428438 A 54.76455615653833 54.76455615653833 0 0 1 218.26591218850587 143.22675532577802 L 218.26591218850587 143.22675532577802 A 54.76455615653833 54.76455615653833 0 0 0 206.19454337995933 155.3102015428438 Z" stroke="#FFFFFF" stroke-width="1" r="0"></path><path fill="#7f0000" d="M 188.38437428292667 86.13651137653356 A 118.88190688302048 118.88190688302048 0 0 1 222.6319866969568 71.93061989140654 L 222.6319866969568 71.93061989140654 A 118.88190688302048 118.88190688302048 0 0 0 188.38437428292667 86.13651137653356 Z" stroke="#FFFFFF" stroke-width="1" r="0"></path></g><g class="highcharts-markers" visibility="visible" zIndex="0.1" transform="translate(10,10) scale(1 1)"></g><g class="highcharts-series highcharts-tracker" visibility="visible" zIndex="0.1" transform="translate(10,10) scale(1 1)" style="" clip-path="url(#highcharts-1)"><path fill="#ff0000" d="M 239.97626083298002 121.05572589418249 A 67.27251034043907 67.27251034043907 0 0 1 260.95728964211906 121.04523537890371 L 260.95728964211906 121.04523537890371 A 67.27251034043907 67.27251034043907 0 0 0 239.97626083298002 121.05572589418249 Z" stroke="#FFFFFF" stroke-width="1" r="0"></path><path fill="#ff0000" d="M 262.20600128307564 138.74099554692688 A 50.14450100752995 50.14450100752995 0 0 1 276.6576614961634 144.71860537165364 L 276.6576614961634 144.71860537165364 A 50.14450100752995 50.14450100752995 0 0 0 262.20600128307564 138.74099554692688 Z" stroke="#FFFFFF" stroke-width="1" r="0"></path><path fill="#ff0000" d="M 339.71740436582184 64.70277763951691 A 151.78571428571428 151.78571428571428 0 0 1 373.20794357238077 98.15984304098238 L 373.20794357238077 98.15984304098238 A 151.78571428571428 151.78571428571428 0 0 0 339.71740436582184 64.70277763951691 Z" stroke="#FFFFFF" stroke-width="1" r="0"></path><path fill="#ff0000" d="M 370.59892016998396 113.90328706507907 A 140.85533990879202 140.85533990879202 0 0 1 387.4305451523619 154.48102689212902 L 387.4305451523619 154.48102689212902 A 140.85533990879202 140.85533990879202 0 0 0 370.59892016998396 113.90328706507907 Z" stroke="#FFFFFF" stroke-width="1" r="0"></path><path fill="#ff0000" d="M 389.62117693847887 165.46537025330824 A 140.85533990879202 140.85533990879202 0 0 1 389.6431420039704 209.3954975756262 L 389.6431420039704 209.3954975756262 A 140.85533990879202 140.85533990879202 0 0 0 389.62117693847887 165.46537025330824 Z" stroke="#FFFFFF" stroke-width="1" r="0"></path><path fill="#ff0000" d="M 361.60478767509244 214.17389955289596 A 114.26185173401207 114.26185173401207 0 0 1 347.9838969733555 247.10419945417905 L 347.9838969733555 247.10419945417905 A 114.26185173401207 114.26185173401207 0 0 0 361.60478767509244 214.17389955289596 Z" stroke="#FFFFFF" stroke-width="1" r="0"></path><path fill="#ff0000" d="M 322.61032137130076 239.89121518438384 A 89.13325909428359 89.13325909428359 0 0 1 302.96329929813135 259.55789410969055 L 302.96329929813135 259.55789410969055 A 89.13325909428359 89.13325909428359 0 0 0 322.61032137130076 239.89121518438384 Z" stroke="#FFFFFF" stroke-width="1" r="0"></path><path fill="#ff0000" d="M 270.1650416962109 219.5904314694197 A 37.63654682362923 37.63654682362923 0 0 1 259.32266961442315 224.0878416647111 L 259.32266961442315 224.0878416647111 A 37.63654682362923 37.63654682362923 0 0 0 270.1650416962109 219.5904314694197 Z" stroke="#FFFFFF" stroke-width="1" r="0"></path><path fill="#ff0000" d="M 255.40050165566424 218.44054975111771 A 31.326227595715352 31.326227595715352 0 0 1 245.63044133918072 218.44543478168305 L 245.63044133918072 218.44543478168305 A 31.326227595715352 31.326227595715352 0 0 0 255.40050165566424 218.44054975111771 Z" stroke="#FFFFFF" stroke-width="1" r="0"></path><path fill="#ff0000" d="M 247.2117973923945 201.19634956547 A 14.085533990879213 14.085533990879213 0 0 1 243.15234227635858 199.51724568211978 L 243.15234227635858 199.51724568211978 A 14.085533990879213 14.085533990879213 0 0 0 247.2117973923945 201.19634956547 Z" stroke="#FFFFFF" stroke-width="1" r="0"></path><path fill="#ff0000" d="M 240.36617455978416 201.44801412112392 A 17.24069360483614 17.24069360483614 0 0 1 236.56212667663382 197.6477683851 L 236.56212667663382 197.6477683851 A 17.24069360483614 17.24069360483614 0 0 0 240.36617455978416 201.44801412112392 Z" stroke="#FFFFFF" stroke-width="1" r="0"></path><path fill="#ff0000" d="M 223.79000015419558 203.86790895672644 A 31.326227595715352 31.326227595715352 0 0 1 220.0466467581147 194.8434196191905 L 220.0466467581147 194.8434196191905 A 31.326227595715352 31.326227595715352 0 0 0 223.79000015419558 203.86790895672644 Z" stroke="#FFFFFF" stroke-width="1" r="0"></path><path fill="#ff0000" d="M 219.55945024888229 192.40050165566424 A 31.326227595715352 31.326227595715352 0 0 1 219.55456521831695 182.63044133918075 L 219.55456521831695 182.63044133918075 A 31.326227595715352 31.326227595715352 0 0 0 219.55945024888229 192.40050165566424 Z" stroke="#FFFFFF" stroke-width="1" r="0"></path><path fill="#ff0000" d="M 215.5469159089206 179.1085069453907 A 35.94628274472373 35.94628274472373 0 0 1 219.83198901923035 168.74877748926713 L 219.83198901923035 168.74877748926713 A 35.94628274472373 35.94628274472373 0 0 0 215.5469159089206 179.1085069453907 Z" stroke="#FFFFFF" stroke-width="1" r="0"></path><path fill="#ff0000" d="M 206.19454337995933 155.3102015428438 A 54.76455615653833 54.76455615653833 0 0 1 218.26591218850587 143.22675532577802 L 218.26591218850587 143.22675532577802 A 54.76455615653833 54.76455615653833 0 0 0 206.19454337995933 155.3102015428438 Z" stroke="#FFFFFF" stroke-width="1" r="0"></path><path fill="#ff0000" d="M 188.38437428292667 86.13651137653356 A 118.88190688302048 118.88190688302048 0 0 1 222.6319866969568 71.93061989140654 L 222.6319866969568 71.93061989140654 A 118.88190688302048 118.88190688302048 0 0 0 188.38437428292667 86.13651137653356 Z" stroke="#FFFFFF" stroke-width="1" r="0"></path></g><g class="highcharts-markers" visibility="visible" zIndex="0.1" transform="translate(10,10) scale(1 1)"></g><g class="highcharts-series highcharts-tracker" visibility="visible" zIndex="0.1" transform="translate(10,10) scale(1 1)" style="" clip-path="url(#highcharts-1)"><path fill="#ff4900" d="M 239.97626083298002 121.05572589418249 A 67.27251034043907 67.27251034043907 0 0 1 260.95728964211906 121.04523537890371 L 260.95728964211906 121.04523537890371 A 67.27251034043907 67.27251034043907 0 0 0 239.97626083298002 121.05572589418249 Z" stroke="#FFFFFF" stroke-width="1" r="0"></path><path fill="#ff4900" d="M 262.20600128307564 138.74099554692688 A 50.14450100752995 50.14450100752995 0 0 1 276.6576614961634 144.71860537165364 L 276.6576614961634 144.71860537165364 A 50.14450100752995 50.14450100752995 0 0 0 262.20600128307564 138.74099554692688 Z" stroke="#FFFFFF" stroke-width="1" r="0"></path><path fill="#ff4900" d="M 339.71740436582184 64.70277763951691 A 151.78571428571428 151.78571428571428 0 0 1 373.20794357238077 98.15984304098238 L 373.20794357238077 98.15984304098238 A 151.78571428571428 151.78571428571428 0 0 0 339.71740436582184 64.70277763951691 Z" stroke="#FFFFFF" stroke-width="1" r="0"></path><path fill="#ff4900" d="M 370.59892016998396 113.90328706507907 A 140.85533990879202 140.85533990879202 0 0 1 387.4305451523619 154.48102689212902 L 387.4305451523619 154.48102689212902 A 140.85533990879202 140.85533990879202 0 0 0 370.59892016998396 113.90328706507907 Z" stroke="#FFFFFF" stroke-width="1" r="0"></path><path fill="#ff4900" d="M 389.62117693847887 165.46537025330824 A 140.85533990879202 140.85533990879202 0 0 1 389.6431420039704 209.3954975756262 L 389.6431420039704 209.3954975756262 A 140.85533990879202 140.85533990879202 0 0 0 389.62117693847887 165.46537025330824 Z" stroke="#FFFFFF" stroke-width="1" r="0"></path><path fill="#ff4900" d="M 361.60478767509244 214.17389955289596 A 114.26185173401207 114.26185173401207 0 0 1 347.9838969733555 247.10419945417905 L 347.9838969733555 247.10419945417905 A 114.26185173401207 114.26185173401207 0 0 0 361.60478767509244 214.17389955289596 Z" stroke="#FFFFFF" stroke-width="1" r="0"></path><path fill="#ff4900" d="M 322.61032137130076 239.89121518438384 A 89.13325909428359 89.13325909428359 0 0 1 302.96329929813135 259.55789410969055 L 302.96329929813135 259.55789410969055 A 89.13325909428359 89.13325909428359 0 0 0 322.61032137130076 239.89121518438384 Z" stroke="#FFFFFF" stroke-width="1" r="0"></path><path fill="#ff4900" d="M 270.1650416962109 219.5904314694197 A 37.63654682362923 37.63654682362923 0 0 1 259.32266961442315 224.0878416647111 L 259.32266961442315 224.0878416647111 A 37.63654682362923 37.63654682362923 0 0 0 270.1650416962109 219.5904314694197 Z" stroke="#FFFFFF" stroke-width="1" r="0"></path><path fill="#ff4900" d="M 255.40050165566424 218.44054975111771 A 31.326227595715352 31.326227595715352 0 0 1 245.63044133918072 218.44543478168305 L 245.63044133918072 218.44543478168305 A 31.326227595715352 31.326227595715352 0 0 0 255.40050165566424 218.44054975111771 Z" stroke="#FFFFFF" stroke-width="1" r="0"></path><path fill="#ff4900" d="M 247.2117973923945 201.19634956547 A 14.085533990879213 14.085533990879213 0 0 1 243.15234227635858 199.51724568211978 L 243.15234227635858 199.51724568211978 A 14.085533990879213 14.085533990879213 0 0 0 247.2117973923945 201.19634956547 Z" stroke="#FFFFFF" stroke-width="1" r="0"></path><path fill="#ff4900" d="M 240.36617455978416 201.44801412112392 A 17.24069360483614 17.24069360483614 0 0 1 236.56212667663382 197.6477683851 L 236.56212667663382 197.6477683851 A 17.24069360483614 17.24069360483614 0 0 0 240.36617455978416 201.44801412112392 Z" stroke="#FFFFFF" stroke-width="1" r="0"></path><path fill="#ff4900" d="M 223.79000015419558 203.86790895672644 A 31.326227595715352 31.326227595715352 0 0 1 220.0466467581147 194.8434196191905 L 220.0466467581147 194.8434196191905 A 31.326227595715352 31.326227595715352 0 0 0 223.79000015419558 203.86790895672644 Z" stroke="#FFFFFF" stroke-width="1" r="0"></path><path fill="#ff4900" d="M 219.55945024888229 192.40050165566424 A 31.326227595715352 31.326227595715352 0 0 1 219.55456521831695 182.63044133918075 L 219.55456521831695 182.63044133918075 A 31.326227595715352 31.326227595715352 0 0 0 219.55945024888229 192.40050165566424 Z" stroke="#FFFFFF" stroke-width="1" r="0"></path><path fill="#ff4900" d="M 215.5469159089206 179.1085069453907 A 35.94628274472373 35.94628274472373 0 0 1 219.83198901923035 168.74877748926713 L 219.83198901923035 168.74877748926713 A 35.94628274472373 35.94628274472373 0 0 0 215.5469159089206 179.1085069453907 Z" stroke="#FFFFFF" stroke-width="1" r="0"></path><path fill="#ff4900" d="M 206.19454337995933 155.3102015428438 A 54.76455615653833 54.76455615653833 0 0 1 218.26591218850587 143.22675532577802 L 218.26591218850587 143.22675532577802 A 54.76455615653833 54.76455615653833 0 0 0 206.19454337995933 155.3102015428438 Z" stroke="#FFFFFF" stroke-width="1" r="0"></path><path fill="#ff4900" d="M 188.38437428292667 86.13651137653356 A 118.88190688302048 118.88190688302048 0 0 1 222.6319866969568 71.93061989140654 L 224.45463401251126 79.48918598381691 A 111.10669212005516 111.10669212005516 0 0 0 192.4469128369343 92.76597176991667 Z" stroke="#FFFFFF" stroke-width="1" r="0"></path></g><g class="highcharts-markers" visibility="visible" zIndex="0.1" transform="translate(10,10) scale(1 1)"></g><g class="highcharts-series highcharts-tracker" visibility="visible" zIndex="0.1" transform="translate(10,10) scale(1 1)" style="" clip-path="url(#highcharts-1)"><path fill="#ebff13" d="M 239.97626083298002 121.05572589418249 A 67.27251034043907 67.27251034043907 0 0 1 260.95728964211906 121.04523537890371 L 260.4668304964251 124.16204175979266 A 64.11735072648212 64.11735072648212 0 0 0 240.4698365393059 124.17204025760444 Z" stroke="#FFFFFF" stroke-width="1" r="0"></path><path fill="#ebff13" d="M 262.20600128307564 138.74099554692688 A 50.14450100752995 50.14450100752995 0 0 1 276.6576614961634 144.71860537165364 L 275.8347238311156 146.06453688805104 A 48.56692120055149 48.56692120055149 0 0 0 261.8377225910238 140.2749866982595 Z" stroke="#FFFFFF" stroke-width="1" r="0"></path><path fill="#ebff13" d="M 339.71740436582184 64.70277763951691 A 151.78571428571428 151.78571428571428 0 0 1 373.20794357238077 98.15984304098238 L 373.20794357238077 98.15984304098238 A 151.78571428571428 151.78571428571428 0 0 0 339.71740436582184 64.70277763951691 Z" stroke="#FFFFFF" stroke-width="1" r="0"></path><path fill="#ebff13" d="M 370.59892016998396 113.90328706507907 A 140.85533990879202 140.85533990879202 0 0 1 387.4305451523619 154.48102689212902 L 387.4305451523619 154.48102689212902 A 140.85533990879202 140.85533990879202 0 0 0 370.59892016998396 113.90328706507907 Z" stroke="#FFFFFF" stroke-width="1" r="0"></path><path fill="#ebff13" d="M 389.62117693847887 165.46537025330824 A 140.85533990879202 140.85533990879202 0 0 1 389.6431420039704 209.3954975756262 L 389.6431420039704 209.3954975756262 A 140.85533990879202 140.85533990879202 0 0 0 389.62117693847887 165.46537025330824 Z" stroke="#FFFFFF" stroke-width="1" r="0"></path><path fill="#ebff13" d="M 361.60478767509244 214.17389955289596 A 114.26185173401207 114.26185173401207 0 0 1 347.9838969733555 247.10419945417905 L 347.9838969733555 247.10419945417905 A 114.26185173401207 114.26185173401207 0 0 0 361.60478767509244 214.17389955289596 Z" stroke="#FFFFFF" stroke-width="1" r="0"></path><path fill="#ebff13" d="M 322.61032137130076 239.89121518438384 A 89.13325909428359 89.13325909428359 0 0 1 302.96329929813135 259.55789410969055 L 302.03474532825294 258.2825331519969 A 87.55567928730511 87.55567928730511 0 0 0 321.33403249747244 238.9639370395275 Z" stroke="#FFFFFF" stroke-width="1" r="0"></path><path fill="#ebff13" d="M 270.1650416962109 219.5904314694197 A 37.63654682362923 37.63654682362923 0 0 1 259.32266961442315 224.0878416647111 L 258.95285711561496 222.55421955900468 A 36.05896701665077 36.05896701665077 0 0 0 269.34075851133974 218.2453235635159 Z" stroke="#FFFFFF" stroke-width="1" r="0"></path><path fill="#ebff13" d="M 255.40050165566424 218.44054975111771 A 31.326227595715352 31.326227595715352 0 0 1 245.63044133918072 218.44543478168305 L 245.63044133918072 218.44543478168305 A 31.326227595715352 31.326227595715352 0 0 0 255.40050165566424 218.44054975111771 Z" stroke="#FFFFFF" stroke-width="1" r="0"></path><path fill="#ebff13" d="M 247.2117973923945 201.19634956547 A 14.085533990879213 14.085533990879213 0 0 1 243.15234227635858 199.51724568211978 L 243.15234227635858 199.51724568211978 A 14.085533990879213 14.085533990879213 0 0 0 247.2117973923945 201.19634956547 Z" stroke="#FFFFFF" stroke-width="1" r="0"></path><path fill="#ebff13" d="M 240.36617455978416 201.44801412112392 A 17.24069360483614 17.24069360483614 0 0 1 236.56212667663382 197.6477683851 L 236.56212667663382 197.6477683851 A 17.24069360483614 17.24069360483614 0 0 0 240.36617455978416 201.44801412112392 Z" stroke="#FFFFFF" stroke-width="1" r="0"></path><path fill="#ebff13" d="M 223.79000015419558 203.86790895672644 A 31.326227595715352 31.326227595715352 0 0 1 220.0466467581147 194.8434196191905 L 221.58026886382115 194.47360712038235 A 29.74864778873689 29.74864778873689 0 0 0 225.13510806009938 203.04362577185532 Z" stroke="#FFFFFF" stroke-width="1" r="0"></path><path fill="#ebff13" d="M 219.55945024888229 192.40050165566424 A 31.326227595715352 31.326227595715352 0 0 1 219.55456521831695 182.63044133918075 L 219.55456521831695 182.63044133918075 A 31.326227595715352 31.326227595715352 0 0 0 219.55945024888229 192.40050165566424 Z" stroke="#FFFFFF" stroke-width="1" r="0"></path><path fill="#ebff13" d="M 215.5469159089206 179.1085069453907 A 35.94628274472373 35.94628274472373 0 0 1 219.83198901923035 168.74877748926713 L 219.83198901923035 168.74877748926713 A 35.94628274472373 35.94628274472373 0 0 0 215.5469159089206 179.1085069453907 Z" stroke="#FFFFFF" stroke-width="1" r="0"></path><path fill="#ebff13" d="M 206.19454337995933 155.3102015428438 A 54.76455615653833 54.76455615653833 0 0 1 218.26591218850587 143.22675532577802 L 218.26591218850587 143.22675532577802 A 54.76455615653833 54.76455615653833 0 0 0 206.19454337995933 155.3102015428438 Z" stroke="#FFFFFF" stroke-width="1" r="0"></path><path fill="#ebff13" d="M 192.4469128369343 92.76597176991667 A 111.10669212005516 111.10669212005516 0 0 1 224.45463401251126 79.48918598381691 L 229.235781318531 99.31672892187892 A 90.71083890126206 90.71083890126206 0 0 0 203.10371686991087 110.15629541053036 Z" stroke="#FFFFFF" stroke-width="1" r="0"></path></g><g class="highcharts-markers" visibility="visible" zIndex="0.1" transform="translate(10,10) scale(1 1)"></g><g class="highcharts-series highcharts-tracker" visibility="visible" zIndex="0.1" transform="translate(10,10) scale(1 1)" style="" clip-path="url(#highcharts-1)"><path fill="#23ffdb" d="M 240.4698365393059 124.17204025760444 A 64.11735072648212 64.11735072648212 0 0 1 260.4668304964251 124.16204175979266 L 258.7677398845565 134.95954957930076 A 53.18697634955987 53.18697634955987 0 0 0 242.1797238076492 134.96784358803038 Z" stroke="#FFFFFF" stroke-width="1" r="0"></path><path fill="#23ffdb" d="M 261.8377225910238 140.2749866982595 A 48.56692120055149 48.56692120055149 0 0 1 275.8347238311156 146.06453688805104 L 273.36591083597204 150.1023314372433 A 43.834181779616074 43.834181779616074 0 0 0 260.73288651486837 144.87696015225742 Z" stroke="#FFFFFF" stroke-width="1" r="0"></path><path fill="#23ffdb" d="M 339.71740436582184 64.70277763951691 A 151.78571428571428 151.78571428571428 0 0 1 373.20794357238077 98.15984304098238 L 331.48542081354606 128.53682291271963 A 100.1763177431329 100.1763177431329 0 0 0 309.3821621983783 106.4556565119009 Z" stroke="#FFFFFF" stroke-width="1" r="0"></path><path fill="#23ffdb" d="M 370.59892016998396 113.90328706507907 A 140.85533990879202 140.85533990879202 0 0 1 387.4305451523619 154.48102689212902 L 369.1366243200064 158.8923616993406 A 122.0370664969774 122.0370664969774 0 0 0 354.5537044352741 123.73580791318452 Z" stroke="#FFFFFF" stroke-width="1" r="0"></path><path fill="#23ffdb" d="M 389.62117693847887 165.46537025330824 A 140.85533990879202 140.85533990879202 0 0 1 389.6431420039704 209.3954975756262 L 338.66109477371566 201.37298726391674 A 89.24594336621062 89.24594336621062 0 0 0 338.6471777082202 173.5388585924961 Z" stroke="#FFFFFF" stroke-width="1" r="0"></path><path fill="#23ffdb" d="M 361.60478767509244 214.17389955289596 A 114.26185173401207 114.26185173401207 0 0 1 347.9838969733555 247.10419945417905 L 317.3158859925859 228.3529769434462 A 78.31556898928835 78.31556898928835 0 0 0 326.65170358401303 205.7824064982867 Z" stroke="#FFFFFF" stroke-width="1" r="0"></path><path fill="#23ffdb" d="M 321.33403249747244 238.9639370395275 A 87.55567928730511 87.55567928730511 0 0 1 302.03474532825294 258.2825331519969 L 289.1676403170804 240.60967416681365 A 65.69493053346059 65.69493053346059 0 0 0 303.6483152458512 226.11451131794664 Z" stroke="#FFFFFF" stroke-width="1" r="0"></path><path fill="#23ffdb" d="M 269.34075851133974 218.2453235635159 A 36.05896701665077 36.05896701665077 0 0 1 258.95285711561496 222.55421955900468 L 258.21323211799864 219.48697534759174 A 32.903807402693815 32.903807402693815 0 0 0 267.69219214159756 215.55510775170825 Z" stroke="#FFFFFF" stroke-width="1" r="0"></path><path fill="#23ffdb" d="M 255.40050165566424 218.44054975111771 A 31.326227595715352 31.326227595715352 0 0 1 245.63044133918072 218.44543478168305 L 245.63044133918072 218.44543478168305 A 31.326227595715352 31.326227595715352 0 0 0 255.40050165566424 218.44054975111771 Z" stroke="#FFFFFF" stroke-width="1" r="0"></path><path fill="#23ffdb" d="M 247.2117973923945 201.19634956547 A 14.085533990879213 14.085533990879213 0 0 1 243.15234227635858 199.51724568211978 L 243.15234227635858 199.51724568211978 A 14.085533990879213 14.085533990879213 0 0 0 247.2117973923945 201.19634956547 Z" stroke="#FFFFFF" stroke-width="1" r="0"></path><path fill="#23ffdb" d="M 240.36617455978416 201.44801412112392 A 17.24069360483614 17.24069360483614 0 0 1 236.56212667663382 197.6477683851 L 240.38820954971473 194.86210647546469 A 12.507954183900722 12.507954183900722 0 0 0 243.14800899435323 197.6191474996389 Z" stroke="#FFFFFF" stroke-width="1" r="0"></path><path fill="#23ffdb" d="M 225.13510806009938 203.04362577185532 A 29.74864778873689 29.74864778873689 0 0 1 221.58026886382115 194.47360712038235 L 221.58026886382115 194.47360712038235 A 29.74864778873689 29.74864778873689 0 0 0 225.13510806009938 203.04362577185532 Z" stroke="#FFFFFF" stroke-width="1" r="0"></path><path fill="#23ffdb" d="M 219.55945024888229 192.40050165566424 A 31.326227595715352 31.326227595715352 0 0 1 219.55456521831695 182.63044133918075 L 219.55456521831695 182.63044133918075 A 31.326227595715352 31.326227595715352 0 0 0 219.55945024888229 192.40050165566424 Z" stroke="#FFFFFF" stroke-width="1" r="0"></path><path fill="#23ffdb" d="M 215.5469159089206 179.1085069453907 A 35.94628274472373 35.94628274472373 0 0 1 219.83198901923035 168.74877748926713 L 219.83198901923035 168.74877748926713 A 35.94628274472373 35.94628274472373 0 0 0 215.5469159089206 179.1085069453907 Z" stroke="#FFFFFF" stroke-width="1" r="0"></path><path fill="#23ffdb" d="M 206.19454337995933 155.3102015428438 A 54.76455615653833 54.76455615653833 0 0 1 218.26591218850587 143.22675532577802 L 220.12302012826274 145.77747724116526 A 51.60939654258141 51.60939654258141 0 0 0 208.74712112761597 157.16475783255652 Z" stroke="#FFFFFF" stroke-width="1" r="0"></path><path fill="#23ffdb" d="M 203.10371686991087 110.15629541053036 A 90.71083890126206 90.71083890126206 0 0 1 229.235781318531 99.31672892187892 L 231.7980536317018 109.9425392257022 A 79.7804645243398 79.7804645243398 0 0 0 208.81482179366074 119.47597161572111 Z" stroke="#FFFFFF" stroke-width="1" r="0"></path></g><g class="highcharts-markers" visibility="visible" zIndex="0.1" transform="translate(10,10) scale(1 1)"></g><g class="highcharts-series highcharts-tracker" visibility="visible" zIndex="0.1" transform="translate(10,10) scale(1 1)" style="" clip-path="url(#highcharts-1)"><path fill="#0059ff" d="M 242.1797238076492 134.96784358803038 A 53.18697634955987 53.18697634955987 0 0 1 258.7677398845565 134.95954957930076 L 257.3138788455349 144.19865420836442 A 43.834181779616074 43.834181779616074 0 0 0 243.64282322282952 144.2054897367454 Z" stroke="#FFFFFF" stroke-width="1" r="0"></path><path fill="#0059ff" d="M 260.73288651486837 144.87696015225742 A 43.834181779616074 43.834181779616074 0 0 1 273.36591083597204 150.1023314372433 L 266.8411907773785 160.77364560296564 A 31.326227595715352 31.326227595715352 0 0 0 257.8129625993147 157.03931856639477 Z" stroke="#FFFFFF" stroke-width="1" r="0"></path><path fill="#0059ff" d="M 309.3821621983783 106.4556565119009 A 100.1763177431329 100.1763177431329 0 0 1 331.48542081354606 128.53682291271963 L 293.4978837165284 156.19446615838433 A 53.18697634955987 53.18697634955987 0 0 0 281.76252031229984 144.47083225378765 Z" stroke="#FFFFFF" stroke-width="1" r="0"></path><path fill="#0059ff" d="M 354.5537044352741 123.73580791318452 A 122.0370664969774 122.0370664969774 0 0 1 369.1366243200064 158.8923616993406 L 315.89802836476804 171.73013844368083 A 67.27251034043907 67.27251034043907 0 0 0 307.85924427318434 152.35020990228176 Z" stroke="#FFFFFF" stroke-width="1" r="0"></path><path fill="#0059ff" d="M 338.6471777082202 173.5388585924961 A 89.24594336621062 89.24594336621062 0 0 1 338.66109477371566 201.37298726391674 L 281.44543478168305 192.36955866081925 A 31.326227595715352 31.326227595715352 0 0 0 281.4405497511177 182.59949834433576 Z" stroke="#FFFFFF" stroke-width="1" r="0"></path><path fill="#0059ff" d="M 326.65170358401303 205.7824064982867 A 78.31556898928835 78.31556898928835 0 0 1 317.3158859925859 228.3529769434462 L 275.88042288063696 203.01825311233065 A 29.74864778873689 29.74864778873689 0 0 0 279.4266902822726 194.44468390726286 Z" stroke="#FFFFFF" stroke-width="1" r="0"></path><path fill="#0059ff" d="M 303.6483152458512 226.11451131794664 A 65.69493053346059 65.69493053346059 0 0 1 289.1676403170804 240.60967416681365 L 276.30053530590783 222.93681518163038 A 43.834181779616074 43.834181779616074 0 0 0 285.96259799423007 213.26508559636576 Z" stroke="#FFFFFF" stroke-width="1" r="0"></path><path fill="#0059ff" d="M 267.69219214159756 215.55510775170825 A 32.903807402693815 32.903807402693815 0 0 1 258.21323211799864 219.48697534759174 L 256.73398212276607 213.35248692476594 A 26.593488174779935 26.593488174779935 0 0 0 264.3950594021131 210.17467612809298 Z" stroke="#FFFFFF" stroke-width="1" r="0"></path><path fill="#0059ff" d="M 255.40050165566424 218.44054975111771 A 31.326227595715352 31.326227595715352 0 0 1 245.63044133918072 218.44543478168305 L 246.61135963056878 212.21182201990516 A 25.015908367801472 25.015908367801472 0 0 0 254.41335024301247 212.20792102427384 Z" stroke="#FFFFFF" stroke-width="1" r="0"></path><path fill="#0059ff" d="M 247.2117973923945 201.19634956547 A 14.085533990879213 14.085533990879213 0 0 1 243.15234227635858 199.51724568211978 L 243.15234227635858 199.51724568211978 A 14.085533990879213 14.085533990879213 0 0 0 247.2117973923945 201.19634956547 Z" stroke="#FFFFFF" stroke-width="1" r="0"></path><path fill="#0059ff" d="M 243.14800899435323 197.6191474996389 A 12.507954183900722 12.507954183900722 0 0 1 240.38820954971473 194.86210647546469 L 242.938931465102 193.00499853570784 A 9.352794569943796 9.352794569943796 0 0 0 245.00256528406592 195.06656975198226 Z" stroke="#FFFFFF" stroke-width="1" r="0"></path><path fill="#0059ff" d="M 225.13510806009938 203.04362577185532 A 29.74864778873689 29.74864778873689 0 0 1 221.58026886382115 194.47360712038235 L 230.672457061938 192.28114730601973 A 20.395853218793093 20.395853218793093 0 0 0 233.10967635938633 198.15680403297657 Z" stroke="#FFFFFF" stroke-width="1" r="0"></path><path fill="#0059ff" d="M 219.55945024888229 192.40050165566424 A 31.326227595715352 31.326227595715352 0 0 1 219.55456521831695 182.63044133918075 L 231.91047622826957 184.57476152389634 A 18.8182734118146 18.8182734118146 0 0 0 231.91341076101924 190.443826534158 Z" stroke="#FFFFFF" stroke-width="1" r="0"></path><path fill="#0059ff" d="M 215.5469159089206 179.1085069453907 A 35.94628274472373 35.94628274472373 0 0 1 219.83198901923035 168.74877748926713 L 227.81144015215787 173.627622217765 A 26.593488174779935 26.593488174779935 0 0 0 224.64129202039268 181.29187347684078 Z" stroke="#FFFFFF" stroke-width="1" r="0"></path><path fill="#0059ff" d="M 208.74712112761597 157.16475783255652 A 51.60939654258141 51.60939654258141 0 0 1 220.12302012826274 145.77747724116526 L 235.77578704907057 167.27641909942946 A 25.015908367801472 25.015908367801472 0 0 0 230.26170500072215 172.7960179887064 Z" stroke="#FFFFFF" stroke-width="1" r="0"></path><path fill="#0059ff" d="M 208.81482179366074 119.47597161572111 A 79.7804645243398 79.7804645243398 0 0 1 231.7980536317018 109.9425392257022 L 242.07355806287129 152.55532487711724 A 35.94628274472373 35.94628274472373 0 0 0 231.71811885900814 156.8507555726201 Z" stroke="#FFFFFF" stroke-width="1" r="0"></path></g><g class="highcharts-markers" visibility="visible" zIndex="0.1" transform="translate(10,10) scale(1 1)"></g><g class="highcharts-series highcharts-tracker" visibility="visible" zIndex="0.1" transform="translate(10,10) scale(1 1)" style="" clip-path="url(#highcharts-1)"><path fill="#00008f" d="M 243.64282322282952 144.2054897367454 A 43.834181779616074 43.834181779616074 0 0 1 257.3138788455349 144.19865420836442 L 250.5 187.5 A 0 0 0 0 0 250.5 187.5 Z" stroke="#FFFFFF" stroke-width="1" r="0"></path><path fill="#00008f" d="M 257.8129625993147 157.03931856639477 A 31.326227595715352 31.326227595715352 0 0 1 266.8411907773785 160.77364560296564 L 250.5 187.5 A 0 0 0 0 0 250.5 187.5 Z" stroke="#FFFFFF" stroke-width="1" r="0"></path><path fill="#00008f" d="M 281.76252031229984 144.47083225378765 A 53.18697634955987 53.18697634955987 0 0 1 293.4978837165284 156.19446615838433 L 250.5 187.5 A 0 0 0 0 0 250.5 187.5 Z" stroke="#FFFFFF" stroke-width="1" r="0"></path><path fill="#00008f" d="M 307.85924427318434 152.35020990228176 A 67.27251034043907 67.27251034043907 0 0 1 315.89802836476804 171.73013844368083 L 250.5 187.5 A 0 0 0 0 0 250.5 187.5 Z" stroke="#FFFFFF" stroke-width="1" r="0"></path><path fill="#00008f" d="M 281.4405497511177 182.59949834433576 A 31.326227595715352 31.326227595715352 0 0 1 281.44543478168305 192.36955866081925 L 250.5 187.5 A 0 0 0 0 0 250.5 187.5 Z" stroke="#FFFFFF" stroke-width="1" r="0"></path><path fill="#00008f" d="M 279.4266902822726 194.44468390726286 A 29.74864778873689 29.74864778873689 0 0 1 275.88042288063696 203.01825311233065 L 250.5 187.5 A 0 0 0 0 0 250.5 187.5 Z" stroke="#FFFFFF" stroke-width="1" r="0"></path><path fill="#00008f" d="M 285.96259799423007 213.26508559636576 A 43.834181779616074 43.834181779616074 0 0 1 276.30053530590783 222.93681518163038 L 250.5 187.5 A 0 0 0 0 0 250.5 187.5 Z" stroke="#FFFFFF" stroke-width="1" r="0"></path><path fill="#00008f" d="M 264.3950594021131 210.17467612809298 A 26.593488174779935 26.593488174779935 0 0 1 256.73398212276607 213.35248692476594 L 250.5 187.5 A 0 0 0 0 0 250.5 187.5 Z" stroke="#FFFFFF" stroke-width="1" r="0"></path><path fill="#00008f" d="M 254.41335024301247 212.20792102427384 A 25.015908367801472 25.015908367801472 0 0 1 246.61135963056878 212.21182201990516 L 250.5 187.5 A 0 0 0 0 0 250.5 187.5 Z" stroke="#FFFFFF" stroke-width="1" r="0"></path><path fill="#00008f" d="M 247.2117973923945 201.19634956547 A 14.085533990879213 14.085533990879213 0 0 1 243.15234227635858 199.51724568211978 L 250.5 187.5 A 0 0 0 0 0 250.5 187.5 Z" stroke="#FFFFFF" stroke-width="1" r="0"></path><path fill="#00008f" d="M 245.00256528406592 195.06656975198226 A 9.352794569943796 9.352794569943796 0 0 1 242.938931465102 193.00499853570784 L 250.5 187.5 A 0 0 0 0 0 250.5 187.5 Z" stroke="#FFFFFF" stroke-width="1" r="0"></path><path fill="#00008f" d="M 233.10967635938633 198.15680403297657 A 20.395853218793093 20.395853218793093 0 0 1 230.672457061938 192.28114730601973 L 250.5 187.5 A 0 0 0 0 0 250.5 187.5 Z" stroke="#FFFFFF" stroke-width="1" r="0"></path><path fill="#00008f" d="M 231.91341076101924 190.443826534158 A 18.8182734118146 18.8182734118146 0 0 1 231.91047622826957 184.57476152389634 L 250.5 187.5 A 0 0 0 0 0 250.5 187.5 Z" stroke="#FFFFFF" stroke-width="1" r="0"></path><path fill="#00008f" d="M 224.64129202039268 181.29187347684078 A 26.593488174779935 26.593488174779935 0 0 1 227.81144015215787 173.627622217765 L 250.5 187.5 A 0 0 0 0 0 250.5 187.5 Z" stroke="#FFFFFF" stroke-width="1" r="0"></path><path fill="#00008f" d="M 230.26170500072215 172.7960179887064 A 25.015908367801472 25.015908367801472 0 0 1 235.77578704907057 167.27641909942946 L 250.5 187.5 A 0 0 0 0 0 250.5 187.5 Z" stroke="#FFFFFF" stroke-width="1" r="0"></path><path fill="#00008f" d="M 231.71811885900814 156.8507555726201 A 35.94628274472373 35.94628274472373 0 0 1 242.07355806287129 152.55532487711724 L 250.5 187.5 A 0 0 0 0 0 250.5 187.5 Z" stroke="#FFFFFF" stroke-width="1" r="0"></path></g><g class="highcharts-markers" visibility="visible" zIndex="0.1" transform="translate(10,10) scale(1 1)"></g></g><g class="highcharts-legend" zIndex="7" transform="translate(521,110)"><rect rx="5" ry="5" fill="none" x="0.5" y="0.5" width="68" height="115" stroke="#909090" stroke-width="1" visibility="visible"></rect><g zIndex="1"><g><g class="highcharts-legend-item" zIndex="1" transform="translate(8,3)"><text x="21" y="15" style="font-family:&quot;Lucida Grande&quot;, &quot;Lucida Sans Unicode&quot;, Verdana, Arial, Helvetica, sans-serif;font-size:12px;cursor:pointer;color:#274b6d;fill:#274b6d;" text-anchor="start" zIndex="2"><tspan x="21">&gt;12</tspan></text><rect rx="2" ry="2" fill="#7f0000" x="0" y="4" width="16" height="12" zIndex="3"></rect></g><g class="highcharts-legend-item" zIndex="1" transform="translate(8,18)"><text x="21" y="15" style="font-family:&quot;Lucida Grande&quot;, &quot;Lucida Sans Unicode&quot;, Verdana, Arial, Helvetica, sans-serif;font-size:12px;cursor:pointer;color:#274b6d;fill:#274b6d;" text-anchor="start" zIndex="2"><tspan x="21">10-12</tspan></text><rect rx="2" ry="2" fill="#ff0000" x="0" y="4" width="16" height="12" zIndex="3"></rect></g><g class="highcharts-legend-item" zIndex="1" transform="translate(8,33)"><text x="21" y="15" style="font-family:&quot;Lucida Grande&quot;, &quot;Lucida Sans Unicode&quot;, Verdana, Arial, Helvetica, sans-serif;font-size:12px;cursor:pointer;color:#274b6d;fill:#274b6d;" text-anchor="start" zIndex="2"><tspan x="21">8-10</tspan></text><rect rx="2" ry="2" fill="#ff4900" x="0" y="4" width="16" height="12" zIndex="3"></rect></g><g class="highcharts-legend-item" zIndex="1" transform="translate(8,48)"><text x="21" y="15" style="font-family:&quot;Lucida Grande&quot;, &quot;Lucida Sans Unicode&quot;, Verdana, Arial, Helvetica, sans-serif;font-size:12px;cursor:pointer;color:#274b6d;fill:#274b6d;" text-anchor="start" zIndex="2"><tspan x="21">6-8</tspan></text><rect rx="2" ry="2" fill="#ebff13" x="0" y="4" width="16" height="12" zIndex="3"></rect></g><g class="highcharts-legend-item" zIndex="1" transform="translate(8,63)"><text x="21" y="15" style="font-family:&quot;Lucida Grande&quot;, &quot;Lucida Sans Unicode&quot;, Verdana, Arial, Helvetica, sans-serif;font-size:12px;cursor:pointer;color:#274b6d;fill:#274b6d;" text-anchor="start" zIndex="2"><tspan x="21">4-6</tspan></text><rect rx="2" ry="2" fill="#23ffdb" x="0" y="4" width="16" height="12" zIndex="3"></rect></g><g class="highcharts-legend-item" zIndex="1" transform="translate(8,78)"><text x="21" y="15" style="font-family:&quot;Lucida Grande&quot;, &quot;Lucida Sans Unicode&quot;, Verdana, Arial, Helvetica, sans-serif;font-size:12px;cursor:pointer;color:#274b6d;fill:#274b6d;" text-anchor="start" zIndex="2"><tspan x="21">2-4</tspan></text><rect rx="2" ry="2" fill="#0059ff" x="0" y="4" width="16" height="12" zIndex="3"></rect></g><g class="highcharts-legend-item" zIndex="1" transform="translate(8,93)"><text x="21" y="15" style="font-family:&quot;Lucida Grande&quot;, &quot;Lucida Sans Unicode&quot;, Verdana, Arial, Helvetica, sans-serif;font-size:12px;cursor:pointer;color:#274b6d;fill:#274b6d;" text-anchor="start" zIndex="2"><tspan x="21">0-2</tspan></text><rect rx="2" ry="2" fill="#00008f" x="0" y="4" width="16" height="12" zIndex="3"></rect></g></g></g></g><g class="highcharts-axis-labels" zIndex="7"><text x="260.5" y="28.725" style="font-family:&quot;Lucida Grande&quot;, &quot;Lucida Sans Unicode&quot;, Verdana, Arial, Helvetica, sans-serif;font-size:11px;color:#666;cursor:default;line-height:14px;fill:#666;" text-anchor="middle" opacity="1"><tspan x="260.5">N</tspan></text><text x="327.2304235186625" y="41.998506518344364" style="font-family:&quot;Lucida Grande&quot;, &quot;Lucida Sans Unicode&quot;, Verdana, Arial, Helvetica, sans-serif;font-size:11px;color:#666;cursor:default;line-height:14px;fill:#666;" text-anchor="start" opacity="1"><tspan x="327.2304235186625">NNE</tspan></text><text x="383.80174496940424" y="79.79825503059578" style="font-family:&quot;Lucida Grande&quot;, &quot;Lucida Sans Unicode&quot;, Verdana, Arial, Helvetica, sans-serif;font-size:11px;color:#666;cursor:default;line-height:14px;fill:#666;" text-anchor="start" opacity="1"><tspan x="383.80174496940424">NE</tspan></text><text x="421.60149348165567" y="136.36957648133748" style="font-family:&quot;Lucida Grande&quot;, &quot;Lucida Sans Unicode&quot;, Verdana, Arial, Helvetica, sans-serif;font-size:11px;color:#666;cursor:default;line-height:14px;fill:#666;" text-anchor="start" opacity="1"><tspan x="421.60149348165567">ENE</tspan></text><text x="434.875" y="203.1" style="font-family:&quot;Lucida Grande&quot;, &quot;Lucida Sans Unicode&quot;, Verdana, Arial, Helvetica, sans-serif;font-size:11px;color:#666;cursor:default;line-height:14px;fill:#666;" text-anchor="start" opacity="1"><tspan x="434.875">E</tspan></text><text x="421.60149348165567" y="269.83042351866254" style="font-family:&quot;Lucida Grande&quot;, &quot;Lucida Sans Unicode&quot;, Verdana, Arial, Helvetica, sans-serif;font-size:11px;color:#666;cursor:default;line-height:14px;fill:#666;" text-anchor="start" opacity="1"><tspan x="421.60149348165567">ESE</tspan></text><text x="383.80174496940424" y="326.40174496940426" style="font-family:&quot;Lucida Grande&quot;, &quot;Lucida Sans Unicode&quot;, Verdana, Arial, Helvetica, sans-serif;font-size:11px;color:#666;cursor:default;line-height:14px;fill:#666;" text-anchor="start" opacity="1"><tspan x="383.80174496940424">SE</tspan></text><text x="327.2304235186625" y="364.2014934816557" style="font-family:&quot;Lucida Grande&quot;, &quot;Lucida Sans Unicode&quot;, Verdana, Arial, Helvetica, sans-serif;font-size:11px;color:#666;cursor:default;line-height:14px;fill:#666;" text-anchor="start" opacity="1"><tspan x="327.2304235186625">SSE</tspan></text><text x="260.5" y="377.475" style="font-family:&quot;Lucida Grande&quot;, &quot;Lucida Sans Unicode&quot;, Verdana, Arial, Helvetica, sans-serif;font-size:11px;color:#666;cursor:default;line-height:14px;fill:#666;" text-anchor="middle" opacity="1"><tspan x="260.5">S</tspan></text><text x="193.76957648133748" y="364.2014934816557" style="font-family:&quot;Lucida Grande&quot;, &quot;Lucida Sans Unicode&quot;, Verdana, Arial, Helvetica, sans-serif;font-size:11px;color:#666;cursor:default;line-height:14px;fill:#666;" text-anchor="end" opacity="1"><tspan x="193.76957648133748">SSW</tspan></text><text x="137.1982550305958" y="326.40174496940426" style="font-family:&quot;Lucida Grande&quot;, &quot;Lucida Sans Unicode&quot;, Verdana, Arial, Helvetica, sans-serif;font-size:11px;color:#666;cursor:default;line-height:14px;fill:#666;" text-anchor="end" opacity="1"><tspan x="137.1982550305958">SW</tspan></text><text x="99.39850651834442" y="269.83042351866266" style="font-family:&quot;Lucida Grande&quot;, &quot;Lucida Sans Unicode&quot;, Verdana, Arial, Helvetica, sans-serif;font-size:11px;color:#666;cursor:default;line-height:14px;fill:#666;" text-anchor="end" opacity="1"><tspan x="99.39850651834442">WSW</tspan></text><text x="86.125" y="203.10000000000002" style="font-family:&quot;Lucida Grande&quot;, &quot;Lucida Sans Unicode&quot;, Verdana, Arial, Helvetica, sans-serif;font-size:11px;color:#666;cursor:default;line-height:14px;fill:#666;" text-anchor="end" opacity="1"><tspan x="86.125">W</tspan></text><text x="99.39850651834439" y="136.36957648133742" style="font-family:&quot;Lucida Grande&quot;, &quot;Lucida Sans Unicode&quot;, Verdana, Arial, Helvetica, sans-serif;font-size:11px;color:#666;cursor:default;line-height:14px;fill:#666;" text-anchor="end" opacity="1"><tspan x="99.39850651834439">WNW</tspan></text><text x="137.19825503059576" y="79.79825503059578" style="font-family:&quot;Lucida Grande&quot;, &quot;Lucida Sans Unicode&quot;, Verdana, Arial, Helvetica, sans-serif;font-size:11px;color:#666;cursor:default;line-height:14px;fill:#666;" text-anchor="end" opacity="1"><tspan x="137.19825503059576">NW</tspan></text><text x="193.76957648133737" y="41.99850651834442" style="font-family:&quot;Lucida Grande&quot;, &quot;Lucida Sans Unicode&quot;, Verdana, Arial, Helvetica, sans-serif;font-size:11px;color:#666;cursor:default;line-height:14px;fill:#666;" text-anchor="end" opacity="1"><tspan x="193.76957648133737">NNW</tspan></text><text x="0" y="-9999" style="font-family:&quot;Lucida Grande&quot;, &quot;Lucida Sans Unicode&quot;, Verdana, Arial, Helvetica, sans-serif;font-size:11px;color:#666;cursor:default;line-height:14px;fill:#666;" text-anchor="middle"><tspan x="0">16</tspan></text></g><g class="highcharts-axis-labels" zIndex="7"><text x="257.5" y="195.5" style="font-family:&quot;Lucida Grande&quot;, &quot;Lucida Sans Unicode&quot;, Verdana, Arial, Helvetica, sans-serif;font-size:11px;color:#666;cursor:default;line-height:14px;fill:#666;" text-anchor="end" opacity="1"><tspan x="257.5">0%</tspan></text><text x="257.5" y="139.1578640364832" style="font-family:&quot;Lucida Grande&quot;, &quot;Lucida Sans Unicode&quot;, Verdana, Arial, Helvetica, sans-serif;font-size:11px;color:#666;cursor:default;line-height:14px;fill:#666;" text-anchor="end" opacity="1"><tspan x="257.5">5%</tspan></text><text x="257.5" y="82.81572807296638" style="font-family:&quot;Lucida Grande&quot;, &quot;Lucida Sans Unicode&quot;, Verdana, Arial, Helvetica, sans-serif;font-size:11px;color:#666;cursor:default;line-height:14px;fill:#666;" text-anchor="end" opacity="1"><tspan x="257.5">10%</tspan></text></g><g class="highcharts-tooltip" zIndex="8" style="cursor:default;padding:0;white-space:nowrap;" transform="translate(0,-999)"><rect rx="3" ry="3" fill="none" x="0.5" y="0.5" width="16" height="16" fill-opacity="0.85" isShadow="true" stroke="black" stroke-width="5" transform="translate(1, 1)" opacity="0.049999999999999996"></rect><rect rx="3" ry="3" fill="none" x="0.5" y="0.5" width="16" height="16" fill-opacity="0.85" isShadow="true" stroke="black" stroke-width="3" transform="translate(1, 1)" opacity="0.09999999999999999"></rect><rect rx="3" ry="3" fill="none" x="0.5" y="0.5" width="16" height="16" fill-opacity="0.85" isShadow="true" stroke="black" stroke-width="1" transform="translate(1, 1)" opacity="0.15"></rect><rect rx="3" ry="3" fill="rgb(255,255,255)" x="0.5" y="0.5" width="16" height="16" fill-opacity="0.85"></rect><text x="8" y="21" style="font-family:&quot;Lucida Grande&quot;, &quot;Lucida Sans Unicode&quot;, Verdana, Arial, Helvetica, sans-serif;font-size:12px;color:#333333;fill:#333333;" zIndex="1"></text></g></svg>