<?xml version="1.0" standalone="no"?><!DOCTYPE svg PUBLIC "-//W3C//DTD SVG 1.1//EN" "http://www.w3.org/Graphics/SVG/1.1/DTD/svg11.dtd"><svg xmlns:xlink="http://www.w3.org/1999/xlink" version="1.1" xmlns="http://www.w3.org/2000/svg" width="600" height="400"><desc>Created with Highstock 1.3.7</desc><defs><clipPath id="highcharts-1"><rect fill="none" x="0" y="0" width="501" height="375"></rect></clipPath></defs><rect rx="5" ry="5" fill="#FFFFFF" x="0" y="0" width="600" height="400"></rect><g class="highcharts-grid" zIndex="1"><path fill="none" d="M 260.5 197.5 L 321.4901720331862 50.25669950601369" stroke="#C0C0C0" stroke-width="1" zIndex="1" opacity="1"></path><path fill="none" d="M 260.5 197.5 L 373.195143251606 84.804856748394" stroke="#C0C0C0" stroke-width="1" zIndex="1" opacity="1"></path><path fill="none" d="M 260.5 197.5 L 407.74330049398634 136.50982796681382" stroke="#C0C0C0" stroke-width="1" zIndex="1" opacity="1"></path><path fill="none" d="M 260.5 197.5 L 419.875 197.5" stroke="#C0C0C0" stroke-width="1" zIndex="1" opacity="1"></path><path fill="none" d="M 260.5 197.5 L 407.74330049398634 258.4901720331862" stroke="#C0C0C0" stroke-width="1" zIndex="1" opacity="1"></path><path fill="none" d="M 260.5 197.5 L 373.195143251606 310.195143251606" stroke="#C0C0C0" stroke-width="1" zIndex="1" opacity="1"></path><path fill="none" d="M 260.5 197.5 L 321.4901720331862 344.74330049398634" stroke="#C0C0C0" stroke-width="1" zIndex="1" opacity="1"></path><path fill="none" d="M 260.5 197.5 L 260.5 356.875" stroke="#C0C0C0" stroke-width="1" zIndex="1" opacity="1"></path><path fill="none" d="M 260.5 197.5 L 199.50982796681382 344.74330049398634" stroke="#C0C0C0" stroke-width="1" zIndex="1" opacity="1"></path><path fill="none" d="M 260.5 197.5 L 147.804856748394 310.195143251606" stroke="#C0C0C0" stroke-width="1" zIndex="1" opacity="1"></path><path fill="none" d="M 260.5 197.5 L 113.25669950601372 258.49017203318624" stroke="#C0C0C0" stroke-width="1" zIndex="1" opacity="1"></path><path fill="none" d="M 260.5 197.5 L 101.125 197.50000000000003" stroke="#C0C0C0" stroke-width="1" zIndex="1" opacity="1"></path><path fill="none" d="M 260.5 197.5 L 113.25669950601369 136.50982796681376" stroke="#C0C0C0" stroke-width="1" zIndex="1" opacity="1"></path><path fill="none" d="M 260.5 197.5 L 147.80485674839395 84.804856748394" stroke="#C0C0C0" stroke-width="1" zIndex="1" opacity="1"></path><path fill="none" d="M 260.5 197.5 L 199.50982796681373 50.25669950601372" stroke="#C0C0C0" stroke-width="1" zIndex="1" opacity="1"></path><path fill="none" d="M 260.5 197.5 L 260.49999999999994 38.125" stroke="#C0C0C0" stroke-width="1" zIndex="1" opacity="1"></path><path fill="none" d="M 260.5 197.5 L 260.5 38.125" stroke="#C0C0C0" stroke-width="1" zIndex="1" opacity="1"></path></g><g class="highcharts-grid" zIndex="1"><path fill="none" d="M 260.5 131.24696015464235 A 66.25303984535763 66.25303984535763 0 1 1 260.4337469711968 131.24699328115952 M 260.5 197.5 A 0 0 0 1 0 260.5 197.5 " stroke="#C0C0C0" stroke-width="1" zIndex="1" opacity="1"></path><path fill="none" d="M 260.5 64.99392030928473 A 132.50607969071527 132.50607969071527 0 1 1 260.36749394239354 64.99398656231907 M 260.5 197.5 A 0 0 0 1 0 260.5 197.5 " stroke="#C0C0C0" stroke-width="1" zIndex="1" opacity="1"></path><path fill="none" stroke="#C0C0C0" stroke-width="1" zIndex="1"></path></g><g class="highcharts-axis" zIndex="2"><path fill="none" d="M 260.5 38.125 A 159.375 159.375 0 1 1 260.3406250265624 38.125079687493354 M 260.5 197.5 A 0 0 0 1 0 260.5 197.5 " stroke="#C0D0E0" stroke-width="1" zIndex="7" visibility="visible"></path></g><g class="highcharts-axis" zIndex="2"></g><g class="highcharts-series-group" zIndex="3"><g class="highcharts-series highcharts-tracker" visibility="visible" zIndex="0.1" transform="translate(10,10) scale(1 1)" style="" clip-path="url(#highcharts-1)"><path fill="#7f0000" d="M 228.91124882482848 51.19398956781805 A 138.00508199787993 138.00508199787993 0 0 1 271.95243439308234 51.17246897324057 L 271.95243439308234 51.17246897324057 A 138.00508199787993 138.00508199787993 0 0 0 228.91124882482848 51.19398956781805 Z" stroke="#FFFFFF" stroke-width="1" r="0"></path><path fill="#7f0000" d="M 269.8330812415741 106.97192114933189 A 82.81629980669703 82.81629980669703 0 0 1 293.7007636566782 116.84426043729668 L 293.7007636566782 116.84426043729668 A 82.81629980669703 82.81629980669703 0 0 0 269.8330812415741 106.97192114933189 Z" stroke="#FFFFFF" stroke-width="1" r="0"></path><path fill="#7f0000" d="M 331.6173519397673 75.85154335360701 A 138.00508199787993 138.00508199787993 0 0 1 362.0672834837491 106.27104018086698 L 362.0672834837491 106.27104018086698 A 138.00508199787993 138.00508199787993 0 0 0 331.6173519397673 75.85154335360701 Z" stroke="#FFFFFF" stroke-width="1" r="0"></path><path fill="#7f0000" d="M 356.3622652147872 122.6275204420999 A 124.15819667020021 124.15819667020021 0 0 1 371.1986512985121 158.3951314190169 L 371.1986512985121 158.3951314190169 A 124.15819667020021 124.15819667020021 0 0 0 356.3622652147872 122.6275204420999 Z" stroke="#FFFFFF" stroke-width="1" r="0"></path><path fill="#7f0000" d="M 0 0" stroke="#FFFFFF" stroke-width="1" r="0"></path><path fill="#7f0000" d="M 0 0" stroke="#FFFFFF" stroke-width="1" r="0"></path><path fill="#7f0000" d="M 0 0" stroke="#FFFFFF" stroke-width="1" r="0"></path><path fill="#7f0000" d="M 0 0" stroke="#FFFFFF" stroke-width="1" r="0"></path><path fill="#7f0000" d="M 0 0" stroke="#FFFFFF" stroke-width="1" r="0"></path><path fill="#7f0000" d="M 0 0" stroke="#FFFFFF" stroke-width="1" r="0"></path><path fill="#7f0000" d="M 0 0" stroke="#FFFFFF" stroke-width="1" r="0"></path><path fill="#7f0000" d="M 0 0" stroke="#FFFFFF" stroke-width="1" r="0"></path><path fill="#7f0000" d="M 0 0" stroke="#FFFFFF" stroke-width="1" r="0"></path><path fill="#7f0000" d="M 0 0" stroke="#FFFFFF" stroke-width="1" r="0"></path><path fill="#7f0000" d="M 228.14886873665583 171.26095258815027 A 27.627517615514137 27.627517615514137 0 0 1 234.23860958013515 165.16511895692588 L 234.23860958013515 165.16511895692588 A 27.627517615514137 27.627517615514137 0 0 0 228.14886873665583 171.26095258815027 Z" stroke="#FFFFFF" stroke-width="1" r="0"></path><path fill="#7f0000" d="M 171.1921821413291 58.0814036248253 A 151.7857142857143 151.7857142857143 0 0 1 214.9187545789581 39.94364454381477 L 214.9187545789581 39.94364454381477 A 151.7857142857143 151.7857142857143 0 0 0 171.1921821413291 58.0814036248253 Z" stroke="#FFFFFF" stroke-width="1" r="0"></path></g><g class="highcharts-markers" visibility="visible" zIndex="0.1" transform="translate(10,10) scale(1 1)"></g><g class="highcharts-series highcharts-tracker" visibility="visible" zIndex="0.1" transform="translate(10,10) scale(1 1)" style="" clip-path="url(#highcharts-1)"><path fill="#ff0000" d="M 228.91124882482848 51.19398956781805 A 138.00508199787993 138.00508199787993 0 0 1 271.95243439308234 51.17246897324057 L 271.95243439308234 51.17246897324057 A 138.00508199787993 138.00508199787993 0 0 0 228.91124882482848 51.19398956781805 Z" stroke="#FFFFFF" stroke-width="1" r="0"></path><path fill="#ff0000" d="M 269.8330812415741 106.97192114933189 A 82.81629980669703 82.81629980669703 0 0 1 293.7007636566782 116.84426043729668 L 293.7007636566782 116.84426043729668 A 82.81629980669703 82.81629980669703 0 0 0 269.8330812415741 106.97192114933189 Z" stroke="#FFFFFF" stroke-width="1" r="0"></path><path fill="#ff0000" d="M 331.6173519397673 75.85154335360701 A 138.00508199787993 138.00508199787993 0 0 1 362.0672834837491 106.27104018086698 L 362.0672834837491 106.27104018086698 A 138.00508199787993 138.00508199787993 0 0 0 331.6173519397673 75.85154335360701 Z" stroke="#FFFFFF" stroke-width="1" r="0"></path><path fill="#ff0000" d="M 356.3622652147872 122.6275204420999 A 124.15819667020021 124.15819667020021 0 0 1 371.1986512985121 158.3951314190169 L 371.1986512985121 158.3951314190169 A 124.15819667020021 124.15819667020021 0 0 0 356.3622652147872 122.6275204420999 Z" stroke="#FFFFFF" stroke-width="1" r="0"></path><path fill="#ff0000" d="M 0 0" stroke="#FFFFFF" stroke-width="1" r="0"></path><path fill="#ff0000" d="M 0 0" stroke="#FFFFFF" stroke-width="1" r="0"></path><path fill="#ff0000" d="M 0 0" stroke="#FFFFFF" stroke-width="1" r="0"></path><path fill="#ff0000" d="M 0 0" stroke="#FFFFFF" stroke-width="1" r="0"></path><path fill="#ff0000" d="M 0 0" stroke="#FFFFFF" stroke-width="1" r="0"></path><path fill="#ff0000" d="M 0 0" stroke="#FFFFFF" stroke-width="1" r="0"></path><path fill="#ff0000" d="M 0 0" stroke="#FFFFFF" stroke-width="1" r="0"></path><path fill="#ff0000" d="M 0 0" stroke="#FFFFFF" stroke-width="1" r="0"></path><path fill="#ff0000" d="M 0 0" stroke="#FFFFFF" stroke-width="1" r="0"></path><path fill="#ff0000" d="M 0 0" stroke="#FFFFFF" stroke-width="1" r="0"></path><path fill="#ff0000" d="M 228.14886873665583 171.26095258815027 A 27.627517615514137 27.627517615514137 0 0 1 234.23860958013515 165.16511895692588 L 234.23860958013515 165.16511895692588 A 27.627517615514137 27.627517615514137 0 0 0 228.14886873665583 171.26095258815027 Z" stroke="#FFFFFF" stroke-width="1" r="0"></path><path fill="#ff0000" d="M 171.1921821413291 58.0814036248253 A 151.7857142857143 151.7857142857143 0 0 1 214.9187545789581 39.94364454381477 L 214.9187545789581 39.94364454381477 A 151.7857142857143 151.7857142857143 0 0 0 171.1921821413291 58.0814036248253 Z" stroke="#FFFFFF" stroke-width="1" r="0"></path></g><g class="highcharts-markers" visibility="visible" zIndex="0.1" transform="translate(10,10) scale(1 1)"></g><g class="highcharts-series highcharts-tracker" visibility="visible" zIndex="0.1" transform="translate(10,10) scale(1 1)" style="" clip-path="url(#highcharts-1)"><path fill="#ff4900" d="M 228.91124882482848 51.19398956781805 A 138.00508199787993 138.00508199787993 0 0 1 271.95243439308234 51.17246897324057 L 271.95243439308234 51.17246897324057 A 138.00508199787993 138.00508199787993 0 0 0 228.91124882482848 51.19398956781805 Z" stroke="#FFFFFF" stroke-width="1" r="0"></path><path fill="#ff4900" d="M 269.8330812415741 106.97192114933189 A 82.81629980669703 82.81629980669703 0 0 1 293.7007636566782 116.84426043729668 L 293.7007636566782 116.84426043729668 A 82.81629980669703 82.81629980669703 0 0 0 269.8330812415741 106.97192114933189 Z" stroke="#FFFFFF" stroke-width="1" r="0"></path><path fill="#ff4900" d="M 331.6173519397673 75.85154335360701 A 138.00508199787993 138.00508199787993 0 0 1 362.0672834837491 106.27104018086698 L 362.0672834837491 106.27104018086698 A 138.00508199787993 138.00508199787993 0 0 0 331.6173519397673 75.85154335360701 Z" stroke="#FFFFFF" stroke-width="1" r="0"></path><path fill="#ff4900" d="M 356.3622652147872 122.6275204420999 A 124.15819667020021 124.15819667020021 0 0 1 371.1986512985121 158.3951314190169 L 371.1986512985121 158.3951314190169 A 124.15819667020021 124.15819667020021 0 0 0 356.3622652147872 122.6275204420999 Z" stroke="#FFFFFF" stroke-width="1" r="0"></path><path fill="#ff4900" d="M 0 0" stroke="#FFFFFF" stroke-width="1" r="0"></path><path fill="#ff4900" d="M 0 0" stroke="#FFFFFF" stroke-width="1" r="0"></path><path fill="#ff4900" d="M 0 0" stroke="#FFFFFF" stroke-width="1" r="0"></path><path fill="#ff4900" d="M 0 0" stroke="#FFFFFF" stroke-width="1" r="0"></path><path fill="#ff4900" d="M 0 0" stroke="#FFFFFF" stroke-width="1" r="0"></path><path fill="#ff4900" d="M 0 0" stroke="#FFFFFF" stroke-width="1" r="0"></path><path fill="#ff4900" d="M 0 0" stroke="#FFFFFF" stroke-width="1" r="0"></path><path fill="#ff4900" d="M 0 0" stroke="#FFFFFF" stroke-width="1" r="0"></path><path fill="#ff4900" d="M 0 0" stroke="#FFFFFF" stroke-width="1" r="0"></path><path fill="#ff4900" d="M 0 0" stroke="#FFFFFF" stroke-width="1" r="0"></path><path fill="#ff4900" d="M 228.14886873665583 171.26095258815027 A 27.627517615514137 27.627517615514137 0 0 1 234.23860958013515 165.16511895692588 L 234.23860958013515 165.16511895692588 A 27.627517615514137 27.627517615514137 0 0 0 228.14886873665583 171.26095258815027 Z" stroke="#FFFFFF" stroke-width="1" r="0"></path><path fill="#ff4900" d="M 171.1921821413291 58.0814036248253 A 151.7857142857143 151.7857142857143 0 0 1 214.9187545789581 39.94364454381477 L 214.9187545789581 39.94364454381477 A 151.7857142857143 151.7857142857143 0 0 0 171.1921821413291 58.0814036248253 Z" stroke="#FFFFFF" stroke-width="1" r="0"></path></g><g class="highcharts-markers" visibility="visible" zIndex="0.1" transform="translate(10,10) scale(1 1)"></g><g class="highcharts-series highcharts-tracker" visibility="visible" zIndex="0.1" transform="translate(10,10) scale(1 1)" style="" clip-path="url(#highcharts-1)"><path fill="#ebff13" d="M 228.91124882482848 51.19398956781805 A 138.00508199787993 138.00508199787993 0 0 1 271.95243439308234 51.17246897324057 L 271.95243439308234 51.17246897324057 A 138.00508199787993 138.00508199787993 0 0 0 228.91124882482848 51.19398956781805 Z" stroke="#FFFFFF" stroke-width="1" r="0"></path><path fill="#ebff13" d="M 269.8330812415741 106.97192114933189 A 82.81629980669703 82.81629980669703 0 0 1 293.7007636566782 116.84426043729668 L 293.7007636566782 116.84426043729668 A 82.81629980669703 82.81629980669703 0 0 0 269.8330812415741 106.97192114933189 Z" stroke="#FFFFFF" stroke-width="1" r="0"></path><path fill="#ebff13" d="M 331.6173519397673 75.85154335360701 A 138.00508199787993 138.00508199787993 0 0 1 362.0672834837491 106.27104018086698 L 350.9266233951174 114.3822373207516 A 124.22444971004555 124.22444971004555 0 0 0 323.51729951371277 87.00030906769715 Z" stroke="#FFFFFF" stroke-width="1" r="0"></path><path fill="#ebff13" d="M 356.3622652147872 122.6275204420999 A 124.15819667020021 124.15819667020021 0 0 1 371.1986512985121 158.3951314190169 L 371.1986512985121 158.3951314190169 A 124.15819667020021 124.15819667020021 0 0 0 356.3622652147872 122.6275204420999 Z" stroke="#FFFFFF" stroke-width="1" r="0"></path><path fill="#ebff13" d="M 0 0" stroke="#FFFFFF" stroke-width="1" r="0"></path><path fill="#ebff13" d="M 0 0" stroke="#FFFFFF" stroke-width="1" r="0"></path><path fill="#ebff13" d="M 0 0" stroke="#FFFFFF" stroke-width="1" r="0"></path><path fill="#ebff13" d="M 0 0" stroke="#FFFFFF" stroke-width="1" r="0"></path><path fill="#ebff13" d="M 0 0" stroke="#FFFFFF" stroke-width="1" r="0"></path><path fill="#ebff13" d="M 0 0" stroke="#FFFFFF" stroke-width="1" r="0"></path><path fill="#ebff13" d="M 0 0" stroke="#FFFFFF" stroke-width="1" r="0"></path><path fill="#ebff13" d="M 0 0" stroke="#FFFFFF" stroke-width="1" r="0"></path><path fill="#ebff13" d="M 0 0" stroke="#FFFFFF" stroke-width="1" r="0"></path><path fill="#ebff13" d="M 0 0" stroke="#FFFFFF" stroke-width="1" r="0"></path><path fill="#ebff13" d="M 228.14886873665583 171.26095258815027 A 27.627517615514137 27.627517615514137 0 0 1 234.23860958013515 165.16511895692588 L 234.23860958013515 165.16511895692588 A 27.627517615514137 27.627517615514137 0 0 0 228.14886873665583 171.26095258815027 Z" stroke="#FFFFFF" stroke-width="1" r="0"></path><path fill="#ebff13" d="M 171.1921821413291 58.0814036248253 A 151.7857142857143 151.7857142857143 0 0 1 214.9187545789581 39.94364454381477 L 214.9187545789581 39.94364454381477 A 151.7857142857143 151.7857142857143 0 0 0 171.1921821413291 58.0814036248253 Z" stroke="#FFFFFF" stroke-width="1" r="0"></path></g><g class="highcharts-markers" visibility="visible" zIndex="0.1" transform="translate(10,10) scale(1 1)"></g><g class="highcharts-series highcharts-tracker" visibility="visible" zIndex="0.1" transform="translate(10,10) scale(1 1)" style="" clip-path="url(#highcharts-1)"><path fill="#23ffdb" d="M 228.91124882482848 51.19398956781805 A 138.00508199787993 138.00508199787993 0 0 1 271.95243439308234 51.17246897324057 L 269.8102805986699 64.78558776995969 A 124.22444971004555 124.22444971004555 0 0 0 231.06701466469195 64.80495940454097 Z" stroke="#FFFFFF" stroke-width="1" r="0"></path><path fill="#23ffdb" d="M 269.8330812415741 106.97192114933189 A 82.81629980669703 82.81629980669703 0 0 1 293.7007636566782 116.84426043729668 L 279.28898890081035 140.41501515541452 A 55.188782191182895 55.188782191182895 0 0 0 263.38356533938503 133.8360882539148 Z" stroke="#FFFFFF" stroke-width="1" r="0"></path><path fill="#23ffdb" d="M 323.51729951371277 87.00030906769715 A 124.22444971004555 124.22444971004555 0 0 1 350.9266233951174 114.3822373207516 L 295.1162012203375 155.0162153003659 A 55.188782191182895 55.188782191182895 0 0 0 282.9391522639588 142.8513373084756 Z" stroke="#FFFFFF" stroke-width="1" r="0"></path><path fill="#23ffdb" d="M 356.3622652147872 122.6275204420999 A 124.15819667020021 124.15819667020021 0 0 1 371.1986512985121 158.3951314190169 L 277.2932971932663 181.0391540396537 A 27.561264575668787 27.561264575668787 0 0 0 273.99984115760486 173.09927881745654 Z" stroke="#FFFFFF" stroke-width="1" r="0"></path><path fill="#23ffdb" d="M 0 0" stroke="#FFFFFF" stroke-width="1" r="0"></path><path fill="#23ffdb" d="M 0 0" stroke="#FFFFFF" stroke-width="1" r="0"></path><path fill="#23ffdb" d="M 0 0" stroke="#FFFFFF" stroke-width="1" r="0"></path><path fill="#23ffdb" d="M 0 0" stroke="#FFFFFF" stroke-width="1" r="0"></path><path fill="#23ffdb" d="M 0 0" stroke="#FFFFFF" stroke-width="1" r="0"></path><path fill="#23ffdb" d="M 0 0" stroke="#FFFFFF" stroke-width="1" r="0"></path><path fill="#23ffdb" d="M 0 0" stroke="#FFFFFF" stroke-width="1" r="0"></path><path fill="#23ffdb" d="M 0 0" stroke="#FFFFFF" stroke-width="1" r="0"></path><path fill="#23ffdb" d="M 0 0" stroke="#FFFFFF" stroke-width="1" r="0"></path><path fill="#23ffdb" d="M 0 0" stroke="#FFFFFF" stroke-width="1" r="0"></path><path fill="#23ffdb" d="M 228.14886873665583 171.26095258815027 A 27.627517615514137 27.627517615514137 0 0 1 234.23860958013515 165.16511895692588 L 234.23860958013515 165.16511895692588 A 27.627517615514137 27.627517615514137 0 0 0 228.14886873665583 171.26095258815027 Z" stroke="#FFFFFF" stroke-width="1" r="0"></path><path fill="#23ffdb" d="M 171.1921821413291 58.0814036248253 A 151.7857142857143 151.7857142857143 0 0 1 214.9187545789581 39.94364454381477 L 214.9187545789581 39.94364454381477 A 151.7857142857143 151.7857142857143 0 0 0 171.1921821413291 58.0814036248253 Z" stroke="#FFFFFF" stroke-width="1" r="0"></path></g><g class="highcharts-markers" visibility="visible" zIndex="0.1" transform="translate(10,10) scale(1 1)"></g><g class="highcharts-series highcharts-tracker" visibility="visible" zIndex="0.1" transform="translate(10,10) scale(1 1)" style="" clip-path="url(#highcharts-1)"><path fill="#0059ff" d="M 231.06701466469195 64.80495940454097 A 124.22444971004555 124.22444971004555 0 0 1 269.8102805986699 64.78558776995969 L 250.5 187.5 A 0 0 0 0 0 250.5 187.5 Z" stroke="#FFFFFF" stroke-width="1" r="0"></path><path fill="#0059ff" d="M 263.38356533938503 133.8360882539148 A 55.188782191182895 55.188782191182895 0 0 1 279.28898890081035 140.41501515541452 L 257.68860707247126 175.7428849367662 A 13.78063228783438 13.78063228783438 0 0 0 253.71702471859794 174.10012767924883 Z" stroke="#FFFFFF" stroke-width="1" r="0"></path><path fill="#0059ff" d="M 282.9391522639588 142.8513373084756 A 55.188782191182895 55.188782191182895 0 0 1 295.1162012203375 155.0162153003659 L 261.6406600886317 179.3888028601154 A 13.78063228783438 13.78063228783438 0 0 0 258.6000524260545 176.35123428590987 Z" stroke="#FFFFFF" stroke-width="1" r="0"></path><path fill="#0059ff" d="M 273.99984115760486 173.09927881745654 A 27.561264575668787 27.561264575668787 0 0 1 277.2932971932663 181.0391540396537 L 263.89664859663316 184.26957701982684 A 13.78063228783438 13.78063228783438 0 0 0 262.2499205788024 180.29963940872827 Z" stroke="#FFFFFF" stroke-width="1" r="0"></path><path fill="#0059ff" d="M 0 0" stroke="#FFFFFF" stroke-width="1" r="0"></path><path fill="#0059ff" d="M 0 0" stroke="#FFFFFF" stroke-width="1" r="0"></path><path fill="#0059ff" d="M 0 0" stroke="#FFFFFF" stroke-width="1" r="0"></path><path fill="#0059ff" d="M 0 0" stroke="#FFFFFF" stroke-width="1" r="0"></path><path fill="#0059ff" d="M 0 0" stroke="#FFFFFF" stroke-width="1" r="0"></path><path fill="#0059ff" d="M 0 0" stroke="#FFFFFF" stroke-width="1" r="0"></path><path fill="#0059ff" d="M 0 0" stroke="#FFFFFF" stroke-width="1" r="0"></path><path fill="#0059ff" d="M 0 0" stroke="#FFFFFF" stroke-width="1" r="0"></path><path fill="#0059ff" d="M 0 0" stroke="#FFFFFF" stroke-width="1" r="0"></path><path fill="#0059ff" d="M 0 0" stroke="#FFFFFF" stroke-width="1" r="0"></path><path fill="#0059ff" d="M 228.14886873665583 171.26095258815027 A 27.627517615514137 27.627517615514137 0 0 1 234.23860958013515 165.16511895692588 L 250.5 187.5 A 0 0 0 0 0 250.5 187.5 Z" stroke="#FFFFFF" stroke-width="1" r="0"></path><path fill="#0059ff" d="M 171.1921821413291 58.0814036248253 A 151.7857142857143 151.7857142857143 0 0 1 214.9187545789581 39.94364454381477 L 247.26957701982684 174.10335140336687 A 13.78063228783438 13.78063228783438 0 0 0 243.29963940872827 175.7500794211976 Z" stroke="#FFFFFF" stroke-width="1" r="0"></path></g><g class="highcharts-markers" visibility="visible" zIndex="0.1" transform="translate(10,10) scale(1 1)"></g><g class="highcharts-series highcharts-tracker" visibility="visible" zIndex="0.1" transform="translate(10,10) scale(1 1)" style="" clip-path="url(#highcharts-1)"><path fill="#00008f" d="M 0 0" stroke="#FFFFFF" stroke-width="1" r="0"></path><path fill="#00008f" d="M 253.71702471859794 174.10012767924883 A 13.78063228783438 13.78063228783438 0 0 1 257.68860707247126 175.7428849367662 L 250.5 187.5 A 0 0 0 0 0 250.5 187.5 Z" stroke="#FFFFFF" stroke-width="1" r="0"></path><path fill="#00008f" d="M 258.6000524260545 176.35123428590987 A 13.78063228783438 13.78063228783438 0 0 1 261.6406600886317 179.3888028601154 L 250.5 187.5 A 0 0 0 0 0 250.5 187.5 Z" stroke="#FFFFFF" stroke-width="1" r="0"></path><path fill="#00008f" d="M 262.2499205788024 180.29963940872827 A 13.78063228783438 13.78063228783438 0 0 1 263.89664859663316 184.26957701982684 L 250.5 187.5 A 0 0 0 0 0 250.5 187.5 Z" stroke="#FFFFFF" stroke-width="1" r="0"></path><path fill="#00008f" d="M 0 0" stroke="#FFFFFF" stroke-width="1" r="0"></path><path fill="#00008f" d="M 0 0" stroke="#FFFFFF" stroke-width="1" r="0"></path><path fill="#00008f" d="M 0 0" stroke="#FFFFFF" stroke-width="1" r="0"></path><path fill="#00008f" d="M 0 0" stroke="#FFFFFF" stroke-width="1" r="0"></path><path fill="#00008f" d="M 0 0" stroke="#FFFFFF" stroke-width="1" r="0"></path><path fill="#00008f" d="M 0 0" stroke="#FFFFFF" stroke-width="1" r="0"></path><path fill="#00008f" d="M 0 0" stroke="#FFFFFF" stroke-width="1" r="0"></path><path fill="#00008f" d="M 0 0" stroke="#FFFFFF" stroke-width="1" r="0"></path><path fill="#00008f" d="M 0 0" stroke="#FFFFFF" stroke-width="1" r="0"></path><path fill="#00008f" d="M 0 0" stroke="#FFFFFF" stroke-width="1" r="0"></path><path fill="#00008f" d="M 0 0" stroke="#FFFFFF" stroke-width="1" r="0"></path><path fill="#00008f" d="M 243.29963940872827 175.7500794211976 A 13.78063228783438 13.78063228783438 0 0 1 247.26957701982684 174.10335140336687 L 250.5 187.5 A 0 0 0 0 0 250.5 187.5 Z" stroke="#FFFFFF" stroke-width="1" r="0"></path></g><g class="highcharts-markers" visibility="visible" zIndex="0.1" transform="translate(10,10) scale(1 1)"></g></g><g class="highcharts-legend" zIndex="7" transform="translate(521,110)"><rect rx="5" ry="5" fill="none" x="0.5" y="0.5" width="68" height="115" stroke="#909090" stroke-width="1" visibility="visible"></rect><g zIndex="1"><g><g class="highcharts-legend-item" zIndex="1" transform="translate(8,3)"><text x="21" y="15" style="font-family:&quot;Lucida Grande&quot;, &quot;Lucida Sans Unicode&quot;, Verdana, Arial, Helvetica, sans-serif;font-size:12px;cursor:pointer;color:#274b6d;fill:#274b6d;" text-anchor="start" zIndex="2"><tspan x="21">&gt;12</tspan></text><rect rx="2" ry="2" fill="#7f0000" x="0" y="4" width="16" height="12" zIndex="3"></rect></g><g class="highcharts-legend-item" zIndex="1" transform="translate(8,18)"><text x="21" y="15" style="font-family:&quot;Lucida Grande&quot;, &quot;Lucida Sans Unicode&quot;, Verdana, Arial, Helvetica, sans-serif;font-size:12px;cursor:pointer;color:#274b6d;fill:#274b6d;" text-anchor="start" zIndex="2"><tspan x="21">10-12</tspan></text><rect rx="2" ry="2" fill="#ff0000" x="0" y="4" width="16" height="12" zIndex="3"></rect></g><g class="highcharts-legend-item" zIndex="1" transform="translate(8,33)"><text x="21" y="15" style="font-family:&quot;Lucida Grande&quot;, &quot;Lucida Sans Unicode&quot;, Verdana, Arial, Helvetica, sans-serif;font-size:12px;cursor:pointer;color:#274b6d;fill:#274b6d;" text-anchor="start" zIndex="2"><tspan x="21">8-10</tspan></text><rect rx="2" ry="2" fill="#ff4900" x="0" y="4" width="16" height="12" zIndex="3"></rect></g><g class="highcharts-legend-item" zIndex="1" transform="translate(8,48)"><text x="21" y="15" style="font-family:&quot;Lucida Grande&quot;, &quot;Lucida Sans Unicode&quot;, Verdana, Arial, Helvetica, sans-serif;font-size:12px;cursor:pointer;color:#274b6d;fill:#274b6d;" text-anchor="start" zIndex="2"><tspan x="21">6-8</tspan></text><rect rx="2" ry="2" fill="#ebff13" x="0" y="4" width="16" height="12" zIndex="3"></rect></g><g class="highcharts-legend-item" zIndex="1" transform="translate(8,63)"><text x="21" y="15" style="font-family:&quot;Lucida Grande&quot;, &quot;Lucida Sans Unicode&quot;, Verdana, Arial, Helvetica, sans-serif;font-size:12px;cursor:pointer;color:#274b6d;fill:#274b6d;" text-anchor="start" zIndex="2"><tspan x="21">4-6</tspan></text><rect rx="2" ry="2" fill="#23ffdb" x="0" y="4" width="16" height="12" zIndex="3"></rect></g><g class="highcharts-legend-item" zIndex="1" transform="translate(8,78)"><text x="21" y="15" style="font-family:&quot;Lucida Grande&quot;, &quot;Lucida Sans Unicode&quot;, Verdana, Arial, Helvetica, sans-serif;font-size:12px;cursor:pointer;color:#274b6d;fill:#274b6d;" text-anchor="start" zIndex="2"><tspan x="21">2-4</tspan></text><rect rx="2" ry="2" fill="#0059ff" x="0" y="4" width="16" height="12" zIndex="3"></rect></g><g class="highcharts-legend-item" zIndex="1" transform="translate(8,93)"><text x="21" y="15" style="font-family:&quot;Lucida Grande&quot;, &quot;Lucida Sans Unicode&quot;, Verdana, Arial, Helvetica, sans-serif;font-size:12px;cursor:pointer;color:#274b6d;fill:#274b6d;" text-anchor="start" zIndex="2"><tspan x="21">0-2</tspan></text><rect rx="2" ry="2" fill="#00008f" x="0" y="4" width="16" height="12" zIndex="3"></rect></g></g></g></g><g class="highcharts-axis-labels" zIndex="7"><text x="260.5" y="28.725" style="font-family:&quot;Lucida Grande&quot;, &quot;Lucida Sans Unicode&quot;, Verdana, Arial, Helvetica, sans-serif;font-size:11px;color:#666;cursor:default;line-height:14px;fill:#666;" text-anchor="middle" opacity="1"><tspan x="260.5">N</tspan></text><text x="327.2304235186625" y="41.998506518344364" style="font-family:&quot;Lucida Grande&quot;, &quot;Lucida Sans Unicode&quot;, Verdana, Arial, Helvetica, sans-serif;font-size:11px;color:#666;cursor:default;line-height:14px;fill:#666;" text-anchor="start" opacity="1"><tspan x="327.2304235186625">NNE</tspan></text><text x="383.80174496940424" y="79.79825503059578" style="font-family:&quot;Lucida Grande&quot;, &quot;Lucida Sans Unicode&quot;, Verdana, Arial, Helvetica, sans-serif;font-size:11px;color:#666;cursor:default;line-height:14px;fill:#666;" text-anchor="start" opacity="1"><tspan x="383.80174496940424">NE</tspan></text><text x="421.60149348165567" y="136.36957648133748" style="font-family:&quot;Lucida Grande&quot;, &quot;Lucida Sans Unicode&quot;, Verdana, Arial, Helvetica, sans-serif;font-size:11px;color:#666;cursor:default;line-height:14px;fill:#666;" text-anchor="start" opacity="1"><tspan x="421.60149348165567">ENE</tspan></text><text x="434.875" y="203.1" style="font-family:&quot;Lucida Grande&quot;, &quot;Lucida Sans Unicode&quot;, Verdana, Arial, Helvetica, sans-serif;font-size:11px;color:#666;cursor:default;line-height:14px;fill:#666;" text-anchor="start" opacity="1"><tspan x="434.875">E</tspan></text><text x="421.60149348165567" y="269.83042351866254" style="font-family:&quot;Lucida Grande&quot;, &quot;Lucida Sans Unicode&quot;, Verdana, Arial, Helvetica, sans-serif;font-size:11px;color:#666;cursor:default;line-height:14px;fill:#666;" text-anchor="start" opacity="1"><tspan x="421.60149348165567">ESE</tspan></text><text x="383.80174496940424" y="326.40174496940426" style="font-family:&quot;Lucida Grande&quot;, &quot;Lucida Sans Unicode&quot;, Verdana, Arial, Helvetica, sans-serif;font-size:11px;color:#666;cursor:default;line-height:14px;fill:#666;" text-anchor="start" opacity="1"><tspan x="383.80174496940424">SE</tspan></text><text x="327.2304235186625" y="364.2014934816557" style="font-family:&quot;Lucida Grande&quot;, &quot;Lucida Sans Unicode&quot;, Verdana, Arial, Helvetica, sans-serif;font-size:11px;color:#666;cursor:default;line-height:14px;fill:#666;" text-anchor="start" opacity="1"><tspan x="327.2304235186625">SSE</tspan></text><text x="260.5" y="377.475" style="font-family:&quot;Lucida Grande&quot;, &quot;Lucida Sans Unicode&quot;, Verdana, Arial, Helvetica, sans-serif;font-size:11px;color:#666;cursor:default;line-height:14px;fill:#666;" text-anchor="middle" opacity="1"><tspan x="260.5">S</tspan></text><text x="193.76957648133748" y="364.2014934816557" style="font-family:&quot;Lucida Grande&quot;, &quot;Lucida Sans Unicode&quot;, Verdana, Arial, Helvetica, sans-serif;font-size:11px;color:#666;cursor:default;line-height:14px;fill:#666;" text-anchor="end" opacity="1"><tspan x="193.76957648133748">SSW</tspan></text><text x="137.1982550305958" y="326.40174496940426" style="font-family:&quot;Lucida Grande&quot;, &quot;Lucida Sans Unicode&quot;, Verdana, Arial, Helvetica, sans-serif;font-size:11px;color:#666;cursor:default;line-height:14px;fill:#666;" text-anchor="end" opacity="1"><tspan x="137.1982550305958">SW</tspan></text><text x="99.39850651834442" y="269.83042351866266" style="font-family:&quot;Lucida Grande&quot;, &quot;Lucida Sans Unicode&quot;, Verdana, Arial, Helvetica, sans-serif;font-size:11px;color:#666;cursor:default;line-height:14px;fill:#666;" text-anchor="end" opacity="1"><tspan x="99.39850651834442">WSW</tspan></text><text x="86.125" y="203.10000000000002" style="font-family:&quot;Lucida Grande&quot;, &quot;Lucida Sans Unicode&quot;, Verdana, Arial, Helvetica, sans-serif;font-size:11px;color:#666;cursor:default;line-height:14px;fill:#666;" text-anchor="end" opacity="1"><tspan x="86.125">W</tspan></text><text x="99.39850651834439" y="136.36957648133742" style="font-family:&quot;Lucida Grande&quot;, &quot;Lucida Sans Unicode&quot;, Verdana, Arial, Helvetica, sans-serif;font-size:11px;color:#666;cursor:default;line-height:14px;fill:#666;" text-anchor="end" opacity="1"><tspan x="99.39850651834439">WNW</tspan></text><text x="137.19825503059576" y="79.79825503059578" style="font-family:&quot;Lucida Grande&quot;, &quot;Lucida Sans Unicode&quot;, Verdana, Arial, Helvetica, sans-serif;font-size:11px;color:#666;cursor:default;line-height:14px;fill:#666;" text-anchor="end" opacity="1"><tspan x="137.19825503059576">NW</tspan></text><text x="193.76957648133737" y="41.99850651834442" style="font-family:&quot;Lucida Grande&quot;, &quot;Lucida Sans Unicode&quot;, Verdana, Arial, Helvetica, sans-serif;font-size:11px;color:#666;cursor:default;line-height:14px;fill:#666;" text-anchor="end" opacity="1"><tspan x="193.76957648133737">NNW</tspan></text><text x="0" y="-9999" style="font-family:&quot;Lucida Grande&quot;, &quot;Lucida Sans Unicode&quot;, Verdana, Arial, Helvetica, sans-serif;font-size:11px;color:#666;cursor:default;line-height:14px;fill:#666;" text-anchor="middle"><tspan x="0">16</tspan></text></g><g class="highcharts-axis-labels" zIndex="7"><text x="257.5" y="195.5" style="font-family:&quot;Lucida Grande&quot;, &quot;Lucida Sans Unicode&quot;, Verdana, Arial, Helvetica, sans-serif;font-size:11px;color:#666;cursor:default;line-height:14px;fill:#666;" text-anchor="end" opacity="1"><tspan x="257.5">0%</tspan></text><text x="257.5" y="129.24696015464235" style="font-family:&quot;Lucida Grande&quot;, &quot;Lucida Sans Unicode&quot;, Verdana, Arial, Helvetica, sans-serif;font-size:11px;color:#666;cursor:default;line-height:14px;fill:#666;" text-anchor="end" opacity="1"><tspan x="257.5">10%</tspan></text><text x="257.5" y="62.99392030928473" style="font-family:&quot;Lucida Grande&quot;, &quot;Lucida Sans Unicode&quot;, Verdana, Arial, Helvetica, sans-serif;font-size:11px;color:#666;cursor:default;line-height:14px;fill:#666;" text-anchor="end" opacity="1"><tspan x="257.5">20%</tspan></text></g><g class="highcharts-tooltip" zIndex="8" style="cursor:default;padding:0;white-space:nowrap;" transform="translate(0,-999)"><rect rx="3" ry="3" fill="none" x="0.5" y="0.5" width="16" height="16" fill-opacity="0.85" isShadow="true" stroke="black" stroke-width="5" transform="translate(1, 1)" opacity="0.049999999999999996"></rect><rect rx="3" ry="3" fill="none" x="0.5" y="0.5" width="16" height="16" fill-opacity="0.85" isShadow="true" stroke="black" stroke-width="3" transform="translate(1, 1)" opacity="0.09999999999999999"></rect><rect rx="3" ry="3" fill="none" x="0.5" y="0.5" width="16" height="16" fill-opacity="0.85" isShadow="true" stroke="black" stroke-width="1" transform="translate(1, 1)" opacity="0.15"></rect><rect rx="3" ry="3" fill="rgb(255,255,255)" x="0.5" y="0.5" width="16" height="16" fill-opacity="0.85"></rect><text x="8" y="21" style="font-family:&quot;Lucida Grande&quot;, &quot;Lucida Sans Unicode&quot;, Verdana, Arial, Helvetica, sans-serif;font-size:12px;color:#333333;fill:#333333;" zIndex="1"></text></g></svg>