<?xml version="1.0" encoding="utf-8"?>
<!-- Generator: Adobe Illustrator 14.0.0, SVG Export Plug-In . SVG Version: 6.00 Build 43363)  -->
<!DOCTYPE svg PUBLIC "-//W3C//DTD SVG 1.1//EN" "http://www.w3.org/Graphics/SVG/1.1/DTD/svg11.dtd">
<svg version="1.1" id="Layer_1" xmlns="http://www.w3.org/2000/svg" xmlns:xlink="http://www.w3.org/1999/xlink" x="0px" y="0px"
	 width="484px" height="142px" viewBox="55.138 134.012 484 142" enable-background="new 55.138 134.012 484 142"
	 xml:space="preserve">
<g>
	<g>
		<path fill="#008C61" d="M317.27,178.668l0.592-1.227h0.988c-0.209-0.438-0.313-0.951-0.313-1.532c0-1.948,1.303-2.641,2.416-2.641
			c0.836,0,1.582,0.358,2.141,1.03l0.096,0.118l-0.795,0.935l-0.131-0.124c-0.52-0.472-0.979-0.732-1.311-0.732
			c-0.713,0-1.135,0.528-1.135,1.414c0,1.028,0.367,1.532,1.135,1.532h2.445l-0.629,1.227H317.27L317.27,178.668z"/>
		<polygon fill="#008C61" points="195.548,224.461 195.548,208.588 204.607,208.588 204.607,210.736 197.928,210.736 
			197.928,215.379 204.377,215.379 204.377,217.529 197.928,217.529 197.928,222.307 204.816,222.307 204.816,224.461 		"/>
		<path fill="#008C61" d="M209.594,213.801h0.054c0.927-1.166,2.285-1.85,3.645-1.85c2.305,0,4.151,1.58,4.151,4.922v7.525h-2.415
			v-7.557c0-1.791-0.927-2.961-2.394-2.961c-1.058,0-1.901,0.49-3.042,1.77v8.748h-2.421v-12.195h2.421L209.594,213.801
			L209.594,213.801z"/>
		<polygon fill="#008C61" points="218.782,212.205 221.419,212.205 224.705,219.701 227.908,212.205 230.488,212.205 
			225.109,224.65 224.297,224.65 		"/>
		<path fill="#008C61" d="M234.783,224.4h-2.421v-12.195h2.421V224.4L234.783,224.4z M233.587,209.947
			c-0.781,0-1.438-0.654-1.438-1.441c0-0.785,0.657-1.438,1.438-1.438c0.788,0,1.439,0.652,1.439,1.438
			C235.027,209.291,234.375,209.947,233.587,209.947L233.587,209.947z"/>
		<path fill="#008C61" d="M240.844,212.205v2.791h0.055c1.227-2.141,2.39-3.045,3.532-3.045c0.98,0,1.902,0.471,2.902,1.418
			l-1.276,2.092c-0.732-0.705-1.683-1.195-2.252-1.195c-1.656,0-2.961,1.656-2.961,3.75v6.385h-2.421v-12.193L240.844,212.205
			L240.844,212.205z"/>
		<path fill="#008C61" d="M250.087,218.18c0,2.58,1.603,4.293,3.938,4.293c2.557,0,4.156-1.633,4.156-4.266
			c0-2.367-1.741-4.078-4.156-4.078C251.739,214.129,250.087,215.84,250.087,218.18L250.087,218.18z M260.661,218.18
			c0,3.854-2.696,6.471-6.606,6.471c-3.751,0-6.438-2.725-6.438-6.471c0-3.506,2.8-6.229,6.438-6.229
			C257.886,211.951,260.661,214.563,260.661,218.18L260.661,218.18z"/>
		<path fill="#008C61" d="M265.71,213.801h0.058c0.918-1.166,2.281-1.85,3.637-1.85c2.313,0,4.155,1.58,4.155,4.922v7.525h-2.412
			v-7.557c0-1.791-0.929-2.961-2.395-2.961c-1.057,0-1.901,0.49-3.044,1.77v8.748h-2.416v-12.195h2.416L265.71,213.801
			L265.71,213.801z"/>
		<path fill="#008C61" d="M279.246,212.205v1.598c1.242-1.25,2.417-1.852,3.556-1.852c1.543,0,2.83,0.764,3.639,2.207
			c1.059-1.195,2.338-2.207,4.078-2.207c2.473,0,4.047,1.904,4.047,4.789v7.658h-2.414v-7.557c0-1.848-1.145-2.854-2.529-2.854
			c-0.785-0.023-1.85,0.656-2.715,1.559v8.854h-2.42v-7.58c0-1.98-1.008-2.828-2.197-2.828c-1.225,0-2.041,0.383-3.042,1.557v8.854
			h-2.421v-12.195L279.246,212.205L279.246,212.205z"/>
		<path fill="#008C61" d="M305.897,217.064c-0.076-1.85-1.139-3.016-2.85-3.016c-1.85,0-2.959,1.086-3.291,3.016H305.897
			L305.897,217.064z M308.077,223.203c-1.471,0.979-2.809,1.445-4.869,1.445c-3.803,0-5.917-3.129-5.917-6.496
			c0-3.697,2.333-6.201,5.699-6.201c3.232,0,5.301,2.207,5.301,6.713h-8.586c0.385,2.42,1.766,3.666,4.1,3.666
			c1.467,0,2.854-0.537,4.273-1.463V223.203L308.077,223.203z"/>
		<path fill="#008C61" d="M313.262,213.801h0.057c0.928-1.166,2.279-1.85,3.646-1.85c2.307,0,4.146,1.58,4.146,4.922v7.525h-2.416
			v-7.557c0-1.791-0.922-2.961-2.387-2.961c-1.061,0-1.896,0.49-3.045,1.77v8.748h-2.416v-12.195h2.416L313.262,213.801
			L313.262,213.801z"/>
		<path fill="#008C61" d="M327.313,212.205h3.855v2.168h-3.855v6.25c0,1.441,1.029,1.85,1.732,1.85c0.871,0,1.773-0.303,2.752-0.9
			v2.262c-0.846,0.461-2.148,0.816-2.939,0.816c-2.633,0-3.967-1.631-3.967-3.836v-6.439h-2.119v-0.27l4.541-4.43V212.205
			L327.313,212.205z"/>
		<path fill="#008C61" d="M349.352,217.662l-2.441-5.494l-2.271,5.494H349.352L349.352,217.662z M352.475,224.461l-2.154-4.678
			l-6.646,0.029l-1.936,4.607l-2.449,0.039l6.801-15.936l1.648-0.033l7.137,15.969L352.475,224.461L352.475,224.461z"/>
		<path fill="#008C61" d="M360.46,214.291c-1.326,0-2.414,1.006-2.414,2.205c0,1.328,0.975,2.229,2.443,2.229
			c1.361,0,2.335-0.949,2.335-2.287C362.824,215.271,361.745,214.291,360.46,214.291L360.46,214.291z M359.835,224.994
			c-1.631,0-2.771,0.766-2.771,1.852c0,1.221,1.195,1.877,3.396,1.877c2.121,0,3.375-0.656,3.375-1.766
			C363.835,225.408,361.333,224.994,359.835,224.994L359.835,224.994z M366.223,214.078h-2.5c0.951,0.949,1.275,1.627,1.275,2.662
			c0,1-0.566,2.17-1.139,2.746c-1.631,1.73-4.947,0.867-4.947,2.307c0,0.68,1.271,1.084,3.725,1.57
			c2.607,0.521,3.533,1.854,3.533,3.402c0,2.418-2.148,3.883-5.764,3.883c-3.285,0-5.627-1.549-5.627-3.691
			c0-1.795,0.949-2.854,3.068-3.371c-0.842-0.52-1.219-1.006-1.219-1.553c0-0.785,0.758-1.465,1.932-1.736v-0.051
			c-0.896-0.387-1.58-0.898-2.037-1.553c-0.438-0.627-0.657-1.385-0.657-2.283c0-2.607,2.046-4.205,5.325-4.205h5.029
			L366.223,214.078L366.223,214.078z"/>
		<path fill="#008C61" d="M376.115,217.064c-0.086-1.85-1.141-3.016-2.855-3.016c-1.846,0-2.961,1.086-3.283,3.016H376.115
			L376.115,217.064z M378.288,223.203c-1.469,0.979-2.805,1.445-4.865,1.445c-3.805,0-5.918-3.129-5.918-6.496
			c0-3.697,2.334-6.201,5.697-6.201c3.234,0,5.305,2.207,5.305,6.713h-8.588c0.379,2.42,1.77,3.666,4.102,3.666
			c1.465,0,2.855-0.537,4.27-1.463L378.288,223.203L378.288,223.203z"/>
		<path fill="#008C61" d="M383.471,213.801h0.064c0.918-1.166,2.275-1.85,3.637-1.85c2.307,0,4.16,1.58,4.16,4.922v7.525h-2.418
			v-7.557c0-1.791-0.932-2.961-2.391-2.961c-1.061,0-1.91,0.49-3.055,1.77v8.748h-2.416v-12.195h2.416L383.471,213.801
			L383.471,213.801z"/>
		<path fill="#008C61" d="M403.667,215.379c-1.387-0.924-2.307-1.195-3.369-1.195c-2.201,0-3.721,1.656-3.721,4.133
			c0,2.523,1.629,4.047,4.125,4.047c1.041,0,2.01-0.275,3.234-0.818v2.396c-0.814,0.379-2.361,0.711-3.641,0.711
			c-3.643,0-6.195-2.531-6.195-6.117c0-4.021,2.342-6.58,6.027-6.58c1.418,0,2.371,0.328,3.537,0.85L403.667,215.379
			L403.667,215.379z"/>
		<polygon fill="#008C61" points="408.145,230.65 405.461,230.65 409.617,221.793 404.891,212.205 407.635,212.205 410.922,219.072 
			414.076,212.205 416.788,212.205 		"/>
		<path fill="#008C61" d="M438.655,218.797h4.104l-2.131-4.791L438.655,218.797L438.655,218.797z M447.24,224.4h-1.936l-1.77-3.896
			h-5.621l-1.666,3.896h-1.941l5.684-13.301h1.336L447.24,224.4L447.24,224.4z"/>
		<path fill="#008C61" d="M450.596,222.693h2.379c2.229,0,2.832-1.105,2.832-2.092c0-1.201-0.932-2.057-2.93-2.057h-2.281V222.693
			L450.596,222.693z M450.596,216.84h1.258c1.875,0,2.793-0.697,2.793-2.111c0-0.99-0.564-1.84-2.311-1.84h-1.74V216.84
			L450.596,216.84z M448.688,211.18h3.848c2.846,0,4.068,1.709,4.068,3.371c0,1.379-0.641,2.27-2.02,2.832v0.037
			c1.973,0.365,3.18,1.668,3.18,3.451c0,1.631-1.225,3.527-4.537,3.527h-4.539V211.18L448.688,211.18z"/>
		<path fill="#008C61" d="M470.71,219.205c0,3.232-1.938,5.371-5.867,5.371c-2.795,0-5.512-1.572-5.512-5.176v-8.223h1.896v7.813
			c0,1.49,0.195,2.109,0.801,2.717c0.756,0.754,1.709,1.121,2.848,1.121c1.453,0,2.504-0.461,3.1-1.063
			c0.682-0.686,0.838-1.656,0.838-2.893v-7.697h1.896V219.205L470.71,219.205z"/>
		<path fill="#008C61" d="M480.637,222.693h3.025c4.297,0,5.291-3.275,5.291-4.906c0-2.648-1.689-4.896-5.389-4.896h-2.93
			L480.637,222.693L480.637,222.693z M478.739,211.18h5.135c4.889,0,7.039,3.49,7.039,6.605c0,3.396-2.654,6.613-7.018,6.613h-5.156
			V211.18L478.739,211.18z"/>
		<polygon fill="#008C61" points="504.461,224.4 502.557,224.4 502.557,218.641 495.156,218.641 495.156,224.4 493.253,224.4 
			493.253,211.18 495.156,211.18 495.156,216.939 502.557,216.939 502.557,211.18 504.461,211.18 		"/>
		<path fill="#008C61" d="M510.273,218.797h4.112l-2.135-4.791L510.273,218.797L510.273,218.797z M518.857,224.4h-1.937
			l-1.766-3.896h-5.617l-1.668,3.896h-1.939l5.68-13.301h1.346L518.857,224.4L518.857,224.4z"/>
		<path fill="#008C61" d="M522.213,222.693h2.379c2.238,0,2.836-1.105,2.836-2.092c0-1.201-0.926-2.057-2.924-2.057h-2.291V222.693
			L522.213,222.693z M522.213,216.84h1.258c1.881,0,2.793-0.697,2.793-2.111c0-0.99-0.563-1.84-2.307-1.84h-1.744V216.84
			L522.213,216.84z M520.319,211.18h3.838c2.846,0,4.068,1.709,4.068,3.371c0,1.379-0.641,2.27-2.02,2.832v0.037
			c1.979,0.365,3.18,1.668,3.18,3.451c0,1.631-1.217,3.527-4.539,3.527h-4.528L520.319,211.18L520.319,211.18z"/>
		<polygon fill="#008C61" points="533.145,224.4 531.242,224.4 531.242,211.18 533.145,211.18 		"/>
		<path fill="#008C61" d="M278.915,197.229c2.848,0,4.229-1.703,4.229-5.207c0-3.455-1.381-5.21-4.104-5.21
			c-2.685,0-8.191,4.458-10.163,10.417H278.915L278.915,197.229z M254.31,198.872c-1.78,0-3.472-0.454-5.007-1.353
			c-0.796,0.884-1.927,1.324-3.453,1.349l-0.229,0.004h-28.76c-2.036-0.009-4.015-0.417-4.684-3.333l-0.944-4.328
			c-0.756-3.31-1.413-4.122-3.351-4.122h-0.863l2.673,11.008l-0.255,0.063c-2.021,0.475-4.973,0.683-7.004,0.683
			c-4.4,0-6.546-2.15-6.546-6.576v-6.467h1.797v6.224c0,3.628,1.457,5.173,4.874,5.173c1.717,0,3.641-0.165,5.042-0.439
			c-1.993-8.158-2.212-8.8-2.318-9.108c-0.045-0.135-0.065-0.207-0.167-0.635l-0.383-1.504h2.361c3.253,0,4.885,1.317,5.632,4.553
			l1.157,5.052c0.424,2.117,2.051,2.117,2.927,2.117h28.771c2.323,0,3.315-1.305,3.315-4.354v-7.076h1.739v7.563
			c0,1.008-0.153,1.872-0.478,2.718c1.258,0.763,2.604,1.15,4.006,1.15h13.188v-16.745h1.732v12.063
			c3.655-6.053,8.407-7.405,9.982-7.405c3.761,0,5.997,2.569,5.997,6.88c0,2.359-0.584,4.146-1.744,5.311
			c-0.309,0.305-0.646,0.57-0.99,0.77c-0.465,0.285-1.473,0.771-2.98,0.771H254.31V198.872L254.31,198.872z"/>
		<path fill="#008C61" d="M293.647,189.19c-1.816,0-3.648,1.251-3.648,4.052c0,2.531,1.273,3.986,3.5,3.986h2.279v-7.656
			l-0.238-0.071C294.875,189.306,294.468,189.19,293.647,189.19L293.647,189.19L293.647,189.19z M290.469,205.05l-0.754-1.608
			l0.436,0.014c0.232,0.015,0.469,0.015,0.691,0.015c3.213,0,4.719-1.418,4.904-4.599h-2.375c-2.457,0-5.084-1.467-5.084-5.605
			c0-4.153,2.736-5.628,5.301-5.628c1.48,0,2.313,0.162,3.729,0.538l0.197,0.056v8.998h13.351c2.375,0,3.346-1.264,3.346-4.354
			v-7.076h1.771v7.563c0,3.595-1.619,5.445-4.813,5.508l-0.256,0.004h-13.402c-0.148,4.16-2.277,6.18-6.52,6.18h-0.522V205.05
			L290.469,205.05z"/>
		<polygon fill="#008C61" points="319.815,198.872 319.815,180.483 321.581,180.483 321.581,198.872 		"/>
		<path fill="#008C61" d="M468.077,182.781l0.52-1.036h1.09l-0.076-0.146c-0.207-0.409-0.313-0.924-0.313-1.502
			c0-1.864,1.26-2.525,2.344-2.525c0.84,0,1.572,0.37,2.129,1.063l-0.697,0.792c-0.52-0.517-1.053-0.821-1.432-0.821
			c-0.752,0-1.215,0.572-1.215,1.491c0,1.106,0.396,1.646,1.215,1.646h2.314l-0.553,1.036L468.077,182.781L468.077,182.781z"/>
		<path fill="#008C61" d="M379.129,182.781l0.521-1.036h1.088l-0.078-0.146c-0.199-0.409-0.309-0.924-0.309-1.502
			c0-1.864,1.258-2.525,2.34-2.525c0.838,0,1.572,0.37,2.129,1.063l-0.697,0.792c-0.518-0.517-1.051-0.821-1.432-0.821
			c-0.754,0-1.219,0.572-1.219,1.491c0,1.106,0.398,1.646,1.219,1.646h2.313l-0.551,1.036L379.129,182.781L379.129,182.781z"/>
		<polygon fill="#008C61" points="203.51,204.382 203.51,201.538 204.925,201.538 204.925,204.382 		"/>
		<polygon fill="#008C61" points="310.522,204.29 310.522,201.538 311.936,201.538 311.936,204.29 		"/>
		<polygon fill="#008C61" points="245.135,204.29 245.135,201.538 246.552,201.538 246.552,204.29 		"/>
		<polygon fill="#008C61" points="201.12,204.382 201.12,201.538 202.536,201.538 202.536,204.382 		"/>
		<polygon fill="#008C61" points="279.994,183.286 279.994,180.438 281.412,180.438 281.412,183.286 		"/>
		<polygon fill="#008C61" points="349.202,183.417 349.202,180.537 350.618,180.537 350.618,183.417 		"/>
		<polygon fill="#008C61" points="351.85,183.417 351.85,180.537 353.262,180.537 353.262,183.417 		"/>
		<polygon fill="#008C61" points="450.544,183.417 450.544,180.537 451.958,180.537 451.958,183.417 		"/>
		<polygon fill="#008C61" points="453.191,183.417 453.191,180.537 454.604,180.537 454.604,183.417 		"/>
		<path fill="#008C61" d="M349.155,187.521c-1.881,0-2.457,0.846-2.457,3.625c0,3.144,0.904,3.377,2.281,3.377
			c0.723,0,1.549-0.108,2.311-0.314v-6.495C350.518,187.521,349.944,187.521,349.155,187.521L349.155,187.521L349.155,187.521z
			 M413.647,198.881c-1.762,0-3.432-0.435-4.955-1.287c-0.822,0.817-1.93,1.236-3.391,1.276l-0.105,0.006l-4.662,0.005
			c-1.768,0-3.436-0.435-4.963-1.287c-0.826,0.817-1.936,1.236-3.395,1.276l-0.098,0.006l-4.668,0.005
			c-1.764,0-3.436-0.435-4.965-1.287c-0.813,0.817-1.928,1.236-3.387,1.276l-0.105,0.006l-27.666,0.005v-2.327
			c-0.766,0.201-1.602,0.314-2.344,0.314c-3.275,0-4.623-1.658-4.623-5.723c0-4.072,1.537-5.97,4.832-5.97
			c1.754,0,2.744,0.237,4.168,0.622l0.248,0.063v10.823h25.104c2.164,0,3.041-1.179,3.041-4.08v-6.73h2.285v7.216
			c0,0.961-0.133,1.791-0.414,2.596c1.152,0.662,2.389,0.999,3.672,0.999h4.531c2.164,0,3.041-1.179,3.041-4.08v-6.73h2.287v7.216
			c0,0.961-0.131,1.791-0.412,2.596c1.152,0.662,2.389,0.999,3.67,0.999h4.539c2.158,0,3.041-1.179,3.041-4.08v-6.73h2.277v7.216
			c0,0.961-0.133,1.787-0.406,2.596c1.158,0.662,2.387,0.999,3.668,0.999h9.717c2.209,0,3.072-1.145,3.072-4.08V180.56h2.314v12.532
			c0,3.675-1.623,5.616-4.822,5.771l-0.256,0.02L413.647,198.881L413.647,198.881z"/>
		<polygon fill="#008C61" points="431.889,198.881 431.889,180.56 434.199,180.56 434.199,198.881 		"/>
		<path fill="#008C61" d="M450.545,187.521c-2.131,0-3.17,1.185-3.17,3.625c0,2.97,1.438,3.377,2.986,3.377
			c0.725,0,1.559-0.108,2.316-0.314v-6.495C451.906,187.521,451.324,187.521,450.545,187.521L450.545,187.521L450.545,187.521z
			 M526.165,196.687v-1.097c0-1.968-0.512-2.798-1.709-2.798c-1.498,0-1.795,1.023-1.795,2.798v1.097H526.165L526.165,196.687z
			 M494.756,198.881c-1.758,0-3.426-0.435-4.953-1.287c-0.826,0.817-1.936,1.236-3.393,1.276l-0.105,0.006l-9.877,0.005
			c-1.76,0-3.43-0.435-4.961-1.287c-0.822,0.817-1.938,1.236-3.391,1.276l-0.1,0.006l-15.299,0.005v-2.327
			c-0.771,0.201-1.602,0.314-2.348,0.314c-3.533,0-5.324-1.93-5.324-5.723c0-3.795,2.021-5.97,5.537-5.97
			c1.754,0,2.744,0.237,4.166,0.622l0.248,0.063v10.823h12.705c2.18,0,3.068-1.179,3.068-4.08v-6.73h2.283v7.216
			c0,0.961-0.131,1.787-0.412,2.596c1.158,0.662,2.389,0.999,3.666,0.999h9.725c2.182,0,3.072-1.179,3.072-4.08v-6.73h2.281v7.216
			c0,0.961-0.135,1.791-0.41,2.596c1.154,0.662,2.391,0.999,3.668,0.999h25.826v-1.097c0-4.369,2.523-5.021,4.021-5.021
			c1.49,0,3.988,0.651,3.988,5.021v1.097h3.287v-3.472c0-3.615-2.344-6.243-5.576-6.243c-1.148,0-2.396,0.084-3.721,0.704
			l-0.371,0.166l-0.533-2.137l0.273-0.107c1.35-0.543,2.902-0.848,4.385-0.848c3.91,0,7.855,2.552,7.855,8.252v5.879h-39.286v0.002
			H494.756z"/>
		<polygon fill="#008C61" points="485.225,204.587 485.225,201.705 486.637,201.705 486.637,204.587 		"/>
		<polygon fill="#008C61" points="487.876,204.587 487.876,201.705 489.29,201.705 489.29,204.587 		"/>
		<polygon fill="#008C61" points="389.879,204.587 389.879,201.705 391.295,201.705 391.295,204.587 		"/>
		<polygon fill="#008C61" points="392.534,204.587 392.534,201.705 393.948,201.705 393.948,204.587 		"/>
		<polygon fill="#008C61" points="404.551,204.587 404.551,201.705 405.967,201.705 405.967,204.587 		"/>
		<g>
			<path fill="#008C61" d="M429.471,218.6h-7.168v-1.723h7.168V218.6z"/>
		</g>
		<g>
			<path fill="#008C61" d="M336.936,192.968h-7.172v-1.723h7.172V192.968z"/>
		</g>
	</g>
	
		<radialGradient id="SVGID_1_" cx="191.6252" cy="305.877" r="33.3309" gradientTransform="matrix(1 0 0 1 -73.415 -108.8477)" gradientUnits="userSpaceOnUse">
		<stop  offset="0" style="stop-color:#FFFFFF"/>
		<stop  offset="0.2945" style="stop-color:#F1F2F2"/>
		<stop  offset="0.43" style="stop-color:#E3E4E5"/>
		<stop  offset="0.6962" style="stop-color:#C0C2C4"/>
		<stop  offset="1" style="stop-color:#939598"/>
	</radialGradient>
	<ellipse fill="url(#SVGID_1_)" cx="119.763" cy="205.111" rx="33.3" ry="33.362"/>
	<path fill="#FFFFFF" d="M151.86,206.008c0.357,0.582,0.711,1.181,1.066,1.8l0.119-0.07c-0.374-0.654-0.75-1.283-1.132-1.902
		c0.515-1.762,0.81-3.585,0.832-5.443l-0.14-0.003c-0.023,1.805-0.299,3.577-0.79,5.292c-1.52-2.438-3.11-4.554-4.814-6.375
		c0.437-1.67,0.677-3.399,0.677-5.183c0-1.247-0.14-2.55-0.406-3.861c1.282,0.772,2.454,1.691,3.52,2.767l0.098-0.101
		c-1.101-1.117-2.319-2.063-3.652-2.857c-0.616-2.906-1.842-5.855-3.533-8.372l-0.11,0.075c1.656,2.472,2.862,5.361,3.481,8.212
		c-2.12-1.226-4.526-2.048-7.24-2.472c-0.52-2.146-1.461-4.157-2.748-5.959c2.247-0.322,4.399-0.307,6.383,0.087l0.028-0.138
		c-2.021-0.398-4.215-0.411-6.506-0.076c-1.314-1.815-2.982-3.417-4.918-4.721c0.983-0.542,1.979-0.993,2.999-1.352l-0.044-0.134
		c-1.047,0.367-2.07,0.834-3.073,1.395c-2.096-1.391-4.49-2.438-7.079-3.053c0.285-0.443,0.573-0.875,0.893-1.292l-0.109-0.084
		c-0.327,0.432-0.635,0.88-0.927,1.341c-1.667-0.385-3.414-0.592-5.212-0.592l-0.146,0.002c-1.161,0.007-2.3,0.102-3.408,0.271
		c-0.191-0.435-0.394-0.857-0.604-1.256l-0.123,0.061c0.209,0.393,0.397,0.802,0.585,1.217c-2.626,0.42-5.085,1.273-7.271,2.479
		c-0.72-0.457-1.487-0.874-2.32-1.229l-0.051,0.127c0.801,0.343,1.54,0.742,2.235,1.182c-2.247,1.26-4.205,2.887-5.768,4.791
		c-1.604-0.36-3.259-0.563-4.955-0.563v0.135c1.661,0,3.282,0.203,4.862,0.553c-1.386,1.717-2.446,3.653-3.102,5.737
		c-2.241,0.27-4.539,0.847-6.868,1.875c0.415-1.625,1.094-3.581,1.733-4.871l-0.246,0.325c-0.658,1.327-1.229,2.945-1.649,4.616
		c-0.788,0.357-1.579,0.759-2.374,1.224l0.069,0.121c0.756-0.439,1.509-0.828,2.26-1.17c-0.469,1.905-0.744,3.879-0.744,5.563
		c0,1.432,0.156,2.828,0.442,4.189c-1.686,1.5-3.246,3.27-4.677,5.369c-0.257-1.259-0.388-2.547-0.388-3.845h-0.14
		c0,1.351,0.145,2.692,0.419,4.004c-0.309,0.459-0.609,0.926-0.906,1.413l0.12,0.075c0.271-0.451,0.547-0.881,0.828-1.304
		c0.631,2.896,1.892,5.673,3.667,8.212c-0.707,1.502-1.321,3.088-1.832,4.771c-0.813-1.416-1.439-2.889-1.829-4.377l-0.137,0.035
		c0.401,1.541,1.057,3.051,1.909,4.52c-0.056,0.195-0.118,0.375-0.172,0.568l0.131,0.039c0.041-0.15,0.094-0.293,0.139-0.445
		c1.79,3.02,4.452,5.824,7.68,8.223c-0.12,1.131-0.214,2.279-0.264,3.438l0.139,0.01c0.051-1.129,0.137-2.244,0.258-3.35
		c2.479,1.828,5.287,3.416,8.283,4.67c0.022,1.629,0.09,3.314,0.214,5.08l0.141-0.01c-0.124-1.742-0.192-3.406-0.212-5.01
		c2.916,1.211,6.013,2.109,9.15,2.617c0.039,1.66,0.091,3.346,0.175,5.045l0.141-0.01c-0.083-1.689-0.138-3.357-0.177-5.014
		c1.854,0.295,3.725,0.449,5.58,0.449c1.056,0,2.102-0.051,3.142-0.137c0.023,1.674,0.045,3.35,0.062,5.027l0.137-0.004
		c-0.015-1.686-0.036-3.357-0.063-5.037c2.984-0.262,5.901-0.861,8.664-1.766c-0.057,1.566-0.158,3.184-0.307,4.861l0.136,0.01
		c0.149-1.695,0.253-3.334,0.313-4.926c2.98-0.992,5.782-2.332,8.306-3.945c0.025,1.104,0.025,2.236-0.016,3.4l0.142,0.01
		c0.039-1.201,0.042-2.367,0.01-3.506c3.173-2.059,5.885-4.564,7.927-7.387c0.033,0.416,0.047,0.828,0.033,1.232l0.139,0.004
		c0.017-0.451-0.005-0.932-0.044-1.408c1.353-1.906,2.403-3.943,3.085-6.096l-0.134-0.041c-0.658,2.086-1.669,4.068-2.968,5.926
		c-0.166-1.707-0.67-3.574-1.474-5.52C149.444,211.701,150.971,208.947,151.86,206.008z M151.764,205.855
		c-0.872,2.938-2.387,5.702-4.418,8.19c-0.967-2.314-2.351-4.738-4.082-7.135c1.699-2.257,2.965-4.765,3.695-7.444
		C148.657,201.292,150.246,203.414,151.764,205.855z M115.203,189.523c0.001,0.401,0.075,0.784,0.213,1.144
		c-1.94,0.772-4.646,1.997-7.622,3.776c-0.476-1.014-0.786-2.104-0.905-3.248C109.551,190.522,112.332,190.003,115.203,189.523z
		 M115.366,189.357c-0.01,0-0.016,0-0.021,0c0.021-0.377,0.103-0.743,0.243-1.078c0.008,0.002,0.019,0.006,0.031,0.006l0.025-0.137
		h-0.005c0.168-0.361,0.401-0.689,0.688-0.981c0,0,0.002,0,0.002,0.002l0.007-0.014c0.639-0.646,1.533-1.087,2.546-1.198
		l0.069-0.005c0,0,0-0.001-0.001-0.001c0.142-0.016,0.285-0.024,0.433-0.024c0.271,0,0.541,0.025,0.8,0.072
		c-0.002,0.007-0.002,0.017-0.005,0.026l0.135,0.024c0-0.005,0.002-0.012,0.002-0.019c0.989,0.205,1.837,0.732,2.396,1.446
		c-0.004,0.002-0.004,0.006-0.006,0.006l0.079,0.114c0.002-0.003,0.006-0.007,0.009-0.007c0.396,0.554,0.632,1.211,0.632,1.911
		c0,0.104-0.005,0.203-0.016,0.301c-0.063-0.004-0.118-0.008-0.176-0.01l-0.006,0.144c0.054,0.001,0.108,0.006,0.162,0.006
		c-0.106,0.774-0.494,1.474-1.073,2.017c-0.023-0.024-0.052-0.047-0.073-0.066l-0.094,0.103c0.022,0.019,0.045,0.039,0.063,0.057
		c-0.73,0.637-1.729,1.028-2.831,1.028c-0.173,0-0.335-0.011-0.5-0.028c0.01-0.034,0.017-0.076,0.026-0.114l-0.134-0.031
		c-0.013,0.044-0.02,0.081-0.03,0.13c-0.895-0.13-1.688-0.511-2.286-1.064c0.006-0.005,0.013-0.01,0.021-0.014l-0.083-0.111
		c-0.011,0.008-0.025,0.016-0.042,0.03c-0.33-0.328-0.587-0.71-0.765-1.128c0.012-0.005,0.021-0.011,0.031-0.015l-0.053-0.124
		c-0.01,0.005-0.021,0.01-0.03,0.012c-0.132-0.35-0.206-0.726-0.206-1.117V189.5c0.018-0.003,0.03-0.003,0.05-0.008L115.366,189.357
		z M117.135,192.695c-1.476,2.49-2.817,4.847-4.021,7.127c-1.132-0.58-2.151-1.318-3.023-2.174c1.891-1.962,3.976-3.832,6.262-5.591
		c0.62,0.576,1.442,0.977,2.366,1.107c-0.639,2.658-1.202,5.309-1.695,7.976c-1.352-0.236-2.629-0.667-3.789-1.252
		c1.207-2.28,2.543-4.637,4.021-7.123L117.135,192.695z M125.348,200.069c-1.192,0.555-2.494,0.949-3.873,1.146
		c-0.387-2.679-0.841-5.354-1.38-8.024l-0.137,0.031c0.541,2.664,0.993,5.337,1.381,8.009c-0.611,0.079-1.229,0.123-1.861,0.123
		c-0.792,0-1.565-0.068-2.314-0.194c0.484-2.658,1.058-5.314,1.692-7.975c0.172,0.021,0.35,0.03,0.531,0.03
		c1.142,0,2.18-0.411,2.939-1.075c2.091,1.79,4.184,3.723,6.173,5.854c-0.89,0.798-1.903,1.479-3.023,2.016
		c-1.231-2.408-2.6-4.801-4.088-7.234l-0.117,0.073C122.756,195.275,124.121,197.666,125.348,200.069z M116.998,201.275
		c-0.491,2.69-0.91,5.375-1.251,8.096c-2.159-0.354-4.216-0.996-6.087-1.898c0.993-2.445,2.167-4.908,3.511-7.461
		C114.344,200.603,115.632,201.037,116.998,201.275z M117.135,201.3c0.761,0.12,1.542,0.192,2.343,0.192
		c0.638,0,1.27-0.043,1.881-0.126c0.391,2.699,0.701,5.407,0.961,8.122c-0.895,0.109-1.805,0.176-2.724,0.182h-0.146
		c-1.219,0-2.403-0.102-3.563-0.277C116.226,206.678,116.645,203.983,117.135,201.3z M121.497,201.347
		c1.392-0.195,2.708-0.592,3.914-1.155c1.256,2.476,2.362,4.971,3.31,7.539c-1.962,0.877-4.068,1.463-6.265,1.746
		C122.198,206.764,121.882,204.054,121.497,201.347z M125.536,200.134c1.131-0.544,2.159-1.233,3.055-2.038
		c1.834,1.979,3.577,4.131,5.14,6.505c-1.471,1.242-3.117,2.273-4.882,3.074C127.903,205.101,126.795,202.609,125.536,200.134z
		 M128.69,198.002c0.892-0.82,1.643-1.756,2.219-2.782c2.348,1.57,4.527,3.346,6.508,5.224c-0.885,1.359-1.963,2.628-3.239,3.773
		c-0.11,0.1-0.228,0.193-0.342,0.289C132.271,202.132,130.531,199.982,128.69,198.002z M128.599,197.902
		c-1.989-2.137-4.082-4.063-6.172-5.858c0.297-0.276,0.54-0.601,0.729-0.95c2.684,1.082,5.243,2.463,7.638,4.052
		C130.22,196.162,129.479,197.088,128.599,197.902z M123.223,190.975c0.158-0.325,0.263-0.667,0.309-1.03
		c3.121,0.126,5.957,0.468,8.552,1.058c-0.119,1.437-0.542,2.79-1.22,4.023C128.469,193.434,125.907,192.054,123.223,190.975z
		 M115.467,190.797c0.182,0.427,0.446,0.821,0.783,1.159c-2.278,1.761-4.37,3.633-6.26,5.592c-0.876-0.882-1.603-1.885-2.133-2.979
		C110.827,192.79,113.534,191.566,115.467,190.797z M109.897,197.65c-1.96,2.05-3.704,4.2-5.234,6.459
		c-1.479-1.346-2.728-2.892-3.686-4.59c2.26-1.95,4.579-3.566,6.761-4.881C108.274,195.747,109.01,196.758,109.897,197.65z
		 M109.994,197.753c0.883,0.858,1.911,1.604,3.053,2.191c-1.341,2.556-2.517,5.017-3.516,7.464
		c-1.759-0.863-3.362-1.942-4.766-3.201C106.293,201.947,108.034,199.797,109.994,197.753z M109.482,207.535
		c-1.023,2.525-1.861,5.035-2.51,7.625c-2.273-0.99-4.368-2.229-6.229-3.688c1.097-2.488,2.407-4.871,3.941-7.153
		C106.097,205.587,107.712,206.668,109.482,207.535z M109.605,207.602c1.886,0.904,3.952,1.553,6.125,1.906
		c-0.331,2.611-0.586,5.24-0.772,7.908c-2.78-0.402-5.422-1.152-7.858-2.201C107.749,212.631,108.585,210.121,109.605,207.602z
		 M115.869,209.527c1.165,0.178,2.358,0.283,3.579,0.283h0.146c0.924-0.008,1.836-0.072,2.736-0.182
		c0.25,2.646,0.441,5.301,0.599,7.959c-1.073,0.105-2.165,0.168-3.276,0.168c-1.552,0-3.073-0.113-4.56-0.32
		C115.28,214.771,115.543,212.139,115.869,209.527z M122.471,209.613c2.206-0.283,4.323-0.875,6.296-1.748
		c0.916,2.516,1.671,5.107,2.245,7.832c-2.481,0.945-5.149,1.588-7.947,1.875C122.917,214.914,122.72,212.256,122.471,209.613z
		 M128.895,207.809c1.779-0.805,3.429-1.841,4.912-3.094c1.473,2.26,2.79,4.723,3.862,7.43c-1.961,1.414-4.158,2.592-6.527,3.504
		C130.565,212.924,129.813,210.324,128.895,207.809z M133.914,204.627c0.118-0.104,0.235-0.201,0.355-0.309
		c1.279-1.146,2.363-2.415,3.248-3.773c2.112,2.022,3.988,4.178,5.575,6.361c-1.471,1.922-3.26,3.66-5.308,5.148
		C136.707,209.352,135.395,206.889,133.914,204.627z M137.593,200.426c1.269-1.982,2.116-4.155,2.48-6.43
		c2.479,1.385,4.709,3.154,6.772,5.349c-0.716,2.685-1.973,5.196-3.669,7.451C141.585,204.611,139.709,202.459,137.593,200.426z
		 M137.489,200.333c-1.98-1.89-4.16-3.657-6.51-5.229c0.687-1.249,1.114-2.62,1.24-4.069c2.833,0.655,5.392,1.602,7.726,2.89
		C139.588,196.188,138.751,198.351,137.489,200.333z M132.229,190.895c0.021-0.245,0.032-0.488,0.032-0.733
		c0-0.924-0.126-1.821-0.364-2.68c2.845-0.25,5.452-0.203,7.82,0.155c0.276,1.166,0.423,2.377,0.43,3.611
		c0.005,0.854-0.061,1.693-0.182,2.524C137.629,192.491,135.069,191.543,132.229,190.895z M132.124,190.161
		c0,0.234-0.013,0.467-0.027,0.699c-2.598-0.585-5.43-0.926-8.546-1.052c0.01-0.103,0.019-0.204,0.019-0.309
		c0-0.195-0.022-0.39-0.058-0.579c2.949-0.721,5.693-1.19,8.247-1.425C131.995,188.353,132.124,189.243,132.124,190.161z
		 M123.486,188.786c-0.101-0.463-0.299-0.89-0.573-1.274c2.271-1.567,4.581-2.848,6.863-3.834c0.889,1.1,1.555,2.342,1.947,3.685
		C129.171,187.596,126.432,188.066,123.486,188.786z M122.828,187.398c-0.243-0.313-0.542-0.593-0.884-0.829
		c1.516-2.187,3.059-4.07,4.646-5.657c1.193,0.723,2.241,1.621,3.094,2.656C127.402,184.554,125.096,185.836,122.828,187.398z
		 M121.83,186.496c-0.439-0.281-0.938-0.491-1.481-0.605c0.379-1.969,0.952-4.311,1.799-6.671c1.567,0.3,3.028,0.857,4.323,1.619
		C124.883,182.425,123.341,184.312,121.83,186.496z M120.213,185.864c-0.269-0.05-0.547-0.074-0.827-0.074
		c-0.153,0-0.298,0.011-0.447,0.021c-0.222-1.999-0.563-4.376-1.106-6.743c0.539-0.065,1.091-0.101,1.646-0.101
		c0.871,0,1.716,0.08,2.535,0.227C121.165,181.55,120.594,183.893,120.213,185.864z M118.802,185.827
		c-0.508,0.063-0.99,0.204-1.42,0.415l-0.499-0.808c-1.03-1.683-2.122-3.456-3.421-5.121c1.291-0.617,2.717-1.044,4.229-1.233
		C118.235,181.455,118.582,183.827,118.802,185.827z M116.767,185.505l0.491,0.801c-0.354,0.186-0.672,0.415-0.948,0.683
		c-2.14-1.385-4.351-2.729-6.66-3.862c1.019-1.111,2.269-2.046,3.688-2.75C114.64,182.045,115.731,183.819,116.767,185.505z
		 M116.211,187.087c-0.298,0.308-0.537,0.649-0.71,1.032c-0.539-0.114-1.094-0.229-1.658-0.348
		c-1.984-0.428-4.111-0.881-6.347-1.181c0.467-1.228,1.168-2.357,2.059-3.356C111.857,184.365,114.071,185.706,116.211,187.087z
		 M113.813,187.903c0.562,0.122,1.103,0.233,1.637,0.349c-0.142,0.354-0.229,0.733-0.24,1.13c-2.877,0.48-5.663,1-8.334,1.679
		c-0.023-0.298-0.044-0.595-0.044-0.899c0-1.197,0.218-2.354,0.613-3.437C109.688,187.025,111.821,187.479,113.813,187.903z
		 M106.694,190.161c0,0.313,0.019,0.624,0.046,0.933c-2.713,0.692-5.304,1.547-7.738,2.691c-0.113-0.746-0.179-1.513-0.186-2.282
		c-0.011-1.711,0.25-3.365,0.739-4.936c2.681-0.313,5.278-0.184,7.747,0.14C106.908,187.795,106.694,188.958,106.694,190.161z
		 M106.751,191.231c0.124,1.155,0.44,2.253,0.926,3.283c-2.185,1.314-4.502,2.932-6.767,4.887c-0.938-1.694-1.581-3.533-1.89-5.472
		C101.457,192.785,104.042,191.926,106.751,191.231z M100.802,199.491c-1.965,1.711-3.891,3.682-5.627,5.938
		c-1.402-2.172-2.409-4.55-2.946-7.067c2.05-1.813,4.282-3.227,6.665-4.362C99.206,195.942,99.859,197.788,100.802,199.491z
		 M100.876,199.614c0.965,1.706,2.223,3.261,3.711,4.614c-1.541,2.276-2.854,4.669-3.953,7.153c-2.13-1.688-3.954-3.654-5.378-5.833
		C96.989,203.295,98.907,201.323,100.876,199.614z M100.575,211.512c-1.063,2.443-1.921,4.98-2.562,7.621
		c-2.716-1.994-5.047-4.33-6.853-6.902c1.143-2.418,2.501-4.604,4.002-6.568C96.604,207.848,98.43,209.82,100.575,211.512z
		 M100.689,211.604c1.866,1.459,3.969,2.699,6.248,3.689c-0.644,2.576-1.096,5.236-1.356,8.053
		c-2.696-1.109-5.201-2.498-7.443-4.129C98.774,216.582,99.628,214.041,100.689,211.604z M107.066,215.35
		c2.443,1.051,5.091,1.803,7.879,2.205c-0.19,2.709-0.312,5.451-0.363,8.244c-3.103-0.445-6.083-1.264-8.872-2.396
		C105.972,220.584,106.427,217.93,107.066,215.35z M115.084,217.572c1.488,0.207,3.016,0.322,4.569,0.322
		c1.114,0,2.208-0.063,3.286-0.17c0.158,2.766,0.269,5.535,0.355,8.314c-1.104,0.096-2.222,0.148-3.351,0.148
		c-1.77,0-3.514-0.131-5.225-0.373C114.772,223.031,114.887,220.285,115.084,217.572z M123.075,217.709
		c2.802-0.285,5.48-0.934,7.966-1.869c0.55,2.645,0.932,5.416,1.123,8.367c-2.761,0.918-5.692,1.543-8.731,1.822
		C123.349,223.248,123.233,220.475,123.075,217.709z M131.171,215.785c2.377-0.912,4.577-2.098,6.549-3.512
		c0.987,2.521,1.771,5.236,2.287,8.211c-2.346,1.486-4.938,2.736-7.71,3.676C132.102,221.209,131.723,218.436,131.171,215.785z
		 M137.837,212.197c2.057-1.5,3.861-3.236,5.341-5.176c1.733,2.398,3.109,4.822,4.072,7.146c-1.949,2.359-4.355,4.475-7.116,6.236
		C139.612,217.436,138.831,214.705,137.837,212.197z M147.111,190.167c0.282,1.346,0.433,2.681,0.433,3.955
		c0,1.738-0.23,3.431-0.652,5.061c-2.071-2.188-4.307-3.96-6.797-5.339c0.129-0.854,0.197-1.721,0.188-2.598
		c-0.003-1.229-0.149-2.426-0.42-3.585C142.587,188.089,145.002,188.921,147.111,190.167z M139.682,187.487
		c-2.371-0.348-4.978-0.395-7.821-0.142c-0.392-1.354-1.063-2.611-1.948-3.721c2.388-1.02,4.751-1.706,7.021-2.045
		C138.214,183.364,139.162,185.358,139.682,187.487z M136.838,181.45c-2.269,0.351-4.628,1.042-7.021,2.06
		c-0.855-1.046-1.917-1.961-3.126-2.696c1.694-1.677,3.44-3.016,5.248-4.032C133.865,178.075,135.521,179.653,136.838,181.45z
		 M131.813,176.691c-1.807,1.029-3.548,2.369-5.241,4.047c-1.308-0.774-2.786-1.341-4.374-1.649
		c0.676-1.859,1.526-3.716,2.594-5.403C127.36,174.291,129.738,175.322,131.813,176.691z M119.37,173.075h0.146
		c1.771,0,3.489,0.201,5.132,0.575c-1.063,1.692-1.914,3.554-2.59,5.41c-0.835-0.151-1.696-0.232-2.582-0.232
		c-0.57,0-1.127,0.036-1.678,0.104c-0.446-1.937-1.027-3.864-1.781-5.589C117.109,173.176,118.228,173.083,119.37,173.075z
		 M115.879,173.366c0.749,1.721,1.334,3.647,1.782,5.573c-1.531,0.2-2.979,0.632-4.284,1.264c-1.308-1.652-2.823-3.187-4.697-4.409
		C110.844,174.612,113.281,173.776,115.879,173.366z M108.545,175.874c1.881,1.212,3.4,2.747,4.71,4.395
		c-1.442,0.715-2.708,1.666-3.737,2.799c-2.158-1.053-4.394-1.916-6.719-2.451C104.355,178.731,106.302,177.116,108.545,175.874z
		 M102.704,180.733c2.323,0.526,4.561,1.392,6.721,2.439c-0.896,1.009-1.603,2.157-2.071,3.397
		c-2.466-0.324-5.065-0.456-7.752-0.148C100.262,184.355,101.319,182.435,102.704,180.733z M91.768,194.124
		c0-1.703,0.289-3.709,0.771-5.641c2.33-1.037,4.625-1.622,6.863-1.896c-0.479,1.566-0.735,3.209-0.728,4.914
		c0.011,0.794,0.076,1.579,0.195,2.353c-2.385,1.13-4.618,2.541-6.676,4.351C91.922,196.879,91.768,195.516,91.768,194.124z
		 M87.44,203.875c1.43-2.117,2.988-3.899,4.669-5.402c0.554,2.516,1.565,4.898,2.976,7.067c-1.507,1.966-2.867,4.148-4.018,6.556
		C89.302,209.545,88.052,206.773,87.44,203.875z M89.266,217.174c0.505-1.693,1.125-3.299,1.829-4.805
		c1.82,2.568,4.153,4.91,6.883,6.904c-0.477,1.99-0.833,4.041-1.065,6.139C93.686,223.008,91.034,220.195,89.266,217.174z
		 M97.043,225.516c0.231-2.105,0.583-4.158,1.06-6.158c2.248,1.633,4.763,3.027,7.46,4.129c-0.191,2.133-0.274,4.357-0.254,6.705
		C102.316,228.934,99.513,227.344,97.043,225.516z M105.446,230.252c-0.021-2.355,0.063-4.572,0.253-6.707
		c2.79,1.131,5.777,1.949,8.882,2.395c-0.04,2.273-0.035,4.59,0.019,6.936C111.459,232.367,108.366,231.467,105.446,230.252z
		 M120.318,233.354c-1.855,0-3.729-0.156-5.585-0.451c-0.05-2.35-0.061-4.664-0.016-6.943c1.711,0.24,3.458,0.369,5.228,0.369
		c1.128,0,2.25-0.049,3.354-0.145c0.067,2.332,0.122,4.68,0.157,7.027C122.418,233.301,121.374,233.354,120.318,233.354z
		 M123.594,233.205c-0.036-2.354-0.088-4.703-0.158-7.037c3.042-0.271,5.977-0.896,8.732-1.824c0.144,2.254,0.179,4.6,0.098,7.074
		C129.499,232.33,126.582,232.941,123.594,233.205z M132.404,231.375c0.083-2.479,0.046-4.826-0.098-7.07
		c2.777-0.943,5.376-2.184,7.73-3.672c0.361,2.133,0.592,4.383,0.662,6.777C138.189,229.037,135.388,230.379,132.404,231.375z
		 M148.752,219.883c-2.026,2.84-4.737,5.363-7.915,7.441c-0.073-2.391-0.312-4.645-0.675-6.775c2.77-1.77,5.188-3.875,7.146-6.24
		C148.107,216.279,148.605,218.164,148.752,219.883z"/>
	<path fill="#0065A4" d="M117.177,238.34c-17.114-1.467-30.672-16.295-30.672-33.771c0-7.191,2.869-13.379,6.249-19.149
		c7.02-11.977,45.269-32.902,84.511-48.539c-9.141,1.818-26.894,7.312-36.529,10.325c-16.311,5.094-31.521,11.293-44.482,18.037
		c-1.845,1.028-3.532,1.754-7.424,4.063c-19.521,11.584-31.271,27.74-28.069,41.051c2.449,10.178,13.332,18.814,28.528,23.637
		c7.684,2.26,16.425,4.1,25.639,4.498c0.776,0.016,1.305-0.057,2.089-0.053L117.177,238.34z"/>
	<path fill="#008C61" d="M122.305,171.792c17.113,1.469,30.752,16.179,30.752,33.662c0,7.196-2.624,13.381-6.002,19.147
		c-7.017,11.979-45.515,32.902-84.757,48.541c9.139-1.814,26.894-7.309,36.528-10.32c16.312-5.098,31.521-11.293,44.48-18.041
		c1.847-1.029,3.533-1.752,7.425-4.059c19.518-11.59,31.272-27.742,28.071-41.056c-2.451-10.171-13.33-18.81-28.529-23.636
		c-7.682-2.255-16.262-4.075-25.479-4.383c-0.778-0.022-1.62,0.012-2.477,0.081L122.305,171.792z"/>
</g>
</svg>
