<?xml version="1.0" encoding="utf-8"?>
<!-- Generator: Adobe Illustrator 14.0.0, SVG Export Plug-In . SVG Version: 6.00 Build 43363)  -->
<!DOCTYPE svg PUBLIC "-//W3C//DTD SVG 1.1//EN" "http://www.w3.org/Graphics/SVG/1.1/DTD/svg11.dtd">
<svg version="1.1" id="Layer_1" xmlns="http://www.w3.org/2000/svg" xmlns:xlink="http://www.w3.org/1999/xlink" x="0px" y="0px"
	 width="578px" height="259px" viewBox="9.138 75.012 578 259" enable-background="new 9.138 75.012 578 259" xml:space="preserve">
<g>
	<g>
		<polygon fill="#DFDBBB" points="482.901,216.963 481.799,224.566 163.988,309.991 13.105,94.913 14.206,87.312 		"/>
		<polygon fill="#FFFFFF" stroke="#DFDBBB" stroke-width="1.003" points="14.206,87.312 399.91,81.813 482.901,216.963 
			165.089,302.389 		"/>
		<g>
			<g>
				<polygon fill="#DFDBBB" points="49.741,107.156 37.278,107.519 27.521,93.45 40.128,93.27 				"/>
				<polygon fill="#DFDBBB" points="64.696,106.721 52.233,107.084 42.65,93.233 55.258,93.052 				"/>
				<polygon fill="#DFDBBB" points="79.65,106.286 67.188,106.649 57.779,93.017 70.387,92.836 				"/>
				<polygon fill="#DFDBBB" points="94.605,105.851 82.143,106.214 72.909,92.8 85.516,92.619 				"/>
				<polygon fill="#DFDBBB" points="109.561,105.416 97.098,105.779 88.038,92.583 100.646,92.402 				"/>
				<polygon fill="#DFDBBB" points="124.515,104.981 112.052,105.343 103.167,92.366 115.774,92.186 				"/>
				<polygon fill="#DFDBBB" points="141.963,104.473 129.5,104.836 120.817,92.113 133.425,91.933 				"/>
				<polygon fill="#DFDBBB" points="156.917,104.038 144.455,104.401 135.947,91.896 148.555,91.716 				"/>
				<polygon fill="#DFDBBB" points="171.873,103.603 159.41,103.966 151.076,91.679 163.683,91.499 				"/>
				<polygon fill="#DFDBBB" points="186.828,103.168 174.365,103.531 166.205,91.463 178.813,91.282 				"/>
				<polygon fill="#DFDBBB" points="201.783,102.733 189.32,103.096 181.334,91.246 193.942,91.065 				"/>
				<polygon fill="#DFDBBB" points="216.737,102.298 204.275,102.661 196.463,91.029 209.071,90.848 				"/>
				<polygon fill="#DFDBBB" points="234.185,101.791 221.722,102.153 214.114,90.776 226.722,90.595 				"/>
				<polygon fill="#DFDBBB" points="249.141,101.356 236.678,101.718 229.244,90.559 241.851,90.379 				"/>
				<polygon fill="#DFDBBB" points="264.095,100.921 251.632,101.283 244.373,90.342 256.98,90.162 				"/>
				<polygon fill="#DFDBBB" points="279.05,100.486 266.587,100.848 259.502,90.125 272.109,89.945 				"/>
				<polygon fill="#DFDBBB" points="294.005,100.05 281.542,100.413 274.631,89.909 287.24,89.728 				"/>
				<polygon fill="#DFDBBB" points="308.96,99.615 296.497,99.979 289.76,89.692 302.368,89.511 				"/>
				<polygon fill="#DFDBBB" points="326.407,99.108 313.945,99.471 307.411,89.438 320.019,89.258 				"/>
				<polygon fill="#DFDBBB" points="341.363,98.673 328.9,99.036 322.541,89.222 335.148,89.042 				"/>
				<polygon fill="#DFDBBB" points="356.317,98.238 343.855,98.601 337.669,89.005 350.277,88.824 				"/>
				<polygon fill="#DFDBBB" points="371.272,97.802 358.809,98.165 352.798,88.789 365.407,88.608 				"/>
				<polygon fill="#DFDBBB" points="386.228,97.368 373.765,97.73 367.927,88.572 380.536,88.391 				"/>
				<polygon fill="#DFDBBB" points="401.182,96.933 388.719,97.295 383.056,88.355 395.665,88.174 				"/>
			</g>
			<g>
				<polygon fill="#DFDBBB" points="61.275,123.82 48.986,124.401 39.229,110.333 51.663,109.933 				"/>
				<polygon fill="#DFDBBB" points="76.021,123.124 63.732,123.705 54.149,109.854 66.583,109.455 				"/>
				<polygon fill="#DFDBBB" points="90.767,122.427 78.478,123.008 69.069,109.375 81.503,108.976 				"/>
				<polygon fill="#DFDBBB" points="105.512,121.729 93.224,122.311 83.99,108.897 96.423,108.498 				"/>
				<polygon fill="#DFDBBB" points="120.258,121.033 107.97,121.614 98.91,108.417 111.343,108.019 				"/>
				<polygon fill="#DFDBBB" points="135.004,120.336 122.716,120.917 113.83,107.939 126.263,107.541 				"/>
				<polygon fill="#DFDBBB" points="152.208,119.523 139.92,120.104 131.237,107.38 143.67,106.982 				"/>
				<polygon fill="#DFDBBB" points="166.954,118.826 154.666,119.406 146.157,106.902 158.59,106.503 				"/>
				<polygon fill="#DFDBBB" points="181.7,118.129 169.412,118.71 161.077,106.423 173.511,106.025 				"/>
				<polygon fill="#DFDBBB" points="196.446,117.433 184.157,118.013 175.998,105.945 188.431,105.546 				"/>
				<polygon fill="#DFDBBB" points="211.191,116.735 198.903,117.315 190.917,105.466 203.351,105.067 				"/>
				<polygon fill="#DFDBBB" points="225.938,116.038 213.649,116.619 205.837,104.987 218.271,104.588 				"/>
				<polygon fill="#DFDBBB" points="243.141,115.226 230.853,115.806 223.245,104.429 235.678,104.03 				"/>
				<polygon fill="#DFDBBB" points="257.887,114.529 245.598,115.109 238.165,103.951 250.598,103.551 				"/>
				<polygon fill="#DFDBBB" points="272.633,113.832 260.344,114.413 253.084,103.471 265.518,103.073 				"/>
				<polygon fill="#DFDBBB" points="287.378,113.135 275.09,113.716 268.004,102.993 280.438,102.594 				"/>
				<polygon fill="#DFDBBB" points="302.125,112.438 289.836,113.019 282.924,102.514 295.358,102.116 				"/>
				<polygon fill="#DFDBBB" points="316.871,111.741 304.582,112.322 297.845,102.035 310.278,101.636 				"/>
				<polygon fill="#DFDBBB" points="334.075,110.928 321.786,111.509 315.251,101.477 327.685,101.078 				"/>
				<polygon fill="#DFDBBB" points="348.82,110.231 336.532,110.812 330.172,100.998 342.605,100.6 				"/>
				<polygon fill="#DFDBBB" points="363.566,109.534 351.277,110.115 345.092,100.52 357.526,100.121 				"/>
				<polygon fill="#DFDBBB" points="378.312,108.837 366.023,109.417 360.012,100.041 372.445,99.643 				"/>
				<polygon fill="#DFDBBB" points="393.057,108.141 380.769,108.721 374.932,99.562 387.366,99.163 				"/>
				<polygon fill="#DFDBBB" points="407.803,107.443 395.515,108.024 389.852,99.083 402.285,98.685 				"/>
			</g>
			<g>
				<polygon fill="#DFDBBB" points="72.809,140.484 60.695,141.283 50.938,127.215 63.197,126.598 				"/>
				<polygon fill="#DFDBBB" points="87.346,139.526 75.232,140.325 65.649,126.475 77.909,125.857 				"/>
				<polygon fill="#DFDBBB" points="101.883,138.567 89.769,139.366 80.36,125.734 92.619,125.117 				"/>
				<polygon fill="#DFDBBB" points="116.419,137.608 104.306,138.407 95.071,124.993 107.33,124.376 				"/>
				<polygon fill="#DFDBBB" points="130.957,136.65 118.842,137.449 109.782,124.253 122.042,123.636 				"/>
				<polygon fill="#DFDBBB" points="145.493,135.691 133.379,136.49 124.494,123.513 136.752,122.895 				"/>
				<polygon fill="#DFDBBB" points="162.453,134.572 150.339,135.371 141.656,122.648 153.916,122.032 				"/>
				<polygon fill="#DFDBBB" points="176.99,133.614 164.875,134.413 156.367,121.908 168.626,121.291 				"/>
				<polygon fill="#DFDBBB" points="191.526,132.655 179.413,133.454 171.078,121.167 183.337,120.55 				"/>
				<polygon fill="#DFDBBB" points="206.063,131.696 193.949,132.495 185.79,120.427 198.048,119.81 				"/>
				<polygon fill="#DFDBBB" points="220.6,130.737 208.486,131.536 200.5,119.687 212.759,119.069 				"/>
				<polygon fill="#DFDBBB" points="235.137,129.778 223.023,130.577 215.211,118.946 227.47,118.329 				"/>
				<polygon fill="#DFDBBB" points="252.097,128.66 239.982,129.459 232.375,118.082 244.634,117.464 				"/>
				<polygon fill="#DFDBBB" points="266.633,127.701 254.52,128.5 247.085,117.341 259.345,116.724 				"/>
				<polygon fill="#DFDBBB" points="281.17,126.743 269.056,127.541 261.797,116.601 274.055,115.984 				"/>
				<polygon fill="#DFDBBB" points="295.707,125.784 283.593,126.583 276.507,115.86 288.767,115.243 				"/>
				<polygon fill="#DFDBBB" points="310.244,124.825 298.13,125.624 291.218,115.12 303.477,114.502 				"/>
				<polygon fill="#DFDBBB" points="324.782,123.867 312.667,124.666 305.93,114.379 318.189,113.762 				"/>
				<polygon fill="#DFDBBB" points="341.74,122.748 329.626,123.547 323.092,113.515 335.351,112.898 				"/>
				<polygon fill="#DFDBBB" points="356.277,121.789 344.163,122.587 337.803,112.774 350.063,112.158 				"/>
				<polygon fill="#DFDBBB" points="370.815,120.831 358.7,121.629 352.515,112.034 364.774,111.417 				"/>
				<polygon fill="#DFDBBB" points="385.35,119.872 373.237,120.671 367.225,111.293 379.485,110.676 				"/>
				<polygon fill="#DFDBBB" points="399.887,118.913 387.773,119.712 381.936,110.553 394.197,109.936 				"/>
				<polygon fill="#DFDBBB" points="414.424,117.954 402.31,118.753 396.649,109.812 408.907,109.196 				"/>
			</g>
			<g>
				<polygon fill="#DFDBBB" points="84.344,157.149 72.403,158.166 62.647,144.098 74.731,143.262 				"/>
				<polygon fill="#DFDBBB" points="98.671,155.928 86.731,156.945 77.148,143.095 89.234,142.259 				"/>
				<polygon fill="#DFDBBB" points="113,154.708 101.059,155.725 91.65,142.092 103.736,141.257 				"/>
				<polygon fill="#DFDBBB" points="127.327,153.487 115.387,154.504 106.152,141.09 118.238,140.255 				"/>
				<polygon fill="#DFDBBB" points="141.655,152.266 129.714,153.284 120.654,140.088 132.739,139.252 				"/>
				<polygon fill="#DFDBBB" points="155.982,151.046 144.042,152.063 135.157,139.085 147.241,138.25 				"/>
				<polygon fill="#DFDBBB" points="172.698,149.622 160.758,150.639 152.076,137.916 164.161,137.081 				"/>
				<polygon fill="#DFDBBB" points="187.025,148.401 175.086,149.418 166.577,136.914 178.663,136.078 				"/>
				<polygon fill="#DFDBBB" points="201.354,147.181 189.414,148.198 181.079,135.911 193.165,135.076 				"/>
				<polygon fill="#DFDBBB" points="215.681,145.959 203.741,146.978 195.581,134.909 207.667,134.073 				"/>
				<polygon fill="#DFDBBB" points="230.009,144.739 218.069,145.757 210.083,133.907 222.168,133.071 				"/>
				<polygon fill="#DFDBBB" points="244.337,143.519 232.397,144.536 224.585,132.904 236.67,132.068 				"/>
				<polygon fill="#DFDBBB" points="261.053,142.095 249.113,143.112 241.504,131.734 253.589,130.899 				"/>
				<polygon fill="#DFDBBB" points="275.38,140.874 263.44,141.892 256.006,130.732 268.091,129.897 				"/>
				<polygon fill="#DFDBBB" points="289.708,139.653 277.768,140.67 270.508,129.73 282.593,128.895 				"/>
				<polygon fill="#DFDBBB" points="304.036,138.433 292.096,139.45 285.01,128.727 297.095,127.892 				"/>
				<polygon fill="#DFDBBB" points="318.363,137.212 306.423,138.23 299.511,127.725 311.597,126.89 				"/>
				<polygon fill="#DFDBBB" points="332.691,135.992 320.751,137.009 314.014,126.722 326.099,125.888 				"/>
				<polygon fill="#DFDBBB" points="349.408,134.568 337.467,135.585 330.934,125.553 343.018,124.717 				"/>
				<polygon fill="#DFDBBB" points="363.735,133.347 351.794,134.364 345.435,124.551 357.52,123.715 				"/>
				<polygon fill="#DFDBBB" points="378.063,132.126 366.123,133.144 359.937,123.548 372.022,122.713 				"/>
				<polygon fill="#DFDBBB" points="392.39,130.906 380.45,131.923 374.439,122.545 386.524,121.71 				"/>
				<polygon fill="#DFDBBB" points="406.717,129.686 394.778,130.703 388.941,121.543 401.027,120.708 				"/>
				<polygon fill="#DFDBBB" points="421.045,128.464 409.106,129.482 403.444,120.542 415.529,119.706 				"/>
			</g>
			<g>
				<polygon fill="#DFDBBB" points="95.878,173.813 84.113,175.049 74.355,160.979 86.266,159.926 				"/>
				<polygon fill="#DFDBBB" points="109.997,172.331 98.231,173.565 88.648,159.716 100.559,158.663 				"/>
				<polygon fill="#DFDBBB" points="124.115,170.849 112.35,172.083 102.941,158.451 114.852,157.397 				"/>
				<polygon fill="#DFDBBB" points="138.234,169.366 126.468,170.601 117.234,157.187 129.145,156.133 				"/>
				<polygon fill="#DFDBBB" points="152.353,167.883 140.587,169.118 131.526,155.923 143.438,154.869 				"/>
				<polygon fill="#DFDBBB" points="166.471,166.401 154.706,167.637 145.82,154.659 157.73,153.605 				"/>
				<polygon fill="#DFDBBB" points="182.943,164.671 171.178,165.907 162.495,153.184 174.406,152.13 				"/>
				<polygon fill="#DFDBBB" points="197.062,163.188 185.296,164.424 176.788,151.919 188.699,150.866 				"/>
				<polygon fill="#DFDBBB" points="211.18,161.706 199.415,162.941 191.081,150.655 202.991,149.601 				"/>
				<polygon fill="#DFDBBB" points="225.299,160.224 213.534,161.459 205.374,149.391 217.285,148.337 				"/>
				<polygon fill="#DFDBBB" points="239.418,158.741 227.652,159.977 219.667,148.126 231.577,147.073 				"/>
				<polygon fill="#DFDBBB" points="253.537,157.259 241.771,158.495 233.959,146.862 245.87,145.809 				"/>
				<polygon fill="#DFDBBB" points="270.008,155.529 258.243,156.765 250.634,145.387 262.545,144.334 				"/>
				<polygon fill="#DFDBBB" points="284.127,154.047 272.361,155.282 264.927,144.123 276.838,143.07 				"/>
				<polygon fill="#DFDBBB" points="298.246,152.564 286.48,153.8 279.22,142.859 291.131,141.805 				"/>
				<polygon fill="#DFDBBB" points="312.365,151.082 300.599,152.317 293.513,141.595 305.424,140.541 				"/>
				<polygon fill="#DFDBBB" points="326.482,149.6 314.717,150.835 307.806,140.331 319.716,139.277 				"/>
				<polygon fill="#DFDBBB" points="340.602,148.117 328.835,149.353 322.098,139.066 334.009,138.013 				"/>
				<polygon fill="#DFDBBB" points="357.073,146.387 345.308,147.623 338.774,137.591 350.685,136.538 				"/>
				<polygon fill="#DFDBBB" points="371.192,144.905 359.426,146.141 353.067,136.327 364.978,135.273 				"/>
				<polygon fill="#DFDBBB" points="385.31,143.423 373.545,144.658 367.36,135.063 379.271,134.009 				"/>
				<polygon fill="#DFDBBB" points="399.43,141.94 387.664,143.175 381.653,133.799 393.563,132.745 				"/>
				<polygon fill="#DFDBBB" points="413.548,140.458 401.782,141.693 395.946,132.534 407.857,131.481 				"/>
				<polygon fill="#DFDBBB" points="427.667,138.975 415.902,140.21 410.239,131.27 422.15,130.216 				"/>
			</g>
			<g>
				<polygon fill="#DFDBBB" points="107.413,190.478 95.821,191.931 86.064,177.862 97.801,176.591 				"/>
				<polygon fill="#DFDBBB" points="121.322,188.732 109.73,190.187 100.148,176.336 111.884,175.064 				"/>
				<polygon fill="#DFDBBB" points="135.232,186.988 123.641,188.442 114.231,174.81 125.968,173.539 				"/>
				<polygon fill="#DFDBBB" points="149.142,185.244 137.55,186.698 128.315,173.284 140.052,172.012 				"/>
				<polygon fill="#DFDBBB" points="163.05,183.5 151.459,184.954 142.399,171.758 154.136,170.486 				"/>
				<polygon fill="#DFDBBB" points="176.96,181.756 165.369,183.209 156.483,170.232 168.219,168.96 				"/>
				<polygon fill="#DFDBBB" points="193.188,179.721 181.597,181.174 172.914,168.451 184.65,167.179 				"/>
				<polygon fill="#DFDBBB" points="207.098,177.977 195.506,179.43 186.998,166.925 198.734,165.654 				"/>
				<polygon fill="#DFDBBB" points="221.008,176.232 209.416,177.686 201.082,165.399 212.818,164.127 				"/>
				<polygon fill="#DFDBBB" points="234.917,174.488 223.326,175.941 215.166,163.873 226.902,162.601 				"/>
				<polygon fill="#DFDBBB" points="248.827,172.744 237.235,174.197 229.25,162.347 240.986,161.075 				"/>
				<polygon fill="#DFDBBB" points="262.736,170.999 251.145,172.453 243.333,160.821 255.07,159.549 				"/>
				<polygon fill="#DFDBBB" points="278.964,168.964 267.373,170.418 259.764,159.04 271.501,157.769 				"/>
				<polygon fill="#DFDBBB" points="292.874,167.22 281.282,168.673 273.849,157.515 285.585,156.242 				"/>
				<polygon fill="#DFDBBB" points="306.783,165.476 295.192,166.929 287.932,155.988 299.667,154.716 				"/>
				<polygon fill="#DFDBBB" points="320.693,163.731 309.101,165.185 302.015,154.462 313.752,153.19 				"/>
				<polygon fill="#DFDBBB" points="334.603,161.986 323.011,163.44 316.099,152.936 327.835,151.664 				"/>
				<polygon fill="#DFDBBB" points="348.512,160.243 336.92,161.696 330.183,151.41 341.919,150.138 				"/>
				<polygon fill="#DFDBBB" points="364.741,158.208 353.148,159.661 346.615,149.629 358.351,148.357 				"/>
				<polygon fill="#DFDBBB" points="378.65,156.463 367.058,157.917 360.699,148.104 372.435,146.832 				"/>
				<polygon fill="#DFDBBB" points="392.559,154.719 380.968,156.172 374.783,146.577 386.519,145.305 				"/>
				<polygon fill="#DFDBBB" points="406.468,152.974 394.877,154.429 388.866,145.051 400.603,143.779 				"/>
				<polygon fill="#DFDBBB" points="420.378,151.23 408.787,152.684 402.95,143.525 414.688,142.253 				"/>
				<polygon fill="#DFDBBB" points="434.288,149.486 422.697,150.939 417.033,141.999 428.77,140.727 				"/>
			</g>
			<g>
				<polygon fill="#DFDBBB" points="120.87,209.918 109.481,211.627 99.724,197.559 111.258,196.032 				"/>
				<polygon fill="#DFDBBB" points="134.535,207.87 123.147,209.579 113.564,195.727 125.098,194.201 				"/>
				<polygon fill="#DFDBBB" points="148.201,205.82 136.813,207.528 127.404,193.896 138.937,192.369 				"/>
				<polygon fill="#DFDBBB" points="161.867,203.77 150.479,205.479 141.244,192.063 152.777,190.538 				"/>
				<polygon fill="#DFDBBB" points="175.532,201.72 164.144,203.428 155.083,190.232 166.617,188.706 				"/>
				<polygon fill="#DFDBBB" points="189.198,199.67 177.81,201.378 168.923,188.4 180.457,186.875 				"/>
				<polygon fill="#DFDBBB" points="205.141,197.279 193.753,198.987 185.07,186.264 196.604,184.737 				"/>
				<polygon fill="#DFDBBB" points="218.807,195.229 207.419,196.937 198.91,184.432 210.443,182.906 				"/>
				<polygon fill="#DFDBBB" points="232.473,193.179 221.084,194.887 212.75,182.6 224.283,181.074 				"/>
				<polygon fill="#DFDBBB" points="246.138,191.129 234.75,192.837 226.59,180.769 238.123,179.243 				"/>
				<polygon fill="#DFDBBB" points="259.804,189.079 248.416,190.788 240.43,178.938 251.963,177.412 				"/>
				<polygon fill="#DFDBBB" points="273.469,187.03 262.081,188.738 254.27,177.106 265.803,175.579 				"/>
				<polygon fill="#DFDBBB" points="289.413,184.638 278.024,186.346 270.417,174.969 281.95,173.442 				"/>
				<polygon fill="#DFDBBB" points="303.079,182.588 291.69,184.297 284.256,173.137 295.79,171.611 				"/>
				<polygon fill="#DFDBBB" points="316.744,180.538 305.356,182.247 298.096,171.306 309.628,169.779 				"/>
				<polygon fill="#DFDBBB" points="330.409,178.489 319.021,180.197 311.935,169.474 323.469,167.947 				"/>
				<polygon fill="#DFDBBB" points="344.076,176.438 332.687,178.146 325.776,167.642 337.309,166.116 				"/>
				<polygon fill="#DFDBBB" points="357.741,174.389 346.353,176.097 339.616,165.811 351.15,164.284 				"/>
				<polygon fill="#DFDBBB" points="373.685,171.998 362.296,173.706 355.762,163.674 367.295,162.147 				"/>
				<polygon fill="#DFDBBB" points="387.35,169.947 375.961,171.656 369.602,161.842 381.135,160.316 				"/>
				<polygon fill="#DFDBBB" points="401.015,167.898 389.626,169.606 383.442,160.011 394.975,158.484 				"/>
				<polygon fill="#DFDBBB" points="414.682,165.848 403.293,167.556 397.283,158.179 408.816,156.652 				"/>
				<polygon fill="#DFDBBB" points="428.347,163.798 416.958,165.507 411.122,156.348 422.656,154.821 				"/>
				<polygon fill="#DFDBBB" points="442.012,161.749 430.625,163.457 424.961,154.516 436.495,152.989 				"/>
			</g>
			<g>
				<polygon fill="#DFDBBB" points="132.404,226.583 121.19,228.51 111.433,214.441 122.792,212.698 				"/>
				<polygon fill="#DFDBBB" points="145.861,224.272 134.646,226.2 125.063,212.347 136.423,210.603 				"/>
				<polygon fill="#DFDBBB" points="159.317,221.959 148.104,223.885 138.694,210.252 150.054,208.51 				"/>
				<polygon fill="#DFDBBB" points="172.774,219.648 161.56,221.575 152.325,208.161 163.684,206.417 				"/>
				<polygon fill="#DFDBBB" points="186.23,217.336 175.016,219.263 165.956,206.067 177.315,204.323 				"/>
				<polygon fill="#DFDBBB" points="199.687,215.025 188.473,216.952 179.587,203.974 190.946,202.229 				"/>
				<polygon fill="#DFDBBB" points="215.386,212.329 204.172,214.254 195.49,201.532 206.849,199.787 				"/>
				<polygon fill="#DFDBBB" points="228.843,210.016 217.628,211.943 209.121,199.438 220.479,197.694 				"/>
				<polygon fill="#DFDBBB" points="242.299,207.706 231.086,209.631 222.751,197.344 234.11,195.6 				"/>
				<polygon fill="#DFDBBB" points="255.756,205.393 244.542,207.32 236.382,195.251 247.741,193.506 				"/>
				<polygon fill="#DFDBBB" points="269.212,203.082 257.999,205.008 250.012,193.158 261.372,191.413 				"/>
				<polygon fill="#DFDBBB" points="282.669,200.77 271.455,202.696 263.644,191.064 275.002,189.319 				"/>
				<polygon fill="#DFDBBB" points="298.369,198.072 287.155,200 279.546,188.622 290.905,186.877 				"/>
				<polygon fill="#DFDBBB" points="311.826,195.761 300.611,197.687 293.177,186.528 304.536,184.784 				"/>
				<polygon fill="#DFDBBB" points="325.282,193.449 314.068,195.376 306.808,184.435 318.167,182.69 				"/>
				<polygon fill="#DFDBBB" points="338.74,191.138 327.524,193.064 320.439,182.341 331.797,180.597 				"/>
				<polygon fill="#DFDBBB" points="352.195,188.826 340.981,190.752 334.07,180.248 345.428,178.503 				"/>
				<polygon fill="#DFDBBB" points="365.652,186.514 354.437,188.441 347.7,178.154 359.06,176.41 				"/>
				<polygon fill="#DFDBBB" points="381.35,183.817 370.136,185.744 363.603,175.712 374.961,173.967 				"/>
				<polygon fill="#DFDBBB" points="394.807,181.505 383.593,183.432 377.234,173.618 388.592,171.874 				"/>
				<polygon fill="#DFDBBB" points="408.264,179.194 397.049,181.121 390.865,171.525 402.224,169.78 				"/>
				<polygon fill="#DFDBBB" points="421.72,176.882 410.507,178.809 404.496,169.431 415.856,167.687 				"/>
				<polygon fill="#DFDBBB" points="435.176,174.571 423.962,176.497 418.125,167.338 429.487,165.594 				"/>
				<polygon fill="#DFDBBB" points="448.633,172.259 437.419,174.185 431.757,165.245 443.116,163.5 				"/>
			</g>
			<g>
				<polygon fill="#DFDBBB" points="143.938,243.249 132.899,245.392 123.142,231.325 134.327,229.361 				"/>
				<polygon fill="#DFDBBB" points="157.186,240.674 146.146,242.819 136.563,228.967 147.748,227.006 				"/>
				<polygon fill="#DFDBBB" points="170.433,238.101 159.394,240.247 149.985,226.614 161.17,224.65 				"/>
				<polygon fill="#DFDBBB" points="183.681,235.527 172.641,237.672 163.407,224.256 174.591,222.295 				"/>
				<polygon fill="#DFDBBB" points="196.928,232.954 185.889,235.098 176.828,221.902 188.013,219.939 				"/>
				<polygon fill="#DFDBBB" points="210.176,230.379 199.136,232.525 190.25,219.547 201.435,217.584 				"/>
				<polygon fill="#DFDBBB" points="225.631,227.377 214.591,229.522 205.909,216.799 217.094,214.836 				"/>
				<polygon fill="#DFDBBB" points="238.879,224.804 227.839,226.95 219.331,214.444 230.516,212.481 				"/>
				<polygon fill="#DFDBBB" points="252.126,222.23 241.086,224.375 232.752,212.088 243.938,210.125 				"/>
				<polygon fill="#DFDBBB" points="265.374,219.659 254.334,221.801 246.174,209.734 257.359,207.77 				"/>
				<polygon fill="#DFDBBB" points="278.622,217.083 267.582,219.229 259.596,207.377 270.781,205.415 				"/>
				<polygon fill="#DFDBBB" points="291.869,214.508 280.83,216.655 273.018,205.022 284.202,203.06 				"/>
				<polygon fill="#DFDBBB" points="307.324,211.506 296.285,213.652 288.676,202.275 299.861,200.312 				"/>
				<polygon fill="#DFDBBB" points="320.572,208.934 309.532,211.079 302.098,199.919 313.283,197.957 				"/>
				<polygon fill="#DFDBBB" points="333.82,206.36 322.78,208.504 315.52,197.564 326.705,195.601 				"/>
				<polygon fill="#DFDBBB" points="347.067,203.787 336.028,205.931 328.942,195.208 340.126,193.246 				"/>
				<polygon fill="#DFDBBB" points="360.314,201.213 349.275,203.358 342.363,192.853 353.548,190.891 				"/>
				<polygon fill="#DFDBBB" points="373.562,198.64 362.522,200.785 355.785,190.499 366.97,188.536 				"/>
				<polygon fill="#DFDBBB" points="389.018,195.637 377.978,197.782 371.444,187.75 382.628,185.788 				"/>
				<polygon fill="#DFDBBB" points="402.264,193.063 391.226,195.208 384.865,185.395 396.05,183.432 				"/>
				<polygon fill="#DFDBBB" points="415.512,190.49 404.472,192.635 398.287,183.039 409.472,181.076 				"/>
				<polygon fill="#DFDBBB" points="428.76,187.917 417.72,190.061 411.709,180.684 422.894,178.721 				"/>
				<polygon fill="#DFDBBB" points="442.007,185.343 430.967,187.488 425.131,178.329 436.317,176.366 				"/>
				<polygon fill="#DFDBBB" points="455.254,182.77 444.215,184.914 438.552,175.974 449.739,174.011 				"/>
			</g>
			<g>
				<polygon fill="#DFDBBB" points="155.473,259.913 144.608,262.275 134.85,248.206 145.861,246.025 				"/>
				<polygon fill="#DFDBBB" points="168.512,257.077 157.646,259.439 148.063,245.588 159.074,243.409 				"/>
				<polygon fill="#DFDBBB" points="181.55,254.243 170.685,256.604 161.275,242.971 172.287,240.792 				"/>
				<polygon fill="#DFDBBB" points="194.588,251.407 183.723,253.768 174.488,240.354 185.499,238.174 				"/>
				<polygon fill="#DFDBBB" points="207.626,248.571 196.761,250.933 187.701,237.737 198.711,235.556 				"/>
				<polygon fill="#DFDBBB" points="220.665,245.736 209.799,248.098 200.914,235.122 211.924,232.939 				"/>
				<polygon fill="#DFDBBB" points="235.876,242.426 225.012,244.79 216.329,232.067 227.339,229.885 				"/>
				<polygon fill="#DFDBBB" points="248.915,239.59 238.049,241.956 229.541,229.45 240.551,227.268 				"/>
				<polygon fill="#DFDBBB" points="261.954,236.756 251.088,239.12 242.754,226.833 253.764,224.652 				"/>
				<polygon fill="#DFDBBB" points="274.992,233.92 264.126,236.286 255.966,224.215 266.977,222.036 				"/>
				<polygon fill="#DFDBBB" points="288.03,231.086 277.165,233.45 269.179,221.598 280.189,219.417 				"/>
				<polygon fill="#DFDBBB" points="301.069,228.25 290.203,230.613 282.392,218.981 293.402,216.799 				"/>
				<polygon fill="#DFDBBB" points="316.28,224.942 305.415,227.305 297.806,215.926 308.817,213.747 				"/>
				<polygon fill="#DFDBBB" points="329.319,222.106 318.454,224.469 311.019,213.31 322.03,211.129 				"/>
				<polygon fill="#DFDBBB" points="342.357,219.272 331.492,221.633 324.232,210.693 335.243,208.512 				"/>
				<polygon fill="#DFDBBB" points="355.396,216.436 344.53,218.797 337.444,208.077 348.455,205.895 				"/>
				<polygon fill="#DFDBBB" points="368.434,213.601 357.569,215.963 350.657,205.459 361.667,203.278 				"/>
				<polygon fill="#DFDBBB" points="381.472,210.765 370.607,213.127 363.87,202.842 374.88,200.661 				"/>
				<polygon fill="#DFDBBB" points="396.683,207.458 385.818,209.82 379.285,199.788 390.294,197.607 				"/>
				<polygon fill="#DFDBBB" points="409.723,204.622 398.858,206.985 392.498,197.171 403.508,194.99 				"/>
				<polygon fill="#DFDBBB" points="422.761,201.787 411.895,204.149 405.709,194.554 416.72,192.373 				"/>
				<polygon fill="#DFDBBB" points="435.798,198.951 424.934,201.314 418.923,191.937 429.933,189.756 				"/>
				<polygon fill="#DFDBBB" points="448.837,196.116 437.972,198.478 432.135,189.319 443.145,187.139 				"/>
				<polygon fill="#DFDBBB" points="461.875,193.28 451.01,195.643 445.348,186.702 456.359,184.521 				"/>
			</g>
			<g>
				<polygon fill="#DFDBBB" points="167.007,276.577 156.316,279.157 146.559,265.088 157.395,262.69 				"/>
				<polygon fill="#DFDBBB" points="179.837,273.479 169.146,276.06 159.563,262.209 170.399,259.81 				"/>
				<polygon fill="#DFDBBB" points="192.666,270.381 181.975,272.963 172.566,259.333 183.402,256.931 				"/>
				<polygon fill="#DFDBBB" points="205.495,267.284 194.805,269.866 185.569,256.452 196.406,254.051 				"/>
				<polygon fill="#DFDBBB" points="218.325,264.188 207.633,266.769 198.573,253.573 209.409,251.172 				"/>
				<polygon fill="#DFDBBB" points="231.154,261.09 220.462,263.67 211.577,250.694 222.413,248.293 				"/>
				<polygon fill="#DFDBBB" points="246.122,257.477 235.431,260.057 226.748,247.334 237.584,244.936 				"/>
				<polygon fill="#DFDBBB" points="258.951,254.377 248.26,256.959 239.751,244.456 250.587,242.056 				"/>
				<polygon fill="#DFDBBB" points="271.78,251.284 261.089,253.864 252.755,241.577 263.591,239.176 				"/>
				<polygon fill="#DFDBBB" points="284.61,248.184 273.918,250.766 265.758,238.698 276.594,236.297 				"/>
				<polygon fill="#DFDBBB" points="297.439,245.088 286.748,247.668 278.762,235.818 289.599,233.418 				"/>
				<polygon fill="#DFDBBB" points="310.269,241.991 299.578,244.573 291.766,232.939 302.602,230.542 				"/>
				<polygon fill="#DFDBBB" points="325.236,238.375 314.545,240.958 306.936,229.581 317.773,227.181 				"/>
				<polygon fill="#DFDBBB" points="338.065,235.28 327.375,237.861 319.939,226.702 330.777,224.301 				"/>
				<polygon fill="#DFDBBB" points="350.895,232.182 340.204,234.763 332.944,223.823 343.78,221.422 				"/>
				<polygon fill="#DFDBBB" points="363.724,229.084 353.033,231.667 345.948,220.943 356.784,218.543 				"/>
				<polygon fill="#DFDBBB" points="376.553,225.988 365.862,228.569 358.951,218.064 369.787,215.665 				"/>
				<polygon fill="#DFDBBB" points="389.382,222.89 378.691,225.471 371.954,215.186 382.791,212.788 				"/>
				<polygon fill="#DFDBBB" points="404.351,219.277 393.659,221.858 387.125,211.827 397.962,209.426 				"/>
				<polygon fill="#DFDBBB" points="417.18,216.18 406.49,218.76 400.128,208.948 410.965,206.547 				"/>
				<polygon fill="#DFDBBB" points="430.009,213.083 419.319,215.665 413.132,206.068 423.968,203.669 				"/>
				<polygon fill="#DFDBBB" points="442.838,209.985 432.149,212.566 426.136,203.189 436.972,200.79 				"/>
				<polygon fill="#DFDBBB" points="455.667,206.888 444.977,209.469 439.14,200.311 449.976,197.911 				"/>
				<polygon fill="#DFDBBB" points="468.497,203.791 457.806,206.372 452.143,197.431 462.981,195.032 				"/>
			</g>
			<g>
				<polygon fill="#DFDBBB" points="178.542,293.241 168.025,296.04 158.268,281.97 168.93,279.353 				"/>
				<polygon fill="#DFDBBB" points="191.163,289.881 180.646,292.681 171.062,278.831 181.724,276.211 				"/>
				<polygon fill="#DFDBBB" points="203.782,286.522 193.265,289.322 183.856,275.689 194.519,273.072 				"/>
				<polygon fill="#DFDBBB" points="216.403,283.163 205.886,285.961 196.651,272.547 207.313,269.931 				"/>
				<polygon fill="#DFDBBB" points="229.022,279.804 218.506,282.603 209.445,269.409 220.108,266.792 				"/>
				<polygon fill="#DFDBBB" points="241.643,276.445 231.126,279.245 222.24,266.266 232.902,263.649 				"/>
				<polygon fill="#DFDBBB" points="256.367,272.526 245.85,275.327 237.167,262.602 247.829,259.985 				"/>
				<polygon fill="#DFDBBB" points="268.987,269.167 258.47,271.967 249.962,259.461 260.624,256.844 				"/>
				<polygon fill="#DFDBBB" points="281.607,265.808 271.091,268.608 262.756,256.321 273.418,253.704 				"/>
				<polygon fill="#DFDBBB" points="294.228,262.45 283.711,265.249 275.55,253.18 286.213,250.563 				"/>
				<polygon fill="#DFDBBB" points="306.848,259.088 296.331,261.889 288.345,250.04 299.007,247.42 				"/>
				<polygon fill="#DFDBBB" points="319.468,255.73 308.952,258.532 301.139,246.897 311.801,244.28 				"/>
				<polygon fill="#DFDBBB" points="334.193,251.812 323.674,254.611 316.067,243.234 326.729,240.616 				"/>
				<polygon fill="#DFDBBB" points="346.812,248.454 336.295,251.25 328.861,240.092 339.524,237.476 				"/>
				<polygon fill="#DFDBBB" points="359.432,245.094 348.916,247.892 341.656,236.952 352.318,234.333 				"/>
				<polygon fill="#DFDBBB" points="372.052,241.734 361.536,244.534 354.451,233.81 365.113,231.193 				"/>
				<polygon fill="#DFDBBB" points="384.673,238.375 374.156,241.174 367.244,230.668 377.907,228.051 				"/>
				<polygon fill="#DFDBBB" points="397.293,235.016 386.776,237.815 380.039,227.529 390.701,224.913 				"/>
				<polygon fill="#DFDBBB" points="412.017,231.096 401.5,233.896 394.966,223.864 405.628,221.247 				"/>
				<polygon fill="#DFDBBB" points="424.637,227.738 414.121,230.538 407.76,220.723 418.422,218.106 				"/>
				<polygon fill="#DFDBBB" points="437.258,224.377 426.741,227.178 420.555,217.583 431.217,214.963 				"/>
				<polygon fill="#DFDBBB" points="449.878,221.02 439.362,223.819 433.349,214.442 444.011,211.825 				"/>
				<polygon fill="#DFDBBB" points="462.499,217.661 451.982,220.459 446.144,211.301 456.806,208.683 				"/>
				<polygon fill="#DFDBBB" points="475.118,214.301 464.601,217.1 458.94,208.161 469.601,205.542 				"/>
			</g>
		</g>
	</g>
	<g>
		<polygon fill="#DFDBBB" points="580.035,237.633 578.934,245.234 261.123,330.661 110.24,115.582 111.34,107.98 		"/>
		<polygon fill="#FFFFFF" stroke="#DFDBBB" stroke-width="1.003" points="111.34,107.98 497.044,102.481 580.035,237.633 
			262.223,323.057 		"/>
		<g>
			<g>
				<polygon fill="#DFDBBB" points="146.875,127.824 134.413,128.187 124.655,114.119 137.263,113.938 				"/>
				<polygon fill="#DFDBBB" points="161.83,127.39 149.367,127.753 139.785,113.902 152.393,113.721 				"/>
				<polygon fill="#DFDBBB" points="176.785,126.955 164.322,127.317 154.914,113.685 167.521,113.504 				"/>
				<polygon fill="#DFDBBB" points="191.74,126.52 179.277,126.882 170.043,113.468 182.65,113.288 				"/>
				<polygon fill="#DFDBBB" points="206.695,126.084 194.232,126.447 185.172,113.251 197.78,113.07 				"/>
				<polygon fill="#DFDBBB" points="221.65,125.649 209.187,126.012 200.301,113.035 212.909,112.854 				"/>
				<polygon fill="#DFDBBB" points="239.097,125.142 226.635,125.504 217.952,112.782 230.559,112.601 				"/>
				<polygon fill="#DFDBBB" points="254.052,124.707 241.589,125.069 233.081,112.564 245.689,112.384 				"/>
				<polygon fill="#DFDBBB" points="269.007,124.271 256.545,124.635 248.21,112.348 260.818,112.167 				"/>
				<polygon fill="#DFDBBB" points="283.962,123.837 271.5,124.2 263.339,112.131 275.947,111.95 				"/>
				<polygon fill="#DFDBBB" points="298.917,123.402 286.455,123.765 278.469,111.915 291.077,111.734 				"/>
				<polygon fill="#DFDBBB" points="313.872,122.967 301.41,123.33 293.598,111.697 306.206,111.517 				"/>
				<polygon fill="#DFDBBB" points="331.32,122.459 318.857,122.822 311.249,111.445 323.857,111.264 				"/>
				<polygon fill="#DFDBBB" points="346.275,122.024 333.812,122.387 326.378,111.228 338.985,111.047 				"/>
				<polygon fill="#DFDBBB" points="361.229,121.589 348.767,121.952 341.506,111.011 354.115,110.83 				"/>
				<polygon fill="#DFDBBB" points="376.185,121.154 363.722,121.517 356.636,110.794 369.244,110.614 				"/>
				<polygon fill="#DFDBBB" points="391.139,120.719 378.676,121.082 371.765,110.577 384.373,110.396 				"/>
				<polygon fill="#DFDBBB" points="406.094,120.284 393.631,120.647 386.894,110.361 399.502,110.179 				"/>
				<polygon fill="#DFDBBB" points="423.542,119.776 411.08,120.139 404.546,110.107 417.155,109.927 				"/>
				<polygon fill="#DFDBBB" points="438.497,119.341 426.035,119.704 419.674,109.891 432.283,109.709 				"/>
				<polygon fill="#DFDBBB" points="453.453,118.906 440.99,119.269 434.804,109.674 447.412,109.493 				"/>
				<polygon fill="#DFDBBB" points="468.407,118.471 455.945,118.834 449.933,109.457 462.541,109.276 				"/>
				<polygon fill="#DFDBBB" points="483.363,118.037 470.9,118.399 465.063,109.24 477.67,109.06 				"/>
				<polygon fill="#DFDBBB" points="498.318,117.602 485.854,117.964 480.192,109.024 492.799,108.843 				"/>
			</g>
			<g>
				<polygon fill="#DFDBBB" points="158.41,144.489 146.121,145.069 136.364,131.001 148.797,130.602 				"/>
				<polygon fill="#DFDBBB" points="173.156,143.792 160.867,144.373 151.284,130.522 163.718,130.124 				"/>
				<polygon fill="#DFDBBB" points="187.901,143.096 175.613,143.676 166.204,130.043 178.638,129.645 				"/>
				<polygon fill="#DFDBBB" points="202.647,142.398 190.359,142.979 181.125,129.565 193.557,129.166 				"/>
				<polygon fill="#DFDBBB" points="217.393,141.701 205.104,142.283 196.044,129.086 208.478,128.687 				"/>
				<polygon fill="#DFDBBB" points="232.139,141.005 219.85,141.585 210.964,128.608 223.398,128.209 				"/>
				<polygon fill="#DFDBBB" points="249.343,140.191 237.054,140.772 228.372,128.049 240.805,127.65 				"/>
				<polygon fill="#DFDBBB" points="264.088,139.495 251.8,140.075 243.292,127.57 255.725,127.171 				"/>
				<polygon fill="#DFDBBB" points="278.834,138.798 266.546,139.378 258.211,127.091 270.646,126.693 				"/>
				<polygon fill="#DFDBBB" points="293.58,138.102 281.292,138.682 273.131,126.613 285.565,126.214 				"/>
				<polygon fill="#DFDBBB" points="308.326,137.404 296.038,137.984 288.052,126.134 300.486,125.735 				"/>
				<polygon fill="#DFDBBB" points="323.072,136.707 310.784,137.288 302.971,125.655 315.406,125.257 				"/>
				<polygon fill="#DFDBBB" points="340.275,135.894 327.987,136.475 320.378,125.097 332.812,124.698 				"/>
				<polygon fill="#DFDBBB" points="355.021,135.197 342.733,135.778 335.299,124.619 347.732,124.22 				"/>
				<polygon fill="#DFDBBB" points="369.767,134.5 357.478,135.081 350.218,124.14 362.653,123.741 				"/>
				<polygon fill="#DFDBBB" points="384.512,133.803 372.224,134.384 365.139,123.662 377.573,123.262 				"/>
				<polygon fill="#DFDBBB" points="399.258,133.106 386.97,133.687 380.059,123.183 392.493,122.784 				"/>
				<polygon fill="#DFDBBB" points="414.004,132.41 401.716,132.99 394.979,122.704 407.413,122.305 				"/>
				<polygon fill="#DFDBBB" points="431.208,131.597 418.92,132.178 412.386,122.146 424.821,121.747 				"/>
				<polygon fill="#DFDBBB" points="445.955,130.899 433.667,131.48 427.306,121.667 439.74,121.268 				"/>
				<polygon fill="#DFDBBB" points="460.701,130.203 448.412,130.784 442.226,121.188 454.661,120.79 				"/>
				<polygon fill="#DFDBBB" points="475.448,129.506 463.158,130.086 457.148,120.709 469.58,120.311 				"/>
				<polygon fill="#DFDBBB" points="490.193,128.809 477.905,129.39 472.068,120.231 484.5,119.832 				"/>
				<polygon fill="#DFDBBB" points="504.94,128.112 492.651,128.693 486.988,119.752 499.419,119.354 				"/>
			</g>
			<g>
				<polygon fill="#DFDBBB" points="169.943,161.153 157.83,161.952 148.073,147.883 160.332,147.267 				"/>
				<polygon fill="#DFDBBB" points="184.48,160.195 172.366,160.994 162.784,147.143 175.043,146.525 				"/>
				<polygon fill="#DFDBBB" points="199.017,159.236 186.903,160.035 177.494,146.403 189.754,145.785 				"/>
				<polygon fill="#DFDBBB" points="213.554,158.276 201.44,159.075 192.206,145.662 204.464,145.045 				"/>
				<polygon fill="#DFDBBB" points="228.091,157.318 215.977,158.117 206.917,144.922 219.176,144.304 				"/>
				<polygon fill="#DFDBBB" points="242.628,156.359 230.513,157.159 221.628,144.181 233.887,143.563 				"/>
				<polygon fill="#DFDBBB" points="259.588,155.241 247.473,156.04 238.791,143.317 251.05,142.7 				"/>
				<polygon fill="#DFDBBB" points="274.125,154.282 262.01,155.081 253.501,142.576 265.761,141.959 				"/>
				<polygon fill="#DFDBBB" points="288.661,153.323 276.547,154.122 268.213,141.836 280.472,141.219 				"/>
				<polygon fill="#DFDBBB" points="303.199,152.364 291.084,153.164 282.924,141.095 295.183,140.478 				"/>
				<polygon fill="#DFDBBB" points="317.734,151.406 305.621,152.205 297.635,140.354 309.894,139.737 				"/>
				<polygon fill="#DFDBBB" points="332.271,150.447 320.157,151.246 312.345,139.614 324.605,138.997 				"/>
				<polygon fill="#DFDBBB" points="349.232,149.329 337.117,150.127 329.509,138.75 341.768,138.133 				"/>
				<polygon fill="#DFDBBB" points="363.768,148.37 351.655,149.169 344.219,138.009 356.48,137.393 				"/>
				<polygon fill="#DFDBBB" points="378.305,147.411 366.19,148.21 358.931,137.269 371.19,136.652 				"/>
				<polygon fill="#DFDBBB" points="392.841,146.453 380.727,147.251 373.642,136.528 385.901,135.912 				"/>
				<polygon fill="#DFDBBB" points="407.378,145.494 395.264,146.292 388.353,135.789 400.613,135.171 				"/>
				<polygon fill="#DFDBBB" points="421.916,144.535 409.801,145.334 403.065,135.048 415.324,134.431 				"/>
				<polygon fill="#DFDBBB" points="438.875,143.417 426.76,144.215 420.227,134.184 432.488,133.566 				"/>
				<polygon fill="#DFDBBB" points="453.412,142.458 441.298,143.256 434.938,133.443 447.198,132.826 				"/>
				<polygon fill="#DFDBBB" points="467.949,141.499 455.834,142.298 449.65,132.703 461.909,132.086 				"/>
				<polygon fill="#DFDBBB" points="482.486,140.54 470.371,141.339 464.361,131.962 476.62,131.345 				"/>
				<polygon fill="#DFDBBB" points="497.023,139.581 484.908,140.38 479.072,131.221 491.331,130.604 				"/>
				<polygon fill="#DFDBBB" points="511.559,138.623 499.446,139.422 493.782,130.48 506.042,129.864 				"/>
			</g>
			<g>
				<polygon fill="#DFDBBB" points="181.478,177.817 169.538,178.835 159.781,164.766 171.866,163.931 				"/>
				<polygon fill="#DFDBBB" points="195.806,176.597 183.866,177.614 174.283,163.763 186.369,162.928 				"/>
				<polygon fill="#DFDBBB" points="210.134,175.376 198.194,176.394 188.785,162.761 200.871,161.925 				"/>
				<polygon fill="#DFDBBB" points="224.461,174.155 212.522,175.173 203.287,161.758 215.373,160.923 				"/>
				<polygon fill="#DFDBBB" points="238.79,172.935 226.849,173.953 217.789,160.756 229.874,159.921 				"/>
				<polygon fill="#DFDBBB" points="253.117,171.715 241.176,172.731 232.291,159.754 244.376,158.918 				"/>
				<polygon fill="#DFDBBB" points="269.833,170.291 257.893,171.308 249.21,158.584 261.295,157.749 				"/>
				<polygon fill="#DFDBBB" points="284.16,169.07 272.221,170.087 263.712,157.582 275.797,156.747 				"/>
				<polygon fill="#DFDBBB" points="298.488,167.849 286.548,168.866 278.214,156.58 290.299,155.744 				"/>
				<polygon fill="#DFDBBB" points="312.816,166.628 300.876,167.646 292.716,155.577 304.801,154.742 				"/>
				<polygon fill="#DFDBBB" points="327.144,165.408 315.204,166.426 307.218,154.575 319.303,153.74 				"/>
				<polygon fill="#DFDBBB" points="341.471,164.188 329.531,165.205 321.719,153.572 333.805,152.737 				"/>
				<polygon fill="#DFDBBB" points="358.187,162.764 346.248,163.78 338.639,152.403 350.723,151.567 				"/>
				<polygon fill="#DFDBBB" points="372.515,161.542 360.575,162.56 353.141,151.4 365.225,150.566 				"/>
				<polygon fill="#DFDBBB" points="386.842,160.322 374.902,161.338 367.642,150.398 379.727,149.563 				"/>
				<polygon fill="#DFDBBB" points="401.169,159.102 389.23,160.119 382.145,149.396 394.23,148.561 				"/>
				<polygon fill="#DFDBBB" points="415.498,157.881 403.558,158.898 396.647,148.394 408.732,147.559 				"/>
				<polygon fill="#DFDBBB" points="429.825,156.66 417.885,157.677 411.15,147.391 423.235,146.556 				"/>
				<polygon fill="#DFDBBB" points="446.542,155.236 434.602,156.253 428.069,146.221 440.154,145.386 				"/>
				<polygon fill="#DFDBBB" points="460.87,154.016 448.929,155.032 442.571,145.22 454.656,144.384 				"/>
				<polygon fill="#DFDBBB" points="475.198,152.794 463.257,153.812 457.073,144.217 469.157,143.381 				"/>
				<polygon fill="#DFDBBB" points="489.526,151.574 477.584,152.591 471.574,143.214 483.659,142.379 				"/>
				<polygon fill="#DFDBBB" points="503.852,150.354 491.913,151.371 486.075,142.212 498.161,141.377 				"/>
				<polygon fill="#DFDBBB" points="518.18,149.133 506.24,150.15 500.578,141.21 512.663,140.375 				"/>
			</g>
			<g>
				<polygon fill="#DFDBBB" points="193.012,194.481 181.247,195.717 171.49,181.648 183.4,180.595 				"/>
				<polygon fill="#DFDBBB" points="207.131,192.999 195.365,194.234 185.783,180.384 197.693,179.331 				"/>
				<polygon fill="#DFDBBB" points="221.25,191.517 209.484,192.752 200.075,179.12 211.986,178.066 				"/>
				<polygon fill="#DFDBBB" points="235.368,190.034 223.603,191.27 214.368,177.855 226.28,176.802 				"/>
				<polygon fill="#DFDBBB" points="249.487,188.552 237.721,189.787 228.661,176.591 240.572,175.538 				"/>
				<polygon fill="#DFDBBB" points="263.606,187.07 251.84,188.305 242.954,175.327 254.865,174.273 				"/>
				<polygon fill="#DFDBBB" points="280.078,185.339 268.313,186.575 259.629,173.852 271.54,172.799 				"/>
				<polygon fill="#DFDBBB" points="294.196,183.857 282.431,185.092 273.922,172.588 285.833,171.534 				"/>
				<polygon fill="#DFDBBB" points="308.315,182.375 296.549,183.61 288.215,171.323 300.126,170.27 				"/>
				<polygon fill="#DFDBBB" points="322.434,180.893 310.667,182.128 302.507,170.059 314.418,169.006 				"/>
				<polygon fill="#DFDBBB" points="336.552,179.41 324.787,180.645 316.8,168.795 328.711,167.741 				"/>
				<polygon fill="#DFDBBB" points="350.671,177.928 338.905,179.163 331.093,167.53 343.004,166.478 				"/>
				<polygon fill="#DFDBBB" points="367.143,176.198 355.377,177.433 347.769,166.056 359.68,165.002 				"/>
				<polygon fill="#DFDBBB" points="381.261,174.716 369.496,175.95 362.062,164.792 373.973,163.738 				"/>
				<polygon fill="#DFDBBB" points="395.38,173.233 383.615,174.468 376.354,163.527 388.265,162.474 				"/>
				<polygon fill="#DFDBBB" points="409.499,171.75 397.734,172.986 390.647,162.264 402.558,161.21 				"/>
				<polygon fill="#DFDBBB" points="423.617,170.268 411.852,171.503 404.941,160.999 416.851,159.945 				"/>
				<polygon fill="#DFDBBB" points="437.737,168.786 425.97,170.021 419.235,159.735 431.144,158.682 				"/>
				<polygon fill="#DFDBBB" points="454.208,167.056 442.443,168.292 435.909,158.26 447.821,157.207 				"/>
				<polygon fill="#DFDBBB" points="468.327,165.574 456.561,166.809 450.202,156.995 462.113,155.942 				"/>
				<polygon fill="#DFDBBB" points="482.447,164.091 470.68,165.326 464.494,155.731 476.406,154.677 				"/>
				<polygon fill="#DFDBBB" points="496.565,162.608 484.798,163.844 478.788,154.467 490.699,153.414 				"/>
				<polygon fill="#DFDBBB" points="510.683,161.126 498.917,162.362 493.081,153.203 504.991,152.149 				"/>
				<polygon fill="#DFDBBB" points="524.801,159.644 513.036,160.879 507.373,151.938 519.283,150.885 				"/>
			</g>
			<g>
				<polygon fill="#DFDBBB" points="204.547,211.146 192.956,212.599 183.198,198.531 194.935,197.259 				"/>
				<polygon fill="#DFDBBB" points="218.457,209.401 206.865,210.855 197.282,197.004 209.019,195.733 				"/>
				<polygon fill="#DFDBBB" points="232.366,207.657 220.774,209.111 211.366,195.479 223.103,194.207 				"/>
				<polygon fill="#DFDBBB" points="246.276,205.913 234.685,207.368 225.45,193.953 237.187,192.681 				"/>
				<polygon fill="#DFDBBB" points="260.185,204.169 248.594,205.623 239.534,192.426 251.271,191.154 				"/>
				<polygon fill="#DFDBBB" points="274.095,202.424 262.503,203.878 253.617,190.9 265.354,189.629 				"/>
				<polygon fill="#DFDBBB" points="290.323,200.39 278.732,201.843 270.049,189.12 281.785,187.848 				"/>
				<polygon fill="#DFDBBB" points="304.233,198.645 292.641,200.099 284.132,187.593 295.869,186.322 				"/>
				<polygon fill="#DFDBBB" points="318.142,196.9 306.55,198.354 298.216,186.067 309.953,184.796 				"/>
				<polygon fill="#DFDBBB" points="332.051,195.157 320.46,196.61 312.3,184.542 324.037,183.27 				"/>
				<polygon fill="#DFDBBB" points="345.961,193.412 334.37,194.865 326.384,183.015 338.122,181.744 				"/>
				<polygon fill="#DFDBBB" points="359.871,191.667 348.279,193.122 340.467,181.489 352.205,180.217 				"/>
				<polygon fill="#DFDBBB" points="376.099,189.632 364.507,191.086 356.899,179.708 368.635,178.438 				"/>
				<polygon fill="#DFDBBB" points="390.008,187.888 378.417,189.342 370.983,178.183 382.719,176.911 				"/>
				<polygon fill="#DFDBBB" points="403.917,186.144 392.327,187.598 385.067,176.657 396.802,175.385 				"/>
				<polygon fill="#DFDBBB" points="417.828,184.399 406.237,185.853 399.151,175.13 410.887,173.858 				"/>
				<polygon fill="#DFDBBB" points="431.739,182.655 420.147,184.109 413.235,173.604 424.97,172.333 				"/>
				<polygon fill="#DFDBBB" points="445.647,180.911 434.055,182.365 427.319,172.079 439.054,170.807 				"/>
				<polygon fill="#DFDBBB" points="461.875,178.876 450.283,180.33 443.75,170.297 455.487,169.026 				"/>
				<polygon fill="#DFDBBB" points="475.784,177.131 464.194,178.585 457.833,168.772 469.571,167.5 				"/>
				<polygon fill="#DFDBBB" points="489.695,175.388 478.102,176.841 471.917,167.246 483.654,165.974 				"/>
				<polygon fill="#DFDBBB" points="503.603,173.643 492.011,175.097 486,165.719 497.738,164.448 				"/>
				<polygon fill="#DFDBBB" points="517.513,171.898 505.92,173.352 500.084,164.193 511.822,162.921 				"/>
				<polygon fill="#DFDBBB" points="531.423,170.155 519.831,171.608 514.168,162.667 525.906,161.396 				"/>
			</g>
			<g>
				<polygon fill="#DFDBBB" points="218.004,230.586 206.616,232.295 196.858,218.227 208.392,216.702 				"/>
				<polygon fill="#DFDBBB" points="231.67,228.538 220.282,230.247 210.698,216.396 222.232,214.87 				"/>
				<polygon fill="#DFDBBB" points="245.335,226.488 233.947,228.198 224.538,214.564 236.072,213.038 				"/>
				<polygon fill="#DFDBBB" points="259.001,224.438 247.613,226.147 238.378,212.732 249.912,211.208 				"/>
				<polygon fill="#DFDBBB" points="272.667,222.388 261.278,224.097 252.218,210.901 263.751,209.374 				"/>
				<polygon fill="#DFDBBB" points="286.332,220.338 274.944,222.047 266.058,209.069 277.591,207.542 				"/>
				<polygon fill="#DFDBBB" points="302.276,217.948 290.888,219.657 282.205,206.932 293.738,205.406 				"/>
				<polygon fill="#DFDBBB" points="315.941,215.897 304.553,217.606 296.045,205.101 307.578,203.575 				"/>
				<polygon fill="#DFDBBB" points="329.607,213.847 318.219,215.556 309.884,203.269 321.417,201.743 				"/>
				<polygon fill="#DFDBBB" points="343.273,211.797 331.884,213.506 323.724,201.438 335.257,199.911 				"/>
				<polygon fill="#DFDBBB" points="356.938,209.749 345.55,211.458 337.564,199.606 349.098,198.08 				"/>
				<polygon fill="#DFDBBB" points="370.604,207.698 359.216,209.407 351.404,197.774 362.937,196.248 				"/>
				<polygon fill="#DFDBBB" points="386.547,205.307 375.159,207.014 367.551,195.637 379.084,194.111 				"/>
				<polygon fill="#DFDBBB" points="400.212,203.257 388.825,204.965 381.39,193.806 392.924,192.279 				"/>
				<polygon fill="#DFDBBB" points="413.878,201.207 402.49,202.915 395.231,191.974 406.763,190.448 				"/>
				<polygon fill="#DFDBBB" points="427.543,199.157 416.156,200.866 409.071,190.143 420.603,188.616 				"/>
				<polygon fill="#DFDBBB" points="441.21,197.107 429.823,198.815 422.91,188.311 434.445,186.785 				"/>
				<polygon fill="#DFDBBB" points="454.875,195.058 443.489,196.766 436.75,186.479 448.284,184.953 				"/>
				<polygon fill="#DFDBBB" points="470.821,192.667 459.431,194.375 452.898,184.343 464.43,182.816 				"/>
				<polygon fill="#DFDBBB" points="484.486,190.616 473.096,192.325 466.738,182.51 478.27,180.984 				"/>
				<polygon fill="#DFDBBB" points="498.151,188.566 486.761,190.274 480.577,180.68 492.11,179.153 				"/>
				<polygon fill="#DFDBBB" points="511.817,186.516 500.428,188.225 494.417,178.848 505.95,177.321 				"/>
				<polygon fill="#DFDBBB" points="525.483,184.467 514.093,186.175 508.256,177.016 519.79,175.489 				"/>
				<polygon fill="#DFDBBB" points="539.147,182.417 527.758,184.125 522.096,175.185 533.629,173.658 				"/>
			</g>
			<g>
				<polygon fill="#DFDBBB" points="229.539,247.252 218.325,249.178 208.567,235.11 219.926,233.366 				"/>
				<polygon fill="#DFDBBB" points="242.995,244.94 231.781,246.868 222.198,233.016 233.557,231.272 				"/>
				<polygon fill="#DFDBBB" points="256.452,242.627 245.238,244.555 235.829,230.922 247.188,229.176 				"/>
				<polygon fill="#DFDBBB" points="269.908,240.317 258.694,242.243 249.459,228.829 260.819,227.084 				"/>
				<polygon fill="#DFDBBB" points="283.365,238.004 272.151,239.932 263.09,226.736 274.449,224.993 				"/>
				<polygon fill="#DFDBBB" points="296.821,235.694 285.607,237.62 276.721,224.643 288.08,222.898 				"/>
				<polygon fill="#DFDBBB" points="312.52,232.997 301.306,234.922 292.624,222.202 303.983,220.456 				"/>
				<polygon fill="#DFDBBB" points="325.977,230.685 314.763,232.612 306.254,220.107 317.615,218.362 				"/>
				<polygon fill="#DFDBBB" points="339.433,228.374 328.22,230.299 319.885,218.013 331.246,216.268 				"/>
				<polygon fill="#DFDBBB" points="352.89,226.061 341.677,227.988 333.516,215.918 344.875,214.174 				"/>
				<polygon fill="#DFDBBB" points="366.347,223.75 355.133,225.676 347.147,213.827 358.506,212.083 				"/>
				<polygon fill="#DFDBBB" points="379.803,221.438 368.59,223.366 360.779,211.733 372.137,209.988 				"/>
				<polygon fill="#DFDBBB" points="395.503,218.741 384.29,220.667 376.68,209.292 388.041,207.545 				"/>
				<polygon fill="#DFDBBB" points="408.96,216.429 397.746,218.356 390.311,207.198 401.67,205.452 				"/>
				<polygon fill="#DFDBBB" points="422.417,214.118 411.203,216.043 403.944,205.103 415.301,203.359 				"/>
				<polygon fill="#DFDBBB" points="435.874,211.806 424.659,213.733 417.573,203.01 428.932,201.265 				"/>
				<polygon fill="#DFDBBB" points="449.33,209.495 438.116,211.42 431.205,200.916 442.563,199.172 				"/>
				<polygon fill="#DFDBBB" points="462.787,207.183 451.573,209.11 444.834,198.823 456.195,197.079 				"/>
				<polygon fill="#DFDBBB" points="478.486,204.486 467.272,206.413 460.739,196.38 472.096,194.636 				"/>
				<polygon fill="#DFDBBB" points="491.943,202.174 480.728,204.101 474.369,194.287 485.727,192.542 				"/>
				<polygon fill="#DFDBBB" points="505.4,199.863 494.184,201.789 488,192.194 499.359,190.449 				"/>
				<polygon fill="#DFDBBB" points="518.856,197.55 507.641,199.477 501.63,190.1 512.99,188.355 				"/>
				<polygon fill="#DFDBBB" points="532.311,195.239 521.097,197.166 515.26,188.007 526.621,186.262 				"/>
				<polygon fill="#DFDBBB" points="545.768,192.928 534.554,194.854 528.891,185.913 540.251,184.168 				"/>
			</g>
			<g>
				<polygon fill="#DFDBBB" points="241.073,263.917 230.033,266.061 220.276,251.993 231.461,250.03 				"/>
				<polygon fill="#DFDBBB" points="254.32,261.342 243.281,263.488 233.698,249.637 244.883,247.674 				"/>
				<polygon fill="#DFDBBB" points="267.568,258.769 256.528,260.915 247.12,247.282 258.304,245.318 				"/>
				<polygon fill="#DFDBBB" points="280.815,256.196 269.776,258.34 260.541,244.926 271.726,242.963 				"/>
				<polygon fill="#DFDBBB" points="294.063,253.624 283.023,255.766 273.963,242.571 285.148,240.608 				"/>
				<polygon fill="#DFDBBB" points="307.31,251.049 296.271,253.194 287.385,240.215 298.569,238.252 				"/>
				<polygon fill="#DFDBBB" points="322.766,248.045 311.726,250.191 303.043,237.467 314.229,235.504 				"/>
				<polygon fill="#DFDBBB" points="336.013,245.472 324.974,247.618 316.465,235.113 327.651,233.15 				"/>
				<polygon fill="#DFDBBB" points="349.26,242.899 338.221,245.043 329.887,232.756 341.072,230.793 				"/>
				<polygon fill="#DFDBBB" points="362.508,240.327 351.468,242.47 343.309,230.403 354.494,228.439 				"/>
				<polygon fill="#DFDBBB" points="375.756,237.75 364.716,239.897 356.731,228.045 367.916,226.083 				"/>
				<polygon fill="#DFDBBB" points="389.002,235.178 377.964,237.323 370.153,225.691 381.336,223.727 				"/>
				<polygon fill="#DFDBBB" points="404.458,232.176 393.419,234.32 385.811,222.944 396.996,220.98 				"/>
				<polygon fill="#DFDBBB" points="417.707,229.603 406.667,231.747 399.234,220.586 410.417,218.625 				"/>
				<polygon fill="#DFDBBB" points="430.955,227.029 419.915,229.174 412.655,218.233 423.839,216.269 				"/>
				<polygon fill="#DFDBBB" points="444.202,224.456 433.162,226.599 426.076,215.875 437.261,213.915 				"/>
				<polygon fill="#DFDBBB" points="457.449,221.881 446.409,224.026 439.498,213.522 450.683,211.559 				"/>
				<polygon fill="#DFDBBB" points="470.698,219.309 459.657,221.454 452.919,211.167 464.104,209.204 				"/>
				<polygon fill="#DFDBBB" points="486.153,216.305 475.114,218.452 468.579,208.418 479.763,206.456 				"/>
				<polygon fill="#DFDBBB" points="499.4,213.732 488.36,215.875 482,206.063 493.184,204.101 				"/>
				<polygon fill="#DFDBBB" points="512.647,211.159 501.608,213.303 495.421,203.708 506.608,201.745 				"/>
				<polygon fill="#DFDBBB" points="525.895,208.584 514.856,210.73 508.844,201.353 520.03,199.39 				"/>
				<polygon fill="#DFDBBB" points="539.141,206.011 528.102,208.157 522.265,198.997 533.451,197.035 				"/>
				<polygon fill="#DFDBBB" points="552.389,203.438 541.349,205.583 535.688,196.642 546.873,194.679 				"/>
			</g>
			<g>
				<polygon fill="#DFDBBB" points="252.608,280.581 241.742,282.944 231.985,268.875 242.995,266.694 				"/>
				<polygon fill="#DFDBBB" points="265.646,277.747 254.781,280.108 245.198,266.256 256.208,264.077 				"/>
				<polygon fill="#DFDBBB" points="278.684,274.911 267.819,277.273 258.41,263.64 269.421,261.459 				"/>
				<polygon fill="#DFDBBB" points="291.723,272.075 280.857,274.437 271.623,261.023 282.633,258.842 				"/>
				<polygon fill="#DFDBBB" points="304.761,269.239 293.896,271.601 284.835,258.407 295.846,256.225 				"/>
				<polygon fill="#DFDBBB" points="317.799,266.404 306.933,268.766 298.048,255.79 309.059,253.608 				"/>
				<polygon fill="#DFDBBB" points="333.011,263.096 322.146,265.458 313.463,252.735 324.473,250.554 				"/>
				<polygon fill="#DFDBBB" points="346.05,260.26 335.184,262.624 326.676,250.118 337.686,247.937 				"/>
				<polygon fill="#DFDBBB" points="359.087,257.424 348.222,259.788 339.888,247.5 350.898,245.32 				"/>
				<polygon fill="#DFDBBB" points="372.126,254.588 361.261,256.952 353.101,244.883 364.111,242.704 				"/>
				<polygon fill="#DFDBBB" points="385.166,251.754 374.299,254.118 366.313,242.266 377.324,240.084 				"/>
				<polygon fill="#DFDBBB" points="398.203,248.918 387.338,251.282 379.527,239.649 390.537,237.467 				"/>
				<polygon fill="#DFDBBB" points="413.415,245.611 402.549,247.973 394.94,236.596 405.952,234.415 				"/>
				<polygon fill="#DFDBBB" points="426.454,242.775 415.587,245.138 408.155,233.979 419.165,231.797 				"/>
				<polygon fill="#DFDBBB" points="439.492,239.939 428.626,242.301 421.367,231.362 432.377,229.181 				"/>
				<polygon fill="#DFDBBB" points="452.531,237.105 441.665,239.467 434.579,228.745 445.589,226.563 				"/>
				<polygon fill="#DFDBBB" points="465.569,234.27 454.704,236.631 447.791,226.127 458.802,223.946 				"/>
				<polygon fill="#DFDBBB" points="478.608,231.434 467.741,233.795 461.004,223.51 472.015,221.329 				"/>
				<polygon fill="#DFDBBB" points="493.819,228.125 482.953,230.488 476.419,220.458 487.429,218.276 				"/>
				<polygon fill="#DFDBBB" points="506.858,225.29 495.992,227.653 489.631,217.838 500.643,215.659 				"/>
				<polygon fill="#DFDBBB" points="519.897,222.456 509.031,224.818 502.844,215.222 513.856,213.042 				"/>
				<polygon fill="#DFDBBB" points="532.933,219.62 522.07,221.983 516.056,212.606 527.069,210.424 				"/>
				<polygon fill="#DFDBBB" points="545.972,216.786 535.107,219.147 529.27,209.988 540.281,207.807 				"/>
				<polygon fill="#DFDBBB" points="559.01,213.95 548.144,216.311 542.483,207.372 553.493,205.189 				"/>
			</g>
			<g>
				<polygon fill="#DFDBBB" points="264.142,297.245 253.45,299.827 243.693,285.756 254.53,283.358 				"/>
				<polygon fill="#DFDBBB" points="276.972,294.148 266.28,296.729 256.697,282.877 267.533,280.479 				"/>
				<polygon fill="#DFDBBB" points="289.8,291.049 279.109,293.631 269.7,279.999 280.537,277.6 				"/>
				<polygon fill="#DFDBBB" points="302.63,287.954 291.939,290.534 282.704,277.12 293.541,274.721 				"/>
				<polygon fill="#DFDBBB" points="315.459,284.856 304.767,287.438 295.708,274.241 306.543,271.84 				"/>
				<polygon fill="#DFDBBB" points="328.289,281.758 317.597,284.338 308.71,271.363 319.547,268.961 				"/>
				<polygon fill="#DFDBBB" points="343.256,278.144 332.565,280.726 323.882,268.002 334.719,265.603 				"/>
				<polygon fill="#DFDBBB" points="356.086,275.047 345.394,277.627 336.885,265.124 347.722,262.725 				"/>
				<polygon fill="#DFDBBB" points="368.915,271.95 358.223,274.532 349.889,262.245 360.725,259.845 				"/>
				<polygon fill="#DFDBBB" points="381.744,268.853 371.052,271.434 362.892,259.368 373.729,256.967 				"/>
				<polygon fill="#DFDBBB" points="394.574,265.756 383.882,268.336 375.896,256.487 386.733,254.086 				"/>
				<polygon fill="#DFDBBB" points="407.404,262.659 396.711,265.241 388.9,253.608 399.738,251.208 				"/>
				<polygon fill="#DFDBBB" points="422.371,259.045 411.679,261.625 404.072,250.25 414.908,247.849 				"/>
				<polygon fill="#DFDBBB" points="435.2,255.95 424.509,258.53 417.074,247.37 427.911,244.97 				"/>
				<polygon fill="#DFDBBB" points="448.03,252.85 437.338,255.432 430.078,244.491 440.915,242.09 				"/>
				<polygon fill="#DFDBBB" points="460.86,249.754 450.167,252.334 443.083,241.612 453.918,239.213 				"/>
				<polygon fill="#DFDBBB" points="473.688,246.657 462.997,249.237 456.085,238.733 466.921,236.333 				"/>
				<polygon fill="#DFDBBB" points="486.517,243.559 475.826,246.14 469.088,235.854 479.925,233.456 				"/>
				<polygon fill="#DFDBBB" points="501.486,239.945 490.793,242.527 484.259,232.497 495.097,230.095 				"/>
				<polygon fill="#DFDBBB" points="514.316,236.849 503.624,239.43 497.263,229.616 508.1,227.215 				"/>
				<polygon fill="#DFDBBB" points="527.144,233.75 516.453,236.333 510.267,226.737 521.104,224.336 				"/>
				<polygon fill="#DFDBBB" points="539.973,230.654 529.282,233.235 523.27,223.858 534.108,221.458 				"/>
				<polygon fill="#DFDBBB" points="552.802,227.556 542.112,230.137 536.275,220.979 547.111,218.581 				"/>
				<polygon fill="#DFDBBB" points="565.631,224.459 554.942,227.042 549.278,218.1 560.115,215.7 				"/>
			</g>
			<g>
				<polygon fill="#DFDBBB" points="275.676,313.909 265.159,316.708 255.402,302.639 266.064,300.022 				"/>
				<polygon fill="#DFDBBB" points="288.297,310.549 277.78,313.348 268.196,299.499 278.859,296.881 				"/>
				<polygon fill="#DFDBBB" points="300.917,307.192 290.4,309.991 280.991,296.358 291.653,293.741 				"/>
				<polygon fill="#DFDBBB" points="313.537,303.833 303.02,306.631 293.786,293.217 304.448,290.6 				"/>
				<polygon fill="#DFDBBB" points="326.157,300.473 315.64,303.272 306.58,290.077 317.243,287.458 				"/>
				<polygon fill="#DFDBBB" points="338.778,297.114 328.26,299.913 319.375,286.935 330.037,284.317 				"/>
				<polygon fill="#DFDBBB" points="353.501,293.195 342.985,295.995 334.301,283.271 344.963,280.654 				"/>
				<polygon fill="#DFDBBB" points="366.122,289.834 355.604,292.633 347.096,280.129 357.757,277.512 				"/>
				<polygon fill="#DFDBBB" points="378.742,286.476 368.225,289.276 359.89,276.989 370.552,274.372 				"/>
				<polygon fill="#DFDBBB" points="391.363,283.118 380.845,285.917 372.685,273.847 383.347,271.23 				"/>
				<polygon fill="#DFDBBB" points="403.983,279.758 393.465,282.557 385.48,270.708 396.142,268.088 				"/>
				<polygon fill="#DFDBBB" points="416.602,276.399 406.086,279.198 398.275,267.566 408.936,264.95 				"/>
				<polygon fill="#DFDBBB" points="431.328,272.48 420.809,275.28 413.201,263.902 423.865,261.286 				"/>
				<polygon fill="#DFDBBB" points="443.948,269.122 433.43,271.92 425.996,260.76 436.658,258.143 				"/>
				<polygon fill="#DFDBBB" points="456.567,265.76 446.05,268.561 438.79,257.62 449.453,255.002 				"/>
				<polygon fill="#DFDBBB" points="469.188,262.402 458.67,265.202 451.584,254.479 462.247,251.862 				"/>
				<polygon fill="#DFDBBB" points="481.808,259.042 471.29,261.842 464.378,251.338 475.041,248.721 				"/>
				<polygon fill="#DFDBBB" points="494.428,255.684 483.911,258.484 477.173,248.198 487.835,245.581 				"/>
				<polygon fill="#DFDBBB" points="509.153,251.765 498.634,254.565 492.101,244.534 502.763,241.917 				"/>
				<polygon fill="#DFDBBB" points="521.772,248.407 511.254,251.208 504.895,241.392 515.557,238.775 				"/>
				<polygon fill="#DFDBBB" points="534.392,245.047 523.875,247.847 517.691,238.25 528.352,235.633 				"/>
				<polygon fill="#DFDBBB" points="547.012,241.688 536.496,244.488 530.485,235.11 541.147,232.495 				"/>
				<polygon fill="#DFDBBB" points="559.632,238.331 549.116,241.127 543.28,231.969 553.942,229.352 				"/>
				<polygon fill="#DFDBBB" points="572.252,234.97 561.737,237.769 556.074,228.829 566.737,226.209 				"/>
			</g>
		</g>
	</g>
</g>
</svg>
