<?xml version="1.0" encoding="utf-8"?>
<!-- Generator: Adobe Illustrator 14.0.0, SVG Export Plug-In . SVG Version: 6.00 Build 43363)  -->
<!DOCTYPE svg PUBLIC "-//W3C//DTD SVG 1.1//EN" "http://www.w3.org/Graphics/SVG/1.1/DTD/svg11.dtd">
<svg version="1.1" id="Layer_1" xmlns="http://www.w3.org/2000/svg" xmlns:xlink="http://www.w3.org/1999/xlink" x="0px" y="0px"
	 width="581px" height="234px" viewBox="6.14 88.01 581 234" enable-background="new 6.14 88.01 581 234" xml:space="preserve">
<g>
	<g>
		<polygon fill="#DFDBBB" points="471.077,225.994 470.009,233.387 160.917,316.469 14.176,107.292 15.246,99.899 		"/>
		<polygon fill="#FFFFFF" stroke="#D1D3D4" stroke-width="0.9755" points="15.246,99.899 390.365,94.551 471.077,225.994 
			161.988,309.076 		"/>
		<g>
			<g>
				<polygon fill="#DFDBBB" points="49.806,119.2 37.684,119.551 28.195,105.869 40.457,105.693 				"/>
				<polygon fill="#DFDBBB" points="64.35,118.776 52.229,119.128 42.909,105.658 55.171,105.482 				"/>
				<polygon fill="#DFDBBB" points="78.894,118.353 66.774,118.705 57.623,105.448 69.885,105.272 				"/>
				<polygon fill="#DFDBBB" points="93.438,117.928 81.318,118.283 72.338,105.237 84.599,105.061 				"/>
				<polygon fill="#DFDBBB" points="107.984,117.507 95.863,117.858 87.052,105.024 99.313,104.85 				"/>
				<polygon fill="#DFDBBB" points="122.527,117.083 110.407,117.437 101.765,104.815 114.027,104.639 				"/>
				<polygon fill="#DFDBBB" points="139.497,116.59 127.377,116.942 118.932,104.569 131.193,104.393 				"/>
				<polygon fill="#DFDBBB" points="154.041,116.167 141.921,116.519 133.646,104.357 145.908,104.182 				"/>
				<polygon fill="#DFDBBB" points="168.586,115.744 156.465,116.096 148.359,104.147 160.622,103.972 				"/>
				<polygon fill="#DFDBBB" points="183.131,115.321 171.01,115.674 163.074,103.937 175.335,103.759 				"/>
				<polygon fill="#DFDBBB" points="197.675,114.897 185.554,115.251 177.788,103.726 190.05,103.55 				"/>
				<polygon fill="#DFDBBB" points="212.219,114.475 200.099,114.828 192.502,103.513 204.764,103.337 				"/>
				<polygon fill="#DFDBBB" points="229.189,113.981 217.068,114.333 209.668,103.269 221.931,103.093 				"/>
				<polygon fill="#DFDBBB" points="243.734,113.558 231.612,113.911 224.382,103.058 236.644,102.882 				"/>
				<polygon fill="#DFDBBB" points="258.278,113.135 246.157,113.486 239.097,102.846 251.358,102.67 				"/>
				<polygon fill="#DFDBBB" points="272.823,112.711 260.702,113.065 253.811,102.637 266.072,102.461 				"/>
				<polygon fill="#DFDBBB" points="287.367,112.288 275.247,112.642 268.524,102.424 280.786,102.25 				"/>
				<polygon fill="#DFDBBB" points="301.911,111.865 289.791,112.218 283.24,102.214 295.501,102.039 				"/>
				<polygon fill="#DFDBBB" points="318.88,111.372 306.758,111.724 300.404,101.969 312.668,101.793 				"/>
				<polygon fill="#DFDBBB" points="333.425,110.949 321.305,111.302 315.119,101.756 327.382,101.581 				"/>
				<polygon fill="#DFDBBB" points="347.969,110.525 335.849,110.877 329.833,101.547 342.094,101.371 				"/>
				<polygon fill="#DFDBBB" points="362.513,110.102 350.394,110.456 344.547,101.335 356.809,101.159 				"/>
				<polygon fill="#DFDBBB" points="377.057,109.68 364.938,110.032 359.261,101.125 371.523,100.95 				"/>
				<polygon fill="#DFDBBB" points="391.604,109.257 379.482,109.609 373.975,100.913 386.236,100.737 				"/>
			</g>
			<g>
				<polygon fill="#DFDBBB" points="61.023,135.407 49.072,135.971 39.583,122.289 51.676,121.9 				"/>
				<polygon fill="#DFDBBB" points="75.364,134.728 63.413,135.293 54.093,121.823 66.186,121.436 				"/>
				<polygon fill="#DFDBBB" points="89.706,134.051 77.754,134.616 68.604,121.356 80.696,120.969 				"/>
				<polygon fill="#DFDBBB" points="104.047,133.372 92.096,133.936 83.115,120.893 95.206,120.504 				"/>
				<polygon fill="#DFDBBB" points="118.388,132.695 106.437,133.26 97.625,120.425 109.718,120.037 				"/>
				<polygon fill="#DFDBBB" points="132.729,132.017 120.778,132.583 112.136,119.961 124.228,119.573 				"/>
				<polygon fill="#DFDBBB" points="149.461,131.227 137.509,131.791 129.065,119.418 141.157,119.03 				"/>
				<polygon fill="#DFDBBB" points="163.802,130.549 151.851,131.113 143.576,118.952 155.668,118.564 				"/>
				<polygon fill="#DFDBBB" points="178.144,129.871 166.192,130.435 158.086,118.487 170.179,118.098 				"/>
				<polygon fill="#DFDBBB" points="192.485,129.194 180.533,129.759 172.597,118.021 184.689,117.632 				"/>
				<polygon fill="#DFDBBB" points="206.826,128.514 194.874,129.079 187.108,117.555 199.2,117.167 				"/>
				<polygon fill="#DFDBBB" points="221.166,127.837 209.216,128.402 201.618,117.09 213.71,116.703 				"/>
				<polygon fill="#DFDBBB" points="237.899,127.047 225.947,127.611 218.548,116.546 230.641,116.159 				"/>
				<polygon fill="#DFDBBB" points="252.24,126.369 240.289,126.934 233.059,116.081 245.151,115.692 				"/>
				<polygon fill="#DFDBBB" points="266.581,125.692 254.63,126.257 247.57,115.617 259.662,115.228 				"/>
				<polygon fill="#DFDBBB" points="280.922,125.013 268.971,125.579 262.081,115.15 274.172,114.762 				"/>
				<polygon fill="#DFDBBB" points="295.264,124.336 283.313,124.901 276.591,114.685 288.684,114.297 				"/>
				<polygon fill="#DFDBBB" points="309.604,123.659 297.654,124.223 291.101,114.218 303.193,113.831 				"/>
				<polygon fill="#DFDBBB" points="326.337,122.868 314.385,123.433 308.03,113.676 320.123,113.288 				"/>
				<polygon fill="#DFDBBB" points="340.677,122.189 328.725,122.754 322.541,113.21 334.633,112.822 				"/>
				<polygon fill="#DFDBBB" points="355.019,121.511 343.068,122.076 337.051,112.745 349.144,112.357 				"/>
				<polygon fill="#DFDBBB" points="369.36,120.835 357.408,121.399 351.562,112.279 363.654,111.89 				"/>
				<polygon fill="#DFDBBB" points="383.7,120.157 371.75,120.721 366.071,111.815 378.164,111.426 				"/>
				<polygon fill="#DFDBBB" points="398.043,119.479 386.091,120.043 380.583,111.348 392.675,110.96 				"/>
			</g>
			<g>
				<polygon fill="#DFDBBB" points="72.241,151.613 60.459,152.39 50.97,138.708 62.892,138.108 				"/>
				<polygon fill="#DFDBBB" points="86.378,150.682 74.597,151.458 65.278,137.987 77.2,137.386 				"/>
				<polygon fill="#DFDBBB" points="100.517,149.749 88.735,150.525 79.584,137.268 91.507,136.667 				"/>
				<polygon fill="#DFDBBB" points="114.655,148.815 102.873,149.593 93.892,136.546 105.814,135.948 				"/>
				<polygon fill="#DFDBBB" points="128.793,147.884 117.011,148.661 108.199,135.827 120.123,135.226 				"/>
				<polygon fill="#DFDBBB" points="142.93,146.951 131.148,147.728 122.506,135.107 134.43,134.507 				"/>
				<polygon fill="#DFDBBB" points="159.426,145.864 147.644,146.64 139.199,134.267 151.122,133.666 				"/>
				<polygon fill="#DFDBBB" points="173.563,144.93 161.78,145.708 153.506,133.545 165.429,132.947 				"/>
				<polygon fill="#DFDBBB" points="187.7,143.998 175.92,144.774 167.814,132.826 179.737,132.225 				"/>
				<polygon fill="#DFDBBB" points="201.838,143.065 190.057,143.843 182.121,132.106 194.043,131.506 				"/>
				<polygon fill="#DFDBBB" points="215.977,142.133 204.195,142.909 196.428,131.385 208.35,130.785 				"/>
				<polygon fill="#DFDBBB" points="230.115,141.202 218.333,141.977 210.736,130.666 222.657,130.065 				"/>
				<polygon fill="#DFDBBB" points="246.609,140.114 234.827,140.891 227.428,129.825 239.351,129.224 				"/>
				<polygon fill="#DFDBBB" points="260.747,139.181 248.965,139.958 241.735,129.104 253.658,128.505 				"/>
				<polygon fill="#DFDBBB" points="274.884,138.248 263.103,139.025 256.042,128.384 267.965,127.783 				"/>
				<polygon fill="#DFDBBB" points="289.022,137.316 277.24,138.093 270.35,127.665 282.272,127.064 				"/>
				<polygon fill="#DFDBBB" points="303.158,136.383 291.379,137.16 284.657,126.944 296.58,126.345 				"/>
				<polygon fill="#DFDBBB" points="317.298,135.451 305.517,136.227 298.965,126.224 310.886,125.623 				"/>
				<polygon fill="#DFDBBB" points="333.792,134.364 322.011,135.141 315.656,125.384 327.578,124.782 				"/>
				<polygon fill="#DFDBBB" points="347.93,133.43 336.148,134.206 329.964,124.665 341.887,124.063 				"/>
				<polygon fill="#DFDBBB" points="362.067,132.498 350.286,133.275 344.271,123.942 356.193,123.344 				"/>
				<polygon fill="#DFDBBB" points="376.206,131.565 364.424,132.344 358.579,123.223 370.501,122.622 				"/>
				<polygon fill="#DFDBBB" points="390.344,130.634 378.562,131.41 372.886,122.504 384.808,121.903 				"/>
				<polygon fill="#DFDBBB" points="404.482,129.701 392.7,130.478 387.192,121.781 399.116,121.182 				"/>
			</g>
			<g>
				<polygon fill="#DFDBBB" points="83.459,167.821 71.846,168.81 62.357,155.126 74.11,154.315 				"/>
				<polygon fill="#DFDBBB" points="97.393,166.634 85.781,167.623 76.461,154.152 88.215,153.339 				"/>
				<polygon fill="#DFDBBB" points="111.329,165.446 99.716,166.435 90.565,153.177 102.319,152.364 				"/>
				<polygon fill="#DFDBBB" points="125.262,164.259 113.65,165.249 104.669,152.202 116.423,151.389 				"/>
				<polygon fill="#DFDBBB" points="139.197,163.071 127.584,164.061 118.773,151.228 130.527,150.415 				"/>
				<polygon fill="#DFDBBB" points="153.132,161.885 141.52,162.873 132.877,150.252 144.631,149.44 				"/>
				<polygon fill="#DFDBBB" points="169.389,160.5 157.776,161.489 149.332,149.116 161.086,148.303 				"/>
				<polygon fill="#DFDBBB" points="183.323,159.312 171.711,160.303 163.436,148.139 175.19,147.329 				"/>
				<polygon fill="#DFDBBB" points="197.258,158.125 185.646,159.113 177.541,147.165 189.293,146.352 				"/>
				<polygon fill="#DFDBBB" points="211.192,156.938 199.581,157.927 191.644,146.189 203.397,145.378 				"/>
				<polygon fill="#DFDBBB" points="225.127,155.751 213.515,156.74 205.748,145.214 217.501,144.402 				"/>
				<polygon fill="#DFDBBB" points="239.062,154.565 227.449,155.555 219.852,144.24 231.606,143.427 				"/>
				<polygon fill="#DFDBBB" points="255.319,153.179 243.707,154.168 236.306,143.103 248.061,142.291 				"/>
				<polygon fill="#DFDBBB" points="269.253,151.992 257.641,152.981 250.411,142.128 262.164,141.315 				"/>
				<polygon fill="#DFDBBB" points="283.187,150.804 271.576,151.795 264.515,141.154 276.268,140.341 				"/>
				<polygon fill="#DFDBBB" points="297.123,149.619 285.51,150.607 278.62,140.178 290.372,139.366 				"/>
				<polygon fill="#DFDBBB" points="311.057,148.431 299.445,149.419 292.723,139.203 304.476,138.391 				"/>
				<polygon fill="#DFDBBB" points="324.99,147.244 313.379,148.233 306.826,138.229 318.58,137.416 				"/>
				<polygon fill="#DFDBBB" points="341.247,145.857 329.636,146.846 323.281,137.092 335.035,136.278 				"/>
				<polygon fill="#DFDBBB" points="355.183,144.671 343.571,145.66 337.385,136.118 349.14,135.305 				"/>
				<polygon fill="#DFDBBB" points="369.117,143.485 357.506,144.474 351.49,135.141 363.242,134.329 				"/>
				<polygon fill="#DFDBBB" points="383.052,142.298 371.44,143.288 365.593,134.167 377.347,133.354 				"/>
				<polygon fill="#DFDBBB" points="396.988,141.11 385.374,142.1 379.697,133.191 391.451,132.38 				"/>
				<polygon fill="#DFDBBB" points="410.921,139.922 399.31,140.912 393.801,132.216 405.556,131.404 				"/>
			</g>
			<g>
				<polygon fill="#DFDBBB" points="94.677,184.026 83.234,185.228 73.745,171.546 85.329,170.522 				"/>
				<polygon fill="#DFDBBB" points="108.408,182.585 96.965,183.786 87.646,170.317 99.229,169.292 				"/>
				<polygon fill="#DFDBBB" points="122.139,181.144 110.696,182.345 101.545,169.086 113.13,168.061 				"/>
				<polygon fill="#DFDBBB" points="135.87,179.703 124.428,180.903 115.447,167.858 127.031,166.832 				"/>
				<polygon fill="#DFDBBB" points="149.602,178.26 138.159,179.46 129.347,166.629 140.931,165.604 				"/>
				<polygon fill="#DFDBBB" points="163.333,176.817 151.889,178.021 143.248,165.398 154.832,164.373 				"/>
				<polygon fill="#DFDBBB" points="179.353,175.137 167.911,176.338 159.465,163.963 171.049,162.939 				"/>
				<polygon fill="#DFDBBB" points="193.083,173.693 181.642,174.896 173.366,162.733 184.95,161.709 				"/>
				<polygon fill="#DFDBBB" points="206.815,172.252 195.372,173.454 187.267,161.504 198.85,160.479 				"/>
				<polygon fill="#DFDBBB" points="220.547,170.811 209.104,172.011 201.167,160.275 212.751,159.25 				"/>
				<polygon fill="#DFDBBB" points="234.278,169.369 222.835,170.57 215.067,159.046 226.652,158.021 				"/>
				<polygon fill="#DFDBBB" points="248.009,167.928 236.566,169.129 228.969,157.814 240.553,156.792 				"/>
				<polygon fill="#DFDBBB" points="264.028,166.245 252.585,167.446 245.187,156.382 256.771,155.357 				"/>
				<polygon fill="#DFDBBB" points="277.759,164.803 266.317,166.004 259.087,155.152 270.671,154.126 				"/>
				<polygon fill="#DFDBBB" points="291.491,163.361 280.049,164.563 272.988,153.922 284.572,152.898 				"/>
				<polygon fill="#DFDBBB" points="305.222,161.919 293.779,163.122 286.889,152.693 298.472,151.668 				"/>
				<polygon fill="#DFDBBB" points="318.952,160.477 307.512,161.68 300.788,151.463 312.373,150.439 				"/>
				<polygon fill="#DFDBBB" points="332.685,159.036 321.242,160.237 314.689,150.232 326.273,149.21 				"/>
				<polygon fill="#DFDBBB" points="348.704,157.354 337.262,158.555 330.907,148.799 342.492,147.775 				"/>
				<polygon fill="#DFDBBB" points="362.437,155.913 350.992,157.114 344.808,147.568 356.393,146.544 				"/>
				<polygon fill="#DFDBBB" points="376.167,154.471 364.724,155.671 358.708,146.34 370.293,145.314 				"/>
				<polygon fill="#DFDBBB" points="389.898,153.029 378.454,154.23 372.609,145.111 384.194,144.085 				"/>
				<polygon fill="#DFDBBB" points="403.63,151.585 392.187,152.789 386.51,143.88 398.095,142.856 				"/>
				<polygon fill="#DFDBBB" points="417.362,150.145 405.917,151.346 400.41,142.652 411.994,141.626 				"/>
			</g>
			<g>
				<polygon fill="#DFDBBB" points="105.895,200.234 94.622,201.648 85.131,187.964 96.547,186.729 				"/>
				<polygon fill="#DFDBBB" points="119.422,198.537 108.15,199.953 98.829,186.481 110.243,185.243 				"/>
				<polygon fill="#DFDBBB" points="132.951,196.841 121.677,198.255 112.527,184.997 123.941,183.759 				"/>
				<polygon fill="#DFDBBB" points="146.479,195.143 135.205,196.557 126.224,183.514 137.638,182.275 				"/>
				<polygon fill="#DFDBBB" points="160.007,193.449 148.733,194.863 139.921,182.027 151.335,180.792 				"/>
				<polygon fill="#DFDBBB" points="173.534,191.751 162.26,193.165 153.618,180.543 165.033,179.308 				"/>
				<polygon fill="#DFDBBB" points="189.317,189.772 178.043,191.187 169.599,178.812 181.014,177.576 				"/>
				<polygon fill="#DFDBBB" points="202.845,188.077 191.571,189.491 183.296,177.327 194.71,176.091 				"/>
				<polygon fill="#DFDBBB" points="216.373,186.379 205.099,187.794 196.993,175.843 208.408,174.607 				"/>
				<polygon fill="#DFDBBB" points="229.901,184.685 218.627,186.097 210.691,174.36 222.105,173.122 				"/>
				<polygon fill="#DFDBBB" points="243.429,182.985 232.155,184.399 224.389,172.876 235.803,171.638 				"/>
				<polygon fill="#DFDBBB" points="256.956,181.29 245.683,182.704 238.086,171.392 249.5,170.154 				"/>
				<polygon fill="#DFDBBB" points="272.74,179.312 261.466,180.726 254.066,169.66 265.48,168.422 				"/>
				<polygon fill="#DFDBBB" points="286.267,177.615 274.994,179.029 267.764,168.176 279.177,166.938 				"/>
				<polygon fill="#DFDBBB" points="299.794,175.919 288.521,177.332 281.46,166.691 292.875,165.455 				"/>
				<polygon fill="#DFDBBB" points="313.322,174.222 302.048,175.635 295.158,165.206 306.572,163.971 				"/>
				<polygon fill="#DFDBBB" points="326.85,172.526 315.578,173.938 308.854,163.722 320.27,162.486 				"/>
				<polygon fill="#DFDBBB" points="340.378,170.828 329.104,172.242 322.553,162.238 333.967,161 				"/>
				<polygon fill="#DFDBBB" points="356.161,168.85 344.887,170.264 338.534,160.506 349.947,159.27 				"/>
				<polygon fill="#DFDBBB" points="369.689,167.154 358.415,168.567 352.229,159.022 363.646,157.786 				"/>
				<polygon fill="#DFDBBB" points="383.216,165.458 371.943,166.872 365.927,157.539 377.343,156.301 				"/>
				<polygon fill="#DFDBBB" points="396.744,163.76 385.471,165.174 379.624,156.055 391.038,154.817 				"/>
				<polygon fill="#DFDBBB" points="410.273,162.064 398.999,163.478 393.323,154.57 404.736,153.333 				"/>
				<polygon fill="#DFDBBB" points="423.799,160.368 412.528,161.782 407.019,153.084 418.434,151.849 				"/>
			</g>
			<g>
				<polygon fill="#DFDBBB" points="118.982,219.143 107.906,220.803 98.418,207.121 109.633,205.637 				"/>
				<polygon fill="#DFDBBB" points="132.273,217.15 121.197,218.811 111.877,205.339 123.095,203.855 				"/>
				<polygon fill="#DFDBBB" points="145.564,215.156 134.488,216.818 125.337,203.558 136.554,202.075 				"/>
				<polygon fill="#DFDBBB" points="158.854,213.162 147.778,214.824 138.797,201.776 150.014,200.292 				"/>
				<polygon fill="#DFDBBB" points="172.146,211.168 161.069,212.83 152.258,199.995 163.474,198.511 				"/>
				<polygon fill="#DFDBBB" points="185.436,209.174 174.36,210.836 165.717,198.214 176.935,196.73 				"/>
				<polygon fill="#DFDBBB" points="200.942,206.848 189.866,208.51 181.422,196.136 192.639,194.652 				"/>
				<polygon fill="#DFDBBB" points="214.232,204.855 203.157,206.516 194.882,194.354 206.098,192.871 				"/>
				<polygon fill="#DFDBBB" points="227.523,202.862 216.448,204.521 208.342,192.573 219.559,191.088 				"/>
				<polygon fill="#DFDBBB" points="240.814,200.869 229.738,202.528 221.802,190.792 233.019,189.307 				"/>
				<polygon fill="#DFDBBB" points="254.104,198.875 243.029,200.535 235.262,189.012 246.479,187.526 				"/>
				<polygon fill="#DFDBBB" points="267.395,196.882 256.319,198.542 248.722,187.23 259.938,185.744 				"/>
				<polygon fill="#DFDBBB" points="282.9,194.555 271.825,196.217 264.426,185.152 275.643,183.667 				"/>
				<polygon fill="#DFDBBB" points="296.191,192.562 285.115,194.222 277.885,183.369 289.102,181.884 				"/>
				<polygon fill="#DFDBBB" points="309.481,190.568 298.406,192.229 291.346,181.588 302.563,180.103 				"/>
				<polygon fill="#DFDBBB" points="322.772,188.574 311.696,190.236 304.807,179.806 316.021,178.322 				"/>
				<polygon fill="#DFDBBB" points="336.063,186.582 324.987,188.242 318.266,178.024 329.482,176.541 				"/>
				<polygon fill="#DFDBBB" points="349.353,184.588 338.278,186.249 331.725,176.244 342.942,174.76 				"/>
				<polygon fill="#DFDBBB" points="364.86,182.261 353.784,183.923 347.429,174.166 358.646,172.682 				"/>
				<polygon fill="#DFDBBB" points="378.149,180.267 367.075,181.929 360.889,172.384 372.105,170.9 				"/>
				<polygon fill="#DFDBBB" points="391.44,178.273 380.365,179.937 374.349,170.604 385.566,169.12 				"/>
				<polygon fill="#DFDBBB" points="404.732,176.28 393.655,177.941 387.81,168.823 399.027,167.337 				"/>
				<polygon fill="#DFDBBB" points="418.023,174.287 406.947,175.948 401.27,167.042 412.487,165.556 				"/>
				<polygon fill="#DFDBBB" points="431.313,172.293 420.238,173.955 414.729,165.26 425.948,163.774 				"/>
			</g>
			<g>
				<polygon fill="#DFDBBB" points="130.201,235.35 119.294,237.225 109.804,223.541 120.852,221.844 				"/>
				<polygon fill="#DFDBBB" points="143.288,233.102 132.382,234.975 123.062,221.504 134.109,219.807 				"/>
				<polygon fill="#DFDBBB" points="156.375,230.852 145.468,232.727 136.318,219.467 147.366,217.771 				"/>
				<polygon fill="#DFDBBB" points="169.463,228.605 158.557,230.479 149.575,217.432 160.623,215.734 				"/>
				<polygon fill="#DFDBBB" points="182.549,226.355 171.644,228.23 162.831,215.396 173.879,213.699 				"/>
				<polygon fill="#DFDBBB" points="195.637,224.109 184.73,225.982 176.088,213.359 187.136,211.664 				"/>
				<polygon fill="#DFDBBB" points="210.906,221.486 200,223.359 191.555,210.984 202.603,209.289 				"/>
				<polygon fill="#DFDBBB" points="223.993,219.236 213.087,221.111 204.812,208.947 215.859,207.252 				"/>
				<polygon fill="#DFDBBB" points="237.08,216.99 226.174,218.861 218.068,206.913 229.116,205.215 				"/>
				<polygon fill="#DFDBBB" points="250.167,214.74 239.261,216.613 231.325,204.876 242.372,203.181 				"/>
				<polygon fill="#DFDBBB" points="263.256,212.492 252.349,214.365 244.582,202.84 255.629,201.145 				"/>
				<polygon fill="#DFDBBB" points="276.342,210.244 265.436,212.117 257.839,200.805 268.886,199.107 				"/>
				<polygon fill="#DFDBBB" points="291.611,207.621 280.705,209.494 273.305,198.429 284.353,196.733 				"/>
				<polygon fill="#DFDBBB" points="304.699,205.373 293.793,207.246 286.563,196.393 297.608,194.697 				"/>
				<polygon fill="#DFDBBB" points="317.785,203.125 306.878,204.998 299.818,194.357 310.865,192.661 				"/>
				<polygon fill="#DFDBBB" points="330.872,200.876 319.967,202.75 313.073,192.321 324.123,190.625 				"/>
				<polygon fill="#DFDBBB" points="343.958,198.628 333.054,200.501 326.331,190.286 337.379,188.588 				"/>
				<polygon fill="#DFDBBB" points="357.047,196.381 346.14,198.253 339.587,188.249 350.637,186.553 				"/>
				<polygon fill="#DFDBBB" points="372.314,193.757 361.409,195.63 355.056,185.874 366.101,184.176 				"/>
				<polygon fill="#DFDBBB" points="385.402,191.508 374.497,193.382 368.311,183.838 379.358,182.142 				"/>
				<polygon fill="#DFDBBB" points="398.49,189.26 387.584,191.135 381.568,181.802 392.616,180.104 				"/>
				<polygon fill="#DFDBBB" points="411.578,187.012 400.671,188.885 394.824,179.765 405.874,178.069 				"/>
				<polygon fill="#DFDBBB" points="424.666,184.764 413.759,186.637 408.082,177.73 419.13,176.033 				"/>
				<polygon fill="#DFDBBB" points="437.753,182.515 426.845,184.389 421.338,175.695 432.386,173.996 				"/>
			</g>
			<g>
				<polygon fill="#DFDBBB" points="141.418,251.557 130.682,253.643 121.192,239.959 132.07,238.049 				"/>
				<polygon fill="#DFDBBB" points="154.302,249.053 143.565,251.139 134.246,237.668 145.123,235.76 				"/>
				<polygon fill="#DFDBBB" points="167.186,246.551 156.45,248.637 147.299,235.379 158.177,233.469 				"/>
				<polygon fill="#DFDBBB" points="180.07,244.049 169.334,246.133 160.353,233.088 171.23,231.178 				"/>
				<polygon fill="#DFDBBB" points="192.955,241.545 182.218,243.631 173.406,230.797 184.284,228.889 				"/>
				<polygon fill="#DFDBBB" points="205.838,239.041 195.101,241.129 186.459,228.506 197.337,226.598 				"/>
				<polygon fill="#DFDBBB" points="220.87,236.121 210.133,238.207 201.688,225.832 212.566,223.924 				"/>
				<polygon fill="#DFDBBB" points="233.753,233.619 223.017,235.705 214.742,223.543 225.62,221.633 				"/>
				<polygon fill="#DFDBBB" points="246.638,231.115 235.9,233.201 227.795,221.252 238.673,219.344 				"/>
				<polygon fill="#DFDBBB" points="259.522,228.611 248.784,230.699 240.849,218.963 251.726,217.053 				"/>
				<polygon fill="#DFDBBB" points="272.406,226.109 261.669,228.195 253.902,216.672 264.781,214.762 				"/>
				<polygon fill="#DFDBBB" points="285.29,223.607 274.553,225.691 266.957,214.379 277.833,212.471 				"/>
				<polygon fill="#DFDBBB" points="300.319,220.688 289.585,222.773 282.185,211.707 293.062,209.797 				"/>
				<polygon fill="#DFDBBB" points="313.205,218.184 302.468,220.271 295.237,209.416 306.115,207.508 				"/>
				<polygon fill="#DFDBBB" points="326.088,215.682 315.352,217.766 308.291,207.127 319.169,205.216 				"/>
				<polygon fill="#DFDBBB" points="338.972,213.178 328.235,215.264 321.344,204.835 332.223,202.926 				"/>
				<polygon fill="#DFDBBB" points="351.855,210.676 341.12,212.762 334.397,202.543 345.275,200.636 				"/>
				<polygon fill="#DFDBBB" points="364.741,208.172 354.003,210.258 347.45,200.256 358.329,198.346 				"/>
				<polygon fill="#DFDBBB" points="379.771,205.252 369.035,207.338 362.681,197.581 373.56,195.672 				"/>
				<polygon fill="#DFDBBB" points="392.655,202.75 381.92,204.834 375.734,195.29 386.611,193.382 				"/>
				<polygon fill="#DFDBBB" points="405.54,200.247 394.802,202.331 388.786,193 399.665,191.091 				"/>
				<polygon fill="#DFDBBB" points="418.424,197.744 407.686,199.829 401.842,190.708 412.718,188.8 				"/>
				<polygon fill="#DFDBBB" points="431.309,195.241 420.572,197.326 414.895,188.418 425.772,186.509 				"/>
				<polygon fill="#DFDBBB" points="444.192,192.737 433.455,194.823 427.948,186.128 438.826,184.219 				"/>
			</g>
			<g>
				<polygon fill="#DFDBBB" points="152.636,267.762 142.069,270.063 132.58,256.379 143.289,254.258 				"/>
				<polygon fill="#DFDBBB" points="165.317,265.004 154.75,267.303 145.43,253.834 156.139,251.713 				"/>
				<polygon fill="#DFDBBB" points="177.998,262.25 167.43,264.547 158.28,251.287 168.988,249.168 				"/>
				<polygon fill="#DFDBBB" points="190.678,259.49 180.111,261.789 171.13,248.742 181.838,246.621 				"/>
				<polygon fill="#DFDBBB" points="203.359,256.732 192.792,259.031 183.98,246.197 194.688,244.076 				"/>
				<polygon fill="#DFDBBB" points="216.04,253.977 205.472,256.273 196.83,243.652 207.538,241.531 				"/>
				<polygon fill="#DFDBBB" points="230.834,250.758 220.266,253.057 211.822,240.682 222.53,238.563 				"/>
				<polygon fill="#DFDBBB" points="243.515,248.002 232.947,250.299 224.671,238.137 235.381,236.016 				"/>
				<polygon fill="#DFDBBB" points="256.195,245.242 245.628,247.541 237.521,235.59 248.229,233.469 				"/>
				<polygon fill="#DFDBBB" points="268.875,242.486 258.308,244.783 250.372,233.047 261.081,230.926 				"/>
				<polygon fill="#DFDBBB" points="281.556,239.729 270.988,242.025 263.221,230.5 273.93,228.381 				"/>
				<polygon fill="#DFDBBB" points="294.237,236.971 283.669,239.268 276.072,227.955 286.781,225.834 				"/>
				<polygon fill="#DFDBBB" points="309.029,233.754 298.464,236.053 291.063,224.984 301.771,222.863 				"/>
				<polygon fill="#DFDBBB" points="321.712,230.996 311.145,233.293 303.915,222.439 314.623,220.32 				"/>
				<polygon fill="#DFDBBB" points="334.392,228.238 323.824,230.535 316.764,219.895 327.473,217.775 				"/>
				<polygon fill="#DFDBBB" points="347.073,225.48 336.506,227.777 329.615,217.35 340.324,215.229 				"/>
				<polygon fill="#DFDBBB" points="359.753,222.723 349.186,225.02 342.464,214.805 353.173,212.684 				"/>
				<polygon fill="#DFDBBB" points="372.435,219.965 361.865,222.264 355.315,212.258 366.024,210.139 				"/>
				<polygon fill="#DFDBBB" points="387.229,216.748 376.662,219.045 370.306,209.289 381.015,207.168 				"/>
				<polygon fill="#DFDBBB" points="399.908,213.992 389.341,216.287 383.156,206.744 393.865,204.622 				"/>
				<polygon fill="#DFDBBB" points="412.59,211.232 402.022,213.531 396.006,204.199 406.714,202.076 				"/>
				<polygon fill="#DFDBBB" points="425.272,208.475 414.703,210.773 408.857,201.655 419.566,199.532 				"/>
				<polygon fill="#DFDBBB" points="437.949,205.717 427.385,208.016 421.705,199.107 432.414,196.987 				"/>
				<polygon fill="#DFDBBB" points="450.631,202.959 440.063,205.257 434.557,196.563 445.264,194.443 				"/>
			</g>
			<g>
				<polygon fill="#DFDBBB" points="163.854,283.969 153.456,286.48 143.967,272.799 154.506,270.465 				"/>
				<polygon fill="#DFDBBB" points="176.332,280.959 165.934,283.469 156.614,269.998 167.152,267.664 				"/>
				<polygon fill="#DFDBBB" points="188.808,277.945 178.411,280.457 169.26,267.199 179.799,264.865 				"/>
				<polygon fill="#DFDBBB" points="201.286,274.936 190.888,277.443 181.908,264.398 192.445,262.064 				"/>
				<polygon fill="#DFDBBB" points="213.764,271.922 203.365,274.432 194.553,261.598 205.092,259.266 				"/>
				<polygon fill="#DFDBBB" points="226.241,268.908 215.843,271.42 207.201,258.797 217.739,256.463 				"/>
				<polygon fill="#DFDBBB" points="240.798,265.395 230.4,267.904 221.955,255.531 232.495,253.197 				"/>
				<polygon fill="#DFDBBB" points="253.275,262.381 242.878,264.893 234.602,252.73 245.141,250.398 				"/>
				<polygon fill="#DFDBBB" points="265.752,259.371 255.355,261.879 247.249,249.932 257.788,247.598 				"/>
				<polygon fill="#DFDBBB" points="278.229,256.357 267.832,258.869 259.895,247.131 270.435,244.799 				"/>
				<polygon fill="#DFDBBB" points="290.707,253.348 280.31,255.855 272.542,244.33 283.081,241.998 				"/>
				<polygon fill="#DFDBBB" points="303.186,250.334 292.785,252.846 285.188,241.531 295.729,239.197 				"/>
				<polygon fill="#DFDBBB" points="317.74,246.82 307.343,249.33 299.942,238.264 310.482,235.93 				"/>
				<polygon fill="#DFDBBB" points="330.218,243.807 319.82,246.318 312.591,235.463 323.129,233.131 				"/>
				<polygon fill="#DFDBBB" points="342.695,240.793 332.298,243.305 325.236,232.664 335.775,230.33 				"/>
				<polygon fill="#DFDBBB" points="355.172,237.783 344.774,240.291 337.884,229.863 348.422,227.531 				"/>
				<polygon fill="#DFDBBB" points="367.649,234.77 357.252,237.281 350.53,227.064 361.069,224.73 				"/>
				<polygon fill="#DFDBBB" points="380.127,231.758 369.729,234.268 363.179,224.266 373.717,221.93 				"/>
				<polygon fill="#DFDBBB" points="394.684,228.244 384.286,230.754 377.932,220.996 388.47,218.664 				"/>
				<polygon fill="#DFDBBB" points="407.161,225.23 396.764,227.742 390.579,218.195 401.118,215.863 				"/>
				<polygon fill="#DFDBBB" points="419.639,222.219 409.241,224.729 403.225,215.398 413.765,213.064 				"/>
				<polygon fill="#DFDBBB" points="432.115,219.207 421.719,221.717 415.872,212.596 426.411,210.264 				"/>
				<polygon fill="#DFDBBB" points="444.593,216.195 434.196,218.703 428.519,209.797 439.058,207.463 				"/>
				<polygon fill="#DFDBBB" points="457.071,213.182 446.673,215.693 441.165,206.998 451.704,204.663 				"/>
			</g>
			<g>
				<polygon fill="#DFDBBB" points="175.072,300.178 164.843,302.9 155.354,289.217 165.724,286.672 				"/>
				<polygon fill="#DFDBBB" points="187.347,296.91 177.118,299.633 167.797,286.162 178.167,283.617 				"/>
				<polygon fill="#DFDBBB" points="199.62,293.645 189.392,296.367 180.241,283.109 190.611,280.563 				"/>
				<polygon fill="#DFDBBB" points="211.894,290.375 201.666,293.1 192.685,280.053 203.054,277.508 				"/>
				<polygon fill="#DFDBBB" points="224.167,287.109 213.94,289.832 205.127,277 215.497,274.451 				"/>
				<polygon fill="#DFDBBB" points="236.442,283.844 226.213,286.566 217.572,273.943 227.94,271.398 				"/>
				<polygon fill="#DFDBBB" points="250.762,280.031 240.533,282.752 232.089,270.379 242.458,267.834 				"/>
				<polygon fill="#DFDBBB" points="263.036,276.766 252.808,279.486 244.533,267.324 254.901,264.779 				"/>
				<polygon fill="#DFDBBB" points="275.309,273.498 265.082,276.221 256.975,264.271 267.344,261.725 				"/>
				<polygon fill="#DFDBBB" points="287.583,270.232 277.355,272.953 269.418,261.215 279.789,258.67 				"/>
				<polygon fill="#DFDBBB" points="299.857,266.963 289.629,269.686 281.863,258.16 292.232,255.615 				"/>
				<polygon fill="#DFDBBB" points="312.132,263.695 301.903,266.42 294.306,255.105 304.674,252.561 				"/>
				<polygon fill="#DFDBBB" points="326.451,259.885 316.223,262.607 308.822,251.543 319.192,248.998 				"/>
				<polygon fill="#DFDBBB" points="338.724,256.619 328.496,259.34 321.266,248.488 331.637,245.941 				"/>
				<polygon fill="#DFDBBB" points="350.999,253.352 340.771,256.074 333.71,245.434 344.079,242.889 				"/>
				<polygon fill="#DFDBBB" points="363.271,250.086 353.044,252.807 346.154,242.379 356.522,239.832 				"/>
				<polygon fill="#DFDBBB" points="375.546,246.816 365.318,249.539 358.597,239.324 368.965,236.777 				"/>
				<polygon fill="#DFDBBB" points="387.821,243.551 377.591,246.273 371.04,236.27 381.409,233.723 				"/>
				<polygon fill="#DFDBBB" points="402.141,239.738 391.911,242.461 385.557,232.703 395.927,230.16 				"/>
				<polygon fill="#DFDBBB" points="414.414,236.473 404.188,239.195 398,229.65 408.369,227.104 				"/>
				<polygon fill="#DFDBBB" points="426.688,233.205 416.46,235.928 410.443,226.596 420.813,224.049 				"/>
				<polygon fill="#DFDBBB" points="438.963,229.939 428.734,232.662 422.887,223.541 433.257,220.994 				"/>
				<polygon fill="#DFDBBB" points="451.237,226.672 441.008,229.393 435.33,220.486 445.701,217.939 				"/>
				<polygon fill="#DFDBBB" points="463.509,223.404 453.281,226.125 447.776,217.432 458.144,214.885 				"/>
			</g>
		</g>
	</g>
	<g>
		<path fill="#DFDBBB" stroke="#DFDBBB" stroke-width="1.7652" stroke-linecap="round" stroke-linejoin="round" d="M539.663,195.278
			c0.733-1.79-0.046-3.867-1.745-4.642c-0.261-0.123-0.534-0.192-0.801-0.24l-0.006-0.04l-0.18,0.021
			c-0.524-0.058-1.056,0.004-1.537,0.2l-29.957,3.857c0.576,1.694,1.188,3.395,1.836,5.1l24.639-3.171l-11.571,28.153
			c0.778,1.063,1.578,2.118,2.409,3.131c0.246,0.303,0.49,0.58,0.739,0.875l-5.111,0.758l-1.557,3.793l7.778-1.148L539.663,195.278z
			"/>
		<g>
			<path fill="#DFDBBB" d="M298.397,224.301l1.125-3.068l45.574-5.868l1.372,3.754c4.419,12.086,9.745,21.979,15.831,29.405
				l0.938,1.101l5.734,6.851l-89.238,13.221L298.397,224.301z"/>
			<path fill="#DFDBBB" d="M275.543,267.541c-0.481-0.559-0.959-1.117-1.441-1.701c-22.841-27.881-27.394-75.562-27.577-77.578
				l-0.43-4.731l89.514-12.806l0.613,5.079c0.713,5.924,2.978,21.518,8.526,38.358l1.896,5.756l-45.329,5.836l-17.842,43.402
				l-5.833,0.832L275.543,267.541z"/>
			<path fill="#DFDBBB" d="M419.749,206.469c-6.169-18.025-8.646-35.019-9.425-41.488l-0.585-4.859l88.587-12.385l0.479,5.243
				c0.018,0.197,2.521,22.302,9.542,42.952l1.331,3.324l-88.611,11.078L419.749,206.469z"/>
			<path fill="#DFDBBB" d="M437.405,240.564c-6.06-7.582-11.363-17.279-15.76-28.832l-2.259-5.933l42.591-5.48l-19.27,46.88
				L437.405,240.564z"/>
			<path fill="#DFDBBB" d="M456.665,204.694l0.516-3.627l3.795-0.622l46.579-6.209l1.402,3.69
				c3.559,9.381,7.74,17.391,12.429,23.807l1.654,2.264l-1.117,9.814l-82.232,12.184L456.665,204.694z"/>
			<path fill="#DFDBBB" d="M337.783,216.982c-5.873-17.635-8.259-34.086-9.009-40.338l-0.583-4.859l88.965-12.723l0.615,5.076
				c0.745,6.143,3.103,22.283,8.9,39.443l1.955,5.784l-89.544,11.523L337.783,216.982z"/>
			<path fill="#DFDBBB" d="M356.725,253.445l-0.234-0.275c-6.541-7.986-12.202-18.379-16.854-30.926l-2.186-5.898l44.869-5.771
				l-20.285,49.34L356.725,253.445z"/>
			<path fill="#DFDBBB" d="M377.253,214.344l0.907-3.236l48.889-6.293l1.393,3.709c4.32,11.506,9.481,20.968,15.345,28.115
				l2.133,2.48l-1.098,2.938l-1.396,3.381l-84.078,12.461L377.253,214.344z"/>
			<path fill="#DFDBBB" d="M334.299,298.75c-6.409,0.363-29.191-0.383-53.318-25.227c-0.738-0.758-2.098-2.158-2.839-2.963
				l-5.086-6.896l12.361-1.361l78.631-11.652l1.797,2.002c0.759,0.849,1.515,1.64,2.271,2.435
				c15.61,16.425,30.156,21.781,39.609,23.384l-0.128,9.887l-71.347,10.209c0.003,0,0.003,0,0.003,0
				C336.263,298.563,335.56,298.68,334.299,298.75L334.299,298.75z"/>
			<path fill="#DFDBBB" d="M498.563,274.406c-6.743,0.381-30.695-0.473-55.701-27.523l-6.434-6.959l90.54-10.957l2.154,2.43
				c22.257,24.861,42.78,25.728,48.54,25.402c0.483-0.027,0.825-0.063,1.001-0.086l0.072-0.01l0.625,6.883l0.847-4.51l-0.955,4.521
				l-79.028,10.653c0.001,0,0.001,0,0.001,0C500.238,274.252,499.624,274.346,498.563,274.406L498.563,274.406z"/>
			<path fill="#DFDBBB" d="M417.767,286.84c-4.774,0.268-29.916,0.213-55.85-27.5l-2.201-2.35l2.507-6.068l83.167-12.32l1.798,2.017
				c0.338,0.377,0.675,0.733,1.01,1.09l0.65,0.696c16.209,17.392,31.345,22.8,41.181,24.271l-0.031,9.9l-71.017,10.155
				C418.897,286.742,418.508,286.795,417.767,286.84L417.767,286.84z"/>
		</g>
		<path fill="#DFDBBB" d="M522.75,227.645c-0.831-1.012-1.631-2.065-2.409-3.131l-1.963,4.764l5.111-0.758
			C523.24,228.225,522.996,227.947,522.75,227.645z"/>
		<g>
			<path fill="#FFFFFF" d="M426.321,209.953c-0.647-1.703-1.257-3.406-1.84-5.101l-2.549,0.33c0.577,1.694,1.186,3.396,1.825,5.1
				L426.321,209.953z"/>
			<path fill="#FFFFFF" d="M344.326,220.506c-0.632-1.705-1.23-3.408-1.796-5.104l-2.536,0.326c0.562,1.694,1.149,3.397,1.775,5.108
				L344.326,220.506z"/>
			<path fill="#FFFFFF" stroke="#FFFFFF" stroke-width="1.7652" stroke-linecap="round" stroke-linejoin="round" d="
				M303.124,225.965c0.021-0.055,0.026-0.107,0.046-0.16l38.601-4.967c-0.626-1.711-1.215-3.414-1.775-5.109l-41.375,5.328
				l0.037,0.303c-0.729,0.353-1.342,0.964-1.683,1.795l-17.822,40.884l4.433,5.053L303.124,225.965z"/>
			<path fill="#FFFFFF" stroke="#FFFFFF" stroke-width="1.7652" stroke-linecap="round" stroke-linejoin="round" d="
				M461.615,205.411l46.669-5.885c-0.648-1.705-1.261-3.406-1.835-5.1l-81.968,10.426c0.583,1.695,1.191,3.398,1.84,5.101
				l27.757-3.572l-14.374,34.667c0.17,0.213,0.335,0.435,0.504,0.646c0.641,0.779,1.277,1.514,1.912,2.254l3.936-0.58l15.325-36.979
				C461.51,206.064,461.577,205.738,461.615,205.411z"/>
			<path fill="#FFFFFF" stroke="#FFFFFF" stroke-width="1.7652" stroke-linecap="round" stroke-linejoin="round" d="
				M374.416,216.633l-15.383,37.184c0.598,0.724,1.197,1.429,1.797,2.123l4.937-0.729l16.201-39.178
				c0.051-0.125,0.079-0.259,0.115-0.386l41.675-5.364c-0.641-1.703-1.248-3.406-1.825-5.1l-79.401,10.22
				c0.564,1.695,1.164,3.398,1.796,5.104L374.416,216.633z"/>
		</g>
		<path fill="#DFDBBB" d="M440.741,240.781c-0.183-0.219-0.361-0.426-0.546-0.637l-0.313,0.762L440.741,240.781z"/>
		<g>
			<path fill="#DFDBBB" stroke="#FFFFFF" stroke-width="1.7652" stroke-linecap="round" stroke-linejoin="round" d="M358.43,251.693
				c-7.249-8.846-12.651-19.896-16.659-30.855l-38.601,4.967c-0.02,0.053-0.025,0.105-0.046,0.16l-16.613,37.268l72.889-10.399
				C359.078,252.445,358.756,252.088,358.43,251.693z"/>
			<path fill="#DFDBBB" stroke="#FFFFFF" stroke-width="1.7652" stroke-linecap="round" stroke-linejoin="round" d="
				M298.656,221.359l-0.037-0.303l41.375-5.328c-5.729-17.391-8.053-33.638-8.74-39.326l-79.746,11.408
				c0,0,4.334,47.845,26.456,74.847c0.563,0.686,1.127,1.334,1.688,1.988l0.281-0.041l17.041-41.451
				C297.315,222.322,297.928,221.711,298.656,221.359z"/>
			<path fill="#DFDBBB" stroke="#FFFFFF" stroke-width="1.7652" stroke-linecap="round" stroke-linejoin="round" d="
				M496.291,152.796l-80.999,11.587c0.697,5.786,3.122,22.721,9.188,40.469l80.956-10.418
				C498.121,172.925,496.291,152.796,496.291,152.796z"/>
			<path fill="#DFDBBB" stroke="#FFFFFF" stroke-width="1.7652" stroke-linecap="round" stroke-linejoin="round" d="
				M454.077,206.381l-27.757,3.572c3.729,9.791,8.621,19.52,14.989,27.484L454.077,206.381z"/>
			<path fill="#DFDBBB" stroke="#FFFFFF" stroke-width="1.7652" stroke-linecap="round" stroke-linejoin="round" d="
				M507.274,199.533l-45.659,5.878c-0.037,0.327-0.104,0.653-0.234,0.978l-13.718,33.365l70.716-10.477l4.7-0.812
				C517.61,220.98,510.598,208.291,507.274,199.533z"/>
			<path fill="#DFDBBB" stroke="#FFFFFF" stroke-width="1.7652" stroke-linecap="round" stroke-linejoin="round" d="M412.803,164.74
				l-79.061,11.307c0.675,5.596,2.999,21.968,8.789,39.355l79.4-10.22C415.931,187.418,413.516,170.617,412.803,164.74z"/>
			<path fill="#DFDBBB" stroke="#FFFFFF" stroke-width="1.7652" stroke-linecap="round" stroke-linejoin="round" d="
				M344.326,220.506c3.894,10.498,9.094,21.02,16.006,29.459c0.085,0.104,0.172,0.197,0.259,0.303l13.825-33.635L344.326,220.506z"
				/>
			<path fill="#DFDBBB" stroke="#FFFFFF" stroke-width="1.7652" stroke-linecap="round" stroke-linejoin="round" d="
				M423.758,210.281l-41.675,5.365c-0.036,0.127-0.064,0.26-0.115,0.385l-14.646,35.627l72.562-10.752l0.313-0.762
				c-0.096-0.109-0.188-0.218-0.283-0.332C432.959,231.326,427.707,220.803,423.758,210.281z"/>
			<path fill="#DFDBBB" stroke="#FFFFFF" stroke-width="1.7652" stroke-linecap="round" stroke-linejoin="round" d="
				M364.494,258.539c-0.791-0.828-1.577-1.658-2.375-2.545l-4.066,0.602l-71.9,10.654l-3.709,0.553
				c0.71,0.771,1.419,1.506,2.126,2.234c26.678,27.465,50.969,23.574,50.969,23.574l71.35-10.207
				C396.711,281.678,381.037,275.947,364.494,258.539z"/>
			<g>
				<path fill="#DFDBBB" d="M526.222,231.682l-1.621,0.24l-7.778,1.148l-70.288,10.414c27.241,29.463,52.763,25.854,53.024,25.811
					l80.664-10.684C578.492,258.852,553.126,261.736,526.222,231.682z"/>
				<path fill="#FFFFFF" d="M498.329,270.291c-6.289,0.357-28.661-0.48-52.441-26.205c-0.225-0.24-0.294-0.586-0.187-0.893
					c0.108-0.31,0.382-0.533,0.705-0.58l79.687-11.805c0.289-0.033,0.59,0.063,0.784,0.282
					c23.486,26.234,45.622,27.121,51.846,26.771c0.638-0.035,1.078-0.084,1.302-0.113l0.083-0.01
					c0.468-0.068,0.925,0.272,0.988,0.756c0.067,0.482-0.271,0.928-0.752,0.992l-0.001-0.006c0,0-0.002,0-0.006,0v0.008v-0.008
					c-0.026,0.01-0.056,0.016-0.082,0.018l-80.582,10.672C499.664,270.17,499.19,270.242,498.329,270.291L498.329,270.291z
					 M448.333,244.111c22.821,23.961,43.903,24.756,49.896,24.416c0.729-0.041,1.137-0.096,1.193-0.105l70.473-9.332
					c-10.315-1.631-26.845-7.441-44.014-26.465L448.333,244.111L448.333,244.111z"/>
			</g>
			<path fill="#DFDBBB" stroke="#FFFFFF" stroke-width="1.7652" stroke-linecap="round" stroke-linejoin="round" d="
				M445.176,245.803c-0.574-0.621-1.146-1.209-1.726-1.854l-5.125,0.758l-72.563,10.752l-0.191,0.465
				c27.194,29.062,52.698,25.854,52.698,25.854l71.018-10.156C479.019,270.086,462.538,264.43,445.176,245.803z"/>
		</g>
	</g>
</g>
</svg>
