<?xml version="1.0" encoding="utf-8"?>
<!-- Generator: Adobe Illustrator 14.0.0, SVG Export Plug-In . SVG Version: 6.00 Build 43363)  -->
<!DOCTYPE svg PUBLIC "-//W3C//DTD SVG 1.1//EN" "http://www.w3.org/Graphics/SVG/1.1/DTD/svg11.dtd">
<svg version="1.1" id="Layer_1" xmlns="http://www.w3.org/2000/svg" xmlns:xlink="http://www.w3.org/1999/xlink" x="0px" y="0px"
	 width="588.141px" height="289px" viewBox="7.14 68.01 588.141 289" enable-background="new 7.14 68.01 588.141 289"
	 xml:space="preserve">
<g>
	<polygon fill="#DFDBBB" points="589.066,239.588 587.726,248.855 200.189,353.024 16.205,90.76 17.546,81.491 	"/>
	<polygon fill="#FFFFFF" stroke="#D1D3D4" stroke-width="1.2231" points="17.546,81.491 487.868,74.785 589.066,239.588 
		201.531,343.756 	"/>
	<g>
		<g>
			<polygon fill="#DFDBBB" points="60.878,105.69 45.68,106.13 33.782,88.976 49.156,88.755 			"/>
			<polygon fill="#DFDBBB" points="79.113,105.159 63.916,105.601 52.23,88.711 67.604,88.491 			"/>
			<polygon fill="#DFDBBB" points="97.349,104.628 82.152,105.069 70.679,88.448 86.053,88.227 			"/>
			<polygon fill="#DFDBBB" points="115.584,104.096 100.388,104.541 89.128,88.183 104.501,87.962 			"/>
			<polygon fill="#DFDBBB" points="133.821,103.567 118.625,104.008 107.577,87.917 122.95,87.698 			"/>
			<polygon fill="#DFDBBB" points="152.056,103.037 136.859,103.479 126.024,87.654 141.398,87.434 			"/>
			<polygon fill="#DFDBBB" points="173.332,102.418 158.136,102.859 147.548,87.346 162.92,87.125 			"/>
			<polygon fill="#DFDBBB" points="191.567,101.887 176.371,102.329 165.996,87.08 181.37,86.861 			"/>
			<polygon fill="#DFDBBB" points="209.804,101.357 194.607,101.798 184.443,86.817 199.819,86.597 			"/>
			<polygon fill="#DFDBBB" points="228.04,100.826 212.843,101.269 202.893,86.554 218.266,86.33 			"/>
			<polygon fill="#DFDBBB" points="246.276,100.295 231.079,100.739 221.341,86.289 236.715,86.068 			"/>
			<polygon fill="#DFDBBB" points="264.511,99.766 249.314,100.208 239.79,86.022 255.164,85.802 			"/>
			<polygon fill="#DFDBBB" points="285.788,99.146 270.59,99.588 261.313,85.716 276.688,85.496 			"/>
			<polygon fill="#DFDBBB" points="304.023,98.616 288.826,99.059 279.761,85.452 295.135,85.231 			"/>
			<polygon fill="#DFDBBB" points="322.259,98.085 307.063,98.526 298.21,85.185 313.583,84.965 			"/>
			<polygon fill="#DFDBBB" points="340.495,97.555 325.298,97.998 316.658,84.923 332.031,84.703 			"/>
			<polygon fill="#DFDBBB" points="358.73,97.023 343.534,97.467 335.106,84.656 350.479,84.438 			"/>
			<polygon fill="#DFDBBB" points="376.966,96.494 361.77,96.937 353.555,84.394 368.929,84.173 			"/>
			<polygon fill="#DFDBBB" points="398.241,95.875 383.043,96.316 375.077,84.086 390.453,83.866 			"/>
			<polygon fill="#DFDBBB" points="416.478,95.345 401.281,95.788 393.526,83.819 408.902,83.599 			"/>
			<polygon fill="#DFDBBB" points="434.713,94.813 419.517,95.255 411.975,83.557 427.347,83.336 			"/>
			<polygon fill="#DFDBBB" points="452.948,94.283 437.753,94.727 430.423,83.291 445.796,83.071 			"/>
			<polygon fill="#DFDBBB" points="471.184,93.754 455.989,94.195 448.871,83.028 464.246,82.808 			"/>
			<polygon fill="#DFDBBB" points="489.422,93.224 474.225,93.666 467.32,82.762 482.693,82.542 			"/>
		</g>
		<g>
			<polygon fill="#DFDBBB" points="74.942,126.01 59.958,126.717 48.061,109.563 63.223,109.075 			"/>
			<polygon fill="#DFDBBB" points="92.923,125.159 77.938,125.867 66.253,108.979 81.415,108.494 			"/>
			<polygon fill="#DFDBBB" points="110.905,124.311 95.919,125.019 84.448,108.394 99.607,107.908 			"/>
			<polygon fill="#DFDBBB" points="128.885,123.459 113.901,124.166 102.641,107.813 117.8,107.326 			"/>
			<polygon fill="#DFDBBB" points="146.866,122.61 131.881,123.318 120.833,107.227 135.995,106.739 			"/>
			<polygon fill="#DFDBBB" points="164.847,121.76 149.862,122.47 139.027,106.645 154.188,106.157 			"/>
			<polygon fill="#DFDBBB" points="185.825,120.77 170.84,121.477 160.252,105.963 175.413,105.477 			"/>
			<polygon fill="#DFDBBB" points="203.805,119.919 188.822,120.627 178.447,105.379 193.608,104.893 			"/>
			<polygon fill="#DFDBBB" points="221.787,119.069 206.803,119.776 196.64,104.796 211.801,104.309 			"/>
			<polygon fill="#DFDBBB" points="239.768,118.221 224.783,118.929 214.833,104.212 229.994,103.725 			"/>
			<polygon fill="#DFDBBB" points="257.749,117.368 242.764,118.076 233.026,103.628 248.188,103.141 			"/>
			<polygon fill="#DFDBBB" points="275.729,116.52 260.746,117.228 251.219,103.044 266.381,102.559 			"/>
			<polygon fill="#DFDBBB" points="296.708,115.529 281.723,116.236 272.446,102.363 287.607,101.877 			"/>
			<polygon fill="#DFDBBB" points="314.688,114.679 299.704,115.386 290.64,101.779 305.801,101.292 			"/>
			<polygon fill="#DFDBBB" points="332.67,113.83 317.686,114.538 308.833,101.197 323.994,100.71 			"/>
			<polygon fill="#DFDBBB" points="350.65,112.979 335.666,113.688 327.026,100.613 342.188,100.126 			"/>
			<polygon fill="#DFDBBB" points="368.632,112.13 353.647,112.838 345.22,100.029 360.382,99.542 			"/>
			<polygon fill="#DFDBBB" points="386.61,111.28 371.629,111.987 363.412,99.443 378.574,98.958 			"/>
			<polygon fill="#DFDBBB" points="407.591,110.289 392.605,110.997 384.639,98.764 399.8,98.278 			"/>
			<polygon fill="#DFDBBB" points="425.571,109.438 410.585,110.146 402.832,98.181 417.992,97.694 			"/>
			<polygon fill="#DFDBBB" points="443.552,108.588 428.569,109.295 421.025,97.596 436.186,97.111 			"/>
			<polygon fill="#DFDBBB" points="461.533,107.74 446.548,108.447 439.218,97.012 454.379,96.525 			"/>
			<polygon fill="#DFDBBB" points="479.513,106.89 464.53,107.597 457.41,96.431 472.572,95.943 			"/>
			<polygon fill="#DFDBBB" points="497.496,106.04 482.51,106.747 475.604,95.845 490.765,95.359 			"/>
		</g>
		<g>
			<polygon fill="#DFDBBB" points="89.007,146.329 74.235,147.303 62.337,130.148 77.286,129.397 			"/>
			<polygon fill="#DFDBBB" points="106.732,145.162 91.961,146.136 80.277,129.245 95.224,128.492 			"/>
			<polygon fill="#DFDBBB" points="124.459,143.992 109.687,144.966 98.214,128.343 113.163,127.59 			"/>
			<polygon fill="#DFDBBB" points="142.185,142.822 127.413,143.796 116.152,127.438 131.101,126.688 			"/>
			<polygon fill="#DFDBBB" points="159.912,141.654 145.139,142.628 134.091,126.537 149.041,125.784 			"/>
			<polygon fill="#DFDBBB" points="177.637,140.484 162.865,141.458 152.029,125.635 166.979,124.882 			"/>
			<polygon fill="#DFDBBB" points="198.319,139.121 183.546,140.094 172.958,124.581 187.908,123.828 			"/>
			<polygon fill="#DFDBBB" points="216.044,137.95 201.271,138.926 190.897,123.676 205.846,122.926 			"/>
			<polygon fill="#DFDBBB" points="233.769,136.781 218.999,137.754 208.836,122.774 223.785,122.021 			"/>
			<polygon fill="#DFDBBB" points="251.496,135.612 236.724,136.587 226.774,121.872 241.722,121.119 			"/>
			<polygon fill="#DFDBBB" points="269.222,134.443 254.45,135.417 244.712,120.967 259.66,120.215 			"/>
			<polygon fill="#DFDBBB" points="286.948,133.276 272.177,134.247 262.651,120.065 277.598,119.313 			"/>
			<polygon fill="#DFDBBB" points="307.629,131.912 292.856,132.886 283.579,119.011 298.528,118.258 			"/>
			<polygon fill="#DFDBBB" points="325.354,130.742 310.583,131.716 301.518,118.108 316.466,117.356 			"/>
			<polygon fill="#DFDBBB" points="343.08,129.572 328.309,130.546 319.456,117.205 334.405,116.452 			"/>
			<polygon fill="#DFDBBB" points="360.806,128.404 346.034,129.378 337.396,116.303 352.344,115.55 			"/>
			<polygon fill="#DFDBBB" points="378.529,127.234 363.761,128.208 355.333,115.399 370.282,114.648 			"/>
			<polygon fill="#DFDBBB" points="396.258,126.065 381.486,127.039 373.272,114.496 388.219,113.743 			"/>
			<polygon fill="#DFDBBB" points="416.938,124.703 402.167,125.676 394.199,113.443 409.148,112.689 			"/>
			<polygon fill="#DFDBBB" points="434.664,123.531 419.893,124.504 412.139,112.542 427.087,111.787 			"/>
			<polygon fill="#DFDBBB" points="452.39,122.363 437.618,123.337 430.076,111.635 445.025,110.886 			"/>
			<polygon fill="#DFDBBB" points="470.116,121.194 455.344,122.169 448.016,110.734 462.964,109.98 			"/>
			<polygon fill="#DFDBBB" points="487.843,120.026 473.071,120.999 465.954,109.833 480.902,109.079 			"/>
			<polygon fill="#DFDBBB" points="505.569,118.856 490.797,119.83 483.892,108.926 498.841,108.175 			"/>
		</g>
		<g>
			<polygon fill="#DFDBBB" points="103.073,166.65 88.511,167.891 76.615,150.734 91.351,149.717 			"/>
			<polygon fill="#DFDBBB" points="120.542,165.162 105.983,166.402 94.298,149.513 109.036,148.494 			"/>
			<polygon fill="#DFDBBB" points="138.015,163.673 123.455,164.913 111.982,148.291 126.718,147.271 			"/>
			<polygon fill="#DFDBBB" points="155.484,162.185 140.926,163.425 129.665,147.067 144.403,146.048 			"/>
			<polygon fill="#DFDBBB" points="172.956,160.696 158.396,161.936 147.349,145.846 162.085,144.827 			"/>
			<polygon fill="#DFDBBB" points="190.428,159.208 175.868,160.446 165.032,144.624 179.77,143.605 			"/>
			<polygon fill="#DFDBBB" points="210.81,157.472 196.251,158.712 185.663,143.199 200.4,142.179 			"/>
			<polygon fill="#DFDBBB" points="228.281,155.982 213.723,157.225 203.346,141.974 218.084,140.958 			"/>
			<polygon fill="#DFDBBB" points="245.752,154.494 231.194,155.733 221.032,140.752 235.766,139.733 			"/>
			<polygon fill="#DFDBBB" points="263.224,153.006 248.665,154.246 238.714,139.529 253.45,138.512 			"/>
			<polygon fill="#DFDBBB" points="280.695,151.518 266.136,152.758 256.397,138.307 271.133,137.289 			"/>
			<polygon fill="#DFDBBB" points="298.166,150.031 283.605,151.271 274.081,137.085 288.818,136.065 			"/>
			<polygon fill="#DFDBBB" points="318.549,148.292 303.99,149.533 294.711,135.659 309.448,134.641 			"/>
			<polygon fill="#DFDBBB" points="336.02,146.805 321.46,148.045 312.396,134.437 327.131,133.418 			"/>
			<polygon fill="#DFDBBB" points="353.49,145.315 338.932,146.558 330.079,133.216 344.815,132.196 			"/>
			<polygon fill="#DFDBBB" points="370.962,143.829 356.402,145.068 347.764,131.992 362.498,130.974 			"/>
			<polygon fill="#DFDBBB" points="388.433,142.339 373.874,143.579 365.446,130.77 380.182,129.751 			"/>
			<polygon fill="#DFDBBB" points="405.903,140.852 391.345,142.091 383.129,129.549 397.865,128.529 			"/>
			<polygon fill="#DFDBBB" points="426.285,139.113 411.728,140.353 403.76,128.123 418.497,127.103 			"/>
			<polygon fill="#DFDBBB" points="443.758,137.625 429.199,138.865 421.443,126.902 436.181,125.882 			"/>
			<polygon fill="#DFDBBB" points="461.229,136.138 446.671,137.378 439.127,125.676 453.863,124.659 			"/>
			<polygon fill="#DFDBBB" points="478.7,134.651 464.142,135.891 456.81,124.456 471.547,123.436 			"/>
			<polygon fill="#DFDBBB" points="496.172,133.161 481.612,134.401 474.494,123.232 489.231,122.215 			"/>
			<polygon fill="#DFDBBB" points="513.642,131.672 499.084,132.912 492.177,122.009 506.915,120.992 			"/>
		</g>
		<g>
			<polygon fill="#DFDBBB" points="117.137,186.969 102.79,188.476 90.892,171.321 105.416,170.037 			"/>
			<polygon fill="#DFDBBB" points="134.353,185.162 120.006,186.668 108.321,169.78 122.845,168.496 			"/>
			<polygon fill="#DFDBBB" points="151.569,183.355 137.222,184.861 125.749,168.237 140.274,166.952 			"/>
			<polygon fill="#DFDBBB" points="168.785,181.548 154.438,183.053 143.178,166.697 157.702,165.41 			"/>
			<polygon fill="#DFDBBB" points="186.002,179.739 171.654,181.244 160.606,165.156 175.13,163.871 			"/>
			<polygon fill="#DFDBBB" points="203.217,177.93 188.87,179.439 178.035,163.613 192.559,162.328 			"/>
			<polygon fill="#DFDBBB" points="223.303,175.823 208.957,177.329 198.368,161.814 212.892,160.53 			"/>
			<polygon fill="#DFDBBB" points="240.519,174.014 226.173,175.521 215.797,160.271 230.321,158.988 			"/>
			<polygon fill="#DFDBBB" points="257.735,172.207 243.388,173.713 233.226,158.73 247.749,157.445 			"/>
			<polygon fill="#DFDBBB" points="274.952,170.4 260.604,171.904 250.653,157.19 265.178,155.905 			"/>
			<polygon fill="#DFDBBB" points="292.168,168.591 277.821,170.097 268.082,155.649 282.607,154.364 			"/>
			<polygon fill="#DFDBBB" points="309.385,166.785 295.037,168.291 285.511,154.104 300.035,152.823 			"/>
			<polygon fill="#DFDBBB" points="329.469,164.675 315.122,166.181 305.846,152.309 320.37,151.023 			"/>
			<polygon fill="#DFDBBB" points="346.685,162.867 332.339,164.373 323.274,150.766 337.798,149.48 			"/>
			<polygon fill="#DFDBBB" points="363.901,161.059 349.556,162.565 340.703,149.225 355.227,147.941 			"/>
			<polygon fill="#DFDBBB" points="381.117,159.251 366.771,160.759 358.131,147.684 372.653,146.398 			"/>
			<polygon fill="#DFDBBB" points="398.332,157.443 383.988,158.952 375.558,146.141 390.083,144.857 			"/>
			<polygon fill="#DFDBBB" points="415.55,155.636 401.203,157.143 392.987,144.598 407.512,143.317 			"/>
			<polygon fill="#DFDBBB" points="435.635,153.527 421.288,155.033 413.322,142.801 427.847,141.517 			"/>
			<polygon fill="#DFDBBB" points="452.853,151.72 438.504,153.226 430.749,141.258 445.275,139.975 			"/>
			<polygon fill="#DFDBBB" points="470.068,149.913 455.72,151.417 448.178,139.718 462.703,138.432 			"/>
			<polygon fill="#DFDBBB" points="487.284,148.104 472.936,149.61 465.608,138.177 480.133,136.891 			"/>
			<polygon fill="#DFDBBB" points="504.5,146.295 490.154,147.803 483.035,136.634 497.561,135.351 			"/>
			<polygon fill="#DFDBBB" points="521.717,144.488 507.368,145.995 500.464,135.094 514.988,133.808 			"/>
		</g>
		<g>
			<polygon fill="#DFDBBB" points="131.202,207.291 117.068,209.063 105.169,191.906 119.481,190.357 			"/>
			<polygon fill="#DFDBBB" points="148.162,205.162 134.029,206.938 122.343,190.046 136.654,188.494 			"/>
			<polygon fill="#DFDBBB" points="165.125,203.036 150.99,204.809 139.517,188.186 153.828,186.634 			"/>
			<polygon fill="#DFDBBB" points="182.085,200.907 167.95,202.68 156.69,186.326 171.001,184.773 			"/>
			<polygon fill="#DFDBBB" points="199.047,198.783 184.912,200.556 173.864,184.462 188.175,182.913 			"/>
			<polygon fill="#DFDBBB" points="216.008,196.654 201.873,198.426 191.037,182.602 205.35,181.053 			"/>
			<polygon fill="#DFDBBB" points="235.796,194.173 221.661,195.946 211.073,180.431 225.386,178.882 			"/>
			<polygon fill="#DFDBBB" points="252.758,192.047 238.623,193.82 228.248,178.569 242.559,177.02 			"/>
			<polygon fill="#DFDBBB" points="269.718,189.918 255.583,191.693 245.42,176.709 259.732,175.16 			"/>
			<polygon fill="#DFDBBB" points="286.68,187.794 272.545,189.565 262.595,174.849 276.906,173.297 			"/>
			<polygon fill="#DFDBBB" points="303.642,185.664 289.507,187.437 279.769,172.989 294.081,171.436 			"/>
			<polygon fill="#DFDBBB" points="320.602,183.538 306.467,185.311 296.942,171.128 311.254,169.576 			"/>
			<polygon fill="#DFDBBB" points="340.391,181.058 326.257,182.831 316.979,168.956 331.29,167.405 			"/>
			<polygon fill="#DFDBBB" points="357.352,178.931 343.217,180.703 334.152,167.096 348.463,165.544 			"/>
			<polygon fill="#DFDBBB" points="374.312,176.805 360.178,178.576 351.325,165.234 365.637,163.684 			"/>
			<polygon fill="#DFDBBB" points="391.273,174.676 377.138,176.448 368.499,163.372 382.811,161.824 			"/>
			<polygon fill="#DFDBBB" points="408.234,172.55 394.102,174.32 385.672,161.512 399.984,159.961 			"/>
			<polygon fill="#DFDBBB" points="425.196,170.421 411.061,172.193 402.847,159.651 417.157,158.099 			"/>
			<polygon fill="#DFDBBB" points="444.985,167.94 430.849,169.713 422.884,157.479 437.194,155.929 			"/>
			<polygon fill="#DFDBBB" points="461.947,165.814 447.811,167.586 440.055,155.619 454.368,154.069 			"/>
			<polygon fill="#DFDBBB" points="478.906,163.688 464.773,165.46 457.229,153.759 471.542,152.207 			"/>
			<polygon fill="#DFDBBB" points="495.867,161.559 481.733,163.332 474.403,151.898 488.713,150.347 			"/>
			<polygon fill="#DFDBBB" points="512.829,159.433 498.695,161.206 491.578,150.037 505.887,148.486 			"/>
			<polygon fill="#DFDBBB" points="529.788,157.306 515.656,159.079 508.749,148.174 523.063,146.625 			"/>
		</g>
		<g>
			<polygon fill="#DFDBBB" points="147.611,230.997 133.724,233.079 121.828,215.925 135.889,214.063 			"/>
			<polygon fill="#DFDBBB" points="164.275,228.5 150.388,230.581 138.703,213.689 152.767,211.831 			"/>
			<polygon fill="#DFDBBB" points="180.939,225.999 167.052,228.083 155.579,211.458 169.642,209.598 			"/>
			<polygon fill="#DFDBBB" points="197.603,223.499 183.715,225.583 172.455,209.225 186.519,207.363 			"/>
			<polygon fill="#DFDBBB" points="214.267,220.999 200.379,223.083 189.332,206.99 203.395,205.129 			"/>
			<polygon fill="#DFDBBB" points="230.93,218.499 217.043,220.583 206.207,204.757 220.271,202.897 			"/>
			<polygon fill="#DFDBBB" points="250.372,215.583 236.484,217.666 225.897,202.152 239.961,200.291 			"/>
			<polygon fill="#DFDBBB" points="267.035,213.084 253.148,215.167 242.773,199.918 256.836,198.058 			"/>
			<polygon fill="#DFDBBB" points="283.699,210.585 269.813,212.666 259.649,197.685 273.713,195.823 			"/>
			<polygon fill="#DFDBBB" points="300.363,208.086 286.476,210.166 276.526,195.452 290.589,193.59 			"/>
			<polygon fill="#DFDBBB" points="317.025,205.586 303.141,207.668 293.402,193.22 307.466,191.356 			"/>
			<polygon fill="#DFDBBB" points="333.689,203.087 319.803,205.168 310.278,190.986 324.341,189.122 			"/>
			<polygon fill="#DFDBBB" points="353.131,200.17 339.244,202.254 329.967,188.38 344.031,186.519 			"/>
			<polygon fill="#DFDBBB" points="369.795,197.67 355.907,199.752 346.842,186.145 360.906,184.283 			"/>
			<polygon fill="#DFDBBB" points="386.458,195.171 372.571,197.253 363.72,183.912 377.783,182.05 			"/>
			<polygon fill="#DFDBBB" points="403.122,192.671 389.234,194.754 380.597,181.678 394.657,179.817 			"/>
			<polygon fill="#DFDBBB" points="419.786,190.173 405.899,192.255 397.472,179.444 411.535,177.584 			"/>
			<polygon fill="#DFDBBB" points="436.448,187.673 422.563,189.755 414.346,177.211 428.411,175.351 			"/>
			<polygon fill="#DFDBBB" points="455.892,184.755 442.004,186.839 434.036,174.605 448.1,172.746 			"/>
			<polygon fill="#DFDBBB" points="472.553,182.256 458.668,184.34 450.912,172.372 464.976,170.512 			"/>
			<polygon fill="#DFDBBB" points="489.218,179.756 475.33,181.841 467.788,170.14 481.853,168.279 			"/>
			<polygon fill="#DFDBBB" points="505.882,177.256 491.994,179.34 484.665,167.907 498.729,166.044 			"/>
			<polygon fill="#DFDBBB" points="522.546,174.758 508.658,176.84 501.541,165.673 515.604,163.811 			"/>
			<polygon fill="#DFDBBB" points="539.21,172.258 525.323,174.341 518.417,163.44 532.483,161.577 			"/>
		</g>
		<g>
			<polygon fill="#DFDBBB" points="161.677,251.316 148.002,253.669 136.104,236.514 149.955,234.384 			"/>
			<polygon fill="#DFDBBB" points="178.085,248.499 164.411,250.848 152.726,233.958 166.577,231.83 			"/>
			<polygon fill="#DFDBBB" points="194.494,245.678 180.819,248.029 169.346,231.404 183.198,229.277 			"/>
			<polygon fill="#DFDBBB" points="210.904,242.861 197.229,245.211 185.968,228.854 199.819,226.725 			"/>
			<polygon fill="#DFDBBB" points="227.311,240.041 213.638,242.393 202.588,226.301 216.44,224.173 			"/>
			<polygon fill="#DFDBBB" points="243.72,237.225 230.046,239.573 219.21,223.746 233.062,221.621 			"/>
			<polygon fill="#DFDBBB" points="262.865,233.938 249.19,236.284 238.603,220.77 252.454,218.645 			"/>
			<polygon fill="#DFDBBB" points="279.272,231.115 265.599,233.466 255.224,218.215 269.075,216.089 			"/>
			<polygon fill="#DFDBBB" points="295.681,228.299 282.008,230.645 271.845,215.664 285.696,213.535 			"/>
			<polygon fill="#DFDBBB" points="312.09,225.479 298.416,227.826 288.466,213.109 302.316,210.984 			"/>
			<polygon fill="#DFDBBB" points="328.5,222.659 314.825,225.008 305.087,210.559 318.938,208.432 			"/>
			<polygon fill="#DFDBBB" points="344.907,219.841 331.233,222.189 321.709,208.006 335.559,205.877 			"/>
			<polygon fill="#DFDBBB" points="364.053,216.552 350.378,218.9 341.1,205.027 354.951,202.901 			"/>
			<polygon fill="#DFDBBB" points="380.462,213.732 366.788,216.082 357.722,202.474 371.57,200.348 			"/>
			<polygon fill="#DFDBBB" points="396.869,210.914 383.193,213.264 374.342,199.922 388.192,197.795 			"/>
			<polygon fill="#DFDBBB" points="413.278,208.096 399.604,210.443 390.961,197.369 404.816,195.243 			"/>
			<polygon fill="#DFDBBB" points="429.685,205.276 416.013,207.625 407.584,194.817 421.436,192.689 			"/>
			<polygon fill="#DFDBBB" points="446.095,202.459 432.42,204.807 424.204,192.263 438.058,190.137 			"/>
			<polygon fill="#DFDBBB" points="465.238,199.169 451.565,201.518 443.599,189.286 457.447,187.157 			"/>
			<polygon fill="#DFDBBB" points="481.647,196.35 467.974,198.699 460.218,186.733 474.07,184.606 			"/>
			<polygon fill="#DFDBBB" points="498.056,193.531 484.382,195.881 476.84,184.181 490.692,182.052 			"/>
			<polygon fill="#DFDBBB" points="514.466,190.712 500.791,193.061 493.46,181.626 507.315,179.5 			"/>
			<polygon fill="#DFDBBB" points="530.875,187.894 517.2,190.243 510.083,179.075 523.935,176.947 			"/>
			<polygon fill="#DFDBBB" points="547.284,185.074 533.608,187.424 526.703,176.523 540.555,174.393 			"/>
		</g>
		<g>
			<polygon fill="#DFDBBB" points="175.741,271.639 162.28,274.254 150.381,257.098 164.02,254.702 			"/>
			<polygon fill="#DFDBBB" points="191.895,268.499 178.433,271.114 166.748,254.225 180.386,251.832 			"/>
			<polygon fill="#DFDBBB" points="208.048,265.361 194.587,267.979 183.114,251.354 196.753,248.96 			"/>
			<polygon fill="#DFDBBB" points="224.203,262.225 210.742,264.838 199.481,248.482 213.119,246.087 			"/>
			<polygon fill="#DFDBBB" points="240.357,259.086 226.896,261.701 215.847,245.609 229.486,243.217 			"/>
			<polygon fill="#DFDBBB" points="256.511,255.945 243.048,258.563 232.213,242.736 245.852,240.346 			"/>
			<polygon fill="#DFDBBB" points="275.357,252.285 261.895,254.9 251.308,239.385 264.946,236.992 			"/>
			<polygon fill="#DFDBBB" points="291.51,249.148 278.049,251.764 267.674,236.516 281.313,234.12 			"/>
			<polygon fill="#DFDBBB" points="307.665,246.009 294.202,248.624 284.04,233.643 297.678,231.25 			"/>
			<polygon fill="#DFDBBB" points="323.818,242.869 310.355,245.486 300.406,230.771 314.044,228.377 			"/>
			<polygon fill="#DFDBBB" points="339.973,239.732 326.511,242.348 316.772,227.898 330.412,225.505 			"/>
			<polygon fill="#DFDBBB" points="356.127,236.596 342.665,239.208 333.141,225.023 346.777,222.633 			"/>
			<polygon fill="#DFDBBB" points="374.971,232.936 361.512,235.55 352.233,221.675 365.87,219.279 			"/>
			<polygon fill="#DFDBBB" points="391.126,229.795 377.664,232.413 368.599,218.803 382.237,216.41 			"/>
			<polygon fill="#DFDBBB" points="407.28,226.658 393.817,229.271 384.965,215.934 398.604,213.537 			"/>
			<polygon fill="#DFDBBB" points="423.433,223.52 409.972,226.134 401.331,213.061 414.971,210.665 			"/>
			<polygon fill="#DFDBBB" points="439.586,220.382 426.126,222.997 417.698,210.186 431.336,207.794 			"/>
			<polygon fill="#DFDBBB" points="455.742,217.242 442.279,219.857 434.063,207.316 447.703,204.922 			"/>
			<polygon fill="#DFDBBB" points="474.587,213.582 461.126,216.197 453.158,203.964 466.799,201.571 			"/>
			<polygon fill="#DFDBBB" points="490.74,210.443 477.281,213.059 469.526,201.091 483.163,198.699 			"/>
			<polygon fill="#DFDBBB" points="506.897,207.307 493.432,209.919 485.89,198.22 499.53,195.826 			"/>
			<polygon fill="#DFDBBB" points="523.049,204.167 509.586,206.782 502.259,195.347 515.895,192.955 			"/>
			<polygon fill="#DFDBBB" points="539.204,201.029 525.741,203.644 518.624,192.475 532.262,190.082 			"/>
			<polygon fill="#DFDBBB" points="555.357,197.891 541.897,200.505 534.99,189.604 548.629,187.21 			"/>
		</g>
		<g>
			<polygon fill="#DFDBBB" points="189.806,291.956 176.558,294.841 164.659,277.686 178.086,275.023 			"/>
			<polygon fill="#DFDBBB" points="205.705,288.498 192.457,291.381 180.771,274.493 194.197,271.834 			"/>
			<polygon fill="#DFDBBB" points="221.604,285.045 208.354,287.925 196.883,271.3 210.308,268.645 			"/>
			<polygon fill="#DFDBBB" points="237.503,281.585 224.253,284.468 212.994,268.109 226.419,265.45 			"/>
			<polygon fill="#DFDBBB" points="253.402,278.128 240.152,281.01 229.104,264.919 242.53,262.259 			"/>
			<polygon fill="#DFDBBB" points="269.301,274.672 256.052,277.552 245.216,261.729 258.642,259.068 			"/>
			<polygon fill="#DFDBBB" points="287.85,270.637 274.6,273.52 264.013,258.003 277.439,255.346 			"/>
			<polygon fill="#DFDBBB" points="303.749,267.182 290.499,270.063 280.124,254.813 293.551,252.152 			"/>
			<polygon fill="#DFDBBB" points="319.647,263.721 306.399,266.604 296.235,251.619 309.66,248.96 			"/>
			<polygon fill="#DFDBBB" points="335.546,260.266 322.297,263.146 312.346,248.432 325.773,245.771 			"/>
			<polygon fill="#DFDBBB" points="351.445,256.809 338.195,259.688 328.457,245.236 341.883,242.58 			"/>
			<polygon fill="#DFDBBB" points="367.345,253.352 354.095,256.23 344.569,242.047 357.996,239.387 			"/>
			<polygon fill="#DFDBBB" points="385.891,249.316 372.644,252.199 363.365,238.322 376.791,235.662 			"/>
			<polygon fill="#DFDBBB" points="401.792,245.859 388.543,248.739 379.479,235.131 392.904,232.475 			"/>
			<polygon fill="#DFDBBB" points="417.69,242.4 404.441,245.281 395.588,231.939 409.015,229.283 			"/>
			<polygon fill="#DFDBBB" points="433.59,238.943 420.341,241.824 411.701,228.75 425.128,226.09 			"/>
			<polygon fill="#DFDBBB" points="449.489,235.486 436.239,238.366 427.811,225.559 441.238,222.898 			"/>
			<polygon fill="#DFDBBB" points="465.388,232.027 452.137,234.911 443.924,222.365 457.351,219.708 			"/>
			<polygon fill="#DFDBBB" points="483.938,227.995 470.688,230.875 462.719,218.645 476.147,215.982 			"/>
			<polygon fill="#DFDBBB" points="499.834,224.54 486.585,227.417 478.831,215.452 492.257,212.792 			"/>
			<polygon fill="#DFDBBB" points="515.735,221.08 502.485,223.962 494.942,212.261 508.367,209.6 			"/>
			<polygon fill="#DFDBBB" points="531.635,217.622 518.384,220.504 511.054,209.07 524.481,206.41 			"/>
			<polygon fill="#DFDBBB" points="547.531,214.165 534.284,217.047 527.163,205.877 540.59,203.219 			"/>
			<polygon fill="#DFDBBB" points="563.43,210.707 550.181,213.588 543.277,202.688 556.701,200.029 			"/>
		</g>
		<g>
			<polygon fill="#DFDBBB" points="203.872,312.276 190.834,315.426 178.937,298.271 192.15,295.346 			"/>
			<polygon fill="#DFDBBB" points="219.515,308.503 206.479,311.649 194.793,294.76 208.006,291.833 			"/>
			<polygon fill="#DFDBBB" points="235.158,304.725 222.122,307.873 210.648,291.251 223.863,288.324 			"/>
			<polygon fill="#DFDBBB" points="250.803,300.95 237.766,304.096 226.506,287.739 239.719,284.813 			"/>
			<polygon fill="#DFDBBB" points="266.447,297.172 253.41,300.318 242.361,284.229 255.575,281.305 			"/>
			<polygon fill="#DFDBBB" points="282.091,293.395 269.055,296.543 258.219,280.716 271.432,277.789 			"/>
			<polygon fill="#DFDBBB" points="300.343,288.988 287.306,292.135 276.718,276.621 289.933,273.695 			"/>
			<polygon fill="#DFDBBB" points="315.987,285.209 302.95,288.357 292.574,273.109 305.787,270.186 			"/>
			<polygon fill="#DFDBBB" points="331.63,281.436 318.595,284.58 308.431,269.602 321.645,266.675 			"/>
			<polygon fill="#DFDBBB" points="347.274,277.657 334.238,280.807 324.286,266.089 337.502,263.165 			"/>
			<polygon fill="#DFDBBB" points="362.919,273.884 349.882,277.027 340.143,262.577 353.357,259.652 			"/>
			<polygon fill="#DFDBBB" points="378.564,270.105 365.524,273.254 355.999,259.068 369.215,256.143 			"/>
			<polygon fill="#DFDBBB" points="396.813,265.699 383.776,268.848 374.498,254.973 387.713,252.045 			"/>
			<polygon fill="#DFDBBB" points="412.457,261.921 399.421,265.07 390.356,251.46 403.569,248.536 			"/>
			<polygon fill="#DFDBBB" points="428.102,258.143 415.065,261.292 406.211,247.951 419.425,245.023 			"/>
			<polygon fill="#DFDBBB" points="443.744,254.369 430.708,257.514 422.069,244.439 435.281,241.516 			"/>
			<polygon fill="#DFDBBB" points="459.389,250.591 446.353,253.739 437.925,240.93 451.139,238.004 			"/>
			<polygon fill="#DFDBBB" points="475.032,246.814 461.995,249.961 453.783,237.421 466.996,234.492 			"/>
			<polygon fill="#DFDBBB" points="493.283,242.409 480.247,245.557 472.281,233.32 485.493,230.396 			"/>
			<polygon fill="#DFDBBB" points="508.928,238.631 495.892,241.779 488.138,229.811 501.352,226.886 			"/>
			<polygon fill="#DFDBBB" points="524.573,234.854 511.536,238.001 503.992,226.303 517.207,223.377 			"/>
			<polygon fill="#DFDBBB" points="540.215,231.078 527.181,234.225 519.85,222.789 533.063,219.865 			"/>
			<polygon fill="#DFDBBB" points="555.86,227.303 542.823,230.445 535.706,219.279 548.92,216.354 			"/>
			<polygon fill="#DFDBBB" points="571.504,223.523 558.468,226.673 551.563,215.771 564.776,212.843 			"/>
		</g>
		<g>
			<polygon fill="#DFDBBB" points="217.937,332.599 205.111,336.013 193.214,318.856 206.215,315.665 			"/>
			<polygon fill="#DFDBBB" points="233.327,328.502 220.501,331.916 208.815,315.026 221.817,311.835 			"/>
			<polygon fill="#DFDBBB" points="248.714,324.407 235.89,327.821 224.417,311.198 237.418,308.006 			"/>
			<polygon fill="#DFDBBB" points="264.103,320.309 251.279,323.725 240.019,307.366 253.02,304.176 			"/>
			<polygon fill="#DFDBBB" points="279.492,316.214 266.668,319.628 255.619,303.539 268.621,300.343 			"/>
			<polygon fill="#DFDBBB" points="294.882,312.119 282.057,315.533 271.222,299.706 284.222,296.516 			"/>
			<polygon fill="#DFDBBB" points="312.835,307.34 300.011,310.751 289.423,295.236 302.425,292.047 			"/>
			<polygon fill="#DFDBBB" points="328.225,303.245 315.4,306.656 305.025,291.407 318.025,288.217 			"/>
			<polygon fill="#DFDBBB" points="343.612,299.148 330.789,302.563 320.626,287.58 333.626,284.387 			"/>
			<polygon fill="#DFDBBB" points="359.002,295.055 346.179,298.465 336.227,283.747 349.229,280.557 			"/>
			<polygon fill="#DFDBBB" points="374.392,290.954 361.566,294.368 351.83,279.918 364.83,276.727 			"/>
			<polygon fill="#DFDBBB" points="389.781,286.857 376.956,290.273 367.431,276.088 380.43,272.896 			"/>
			<polygon fill="#DFDBBB" points="407.735,282.08 394.91,285.493 385.631,271.621 398.633,268.43 			"/>
			<polygon fill="#DFDBBB" points="423.121,277.984 410.298,281.396 401.233,267.791 414.237,264.598 			"/>
			<polygon fill="#DFDBBB" points="438.513,273.889 425.688,277.302 416.835,263.961 429.836,260.771 			"/>
			<polygon fill="#DFDBBB" points="453.9,269.794 441.076,273.205 432.438,260.131 445.438,256.938 			"/>
			<polygon fill="#DFDBBB" points="469.289,265.693 456.466,269.107 448.038,256.301 461.038,253.107 			"/>
			<polygon fill="#DFDBBB" points="484.68,261.602 471.853,265.014 463.64,252.471 476.641,249.277 			"/>
			<polygon fill="#DFDBBB" points="502.633,256.82 489.808,260.234 481.841,248 494.843,244.813 			"/>
			<polygon fill="#DFDBBB" points="518.022,252.727 505.198,256.141 497.442,244.172 510.443,240.979 			"/>
			<polygon fill="#DFDBBB" points="533.411,248.629 520.587,252.043 513.042,240.342 526.045,237.148 			"/>
			<polygon fill="#DFDBBB" points="548.801,244.534 535.976,247.948 528.645,236.514 541.647,233.318 			"/>
			<polygon fill="#DFDBBB" points="564.19,240.438 551.365,243.85 544.246,232.684 557.249,229.489 			"/>
			<polygon fill="#DFDBBB" points="579.576,236.341 566.753,239.752 559.85,228.854 572.85,225.659 			"/>
		</g>
	</g>
</g>
</svg>
