<?xml version="1.0" encoding="utf-8"?>
<!-- Generator: Adobe Illustrator 14.0.0, SVG Export Plug-In . SVG Version: 6.00 Build 43363)  -->
<!DOCTYPE svg PUBLIC "-//W3C//DTD SVG 1.1//EN" "http://www.w3.org/Graphics/SVG/1.1/DTD/svg11.dtd">
<svg version="1.1" id="Layer_1" xmlns="http://www.w3.org/2000/svg" xmlns:xlink="http://www.w3.org/1999/xlink" x="0px" y="0px"
	 width="578px" height="268px" viewBox="6.14 89.01 578 268" enable-background="new 6.14 89.01 578 268" xml:space="preserve">
<g>
	<path fill="#DFDBBB" stroke="#DFDBBB" stroke-width="2.9823" stroke-linecap="round" stroke-linejoin="round" d="M511.09,175.978
		c1.238-3.024-0.078-6.534-2.949-7.843c-0.439-0.208-0.901-0.325-1.353-0.406l-0.01-0.067l-0.303,0.035
		c-0.888-0.098-1.783,0.007-2.598,0.338l-50.613,6.516c0.976,2.862,2.009,5.736,3.103,8.616l41.627-5.358l-19.55,47.562
		c1.314,1.799,2.666,3.581,4.069,5.29c0.416,0.512,0.828,0.979,1.249,1.479l-8.636,1.279l-2.63,6.408l13.144-1.939L511.09,175.978z"
		/>
	<g>
		<path fill="#DFDBBB" d="M103.47,225.011l1.901-5.184l76.998-9.916l2.317,6.342c7.466,20.42,16.464,37.133,26.747,49.683
			l1.587,1.857l9.688,11.572L71.941,301.702L103.47,225.011z"/>
		<path fill="#DFDBBB" d="M64.859,298.064c-0.813-0.943-1.621-1.888-2.435-2.873c-38.59-47.104-46.282-127.663-46.591-131.068
			l-0.727-7.994l151.233-21.635l1.036,8.581c1.205,10.009,5.028,36.354,14.404,64.807l3.203,9.726l-76.583,9.858l-30.144,73.328
			l-9.854,1.406L64.859,298.064z"/>
		<path fill="#DFDBBB" d="M308.494,194.884c-10.423-30.454-14.606-59.165-15.924-70.094l-0.987-8.209l149.668-20.924l0.812,8.857
			c0.028,0.333,4.258,37.679,16.121,72.568l2.249,5.615l-149.711,18.717L308.494,194.884z"/>
		<path fill="#DFDBBB" d="M338.323,252.488c-10.236-12.811-19.198-29.193-26.625-48.711l-3.816-10.022l71.958-9.258l-32.557,79.205
			L338.323,252.488z"/>
		<path fill="#DFDBBB" d="M370.865,191.886l0.87-6.128l6.411-1.051l78.695-10.49l2.369,6.235
			c6.013,15.847,13.078,29.38,20.999,40.22l2.795,3.824l-1.888,16.582l-138.935,20.584L370.865,191.886z"/>
		<path fill="#DFDBBB" d="M170.013,212.646c-9.923-29.795-13.952-57.589-15.219-68.152l-0.985-8.209l150.306-21.496l1.04,8.575
			c1.26,10.378,5.24,37.646,15.037,66.64l3.304,9.772l-151.284,19.469L170.013,212.646z"/>
		<path fill="#DFDBBB" d="M202.015,274.251l-0.396-0.466c-11.052-13.493-20.616-31.051-28.475-52.249l-3.692-9.966l75.809-9.75
			l-34.273,83.36L202.015,274.251z"/>
		<path fill="#DFDBBB" d="M236.697,208.188l1.533-5.467l82.598-10.634l2.352,6.269c7.301,19.439,16.021,35.422,25.925,47.5
			l3.604,4.19l-1.854,4.963l-2.358,5.712l-142.051,21.053L236.697,208.188z"/>
		<path fill="#DFDBBB" d="M164.126,350.793c-10.828,0.613-49.319-0.646-90.081-42.62c-1.249-1.28-3.545-3.646-4.796-5.006
			l-8.593-11.651l20.884-2.301l132.848-19.688l3.036,3.384c1.282,1.432,2.559,2.769,3.834,4.11
			c26.375,27.748,50.949,36.801,66.922,39.506l-0.216,16.704l-120.54,17.247c0.005,0,0.005,0,0.005,0
			C167.444,350.477,166.256,350.674,164.126,350.793L164.126,350.793z"/>
		<path fill="#DFDBBB" d="M441.65,309.664c-11.395,0.644-51.861-0.799-94.108-46.501l-10.868-11.757l152.968-18.512l3.641,4.104
			c37.603,42.003,72.276,43.465,82.009,42.917c0.818-0.046,1.394-0.104,1.69-0.146l0.121-0.017l1.058,11.628l1.43-7.619
			l-1.612,7.641l-133.52,18c0.002,0,0.002,0,0.002,0C444.479,309.403,443.444,309.563,441.65,309.664L441.65,309.664z"/>
		<path fill="#DFDBBB" d="M305.146,330.671c-8.067,0.452-50.543,0.359-94.357-46.462l-3.72-3.969l4.235-10.254l140.511-20.814
			l3.037,3.405c0.569,0.637,1.14,1.241,1.704,1.842l1.102,1.179c27.386,29.381,52.956,38.519,69.573,41.004l-0.054,16.727
			l-119.98,17.159C307.053,330.506,306.397,330.595,305.146,330.671L305.146,330.671z"/>
	</g>
	<path fill="#DFDBBB" d="M482.515,230.66c-1.403-1.709-2.755-3.491-4.069-5.29l-3.316,8.049l8.636-1.28
		C483.343,231.641,482.931,231.172,482.515,230.66z"/>
	<g>
		<path fill="#FFFFFF" d="M319.597,200.771c-1.094-2.877-2.123-5.754-3.108-8.618l-4.305,0.557c0.976,2.862,2.001,5.738,3.084,8.616
			L319.597,200.771z"/>
		<path fill="#FFFFFF" d="M181.067,218.6c-1.065-2.881-2.079-5.759-3.032-8.623l-4.286,0.553c0.948,2.863,1.942,5.74,3.001,8.632
			L181.067,218.6z"/>
		<path fill="#FFFFFF" stroke="#FFFFFF" stroke-width="2.9823" stroke-linecap="round" stroke-linejoin="round" d="M111.457,227.822
			c0.035-0.094,0.046-0.182,0.077-0.271l65.216-8.392c-1.059-2.892-2.052-5.769-3.001-8.632l-69.902,9.002l0.063,0.511
			c-1.23,0.595-2.267,1.627-2.843,3.033l-30.109,69.071l7.487,8.535L111.457,227.822z"/>
		<path fill="#FFFFFF" stroke="#FFFFFF" stroke-width="2.9823" stroke-linecap="round" stroke-linejoin="round" d="M379.226,193.097
			l78.849-9.943c-1.097-2.881-2.13-5.754-3.102-8.617L316.49,192.152c0.984,2.864,2.015,5.741,3.107,8.618l46.896-6.035
			l-24.285,58.572c0.287,0.358,0.564,0.731,0.852,1.088c1.082,1.316,2.158,2.559,3.23,3.81l6.647-0.979l25.894-62.477
			C379.049,194.202,379.163,193.649,379.226,193.097z"/>
		<path fill="#FFFFFF" stroke="#FFFFFF" stroke-width="2.9823" stroke-linecap="round" stroke-linejoin="round" d="M231.904,212.057
			l-25.988,62.821c1.01,1.222,2.023,2.412,3.036,3.587l8.34-1.234l27.372-66.19c0.085-0.211,0.133-0.437,0.193-0.649l70.41-9.064
			c-1.083-2.877-2.108-5.754-3.084-8.616l-134.148,17.269c0.953,2.863,1.967,5.741,3.032,8.623L231.904,212.057z"/>
	</g>
	<path fill="#DFDBBB" d="M343.961,252.854c-0.308-0.369-0.61-0.719-0.923-1.074l-0.527,1.285L343.961,252.854z"/>
	<g>
		<path fill="#DFDBBB" stroke="#FFFFFF" stroke-width="2.9823" stroke-linecap="round" stroke-linejoin="round" d="M204.896,271.291
			c-12.248-14.945-21.375-33.615-28.146-52.131l-65.216,8.392c-0.031,0.089-0.042,0.179-0.077,0.271L83.39,290.787l123.146-17.571
			C205.991,272.563,205.446,271.957,204.896,271.291z"/>
		<path fill="#DFDBBB" stroke="#FFFFFF" stroke-width="2.9823" stroke-linecap="round" stroke-linejoin="round" d="M103.908,220.041
			l-0.063-0.512l69.902-9.002c-9.678-29.38-13.604-56.829-14.768-66.439L24.25,163.361c0,0,7.323,80.834,44.698,126.454
			c0.952,1.158,1.903,2.254,2.853,3.359l0.475-0.068l28.79-70.031C101.642,221.668,102.678,220.636,103.908,220.041z"/>
		<path fill="#DFDBBB" stroke="#FFFFFF" stroke-width="2.9823" stroke-linecap="round" stroke-linejoin="round" d="M437.813,104.204
			L300.964,123.78c1.179,9.775,5.274,38.388,15.523,68.372l136.777-17.602C440.905,138.211,437.813,104.204,437.813,104.204z"/>
		<path fill="#DFDBBB" stroke="#FFFFFF" stroke-width="2.9823" stroke-linecap="round" stroke-linejoin="round" d="M366.492,194.736
			l-46.896,6.035c6.299,16.542,14.565,32.979,25.326,46.435L366.492,194.736z"/>
		<path fill="#DFDBBB" stroke="#FFFFFF" stroke-width="2.9823" stroke-linecap="round" stroke-linejoin="round" d="M456.367,183.166
			l-77.143,9.931c-0.063,0.553-0.177,1.105-0.396,1.651l-23.178,56.372l119.476-17.7l7.941-1.369
			C473.83,219.4,461.984,197.962,456.367,183.166z"/>
		<path fill="#DFDBBB" stroke="#FFFFFF" stroke-width="2.9823" stroke-linecap="round" stroke-linejoin="round" d="M296.759,124.382
			l-133.573,19.103c1.141,9.455,5.067,37.116,14.85,66.492l134.148-17.268C302.043,162.698,297.963,134.313,296.759,124.382z"/>
		<path fill="#DFDBBB" stroke="#FFFFFF" stroke-width="2.9823" stroke-linecap="round" stroke-linejoin="round" d="M181.067,218.6
			c6.578,17.736,15.364,35.514,27.042,49.771c0.145,0.175,0.291,0.334,0.438,0.512l23.357-56.826L181.067,218.6z"/>
		<path fill="#DFDBBB" stroke="#FFFFFF" stroke-width="2.9823" stroke-linecap="round" stroke-linejoin="round" d="M315.268,201.325
			l-70.41,9.065c-0.061,0.213-0.108,0.438-0.193,0.648l-24.746,60.191l122.593-18.166l0.527-1.285
			c-0.16-0.187-0.316-0.366-0.479-0.563C330.813,236.88,321.939,219.102,315.268,201.325z"/>
		<path fill="#DFDBBB" stroke="#FFFFFF" stroke-width="2.9823" stroke-linecap="round" stroke-linejoin="round" d="M215.141,282.855
			c-1.336-1.398-2.665-2.801-4.013-4.299l-6.87,1.017l-121.475,18l-6.269,0.935c1.2,1.301,2.397,2.544,3.592,3.774
			c45.07,46.401,86.11,39.829,86.11,39.829l120.545-17.245C269.571,321.949,243.091,312.268,215.141,282.855z"/>
		<g>
			<path fill="#DFDBBB" d="M488.38,237.48l-2.738,0.405l-13.144,1.94l-118.752,17.595c46.023,49.777,89.143,43.681,89.587,43.606
				l136.282-18.051C576.692,283.385,533.835,288.258,488.38,237.48z"/>
			<path fill="#FFFFFF" d="M441.256,302.712c-10.626,0.604-48.424-0.813-88.601-44.274c-0.38-0.404-0.496-0.988-0.314-1.508
				c0.185-0.521,0.645-0.899,1.191-0.979l134.63-19.944c0.488-0.056,0.997,0.104,1.325,0.479
				c39.68,44.322,77.078,45.82,87.593,45.228c1.076-0.06,1.822-0.144,2.198-0.19l0.14-0.018c0.791-0.115,1.563,0.462,1.672,1.276
				c0.114,0.815-0.457,1.567-1.271,1.677l-0.002-0.01c0,0-0.003,0-0.011,0v0.013v-0.013c-0.044,0.017-0.094,0.025-0.139,0.029
				l-136.144,18.029C443.511,302.507,442.709,302.629,441.256,302.712L441.256,302.712z M356.787,258.48
				c38.557,40.481,74.175,41.824,84.299,41.25c1.23-0.068,1.919-0.16,2.016-0.178l119.063-15.767
				c-17.429-2.757-45.354-12.572-74.36-44.713L356.787,258.48L356.787,258.48z"/>
		</g>
		<path fill="#DFDBBB" stroke="#FFFFFF" stroke-width="2.9823" stroke-linecap="round" stroke-linejoin="round" d="M351.453,261.339
			c-0.972-1.05-1.938-2.043-2.916-3.135l-8.658,1.28l-122.593,18.164l-0.323,0.785c45.945,49.099,89.033,43.681,89.033,43.681
			l119.983-17.159C408.63,302.365,380.786,292.809,351.453,261.339z"/>
	</g>
</g>
</svg>
