<?xml version="1.0" encoding="utf-8"?>
<!-- Generator: Adobe Illustrator 14.0.0, SVG Export Plug-In . SVG Version: 6.00 Build 43363)  -->
<!DOCTYPE svg PUBLIC "-//W3C//DTD SVG 1.1//EN" "http://www.w3.org/Graphics/SVG/1.1/DTD/svg11.dtd">
<svg version="1.1" id="Layer_1" xmlns="http://www.w3.org/2000/svg" xmlns:xlink="http://www.w3.org/1999/xlink" x="0px" y="0px"
	 width="411.024px" height="444px" viewBox="0 82.138 411.024 444" enable-background="new 0 82.138 411.024 444"
	 xml:space="preserve">
<g>
	<g>
		<polygon fill="#DFDBBB" points="126.163,520.869 108.009,518.449 112.367,242.301 122.585,242.301 		"/>
		<polygon fill="#DFDBBB" points="123.396,233.786 139.21,242.544 137.993,250.816 115.384,250.383 		"/>
		<path fill="#DFDBBB" d="M123.396,233.786c0,0-7.783-3.891-11.189-2.675c-3.407,1.216-4.866,3.162-5.108,6.325
			c-0.224,2.92,1.458,6.568,7.54,7.785c6.083,1.216,7.786,0.729,7.786,0.729L123.396,233.786z"/>
		<g>
			<path fill="#DFDBBB" d="M117.689,231.071c0,0,142.496-22.663,145.329-20.85c2.834,1.814-69.713,16.324-78.496,19.913
				c-8.783,3.588-16.789,5.889-22.981,6.388c-6.194,0.499-36.906,2.738-36.906,2.738L117.689,231.071z"/>
			<path fill="#DFDBBB" d="M114.76,232.61c0,0-20.752-22.591-24.101-24.923c-3.35-2.332-77.018-49.494-80.885-50.795
				c-3.866-1.301,46.092,35.476,62.311,49.196c16.218,13.72,40.428,30.3,40.428,30.3L114.76,232.61z"/>
			<path fill="#DFDBBB" d="M120.926,242.26c-0.685-1.378-7.041-4.319-7.907-1.741c-0.867,2.579-1.914,7.046-3.469,9.966
				c-1.556,2.92-6.396,10.819-7.442,16.666c-1.048,5.846-17.471,98.692-17.306,101.274c0.165,2.58,3.427,4.48,4.478-2.053
				S120.926,242.26,120.926,242.26z"/>
		</g>
	</g>
	<g>
		<polygon fill="#DFDBBB" points="239.081,520.869 216.897,517.912 222.223,191.774 234.708,191.774 		"/>
		<polygon fill="#DFDBBB" points="235.701,181.37 255.024,192.072 253.537,202.18 225.909,201.651 		"/>
		<path fill="#DFDBBB" d="M235.701,181.37c0,0-9.512-4.755-13.675-3.27c-4.162,1.485-5.945,3.864-6.242,7.729
			c-0.273,3.569,1.781,8.026,9.214,9.513c7.434,1.487,9.515,0.892,9.515,0.892L235.701,181.37z"/>
		<g>
			<path fill="#DFDBBB" d="M228.726,178.052c0,0,174.125-27.694,177.589-25.478c3.463,2.217-85.188,19.948-95.921,24.333
				c-10.731,4.385-20.516,7.196-28.084,7.806c-7.568,0.609-45.099,3.345-45.099,3.345L228.726,178.052z"/>
			<path fill="#DFDBBB" d="M225.147,179.933c0,0-25.358-27.606-29.451-30.455c-4.092-2.849-94.111-60.48-98.838-62.07
				c-4.726-1.589,56.322,43.351,76.142,60.116c19.817,16.766,49.401,37.026,49.401,37.026L225.147,179.933z"/>
			<path fill="#DFDBBB" d="M232.682,191.725c-0.837-1.685-8.604-5.278-9.662-2.127c-1.06,3.151-2.339,8.61-4.238,12.178
				c-1.901,3.569-7.814,13.22-9.096,20.365c-1.279,7.144-21.348,120.601-21.146,123.755c0.202,3.152,4.188,5.475,5.472-2.51
				C195.293,335.404,232.682,191.725,232.682,191.725z"/>
		</g>
	</g>
</g>
</svg>
