<?xml version="1.0" encoding="utf-8"?>
<!-- Generator: Adobe Illustrator 14.0.0, SVG Export Plug-In . SVG Version: 6.00 Build 43363)  -->
<!DOCTYPE svg PUBLIC "-//W3C//DTD SVG 1.1//EN" "http://www.w3.org/Graphics/SVG/1.1/DTD/svg11.dtd">
<svg version="1.1" id="Layer_1" xmlns="http://www.w3.org/2000/svg" xmlns:xlink="http://www.w3.org/1999/xlink" x="0px" y="0px"
	 width="411.024px" height="595.276px" viewBox="0 0 411.024 595.276" enable-background="new 0 0 411.024 595.276"
	 xml:space="preserve">
<g>
	<polygon fill="#DFDBBB" points="189.595,582.524 161.18,578.734 168.003,146.493 183.995,146.493 	"/>
	<polygon fill="#DFDBBB" points="185.265,133.165 210.018,146.874 208.114,159.821 172.723,159.144 	"/>
	<path fill="#DFDBBB" d="M185.265,133.165c0,0-12.181-6.091-17.515-4.188c-5.333,1.904-7.616,4.95-7.996,9.9
		c-0.35,4.572,2.282,10.282,11.802,12.186c9.52,1.904,12.188,1.143,12.188,1.143L185.265,133.165z"/>
	<g>
		<path fill="#DFDBBB" d="M176.332,128.914c0,0,223.042-35.473,227.478-32.634c4.435,2.839-109.12,25.551-122.867,31.168
			c-13.747,5.617-26.277,9.217-35.974,9.999c-9.696,0.781-57.768,4.286-57.768,4.286L176.332,128.914z"/>
		<path fill="#DFDBBB" d="M171.746,131.324c0,0-32.482-35.362-37.722-39.011C128.782,88.664,13.471,14.841,7.419,12.805
			C1.365,10.77,79.564,68.336,104.95,89.811c25.385,21.475,63.28,47.427,63.28,47.427L171.746,131.324z"/>
		<path fill="#DFDBBB" d="M181.398,146.428c-1.07-2.158-11.02-6.761-12.377-2.724c-1.355,4.037-2.993,11.029-5.429,15.6
			c-2.435,4.571-10.011,16.934-11.649,26.086c-1.639,9.151-27.346,154.482-27.088,158.523c0.258,4.039,5.363,7.013,7.008-3.214
			C133.508,330.473,181.398,146.428,181.398,146.428z"/>
	</g>
</g>
</svg>
